<svg id="Layer_1" data-name="Layer 1" xmlns="http://www.w3.org/2000/svg" viewBox="0 0 336.85 383.87"><defs><style>.cls-1{fill:#dc585d;}.cls-2{fill:#dd595e;}</style></defs><path class="cls-1" d="M278.76,383.87H58.31c-.23-.26-.41-.68-.69-.76-8.77-2.33-15.6-7.54-21.86-13.93a45,45,0,0,1-13.25-32.32q-.26-114.5-.09-229c0-5.79,0-5.8,5.93-5.8H308.72c5.92,0,5.93,0,5.93,5.8q0,108.12,0,216.25c0,6.32.23,12.63-.61,19-2.09,15.83-11.07,26.85-23.84,35.26C286.67,380.68,282.58,382.07,278.76,383.87ZM152.15,243.67V170.23c0-8.86,0-17.73,0-26.6,0-4.71-2.07-7.65-6.09-9.15s-9.23-.32-11.87,2.88c-2.37,2.85-2.46,6.37-2.46,9.82q0,96.48,0,193a9.94,9.94,0,0,0,0,2.25c.9,3.91,1.2,8.18,5.8,10,7.17,2.81,14.84-1.18,14.75-10.16C152,309.36,152.15,276.52,152.15,243.67Zm52.48.09V185.31c0-13.86,0-27.72,0-41.58,0-4.84-2.27-8.09-6.31-9.42s-9.36,0-11.83,3.26c-2.09,2.79-2.29,6.18-2.29,9.51q0,96.67,0,193.33a9,9,0,0,0,0,1.87c.89,3.92,1.16,8.2,5.72,10.05,7.2,2.9,14.92-1.12,14.83-10C204.45,309.46,204.63,276.61,204.63,243.76Zm-104.22-.09q0-38.41,0-76.83c0-3.32-.56-6.57-3.49-8.56-6.79-4.61-14.22-1.61-16.44,6.3A15.4,15.4,0,0,0,80,169q0,33.16,0,66.33v83.58c0,4,1,7.91,4.33,10.12s7.28,2.77,11.2.39c3.57-2.17,5-5.22,5-9.26Q100.37,281.9,100.41,243.67Zm136.25-.12q0,38.24,0,76.46a9.76,9.76,0,0,0,.42,4c2.05,5,6.52,7.61,11.53,6.67s8.47-5.23,8.47-11q.06-76.08,0-152.16a11.63,11.63,0,0,0-2.33-7.61,11.06,11.06,0,0,0-11.87-3.08c-4.13,1.44-6.21,4.5-6.21,9.47Q236.64,204.95,236.66,243.55Z"/><path class="cls-2" d="M221,0c3.83,2.33,7.93,4.1,11.39,7.19,7.16,6.39,11.43,14,11.71,23.64.21,7,0,14,.06,21,0,6.08-.84,5.24,5.44,5.25,24.86,0,49.73,0,74.59,0A12.53,12.53,0,0,1,336.35,73c-1.09,3.65-6.55,8.74-11.34,8.74q-156.48-.19-312.95-.11c-6,0-12.38-6.19-12-12.21.35-6.29,5.63-12.31,12.48-12.31q36.73,0,73.46,0c7,0,7,0,7-7.15,0-5.62.23-11.25,0-16.86C92.17,18.62,102.29,5.74,115,.86c.49-.19.93-.29,1-.86ZM168.4,57.08c16,0,32,0,47.94.06,2.63,0,3.41-.74,3.34-3.36-.16-7,0-14-.07-21-.05-6.11-3-8.92-9.17-8.92q-42,0-83.9,0c-6.12,0-9,2.86-9.09,9,0,6.87.16,13.74-.08,20.6-.12,3.11,1,3.66,3.83,3.64C136.93,57,152.67,57.09,168.4,57.08Z"/></svg>