<svg xmlns="http://www.w3.org/2000/svg" xmlns:xlink="http://www.w3.org/1999/xlink" viewBox="0 0 127.05 127.05"><defs><style>.cls-1{fill:#1a171b;}.cls-2{fill:#f8f5f6;}.cls-3{fill:#36363a;}.cls-4{fill:url(#linear-gradient);}.cls-5{fill:#262326;}.cls-6{fill:#e3dedd;}.cls-7{fill:#f8f7f7;}.cls-8{fill:url(#linear-gradient-2);}.cls-9{fill:url(#linear-gradient-3);}.cls-10{fill:url(#linear-gradient-4);}.cls-11{fill:url(#linear-gradient-5);}.cls-12{fill:url(#linear-gradient-6);}.cls-13{fill:url(#linear-gradient-7);}.cls-14{fill:url(#linear-gradient-8);}.cls-15{fill:url(#linear-gradient-9);}.cls-16{fill:url(#linear-gradient-10);}.cls-17{fill:url(#linear-gradient-11);}.cls-18{fill:url(#linear-gradient-12);}.cls-19{fill:url(#linear-gradient-13);}.cls-20{fill:url(#linear-gradient-14);}.cls-21{fill:url(#linear-gradient-15);}.cls-22{fill:url(#linear-gradient-16);}.cls-23{fill:url(#linear-gradient-17);}.cls-24{fill:url(#linear-gradient-18);}.cls-25{fill:url(#linear-gradient-19);}</style><linearGradient id="linear-gradient" x1="-504.55" y1="392.82" x2="-503.55" y2="392.82" gradientTransform="matrix(-90.76, 0, 0, 90.76, -45684.4, -35589.74)" gradientUnits="userSpaceOnUse"><stop offset="0" stop-color="#727375"/><stop offset="0.4" stop-color="#49484b"/><stop offset="0.79" stop-color="#272528"/><stop offset="1" stop-color="#1a171b"/></linearGradient><linearGradient id="linear-gradient-2" x1="-508.01" y1="397.4" x2="-507.01" y2="397.4" gradientTransform="matrix(3.75, -1.11, -1.11, -3.75, 2344.27, 1006.4)" gradientUnits="userSpaceOnUse"><stop offset="0" stop-color="#8d8e90"/><stop offset="0.08" stop-color="#9b9c9d"/><stop offset="0.37" stop-color="#c6c6c7"/><stop offset="0.63" stop-color="#e5e5e6"/><stop offset="0.85" stop-color="#f8f8f8"/><stop offset="1" stop-color="#fff"/></linearGradient><linearGradient id="linear-gradient-3" x1="-501.94" y1="393.36" x2="-500.94" y2="393.36" gradientTransform="matrix(-5.39, -5.39, -5.39, 5.39, -471.96, -4716.72)" xlink:href="#linear-gradient-2"/><linearGradient id="linear-gradient-4" x1="-503.25" y1="398.18" x2="-502.25" y2="398.18" gradientTransform="matrix(1.43, -3.71, -3.71, -1.43, 2235.27, -1170.63)" xlink:href="#linear-gradient-2"/><linearGradient id="linear-gradient-5" x1="-502.74" y1="390.59" x2="-501.74" y2="390.59" gradientTransform="matrix(-6.76, 1.56, 1.56, 6.76, -3878.74, -1810.2)" xlink:href="#linear-gradient-2"/><linearGradient id="linear-gradient-6" x1="-505.52" y1="389.95" x2="-504.52" y2="389.95" gradientTransform="matrix(-2.64, 6.38, 6.38, 2.64, -3732.53, 2198.08)" xlink:href="#linear-gradient-2"/><linearGradient id="linear-gradient-7" x1="-501.98" y1="391.7" x2="-500.98" y2="391.7" gradientTransform="matrix(-6.93, -1.53, -1.53, 6.93, -2878.35, -3431.98)" gradientUnits="userSpaceOnUse"><stop offset="0" stop-color="#fff"/><stop offset="0.11" stop-color="#fdfdfd"/><stop offset="1" stop-color="#f0f0f0"/></linearGradient><linearGradient id="linear-gradient-8" x1="-501.98" y1="391.7" x2="-500.98" y2="391.7" gradientTransform="matrix(-6.93, -1.53, -1.53, 6.93, -2878.35, -3431.98)" gradientUnits="userSpaceOnUse"><stop offset="0" stop-color="#545457"/><stop offset="0.11" stop-color="#525255"/><stop offset="1" stop-color="#454548"/></linearGradient><linearGradient id="linear-gradient-9" x1="-506.06" y1="395.35" x2="-505.06" y2="395.35" gradientTransform="matrix(7.21, -3.19, -3.19, -7.21, 4925.32, 1343.61)" xlink:href="#linear-gradient-7"/><linearGradient id="linear-gradient-10" x1="-506.06" y1="397.62" x2="-505.06" y2="397.62" gradientTransform="matrix(7.21, -3.19, -3.19, -7.21, 4925.32, 1343.61)" gradientUnits="userSpaceOnUse"><stop offset="0" stop-color="#f9f6f7"/><stop offset="0.11" stop-color="#f7f4f5"/><stop offset="1" stop-color="#eae7e8"/></linearGradient><linearGradient id="linear-gradient-11" x1="-506.06" y1="395.35" x2="-505.06" y2="395.35" gradientTransform="matrix(7.21, -3.19, -3.19, -7.21, 4925.32, 1343.61)" xlink:href="#linear-gradient-8"/><linearGradient id="linear-gradient-12" x1="-505.06" y1="393.21" x2="-504.06" y2="393.21" gradientTransform="matrix(53.04, 0, 0, -53.04, 26838.79, 20975.99)" gradientUnits="userSpaceOnUse"><stop offset="0" stop-color="#1a171b"/><stop offset="1" stop-color="#1a171b"/></linearGradient><linearGradient id="linear-gradient-13" x1="-502.77" y1="393.48" x2="-501.77" y2="393.48" gradientTransform="matrix(-6.52, -8.32, -8.32, 6.52, 121.48, -6668.4)" gradientUnits="userSpaceOnUse"><stop offset="0" stop-color="#1a171b"/><stop offset="0.32" stop-color="#1d1a1e"/><stop offset="0.54" stop-color="#252326"/><stop offset="0.72" stop-color="#333235"/><stop offset="0.88" stop-color="#474749"/><stop offset="1" stop-color="#5a5b5d"/></linearGradient><linearGradient id="linear-gradient-14" x1="-502.91" y1="390.55" x2="-501.91" y2="390.55" gradientTransform="matrix(-6.84, 1.94, 1.94, 6.84, -4086.66, -1674.73)" gradientUnits="userSpaceOnUse"><stop offset="0" stop-color="#474749"/><stop offset="0.51" stop-color="#535355"/><stop offset="1" stop-color="#58585a"/></linearGradient><linearGradient id="linear-gradient-15" x1="-500.34" y1="396.21" x2="-499.34" y2="396.21" gradientTransform="matrix(-1.13, -3.77, -3.77, 1.13, 979.26, -2331.81)" xlink:href="#linear-gradient-7"/><linearGradient id="linear-gradient-16" x1="-500.33" y1="389.36" x2="-499.33" y2="389.36" gradientTransform="matrix(-1.13, -3.77, -3.77, 1.13, 979.26, -2331.81)" xlink:href="#linear-gradient-10"/><linearGradient id="linear-gradient-17" x1="-500.33" y1="396.21" x2="-499.33" y2="396.21" gradientTransform="matrix(-1.13, -3.77, -3.77, 1.13, 979.26, -2331.81)" xlink:href="#linear-gradient-8"/><linearGradient id="linear-gradient-18" x1="-507.27" y1="392.71" x2="-506.27" y2="392.71" gradientTransform="matrix(6.21, 5.75, 5.75, -6.21, 902.93, 5371.22)" xlink:href="#linear-gradient-2"/><linearGradient id="linear-gradient-19" x1="-505" y1="392.92" x2="-504" y2="392.92" gradientTransform="matrix(58, 58, 58, -58, 6534.52, 52110.94)" xlink:href="#linear-gradient"/></defs><g id="Layer_2" data-name="Layer 2"><g id="Layer_3" data-name="Layer 3"><path class="cls-1" d="M19.48,64.17a44.57,44.57,0,1,1,44.57,44.57A44.57,44.57,0,0,1,19.48,64.17Z"/><path class="cls-2" d="M16.34,83.72a50.48,50.48,0,0,1-3-9.61c-.29-1.38-.52-2.78-.7-4.2L.49,71.43c.22,1.75.51,3.49.86,5.19A64,64,0,0,0,5.11,88.53c.3.7.63,1.39.95,2.08l11-5.2c-.26-.56-.52-1.12-.76-1.69Z"/><path class="cls-2" d="M116.66,98.36l-10.21-6.7a50.13,50.13,0,0,1-10.87,11.93l7.63,9.53a66.4,66.4,0,0,0,5.24-4.67A64.3,64.3,0,0,0,116.66,98.36Z"/><path class="cls-2" d="M44.44,111.18a50.85,50.85,0,0,1-6.75-3.31l-6.15,10.55a63,63,0,0,0,18.63,7.22l2.57-11.94a52.43,52.43,0,0,1-8.3-2.52Z"/><path class="cls-2" d="M110.72,43.33a51,51,0,0,1,3,9.62c.29,1.38.52,2.78.7,4.19l12.11-1.52c-.22-1.75-.5-3.48-.86-5.19a62.21,62.21,0,0,0-3.76-11.9c-.3-.71-.62-1.4-1-2.09l-11,5.21C110.21,42.21,110.48,42.76,110.72,43.33Z"/><path class="cls-2" d="M82.62,15.88a50.18,50.18,0,0,1,6.75,3.3L95.51,8.63a64.55,64.55,0,0,0-8.35-4.09A62.54,62.54,0,0,0,76.89,1.42L74.32,13.36a50.72,50.72,0,0,1,8.3,2.52Z"/><path class="cls-3" d="M126.52,55.63l-12.11,1.52h0c-.17-1.41-.4-2.81-.69-4.19a50.25,50.25,0,0,0-3-9.61c-.24-.57-.5-1.13-.76-1.69h0l11-5.2a64.37,64.37,0,0,0-4.62-8.18A63.5,63.5,0,0,0,98.2,10.35c-.89-.58-1.79-1.14-2.71-1.68L89.35,19.21h0a52.69,52.69,0,0,0-6.75-3.3,51.3,51.3,0,0,0-8.29-2.52L76.88,1.46l-.94-.2A64.16,64.16,0,0,0,63.53.05,63.07,63.07,0,0,0,28.28,10.73c-1.52,1-3,2.1-4.41,3.24l7.62,9.52a56.06,56.06,0,0,0-4.23,3.77,52,52,0,0,0-6.69,8.25l.07-.1-10.2-6.69-.09.13A63.48,63.48,0,0,0,1.26,51.11,64.12,64.12,0,0,0,.54,71.42l12.1-1.51v0c.18,1.42.41,2.83.7,4.21a51.17,51.17,0,0,0,3,9.61c.24.57.51,1.12.77,1.68l-11,5.2A63.63,63.63,0,0,0,28.85,116.7c.89.59,1.8,1.14,2.72,1.68l6.14-10.54h0a51,51,0,0,0,15.79,6l-.76-.17-2.56,11.93.93.2a63.7,63.7,0,0,0,25.5-.14,62.9,62.9,0,0,0,11.9-3.75,64.25,64.25,0,0,0,10.26-5.57c1.52-1,3-2.11,4.41-3.25l-7.62-9.52a50.38,50.38,0,0,0,4.23-3.77,51.45,51.45,0,0,0,6.63-8.15l10.2,6.69.08-.13A63.31,63.31,0,0,0,127,63.53a64.32,64.32,0,0,0-.49-7.9Zm-17.3-15.37-.27-.53.27.53Zm-1.91-3.44c-.37-.59-.74-1.19-1.13-1.77.39.58.77,1.17,1.13,1.77Zm1,1.74c-.16-.29-.33-.58-.5-.87.17.29.34.58.5.87ZM35.05,20.87c-.62.42-1.22.85-1.82,1.29.59-.44,1.2-.87,1.82-1.29ZM12.46,68.19l0,.24,0-.24ZM12.27,65c0,.13,0,.25,0,.38,0-.13,0-.25,0-.38Zm.07,1.55c0,.12,0,.24,0,.36,0-.12,0-.24,0-.36Zm5.49,20.2.27.53-.27-.53Zm1.91,3.44c.37.6.74,1.19,1.13,1.77-.39-.58-.76-1.17-1.13-1.77Zm-1-1.74.51.88-.51-.88ZM92,106.18c.62-.41,1.23-.85,1.83-1.29q-.9.67-1.83,1.29Zm8.85-18.31A45,45,0,0,1,95,95a45.66,45.66,0,0,1-6.77,5.55A44.6,44.6,0,0,1,32,95a45.11,45.11,0,0,1-5.56-6.77A44.14,44.14,0,0,1,19.9,72.72a44.44,44.44,0,0,1,6.3-33.53A44.9,44.9,0,0,1,38.78,26.46,44.82,44.82,0,0,1,46,22.54a44.36,44.36,0,0,1,8.35-2.64,44.5,44.5,0,0,1,17.9-.1,44,44,0,0,1,7.86,2.35A44.76,44.76,0,0,1,104.51,46a44.5,44.5,0,0,1-3.66,41.88Zm13.73-29.24v0Zm.11,1.49,0,.33,0-.33Zm.08,1.52c0,.12,0,.25,0,.37,0-.12,0-.25,0-.37Z"/><path class="cls-2" d="M27.24,27.24a50.69,50.69,0,0,1,4.23-3.78l-7.62-9.52a61.08,61.08,0,0,0-5.24,4.67A63.29,63.29,0,0,0,10.4,28.7l10.21,6.69a51.45,51.45,0,0,1,6.63-8.15Z"/><path class="cls-4" d="M47.11,25.17a42.08,42.08,0,0,1,16.42-3.36,42.33,42.33,0,0,1,15.51,3,41.69,41.69,0,0,1,19.2,15.57,40.8,40.8,0,0,1,3.64,6.75,41.84,41.84,0,0,1,2.56,24.57A41.43,41.43,0,0,1,102.26,79a40.61,40.61,0,0,1-3.78,7.28A42,42,0,0,1,93,93a43,43,0,0,1-6.34,5.2,40.89,40.89,0,0,1-6.76,3.64,42.08,42.08,0,0,1-16.41,3.36,42.19,42.19,0,0,1-8.16-.8A41.67,41.67,0,0,1,48,102.26a40.61,40.61,0,0,1-7.28-3.78A41.81,41.81,0,0,1,21.81,63.53,41.6,41.6,0,0,1,34,34a40.84,40.84,0,0,1,6.34-5.2A41.62,41.62,0,0,1,47.11,25.17Zm54.45,63.16a44.81,44.81,0,0,0,4.11-7.92,45.41,45.41,0,0,0-60-58.61,45.31,45.31,0,0,0-14.25,9.62,45.35,45.35,0,0,0-5.92,7.31,44.72,44.72,0,0,0-4.11,7.91,45.55,45.55,0,0,0,.41,34.75,44.21,44.21,0,0,0,4,7.34,45.2,45.2,0,0,0,13,12.83,44.72,44.72,0,0,0,7.91,4.11,45.64,45.64,0,0,0,8,2.37,45.78,45.78,0,0,0,26.74-2.78,45.44,45.44,0,0,0,20.17-16.93Z"/><path class="cls-5" d="M97.62,40.77l3-2A44.69,44.69,0,0,0,95.06,32l-2.55,2.55A41.33,41.33,0,0,1,97.62,40.77Z"/><path class="cls-6" d="M101.23,47.39,104.54,46a44,44,0,0,0-3.92-7.21l-3,2A40.75,40.75,0,0,1,101.23,47.39Z"/><path class="cls-5" d="M103.66,55.08l3.53-.75A44.38,44.38,0,0,0,104.54,46l-3.31,1.41A40.74,40.74,0,0,1,103.66,55.08Z"/><path class="cls-6" d="M92.51,92.51l2.55,2.55a44.69,44.69,0,0,0,5.82-7.18l-3-2A41.51,41.51,0,0,1,92.51,92.51Z"/><path class="cls-6" d="M25.47,48.28l-3.35-1.34a44.29,44.29,0,0,0-2.35,7.86l3.54.71A40.78,40.78,0,0,1,25.47,48.28Z"/><path class="cls-5" d="M23.4,72l-3.53.74a44.46,44.46,0,0,0,2.64,8.36l3.32-1.42A40.87,40.87,0,0,1,23.4,72Z"/><path class="cls-5" d="M23.31,55.51l-3.54-.71a44.87,44.87,0,0,0-.86,8.73h3.61A40.7,40.7,0,0,1,23.31,55.51Z"/><path class="cls-6" d="M22.52,63.53H18.91a44.22,44.22,0,0,0,1,9.19L23.4,72A40.65,40.65,0,0,1,22.52,63.53Z"/><path class="cls-6" d="M25.83,79.66l-3.32,1.42a45.61,45.61,0,0,0,3.92,7.21l3-2A41.58,41.58,0,0,1,25.83,79.66Z"/><path class="cls-6" d="M34.54,92.51,32,95.06a44.69,44.69,0,0,0,7.18,5.82l2-3A41,41,0,0,1,34.54,92.51Z"/><path class="cls-5" d="M29.43,86.29l-3,2A46.36,46.36,0,0,0,32,95.06l2.55-2.55A41.25,41.25,0,0,1,29.43,86.29Z"/><path class="cls-5" d="M41.14,97.86l-2,3a45.12,45.12,0,0,0,7.77,4.05l1.34-3.34A40.7,40.7,0,0,1,41.14,97.86Z"/><path class="cls-5" d="M29.19,41.14l-3-2a45.12,45.12,0,0,0-4.05,7.77l3.35,1.34A41.34,41.34,0,0,1,29.19,41.14Z"/><path class="cls-6" d="M63.53,22.52V18.91a44.32,44.32,0,0,0-9.2,1l.74,3.53A40.67,40.67,0,0,1,63.53,22.52Z"/><path class="cls-6" d="M47.39,25.83,46,22.51a45.08,45.08,0,0,0-7.2,3.92l2,3A41.48,41.48,0,0,1,47.39,25.83Z"/><path class="cls-5" d="M55.07,23.4l-.74-3.53A44.69,44.69,0,0,0,46,22.51l1.42,3.32A40.87,40.87,0,0,1,55.07,23.4Z"/><path class="cls-6" d="M34.54,34.54,32,32a45.24,45.24,0,0,0-5.82,7.18l3,2A41.51,41.51,0,0,1,34.54,34.54Z"/><path class="cls-5" d="M40.77,29.43l-2-3A45.92,45.92,0,0,0,32,32l2.55,2.55A41.33,41.33,0,0,1,40.77,29.43Z"/><path class="cls-6" d="M103.66,55.08a41.19,41.19,0,0,1,.88,8.45h3.6a44.93,44.93,0,0,0-1-9.2Z"/><path class="cls-5" d="M103.75,71.55l3.53.7a44.77,44.77,0,0,0,.86-8.72h-3.6A41.62,41.62,0,0,1,103.75,71.55Z"/><path class="cls-6" d="M92.51,34.54,95.06,32a45.24,45.24,0,0,0-7.18-5.82l-2,3A41.89,41.89,0,0,1,92.51,34.54Z"/><path class="cls-6" d="M101.59,78.77l3.34,1.34a43.24,43.24,0,0,0,2.35-7.86l-3.53-.7A40.93,40.93,0,0,1,101.59,78.77Z"/><path class="cls-6" d="M48.28,101.59l-1.34,3.34a43.47,43.47,0,0,0,7.86,2.35l.71-3.54A40.18,40.18,0,0,1,48.28,101.59Z"/><path class="cls-5" d="M85.92,29.19l2-3a44.4,44.4,0,0,0-7.77-4.05l-1.34,3.35A41.08,41.08,0,0,1,85.92,29.19Z"/><path class="cls-6" d="M78.77,25.47l1.34-3.35a44,44,0,0,0-7.86-2.35l-.7,3.54A40.93,40.93,0,0,1,78.77,25.47Z"/><path class="cls-5" d="M97.86,85.91l3,2a44.4,44.4,0,0,0,4.05-7.77l-3.34-1.34A40,40,0,0,1,97.86,85.91Z"/><path class="cls-6" d="M63.53,104.54v3.6a44.91,44.91,0,0,0,9.19-1L72,103.66A41.34,41.34,0,0,1,63.53,104.54Z"/><path class="cls-5" d="M71.55,23.31l.7-3.54a44.77,44.77,0,0,0-8.72-.86v3.61A40.85,40.85,0,0,1,71.55,23.31Z"/><path class="cls-5" d="M55.51,103.74l-.71,3.54a44.87,44.87,0,0,0,8.73.86v-3.6A40.7,40.7,0,0,1,55.51,103.74Z"/><path class="cls-5" d="M72,103.66l.74,3.53a44.48,44.48,0,0,0,8.36-2.65l-1.42-3.31A40.87,40.87,0,0,1,72,103.66Z"/><path class="cls-6" d="M79.66,101.23l1.42,3.31a44.82,44.82,0,0,0,7.21-3.92l-2-3A40.85,40.85,0,0,1,79.66,101.23Z"/><path class="cls-5" d="M86.29,97.62l2,3a45.11,45.11,0,0,0,6.77-5.56l-2.55-2.55A41.25,41.25,0,0,1,86.29,97.62Z"/><path class="cls-5" d="M12.85,71.61l.06.41Z"/><path class="cls-5" d="M99.82,99.82a52.09,52.09,0,0,0,6.63-8.16A52.09,52.09,0,0,1,99.82,99.82Z"/><path class="cls-5" d="M48.54,112.62c1.38.41,2.77.77,4.19,1.07C51.31,113.39,49.92,113,48.54,112.62Z"/><path class="cls-5" d="M46.5,112l1.68.55Z"/><path class="cls-5" d="M114.14,55l0,.2Z"/><path class="cls-7" d="M23.72,31.14a50.94,50.94,0,0,0-3.1,4.23C21.58,33.91,22.62,32.5,23.72,31.14Z"/><path class="cls-7" d="M25.42,29.15c-.54.6-1.06,1.21-1.57,1.83C24.36,30.36,24.88,29.75,25.42,29.15Z"/><path class="cls-8" d="M1.41,71.31l-.87.11H.49c.22,1.75.51,3.49.86,5.19A64,64,0,0,0,5.11,88.53c.3.7.63,1.39.95,2.08h0l.84-.39c-.32-.68-.64-1.37-.94-2.06a61.83,61.83,0,0,1-3.7-11.73c-.35-1.68-.64-3.39-.85-5.12Z"/><path class="cls-9" d="M107.79,107.79a64.53,64.53,0,0,1-5.16,4.61l.58.72a66.4,66.4,0,0,0,5.24-4.67,64.3,64.3,0,0,0,8.21-10.09l-.78-.51A61.88,61.88,0,0,1,107.79,107.79Z"/><path class="cls-10" d="M32,117.62l-.47.8h0a63,63,0,0,0,18.63,7.22v0l0-.09.16-.77A61.8,61.8,0,0,1,32,117.62Z"/><path class="cls-11" d="M121.09,38.89a62.06,62.06,0,0,1,3.7,11.73c.36,1.68.64,3.39.85,5.12l.92-.12c-.22-1.75-.5-3.48-.86-5.19a62.21,62.21,0,0,0-3.76-11.9c-.3-.71-.62-1.4-1-2.09l-.83.4C120.48,37.52,120.8,38.2,121.09,38.89Z"/><path class="cls-12" d="M76.89,1.42h0l0,.23-.15.67A62.39,62.39,0,0,1,86.81,5.4a63.48,63.48,0,0,1,8.24,4h0l.43-.74,0-.06a64.55,64.55,0,0,0-8.35-4.09A62.54,62.54,0,0,0,76.89,1.42Z"/><path class="cls-13" d="M10.4,28.7l-.09.13A63.36,63.36,0,0,0,0,63.53a64.45,64.45,0,0,0,.49,7.9H.54a64.12,64.12,0,0,1,.72-20.31,63.48,63.48,0,0,1,9.09-22.26l.09-.13,0,0Z"/><path class="cls-14" d="M10.44,28.72l-.09.13A63.48,63.48,0,0,0,1.26,51.11,64.12,64.12,0,0,0,.54,71.42l.87-.11a62.5,62.5,0,0,1-.49-7.78A62.52,62.52,0,0,1,5.4,40.24a62.09,62.09,0,0,1,5.69-10.91l.08-.13-.73-.48Z"/><path class="cls-15" d="M6.1,90.59l0,0a63.54,63.54,0,0,0,22.77,26.13c.89.58,1.79,1.14,2.71,1.68l.47-.8h0l-.44.76c-.92-.54-1.83-1.09-2.72-1.68A63.63,63.63,0,0,1,6.1,90.59Z"/><path class="cls-16" d="M6.1,90.59l0,0h0l0,0Zm.8-.37h0l-.15.07.15-.07Z"/><path class="cls-17" d="M6.9,90.22l-.15.07-.65.3h0A63.63,63.63,0,0,0,28.85,116.7c.89.59,1.8,1.14,2.72,1.68l.44-.76c-.91-.53-1.8-1.08-2.68-1.65A62.91,62.91,0,0,1,11.46,98.29,62.16,62.16,0,0,1,6.9,90.22Z"/><path class="cls-18" d="M102.63,112.4q-2.1,1.68-4.34,3.2a63,63,0,0,1-10.13,5.49,62.64,62.64,0,0,1-24.63,5,63.27,63.27,0,0,1-12.24-1.2l-.93-.2-.19.91.93.2a64.44,64.44,0,0,0,12.43,1.21A63.31,63.31,0,0,0,98.8,116.37c1.52-1,3-2.11,4.41-3.25Z"/><path class="cls-19" d="M126.56,55.62l-.92.12h0a62.54,62.54,0,0,1,.49,7.79,63.27,63.27,0,0,1-1.2,12.24,62,62,0,0,1-3.28,11A62.72,62.72,0,0,1,116,97.72l-.09.13.78.51.08-.13A63.15,63.15,0,0,0,125.84,76a64.25,64.25,0,0,0,.72-20.33Z"/><path class="cls-20" d="M95.05,9.43q1.35.8,2.67,1.65A63,63,0,0,1,115.6,28.77a63.19,63.19,0,0,1,4.56,8.07l.83-.4a62.64,62.64,0,0,0-4.62-8.19,64.38,64.38,0,0,0-7.92-9.64,63.73,63.73,0,0,0-10.22-8.3c-.89-.58-1.8-1.14-2.72-1.68Z"/><path class="cls-21" d="M63.53,0A63.26,63.26,0,0,0,28.25,10.69c-1.52,1-3,2.11-4.4,3.25l0,0c1.43-1.14,2.89-2.23,4.41-3.24A63.61,63.61,0,0,1,38.55,5.15a63.31,63.31,0,0,1,25-5.1A64.16,64.16,0,0,1,75.94,1.26l.94.2v0L76,1.22A63.56,63.56,0,0,0,63.53,0Z"/><path class="cls-22" d="M76.84,1.65l-.15.67h0l.15-.67Zm0-.23v0h0v0Z"/><path class="cls-23" d="M63.53.05A63.07,63.07,0,0,0,28.28,10.73c-1.52,1-3,2.1-4.41,3.24l.55.69c1.41-1.13,2.85-2.2,4.35-3.2A63,63,0,0,1,38.89,6a62.06,62.06,0,0,1,11.73-3.7,62.94,62.94,0,0,1,25.15-.14l.92.2.15-.67,0-.19h0l-.94-.2A64.16,64.16,0,0,0,63.53.05Z"/><path class="cls-24" d="M19.26,19.26a62.52,62.52,0,0,1,5.16-4.6l-.57-.72a61.08,61.08,0,0,0-5.24,4.67A63.29,63.29,0,0,0,10.4,28.7l.77.5A63.43,63.43,0,0,1,19.26,19.26Z"/><path class="cls-7" d="M74.44,117.07A2.59,2.59,0,1,1,77,119.66,2.59,2.59,0,0,1,74.44,117.07Z"/><path class="cls-7" d="M48.18,10a2.59,2.59,0,1,1,2.59,2.59A2.59,2.59,0,0,1,48.18,10Z"/><path class="cls-7" d="M6.75,53.82a2.59,2.59,0,1,1,2.59,2.59A2.59,2.59,0,0,1,6.75,53.82Z"/><path class="cls-7" d="M21.18,101.72a2.59,2.59,0,1,1,2.59,2.59A2.59,2.59,0,0,1,21.18,101.72Z"/><path class="cls-7" d="M114.39,76.2A2.59,2.59,0,1,1,117,78.78,2.58,2.58,0,0,1,114.39,76.2Z"/><path class="cls-7" d="M101.62,26.82a2.59,2.59,0,1,1,2.59,2.59A2.59,2.59,0,0,1,101.62,26.82Z"/><path class="cls-25" d="M97.88,85.93a40.81,40.81,0,0,0,3.71-7.15,41.12,41.12,0,0,0-.37-31.38,41,41,0,0,0-3.58-6.64c-.33-.49-.68-1-1-1.46l-.33-.45-.8-1-.37-.45c-.35-.42-.7-.84-1.07-1.24L93.92,36c-.45-.49-.92-1-1.39-1.46s-1-1-1.55-1.47h0l-.14-.12c-.43-.39-.88-.76-1.33-1.13L89,31.42,88,30.59l-.47-.35c-.52-.37-1-.72-1.55-1.07A41.22,41.22,0,0,0,47.4,25.83a40.27,40.27,0,0,0-6.64,3.59A40.9,40.9,0,0,0,23.32,55.51a41.4,41.4,0,0,0,2.51,24.15,40.68,40.68,0,0,0,3.59,6.64c.33.49.67,1,1,1.46.1.15.22.29.33.44.26.34.52.68.8,1l.36.46c.35.42.71.83,1.07,1.24s1,1.08,1.52,1.61a41.13,41.13,0,0,0,6.6,5.35,40.46,40.46,0,0,0,7.15,3.71,41,41,0,0,0,7.23,2.14,41.16,41.16,0,0,0,24.15-2.51,40.89,40.89,0,0,0,12.87-8.69A41.57,41.57,0,0,0,97.88,85.93Zm-1-46.2-.21-.31Zm-.79-1.07c-.18-.25-.37-.49-.57-.73C95.75,38.17,95.94,38.41,96.12,38.66Zm-1.05-1.33c-.33-.4-.67-.79-1-1.18C94.4,36.54,94.74,36.93,95.07,37.33Zm-4.24-4.4c-.41-.37-.84-.73-1.27-1.08C90,32.2,90.42,32.56,90.83,32.93Zm-1.9-1.58-.78-.6Zm-1.59-1.2L87,29.93ZM30.14,87.32c.07.1.14.21.22.31C30.28,87.53,30.21,87.42,30.14,87.32Zm.79,1.07.57.74ZM32,89.72c.33.4.67.8,1,1.19C32.65,90.52,32.31,90.12,32,89.72Z"/><path class="cls-3" d="M102.8,55.26a39.92,39.92,0,0,0-5.91-14A40.12,40.12,0,0,0,85.44,29.93a39.92,39.92,0,0,0-14.07-5.76c-.57-.11-1.14-.21-1.72-.3l-.53-.08q-.63-.09-1.26-.15l-.57-.06c-.53,0-1.07-.09-1.6-.12l-.19,0c-.65,0-1.31-.05-2-.05s-1.4,0-2.09.06h-.17c-.57,0-1.14.08-1.71.14l-.6.06c-.44.05-.89.11-1.33.18l-.56.08c-.61.1-1.22.21-1.81.34a39,39,0,0,0-7.52,2.38,39.82,39.82,0,0,0-6.49,3.52,40.61,40.61,0,0,0-6.09,5,40.17,40.17,0,0,0-5.23,6.46,40,40,0,0,0-5.76,14.06,39.81,39.81,0,0,0,.09,16.12,38.87,38.87,0,0,0,2.38,7.51,39.82,39.82,0,0,0,3.52,6.49,40.25,40.25,0,0,0,18.45,15,39,39,0,0,0,7.07,2.11c.57.12,1.14.21,1.72.3l.54.08,1.26.16.57.06c.53,0,1.06.09,1.6.12q1.07.06,2.16.06a40.28,40.28,0,0,0,8.27-.86,40,40,0,0,0,14-5.91,40.61,40.61,0,0,0,6.09-5,41.16,41.16,0,0,0,5.24-6.45,40.66,40.66,0,0,0,3.64-7,39.34,39.34,0,0,0,2.11-7.08,39.78,39.78,0,0,0,.78-7.84A40.21,40.21,0,0,0,102.8,55.26ZM70.16,24l-.36-.06Zm-1.28-.2L68,23.65Zm-1.65-.19c-.51-.05-1-.08-1.52-.11C66.22,23.49,66.72,23.52,67.23,23.57Zm-8.39.11-1,.13ZM56.91,24l-.37.07Zm0,79.14.36.07Zm2.94.39c.5,0,1,.09,1.52.12C60.84,103.57,60.33,103.53,59.83,103.48Z"/></g></g></svg>