<svg xmlns="http://www.w3.org/2000/svg" xmlns:xlink="http://www.w3.org/1999/xlink" viewBox="0 0 127.05 127.05"><defs><style>.cls-1{fill:#e01e43;}.cls-2{fill:#f8f5f6;}.cls-3{fill:#ea7374;}.cls-4{fill:url(#linear-gradient);}.cls-5{fill:#ae132c;}.cls-6{fill:#e3dedd;}.cls-7{fill:#f8f7f7;}.cls-8{fill:url(#linear-gradient-2);}.cls-9{fill:url(#linear-gradient-3);}.cls-10{fill:url(#linear-gradient-4);}.cls-11{fill:url(#linear-gradient-5);}.cls-12{fill:url(#linear-gradient-6);}.cls-13{fill:url(#linear-gradient-7);}.cls-14{fill:url(#linear-gradient-8);}.cls-15{fill:url(#linear-gradient-9);}.cls-16{fill:url(#linear-gradient-10);}.cls-17{fill:url(#linear-gradient-11);}.cls-18{fill:url(#linear-gradient-12);}.cls-19{fill:url(#linear-gradient-13);}.cls-20{fill:url(#linear-gradient-14);}</style><linearGradient id="linear-gradient" x1="-315.37" y1="392.84" x2="-314.37" y2="392.84" gradientTransform="matrix(-64.21, -64.21, -64.21, 64.21, 5070.21, -45377.36)" gradientUnits="userSpaceOnUse"><stop offset="0" stop-color="#e76d74"/><stop offset="0.34" stop-color="#d85260"/><stop offset="1" stop-color="#b61331"/></linearGradient><linearGradient id="linear-gradient-2" x1="-313.81" y1="395.93" x2="-312.81" y2="395.93" gradientTransform="matrix(3.74, -1.11, -1.11, -3.74, 1614.87, 1216.07)" gradientUnits="userSpaceOnUse"><stop offset="0" stop-color="#8d8e90"/><stop offset="0.08" stop-color="#9b9c9d"/><stop offset="0.37" stop-color="#c6c6c7"/><stop offset="0.63" stop-color="#e5e5e6"/><stop offset="0.85" stop-color="#f8f8f8"/><stop offset="1" stop-color="#fff"/></linearGradient><linearGradient id="linear-gradient-3" x1="-314.51" y1="391.5" x2="-313.51" y2="391.5" gradientTransform="matrix(-5.39, -5.39, -5.39, 5.39, 528.45, -3698.08)" xlink:href="#linear-gradient-2"/><linearGradient id="linear-gradient-4" x1="-312.15" y1="393.49" x2="-311.15" y2="393.49" gradientTransform="matrix(1.43, -3.71, -3.71, -1.43, 1945.03, -469.52)" xlink:href="#linear-gradient-2"/><linearGradient id="linear-gradient-5" x1="-316.26" y1="391.24" x2="-315.26" y2="391.24" gradientTransform="matrix(-6.76, 1.56, 1.56, 6.76, -2619.62, -2105.42)" xlink:href="#linear-gradient-2"/><linearGradient id="linear-gradient-6" x1="-317.34" y1="392.62" x2="-316.34" y2="392.62" gradientTransform="matrix(-2.63, 6.38, 6.38, 2.63, -3251.92, 989.81)" xlink:href="#linear-gradient-2"/><linearGradient id="linear-gradient-7" x1="-315.54" y1="393.98" x2="-314.54" y2="393.98" gradientTransform="matrix(12.17, 3.81, 3.81, -12.17, 2331.23, 6040.14)" gradientUnits="userSpaceOnUse"><stop offset="0" stop-color="#e6505b"/><stop offset="1" stop-color="#eb6a75"/></linearGradient><linearGradient id="linear-gradient-8" x1="-312.96" y1="394.65" x2="-311.96" y2="394.65" gradientTransform="matrix(3.19, -3.05, -3.05, -3.19, 2216.42, 413.26)" gradientUnits="userSpaceOnUse"><stop offset="0" stop-color="#841422"/><stop offset="0.01" stop-color="#861422"/><stop offset="0.15" stop-color="#a10f27"/><stop offset="0.31" stop-color="#b60c2a"/><stop offset="0.49" stop-color="#c50a2c"/><stop offset="0.69" stop-color="#ce082e"/><stop offset="1" stop-color="#d1082e"/></linearGradient><linearGradient id="linear-gradient-9" x1="-311.79" y1="391.12" x2="-310.79" y2="391.12" gradientTransform="matrix(-0.81, -3.13, -3.13, 0.81, 1051.75, -1163.09)" gradientUnits="userSpaceOnUse"><stop offset="0" stop-color="#971527"/><stop offset="0.04" stop-color="#9a1528"/><stop offset="0.29" stop-color="#a9152b"/><stop offset="0.57" stop-color="#b2152d"/><stop offset="1" stop-color="#b5152e"/></linearGradient><linearGradient id="linear-gradient-10" x1="-314.01" y1="392.08" x2="-313.01" y2="392.08" gradientTransform="matrix(-2.59, -7.4, -7.4, 2.59, 2211.34, -3253.71)" gradientUnits="userSpaceOnUse"><stop offset="0" stop-color="#a7152b"/><stop offset="0.49" stop-color="#b10f29"/><stop offset="1" stop-color="#c10627"/></linearGradient><linearGradient id="linear-gradient-11" x1="-316.56" y1="392.03" x2="-315.56" y2="392.03" gradientTransform="matrix(-7.21, 5.55, 5.55, 7.21, -4342.97, -1054.36)" gradientUnits="userSpaceOnUse"><stop offset="0" stop-color="#841422"/><stop offset="0.09" stop-color="#841422"/><stop offset="0.09" stop-color="#851422"/><stop offset="0.22" stop-color="#a01026"/><stop offset="0.37" stop-color="#b50d2a"/><stop offset="0.53" stop-color="#c40b2c"/><stop offset="0.72" stop-color="#cd092e"/><stop offset="1" stop-color="#d0092e"/></linearGradient><linearGradient id="linear-gradient-12" x1="-317.42" y1="393.79" x2="-316.42" y2="393.79" gradientTransform="matrix(1.11, 6.1, 6.1, -1.11, -2002.52, 2370.57)" xlink:href="#linear-gradient-7"/><linearGradient id="linear-gradient-13" x1="-316.24" y1="394.31" x2="-315.24" y2="394.31" gradientTransform="matrix(6.21, 5.75, 5.75, -6.21, -292.29, 4285.12)" xlink:href="#linear-gradient-2"/><linearGradient id="linear-gradient-14" x1="-315.53" y1="393.1" x2="-314.53" y2="393.1" gradientTransform="matrix(58, 58, 58, -58, -4463.61, 41132.76)" xlink:href="#linear-gradient"/></defs><g id="Layer_2" data-name="Layer 2"><g id="Layer_3" data-name="Layer 3"><path class="cls-1" d="M111.08,53.51A48.76,48.76,0,0,0,81.59,18.43,48.34,48.34,0,0,0,73,15.87c-.69-.13-1.39-.25-2.09-.36l-.65-.09c-.5-.07-1-.14-1.52-.19l-.69-.08c-.64-.06-1.29-.11-1.93-.14l-.23,0c-.79,0-1.59-.06-2.39-.06S61.83,15,61,15h0l-.21,0c-.69,0-1.38.09-2.07.16l-.72.08c-.54.06-1.08.13-1.61.21l-.69.1c-.73.12-1.46.25-2.19.41a47.5,47.5,0,0,0-9.1,2.88A49.09,49.09,0,0,0,29.18,29.18,49.73,49.73,0,0,0,22.84,37a48.85,48.85,0,0,0-4.41,8.46A48.19,48.19,0,0,0,15.87,54,48.35,48.35,0,0,0,16,73.54a48.44,48.44,0,0,0,7.15,17,48.62,48.62,0,0,0,6.05,7.37A49.73,49.73,0,0,0,37,104.21a48.17,48.17,0,0,0,8.46,4.41A47.38,47.38,0,0,0,54,111.18c.69.14,1.38.26,2.08.36l.65.1,1.52.19.7.07c.64.06,1.28.11,1.93.14.87,0,1.74.08,2.62.08A48.59,48.59,0,0,0,97.87,97.87a49.28,49.28,0,0,0,6.34-7.82,48.71,48.71,0,0,0,7-17,48.64,48.64,0,0,0-.1-19.52ZM71.56,15.62l-.44-.08ZM70,15.38l-1.09-.14Zm-2-.23c-.62-.06-1.23-.11-1.85-.14C66.78,15,67.39,15.09,68,15.15ZM60.77,15c-.66,0-1.32.09-2,.15C59.45,15.11,60.11,15.05,60.77,15Zm-2.92.26c-.39,0-.77.1-1.16.15C57.08,15.37,57.46,15.32,57.85,15.28Zm-2.34.33-.44.08Zm0,95.83.44.07Zm1.56.23,1.1.14Zm2,.24c.61,0,1.22.1,1.84.13C60.27,112,59.66,112,59.05,111.91Z"/><path class="cls-2" d="M16.33,83.72a51.17,51.17,0,0,1-3-9.61c-.29-1.38-.52-2.78-.7-4.2L.49,71.43c.22,1.75.51,3.49.86,5.19A64,64,0,0,0,5.11,88.53c.3.7.63,1.39.95,2.08l11-5.2C16.84,84.85,16.58,84.29,16.33,83.72Z"/><path class="cls-2" d="M116.66,98.36l-10.21-6.7a50.13,50.13,0,0,1-10.87,11.93l7.63,9.53a66.4,66.4,0,0,0,5.24-4.67A63.74,63.74,0,0,0,116.66,98.36Z"/><path class="cls-2" d="M44.44,111.18a50.85,50.85,0,0,1-6.75-3.31l-6.15,10.55a63,63,0,0,0,18.63,7.22l2.57-11.94A52.43,52.43,0,0,1,44.44,111.18Z"/><path class="cls-2" d="M110.72,43.33a51,51,0,0,1,3,9.62c.29,1.38.52,2.78.7,4.19l12.11-1.52c-.22-1.75-.5-3.48-.86-5.19a62.92,62.92,0,0,0-3.76-11.9c-.3-.71-.62-1.4-1-2.09l-11,5.21C110.21,42.21,110.47,42.76,110.72,43.33Z"/><path class="cls-2" d="M82.62,15.88a50.18,50.18,0,0,1,6.75,3.3L95.51,8.63a64.55,64.55,0,0,0-8.35-4.09A62.54,62.54,0,0,0,76.89,1.42L74.32,13.36A50.72,50.72,0,0,1,82.62,15.88Z"/><path class="cls-1" d="M126.56,55.62l-12.11,1.52h0c-.18-1.42-.41-2.82-.7-4.2a51,51,0,0,0-3-9.62c-.25-.57-.51-1.13-.77-1.69h0l11-5.21a62.64,62.64,0,0,0-4.62-8.19,64.38,64.38,0,0,0-7.92-9.64,63.73,63.73,0,0,0-10.22-8.3c-.89-.58-1.8-1.14-2.72-1.68L89.37,19.18h0a51.41,51.41,0,0,0-6.75-3.3,50.72,50.72,0,0,0-8.3-2.52L76.89,1.42,76,1.22A63.56,63.56,0,0,0,63.53,0,63.26,63.26,0,0,0,28.25,10.69c-1.52,1-3,2.11-4.4,3.25l7.62,9.52a51.19,51.19,0,0,0-10.93,12l.07-.1L10.4,28.7l-.09.13A63.36,63.36,0,0,0,0,63.53a64.45,64.45,0,0,0,.49,7.9L12.6,69.91h0c.18,1.42.41,2.82.7,4.21a51.17,51.17,0,0,0,3,9.61c.25.57.51,1.13.77,1.69l-11,5.2a63.54,63.54,0,0,0,22.77,26.13c.89.58,1.79,1.14,2.71,1.68l6.15-10.55h0a50.52,50.52,0,0,0,15.8,6l-.75-.16-2.57,11.94.93.2a64.37,64.37,0,0,0,12.43,1.21A63.31,63.31,0,0,0,98.8,116.37c1.52-1,3-2.11,4.41-3.25l-7.63-9.53a50.13,50.13,0,0,0,10.87-11.93l10.21,6.7.08-.13A63.15,63.15,0,0,0,125.84,76a64.25,64.25,0,0,0,.72-20.33Zm-17.3-15.38-.27-.52Zm-1.92-3.44c-.37-.59-.74-1.19-1.13-1.77C106.6,35.61,107,36.2,107.34,36.8Zm1,1.75c-.16-.3-.33-.59-.5-.88C108,38,108.19,38.25,108.35,38.55ZM35,20.84q-.93.63-1.83,1.29Q34.1,21.47,35,20.84ZM12.42,68.2l0,.23ZM12.23,65c0,.13,0,.26,0,.38C12.24,65.3,12.23,65.17,12.23,65Zm.07,1.56c0,.11,0,.23,0,.35C12.32,66.83,12.31,66.71,12.3,66.6Zm5.5,20.21.27.53Zm1.91,3.44c.37.6.74,1.19,1.13,1.77C20.45,91.44,20.08,90.85,19.71,90.25Zm-1-1.74c.16.29.34.59.51.88C19,89.1,18.86,88.8,18.7,88.51ZM92,106.21q.93-.61,1.83-1.29Q93,105.6,92,106.21Zm8.86-18.33a44.59,44.59,0,0,1-46.08,19.4,43.47,43.47,0,0,1-7.86-2.35A44.94,44.94,0,0,1,32,95.06a44.81,44.81,0,0,1-9.48-14,44.43,44.43,0,0,1-.39-34.14A44.94,44.94,0,0,1,32,32a46.36,46.36,0,0,1,6.77-5.56A45.61,45.61,0,0,1,46,22.51a44.63,44.63,0,0,1,26.28-2.74,44.72,44.72,0,0,1,15.63,6.4A45.24,45.24,0,0,1,95.06,32a44.69,44.69,0,0,1,5.56,6.78,44.56,44.56,0,0,1,6.57,15.56,44.83,44.83,0,0,1,.09,17.92,43.24,43.24,0,0,1-2.35,7.86A44.4,44.4,0,0,1,100.88,87.88Zm13.73-29.25,0,.21Zm.12,1.49c0,.11,0,.22,0,.33C114.75,60.34,114.74,60.23,114.73,60.12Zm.08,1.52c0,.12,0,.24,0,.37C114.82,61.88,114.81,61.76,114.81,61.64Z"/><path class="cls-2" d="M27.24,27.24a50.69,50.69,0,0,1,4.23-3.78l-7.62-9.52a61.08,61.08,0,0,0-5.24,4.67A63.29,63.29,0,0,0,10.4,28.7l10.21,6.69A51.45,51.45,0,0,1,27.24,27.24Z"/><path class="cls-3" d="M103.66,55.08a40.95,40.95,0,0,0-6-14.31A40.91,40.91,0,0,0,85.91,29.19a40.92,40.92,0,0,0-38.52-3.36A41.15,41.15,0,0,0,25.47,48.28a40.92,40.92,0,0,0,.36,31.38,41,41,0,0,0,8.71,12.85,41.5,41.5,0,0,0,13.74,9.08,39.94,39.94,0,0,0,7.23,2.15,40.69,40.69,0,0,0,6,.75,40.61,40.61,0,0,1-13-2.87A40.65,40.65,0,0,1,29.83,86.5,41.39,41.39,0,0,1,26.27,80a40.91,40.91,0,0,1-2.4-7.59A40.46,40.46,0,0,1,29.6,41.89a41.49,41.49,0,0,1,5.28-6.52,41,41,0,0,1,12.7-8.61,39.91,39.91,0,0,1,7.59-2.4,40.43,40.43,0,0,1,30.48,5.72,41,41,0,0,1,6.52,5.29,41.42,41.42,0,0,1,5,6.15,40.6,40.6,0,0,1,3.56,6.55,39.91,39.91,0,0,1,2.4,7.59,40.47,40.47,0,0,1-5.73,30.48,39.88,39.88,0,0,1-5.28,6.51,40.8,40.8,0,0,1-6.15,5,39.84,39.84,0,0,1-6.55,3.56,40.24,40.24,0,0,1-15.94,3.28,41.34,41.34,0,0,0,8.45-.88A41.06,41.06,0,0,0,97.86,85.91a40.66,40.66,0,0,0,5.88-14.36,40.81,40.81,0,0,0-.08-16.47Z"/><path class="cls-4" d="M25.49,38.73a45,45,0,0,0-4.1,7.91,45.55,45.55,0,0,0,.41,34.75,44.91,44.91,0,0,0,4,7.34,45.41,45.41,0,0,0,13,12.83A44.87,44.87,0,0,0,54.65,108a45.4,45.4,0,0,0,46.91-19.7,46.18,46.18,0,0,0,4.11-7.92,45.64,45.64,0,0,0,2.37-8,45.72,45.72,0,0,0-2.78-26.73A45.39,45.39,0,0,0,80.41,21.38a46.48,46.48,0,0,0-8-2.36A45.48,45.48,0,0,0,45.67,21.8a44.31,44.31,0,0,0-7.35,4,44.75,44.75,0,0,0-6.9,5.65A45.41,45.41,0,0,0,25.49,38.73ZM47.11,25.17a42.08,42.08,0,0,1,16.42-3.36,42.33,42.33,0,0,1,15.51,3A41.69,41.69,0,0,1,93,34a41.35,41.35,0,0,1,5.19,6.34,40.13,40.13,0,0,1,3.65,6.75,41.46,41.46,0,0,1,2.46,7.82,41.72,41.72,0,0,1,.1,16.75A41.43,41.43,0,0,1,102.26,79a40.61,40.61,0,0,1-3.78,7.28A42,42,0,0,1,93,93a43,43,0,0,1-6.34,5.2,40.89,40.89,0,0,1-6.76,3.64,42.08,42.08,0,0,1-16.41,3.36,42.19,42.19,0,0,1-8.16-.8A41.67,41.67,0,0,1,48,102.26a40.61,40.61,0,0,1-7.28-3.78A41.62,41.62,0,0,1,28.82,86.7a41,41,0,0,1-3.65-6.76A41.68,41.68,0,0,1,34,34a40.84,40.84,0,0,1,6.34-5.2A41.62,41.62,0,0,1,47.11,25.17Z"/><path class="cls-5" d="M97.62,40.77l3-2A44.69,44.69,0,0,0,95.06,32l-2.55,2.55A41.33,41.33,0,0,1,97.62,40.77Z"/><path class="cls-6" d="M101.22,47.39,104.54,46a44,44,0,0,0-3.92-7.21l-3,2A40,40,0,0,1,101.22,47.39Z"/><path class="cls-5" d="M103.66,55.08l3.53-.75A44.38,44.38,0,0,0,104.54,46l-3.32,1.41A40,40,0,0,1,103.66,55.08Z"/><path class="cls-6" d="M92.51,92.51l2.55,2.55a44.69,44.69,0,0,0,5.82-7.18l-3-2A41,41,0,0,1,92.51,92.51Z"/><path class="cls-6" d="M25.47,48.28l-3.35-1.34a44.29,44.29,0,0,0-2.35,7.86l3.54.71A40.78,40.78,0,0,1,25.47,48.28Z"/><path class="cls-5" d="M23.4,72l-3.53.74a44.46,44.46,0,0,0,2.64,8.36l3.32-1.42A40.87,40.87,0,0,1,23.4,72Z"/><path class="cls-5" d="M23.31,55.51l-3.54-.71a44.87,44.87,0,0,0-.86,8.73h3.61A40.7,40.7,0,0,1,23.31,55.51Z"/><path class="cls-6" d="M22.52,63.53H18.91a44.22,44.22,0,0,0,1,9.19L23.4,72A40.65,40.65,0,0,1,22.52,63.53Z"/><path class="cls-6" d="M25.83,79.66l-3.32,1.42a45.61,45.61,0,0,0,3.92,7.21l3-2A41.58,41.58,0,0,1,25.83,79.66Z"/><path class="cls-6" d="M34.54,92.51,32,95.06a44.69,44.69,0,0,0,7.18,5.82l2-3A41,41,0,0,1,34.54,92.51Z"/><path class="cls-5" d="M29.43,86.29l-3,2A45.72,45.72,0,0,0,32,95.06l2.55-2.55A41.25,41.25,0,0,1,29.43,86.29Z"/><path class="cls-5" d="M41.14,97.86l-2,3a45.12,45.12,0,0,0,7.77,4.05l1.34-3.34A40.7,40.7,0,0,1,41.14,97.86Z"/><path class="cls-5" d="M29.19,41.14l-3-2a45.12,45.12,0,0,0-4.05,7.77l3.35,1.34A41.34,41.34,0,0,1,29.19,41.14Z"/><path class="cls-6" d="M63.53,22.52V18.91a44.24,44.24,0,0,0-9.2,1l.74,3.53A40.67,40.67,0,0,1,63.53,22.52Z"/><path class="cls-6" d="M47.39,25.83,46,22.51a45.61,45.61,0,0,0-7.21,3.92l2,3A41.48,41.48,0,0,1,47.39,25.83Z"/><path class="cls-5" d="M55.07,23.4l-.74-3.53A44.69,44.69,0,0,0,46,22.51l1.42,3.32A40.87,40.87,0,0,1,55.07,23.4Z"/><path class="cls-6" d="M34.54,34.54,32,32a45.24,45.24,0,0,0-5.82,7.18l3,2A41.51,41.51,0,0,1,34.54,34.54Z"/><path class="cls-5" d="M40.77,29.43l-2-3A46.36,46.36,0,0,0,32,32l2.55,2.55A41.33,41.33,0,0,1,40.77,29.43Z"/><path class="cls-6" d="M103.66,55.08a41.19,41.19,0,0,1,.88,8.45h3.6a44.93,44.93,0,0,0-1-9.2Z"/><path class="cls-5" d="M103.74,71.55l3.54.7a44.77,44.77,0,0,0,.86-8.72h-3.6A40.85,40.85,0,0,1,103.74,71.55Z"/><path class="cls-6" d="M92.51,34.54,95.06,32a45.24,45.24,0,0,0-7.18-5.82l-2,3A41.51,41.51,0,0,1,92.51,34.54Z"/><path class="cls-6" d="M101.59,78.77l3.34,1.34a43.24,43.24,0,0,0,2.35-7.86l-3.54-.7A40.08,40.08,0,0,1,101.59,78.77Z"/><path class="cls-6" d="M48.28,101.59l-1.34,3.34a43.47,43.47,0,0,0,7.86,2.35l.71-3.54A39.94,39.94,0,0,1,48.28,101.59Z"/><path class="cls-5" d="M85.91,29.19l2-3a44.4,44.4,0,0,0-7.77-4.05l-1.34,3.35A40.63,40.63,0,0,1,85.91,29.19Z"/><path class="cls-6" d="M78.77,25.47l1.34-3.35a44,44,0,0,0-7.86-2.35l-.71,3.54A40.78,40.78,0,0,1,78.77,25.47Z"/><path class="cls-5" d="M97.86,85.91l3,2a44.4,44.4,0,0,0,4.05-7.77l-3.34-1.34A40,40,0,0,1,97.86,85.91Z"/><path class="cls-6" d="M63.53,104.54v3.6a44.91,44.91,0,0,0,9.19-1L72,103.66A41.34,41.34,0,0,1,63.53,104.54Z"/><path class="cls-5" d="M71.54,23.31l.71-3.54a44.77,44.77,0,0,0-8.72-.86v3.61A40.67,40.67,0,0,1,71.54,23.31Z"/><path class="cls-5" d="M55.51,103.74l-.71,3.54a44.87,44.87,0,0,0,8.73.86v-3.6A40.7,40.7,0,0,1,55.51,103.74Z"/><path class="cls-5" d="M72,103.66l.74,3.53a44.48,44.48,0,0,0,8.36-2.65l-1.42-3.31A40.87,40.87,0,0,1,72,103.66Z"/><path class="cls-6" d="M79.66,101.23l1.42,3.31a44.82,44.82,0,0,0,7.21-3.92l-2-3A40.85,40.85,0,0,1,79.66,101.23Z"/><path class="cls-5" d="M86.29,97.62l2,3a45.11,45.11,0,0,0,6.77-5.56l-2.55-2.55A41.25,41.25,0,0,1,86.29,97.62Z"/><path class="cls-1" d="M12.85,71.61l.06.41Z"/><path class="cls-1" d="M99.82,99.82a52.09,52.09,0,0,0,6.63-8.16A52.09,52.09,0,0,1,99.82,99.82Z"/><path class="cls-1" d="M48.54,112.62c1.37.41,2.77.77,4.19,1.07C51.31,113.39,49.92,113,48.54,112.62Z"/><path class="cls-1" d="M46.5,112l1.68.55Z"/><path class="cls-1" d="M114.14,55l0,.2Z"/><path class="cls-7" d="M23.72,31.14a50.94,50.94,0,0,0-3.1,4.23A50.94,50.94,0,0,1,23.72,31.14Z"/><path class="cls-7" d="M25.42,29.15c-.54.6-1.06,1.21-1.57,1.83C24.36,30.36,24.88,29.75,25.42,29.15Z"/><path class="cls-8" d="M6.9,90.22c-.32-.68-.64-1.37-.94-2.06a61.83,61.83,0,0,1-3.7-11.73c-.35-1.68-.64-3.39-.85-5.12l-.92.12c.22,1.75.51,3.49.86,5.19A64,64,0,0,0,5.11,88.53c.3.7.63,1.39.95,2.08Z"/><path class="cls-9" d="M107.79,107.79a64.53,64.53,0,0,1-5.16,4.61l.58.72a66.4,66.4,0,0,0,5.24-4.67,63.74,63.74,0,0,0,8.21-10.09l-.78-.51A61.88,61.88,0,0,1,107.79,107.79Z"/><path class="cls-10" d="M40.24,121.65a61.47,61.47,0,0,1-8.23-4l-.47.8a63,63,0,0,0,18.63,7.22l.19-.91A61.7,61.7,0,0,1,40.24,121.65Z"/><path class="cls-11" d="M121.09,38.89a62.06,62.06,0,0,1,3.7,11.73c.36,1.68.64,3.39.85,5.12l.92-.12c-.22-1.75-.5-3.48-.86-5.19a62.92,62.92,0,0,0-3.76-11.9c-.3-.71-.62-1.4-1-2.09l-.84.4C120.48,37.52,120.79,38.2,121.09,38.89Z"/><path class="cls-12" d="M86.81,5.4a62.73,62.73,0,0,1,8.23,4l.47-.8a64.55,64.55,0,0,0-8.35-4.09A62.54,62.54,0,0,0,76.89,1.42l-.2.9A62.69,62.69,0,0,1,86.81,5.4Z"/><path class="cls-13" d="M1.41,71.31a62.5,62.5,0,0,1-.49-7.78,63.19,63.19,0,0,1,1.2-12.24,62.32,62.32,0,0,1,9-22l.09-.13-.77-.5-.09.13A63.36,63.36,0,0,0,0,63.53a64.45,64.45,0,0,0,.49,7.9Z"/><path class="cls-14" d="M32,117.62c-.91-.53-1.8-1.08-2.68-1.65A62.91,62.91,0,0,1,11.46,98.29,62.16,62.16,0,0,1,6.9,90.22l-.84.39a63.54,63.54,0,0,0,22.77,26.13c.89.58,1.79,1.14,2.71,1.68Z"/><path class="cls-15" d="M102.63,112.4q-2.1,1.68-4.34,3.2a63,63,0,0,1-10.13,5.49,62.64,62.64,0,0,1-24.63,5,63.37,63.37,0,0,1-12.25-1.2l-.92-.2-.19.91.93.2a64.37,64.37,0,0,0,12.43,1.21A63.31,63.31,0,0,0,98.8,116.37c1.52-1,3-2.11,4.41-3.25Z"/><path class="cls-16" d="M126.56,55.62l-.92.12h0a62.54,62.54,0,0,1,.49,7.79,63.27,63.27,0,0,1-1.2,12.24,62,62,0,0,1-3.28,11A62.72,62.72,0,0,1,116,97.72l-.09.13.78.51.08-.13A63.15,63.15,0,0,0,125.84,76a64.25,64.25,0,0,0,.72-20.33Z"/><path class="cls-17" d="M95,9.43c.91.53,1.8,1.08,2.68,1.65A63,63,0,0,1,115.6,28.77a61.94,61.94,0,0,1,4.55,8.07l.84-.4a62.64,62.64,0,0,0-4.62-8.19,64.38,64.38,0,0,0-7.92-9.64,63.73,63.73,0,0,0-10.22-8.3c-.89-.58-1.8-1.14-2.72-1.68Z"/><path class="cls-18" d="M24.42,14.66c1.41-1.13,2.85-2.2,4.35-3.2A62.45,62.45,0,0,1,63.53.92a63.27,63.27,0,0,1,12.24,1.2l.92.2.2-.9L76,1.22A63.56,63.56,0,0,0,63.53,0,63.26,63.26,0,0,0,28.25,10.69c-1.52,1-3,2.11-4.4,3.25Z"/><path class="cls-19" d="M19.26,19.26a62.52,62.52,0,0,1,5.16-4.6l-.57-.72a61.08,61.08,0,0,0-5.24,4.67A63.29,63.29,0,0,0,10.4,28.7l.77.5A63.43,63.43,0,0,1,19.26,19.26Z"/><path class="cls-7" d="M74.44,117.07A2.59,2.59,0,1,1,77,119.66,2.59,2.59,0,0,1,74.44,117.07Z"/><path class="cls-7" d="M48.18,10a2.59,2.59,0,1,1,2.59,2.59A2.59,2.59,0,0,1,48.18,10Z"/><path class="cls-7" d="M6.75,53.82a2.59,2.59,0,1,1,2.59,2.59A2.59,2.59,0,0,1,6.75,53.82Z"/><path class="cls-7" d="M21.18,101.72a2.59,2.59,0,1,1,2.58,2.59A2.58,2.58,0,0,1,21.18,101.72Z"/><path class="cls-7" d="M114.38,76.2A2.59,2.59,0,1,1,117,78.78,2.59,2.59,0,0,1,114.38,76.2Z"/><path class="cls-7" d="M101.63,26.82a2.59,2.59,0,1,1,2.58,2.59A2.58,2.58,0,0,1,101.63,26.82Z"/><path class="cls-20" d="M97.88,85.93a40.81,40.81,0,0,0,3.71-7.15,41.31,41.31,0,0,0,2.93-15.25,41.61,41.61,0,0,0-3.3-16.13,40.27,40.27,0,0,0-3.59-6.64c-.33-.49-.67-1-1-1.46l-.33-.45-.8-1-.37-.45c-.35-.42-.7-.84-1.07-1.24L93.92,36c-.45-.49-.92-1-1.39-1.46s-1-1-1.55-1.47h0l-.13-.12c-.43-.39-.88-.76-1.33-1.13L89,31.42,88,30.59l-.47-.35c-.52-.37-1-.72-1.55-1.07A41.22,41.22,0,0,0,47.4,25.83a40.27,40.27,0,0,0-6.64,3.59A40.9,40.9,0,0,0,23.32,55.51a41.4,41.4,0,0,0,2.51,24.15,40.68,40.68,0,0,0,3.59,6.64c.33.49.67,1,1,1.46.1.15.22.29.33.44l.79,1c.13.15.25.31.37.46.35.42.71.83,1.07,1.24s1,1.08,1.52,1.61a41.13,41.13,0,0,0,6.6,5.35,40.46,40.46,0,0,0,7.15,3.71,41,41,0,0,0,7.23,2.14,41.16,41.16,0,0,0,24.15-2.51,40.89,40.89,0,0,0,12.87-8.69A41.57,41.57,0,0,0,97.88,85.93Zm-1-46.2-.21-.31Zm-.78-1.07c-.19-.25-.38-.49-.58-.73C95.75,38.17,95.94,38.41,96.13,38.66Zm-1.06-1.33c-.33-.4-.67-.79-1-1.18C94.4,36.54,94.74,36.93,95.07,37.33Zm-4.24-4.4c-.41-.37-.84-.73-1.27-1.08C90,32.2,90.42,32.56,90.83,32.93Zm-1.9-1.58-.78-.6Zm-1.59-1.2L87,29.93ZM30.14,87.32c.07.1.14.21.22.31C30.28,87.53,30.21,87.42,30.14,87.32Zm.79,1.07.57.74ZM32,89.72c.33.4.67.8,1,1.19C32.65,90.52,32.31,90.12,32,89.72Z"/><path class="cls-1" d="M102.8,55.26a39.92,39.92,0,0,0-5.91-14A40.12,40.12,0,0,0,85.44,29.93a39.92,39.92,0,0,0-14.07-5.76c-.57-.11-1.14-.21-1.72-.3l-.53-.08q-.63-.09-1.26-.15l-.57-.06c-.53,0-1.07-.09-1.6-.12l-.19,0c-.65,0-1.31-.05-2-.05s-1.4,0-2.09.06h-.17c-.57,0-1.14.08-1.71.14l-.6.06c-.45.05-.89.11-1.33.18l-.56.08c-.61.1-1.22.21-1.82.34a39.09,39.09,0,0,0-7.51,2.38,39.82,39.82,0,0,0-6.49,3.52,40.61,40.61,0,0,0-6.09,5,40.17,40.17,0,0,0-5.23,6.46A39.91,39.91,0,0,0,24.26,71.8a38.87,38.87,0,0,0,2.38,7.51,39.82,39.82,0,0,0,3.52,6.49,40.25,40.25,0,0,0,18.45,15,39,39,0,0,0,7.07,2.11c.57.12,1.14.21,1.72.3l.54.08,1.26.16.57.06c.53,0,1.06.09,1.6.12q1.07.06,2.16.06a40.28,40.28,0,0,0,8.27-.86,40,40,0,0,0,14-5.91,40.61,40.61,0,0,0,6.09-5,41.16,41.16,0,0,0,5.24-6.45,40.66,40.66,0,0,0,3.64-7,39.34,39.34,0,0,0,2.11-7.08,39.78,39.78,0,0,0,.78-7.84A40.21,40.21,0,0,0,102.8,55.26ZM70.16,24l-.36-.06Zm-1.28-.2L68,23.65Zm-1.65-.19c-.51-.05-1-.08-1.53-.11C66.21,23.49,66.72,23.52,67.23,23.57Zm-6-.11c-.54,0-1.09.08-1.63.13C60.16,23.54,60.71,23.49,61.25,23.46Zm-2.41.22-1,.13ZM56.91,24l-.37.07Zm0,79.14.36.07Zm1.29.2.9.11Zm1.65.19c.5,0,1,.09,1.52.12C60.84,103.57,60.33,103.53,59.83,103.48Z"/></g></g></svg>