<svg xmlns="http://www.w3.org/2000/svg" xmlns:xlink="http://www.w3.org/1999/xlink" viewBox="0 0 127.05 127.05"><defs><style>.cls-1{fill:#fff;}.cls-2{fill:#333235;}.cls-3{fill:#f0edee;}.cls-4{fill:url(#linear-gradient);}.cls-5{fill:#262326;}.cls-6{fill:#e3dedd;}.cls-7{fill:#f8f7f7;}.cls-8{fill:url(#linear-gradient-2);}.cls-9{fill:url(#linear-gradient-3);}.cls-10{fill:url(#linear-gradient-4);}.cls-11{fill:url(#linear-gradient-5);}.cls-12{fill:url(#linear-gradient-6);}.cls-13{fill:url(#linear-gradient-7);}.cls-14{fill:url(#linear-gradient-8);}.cls-15{fill:url(#linear-gradient-9);}.cls-16{fill:url(#linear-gradient-10);}.cls-17{fill:url(#linear-gradient-11);}.cls-18{fill:url(#linear-gradient-12);}.cls-19{fill:url(#linear-gradient-13);}.cls-20{fill:url(#linear-gradient-14);}.cls-21{fill:url(#linear-gradient-15);}.cls-22{fill:url(#linear-gradient-16);}.cls-23{fill:url(#linear-gradient-17);}.cls-24{fill:url(#linear-gradient-18);}.cls-25{fill:url(#linear-gradient-19);}.cls-26{fill:url(#linear-gradient-20);}.cls-27{fill:url(#linear-gradient-21);}.cls-28{fill:url(#linear-gradient-22);}.cls-29{fill:url(#linear-gradient-23);}.cls-30{fill:url(#linear-gradient-24);}.cls-31{fill:url(#linear-gradient-25);}.cls-32{fill:url(#linear-gradient-26);}.cls-33{fill:url(#linear-gradient-27);}.cls-34{fill:url(#linear-gradient-28);}.cls-35{fill:url(#linear-gradient-29);}.cls-36{fill:url(#linear-gradient-30);}</style><linearGradient id="linear-gradient" x1="-504.55" y1="220.62" x2="-503.55" y2="220.62" gradientTransform="matrix(-90.76, 0, 0, 90.76, -45684.98, -19960.45)" gradientUnits="userSpaceOnUse"><stop offset="0" stop-color="#fff"/><stop offset="0.13" stop-color="#fbfbfb"/><stop offset="0.26" stop-color="#efefef"/><stop offset="0.39" stop-color="#dbdbdb"/><stop offset="0.53" stop-color="#bfbebf"/><stop offset="0.66" stop-color="#9b9a9b"/><stop offset="0.79" stop-color="#6f6d6f"/><stop offset="0.92" stop-color="#3b393c"/><stop offset="1" stop-color="#1a171b"/></linearGradient><linearGradient id="linear-gradient-2" x1="-508.01" y1="225.19" x2="-507.01" y2="225.19" gradientTransform="matrix(3.74, -1.11, -1.11, -3.74, 2152.04, 361.26)" gradientUnits="userSpaceOnUse"><stop offset="0" stop-color="#fff"/><stop offset="0.11" stop-color="#fdfdfd"/><stop offset="1" stop-color="#f0f0f0"/></linearGradient><linearGradient id="linear-gradient-3" x1="-508.01" y1="225.19" x2="-507.01" y2="225.19" gradientTransform="matrix(3.74, -1.11, -1.11, -3.74, 2152.04, 361.26)" gradientUnits="userSpaceOnUse"><stop offset="0" stop-color="#515153"/><stop offset="0.16" stop-color="#4e4e50"/><stop offset="1" stop-color="#424144"/></linearGradient><linearGradient id="linear-gradient-4" x1="-508.01" y1="225.19" x2="-507.01" y2="225.19" gradientTransform="matrix(3.74, -1.11, -1.11, -3.74, 2152.04, 361.26)" gradientUnits="userSpaceOnUse"><stop offset="0" stop-color="#f2f0f1"/><stop offset="0.16" stop-color="#efedee"/><stop offset="1" stop-color="#e3e0e2"/></linearGradient><linearGradient id="linear-gradient-5" x1="-501.94" y1="219.85" x2="-500.94" y2="219.85" gradientTransform="matrix(-5.39, -5.39, -5.39, 5.39, -1401.51, -3791.94)" xlink:href="#linear-gradient-2"/><linearGradient id="linear-gradient-6" x1="-501.94" y1="221.16" x2="-500.94" y2="221.16" gradientTransform="matrix(-5.39, -5.39, -5.39, 5.39, -1401.51, -3791.94)" xlink:href="#linear-gradient-3"/><linearGradient id="linear-gradient-7" x1="-501.94" y1="221.16" x2="-500.94" y2="221.16" gradientTransform="matrix(-5.39, -5.39, -5.39, 5.39, -1401.51, -3791.94)" xlink:href="#linear-gradient-4"/><linearGradient id="linear-gradient-8" x1="-503.25" y1="223.49" x2="-502.25" y2="223.49" gradientTransform="matrix(1.43, -3.7, -3.7, -1.43, 1596.86, -1416.61)" xlink:href="#linear-gradient-2"/><linearGradient id="linear-gradient-9" x1="-503.25" y1="225.98" x2="-502.25" y2="225.98" gradientTransform="matrix(1.43, -3.7, -3.7, -1.43, 1596.86, -1416.61)" xlink:href="#linear-gradient-3"/><linearGradient id="linear-gradient-10" x1="-502.74" y1="219.82" x2="-501.74" y2="219.82" gradientTransform="matrix(-6.76, 1.56, 1.56, 6.76, -3610.17, -646.54)" xlink:href="#linear-gradient-2"/><linearGradient id="linear-gradient-11" x1="-502.74" y1="218.39" x2="-501.74" y2="218.39" gradientTransform="matrix(-6.76, 1.56, 1.56, 6.76, -3610.17, -646.54)" xlink:href="#linear-gradient-3"/><linearGradient id="linear-gradient-12" x1="-502.74" y1="219.82" x2="-501.74" y2="219.82" gradientTransform="matrix(-6.9, 0.7, 0.7, 6.9, -3493.23, -1107.61)" xlink:href="#linear-gradient-4"/><linearGradient id="linear-gradient-13" x1="-505.52" y1="219.18" x2="-504.52" y2="219.18" gradientTransform="matrix(-2.64, 6.38, 6.38, 2.64, -2632.98, 2651.36)" xlink:href="#linear-gradient-2"/><linearGradient id="linear-gradient-14" x1="-505.52" y1="217.75" x2="-504.52" y2="217.75" gradientTransform="matrix(-2.64, 6.38, 6.38, 2.64, -2632.98, 2651.36)" xlink:href="#linear-gradient-3"/><linearGradient id="linear-gradient-15" x1="-505.52" y1="219.18" x2="-504.52" y2="219.18" gradientTransform="matrix(-2.64, 6.38, 6.38, 2.64, -2632.98, 2651.36)" xlink:href="#linear-gradient-4"/><linearGradient id="linear-gradient-16" x1="-505.99" y1="220.81" x2="-504.99" y2="220.81" gradientTransform="matrix(14.05, 9.8, 9.8, -14.05, 4939.64, 8103.87)" gradientUnits="userSpaceOnUse"><stop offset="0" stop-color="#fff"/><stop offset="1" stop-color="#f8f8f8"/></linearGradient><linearGradient id="linear-gradient-17" x1="-505.99" y1="220.81" x2="-504.99" y2="220.81" gradientTransform="matrix(14.05, 9.8, 9.8, -14.05, 4939.64, 8103.87)" gradientUnits="userSpaceOnUse"><stop offset="0" stop-color="#f2f0f1"/><stop offset="1" stop-color="#ebe9ea"/></linearGradient><linearGradient id="linear-gradient-18" x1="-505.99" y1="222" x2="-504.99" y2="222" gradientTransform="matrix(14.05, 9.8, 9.8, -14.05, 4939.64, 8103.87)" gradientUnits="userSpaceOnUse"><stop offset="0" stop-color="#515153"/><stop offset="1" stop-color="#4a494c"/></linearGradient><linearGradient id="linear-gradient-19" x1="-505.4" y1="221.64" x2="-504.4" y2="221.64" gradientTransform="matrix(18.68, -5.36, -5.36, -18.68, 10636.06, 1537.52)" xlink:href="#linear-gradient-2"/><linearGradient id="linear-gradient-20" x1="-505.4" y1="220.79" x2="-504.4" y2="220.79" gradientTransform="matrix(18.68, -5.36, -5.36, -18.68, 10636.06, 1537.52)" xlink:href="#linear-gradient-3"/><linearGradient id="linear-gradient-21" x1="-505.4" y1="221.64" x2="-504.4" y2="221.64" gradientTransform="matrix(18.68, -5.36, -5.36, -18.68, 10636.06, 1537.52)" xlink:href="#linear-gradient-4"/><linearGradient id="linear-gradient-22" x1="-503.02" y1="222.34" x2="-502.02" y2="222.34" gradientTransform="matrix(-1.66, -9.06, -9.06, 1.66, 1255.9, -4799.56)" gradientUnits="userSpaceOnUse"><stop offset="0" stop-color="#bbbdbe"/><stop offset="1" stop-color="#dfe0e1"/></linearGradient><linearGradient id="linear-gradient-23" x1="-503.12" y1="220.38" x2="-502.12" y2="220.38" gradientTransform="matrix(-11.84, -5.36, -5.36, 11.84, -4643.54, -5226.13)" gradientUnits="userSpaceOnUse"><stop offset="0" stop-color="#c2c3c4"/><stop offset="0.18" stop-color="#cbcccd"/><stop offset="0.66" stop-color="#dededf"/><stop offset="1" stop-color="#e5e5e6"/></linearGradient><linearGradient id="linear-gradient-24" x1="-504.47" y1="220.14" x2="-503.47" y2="220.14" gradientTransform="matrix(-27.56, 15.91, 15.91, 27.56, -17277.44, 1970.21)" gradientUnits="userSpaceOnUse"><stop offset="0" stop-color="#8d8e90"/><stop offset="0.08" stop-color="#9b9c9d"/><stop offset="0.37" stop-color="#c6c6c7"/><stop offset="0.63" stop-color="#e5e5e6"/><stop offset="0.85" stop-color="#f8f8f8"/><stop offset="1" stop-color="#fff"/></linearGradient><linearGradient id="linear-gradient-25" x1="-500.34" y1="224.01" x2="-499.34" y2="224.01" gradientTransform="matrix(-1.13, -3.77, -3.77, 1.13, 329.73, -2137.87)" xlink:href="#linear-gradient-2"/><linearGradient id="linear-gradient-26" x1="-500.34" y1="217.15" x2="-499.34" y2="217.15" gradientTransform="matrix(3.45, -1.89, -1.89, -3.45, 2221.92, -200.32)" xlink:href="#linear-gradient-3"/><linearGradient id="linear-gradient-27" x1="-500.34" y1="224.01" x2="-499.34" y2="224.01" gradientTransform="matrix(-1.13, -3.77, -3.77, 1.13, 329.73, -2137.87)" xlink:href="#linear-gradient-4"/><linearGradient id="linear-gradient-28" x1="-500.34" y1="230.87" x2="-499.34" y2="230.87" gradientTransform="matrix(-1.13, -3.77, -3.77, 1.13, 329.73, -2137.87)" xlink:href="#linear-gradient-3"/><linearGradient id="linear-gradient-29" x1="-507.26" y1="220.5" x2="-506.27" y2="220.5" gradientTransform="matrix(6.2, 5.75, 5.75, -6.2, 1892.06, 4299.89)" xlink:href="#linear-gradient-3"/><linearGradient id="linear-gradient-30" x1="-505" y1="220.72" x2="-504" y2="220.72" gradientTransform="matrix(58, 58, 58, -58, 16521.66, 42123.8)" xlink:href="#linear-gradient"/></defs><g id="Layer_2" data-name="Layer 2"><g id="Layer_3" data-name="Layer 3"><path class="cls-1" d="M19.48,64.17a44.57,44.57,0,1,1,44.57,44.58A44.57,44.57,0,0,1,19.48,64.17Z"/><path class="cls-2" d="M16.34,83.72a50.48,50.48,0,0,1-3-9.61c-.29-1.38-.52-2.78-.7-4.2L.49,71.43q.33,2.63.86,5.19A64,64,0,0,0,5.11,88.53c.3.7.63,1.39.95,2.08l11-5.2c-.26-.56-.52-1.12-.76-1.69Z"/><path class="cls-2" d="M116.66,98.36l-10.21-6.7a50.13,50.13,0,0,1-10.87,11.93l7.63,9.53a66.4,66.4,0,0,0,5.24-4.67,64.3,64.3,0,0,0,8.21-10.09Z"/><path class="cls-2" d="M44.44,111.18a50.85,50.85,0,0,1-6.75-3.31l-6.15,10.55a63,63,0,0,0,18.63,7.22l2.57-11.94a51.41,51.41,0,0,1-8.3-2.52Z"/><path class="cls-2" d="M110.72,43.33a51.27,51.27,0,0,1,3,9.62c.29,1.38.52,2.78.7,4.19l12.11-1.52c-.22-1.75-.5-3.48-.86-5.19a62.21,62.21,0,0,0-3.76-11.9c-.3-.7-.62-1.4-1-2.09l-11,5.21c.26.56.53,1.11.77,1.68Z"/><path class="cls-2" d="M82.62,15.88a51.41,51.41,0,0,1,6.75,3.3L95.51,8.63a65.87,65.87,0,0,0-8.35-4.09A63.55,63.55,0,0,0,76.89,1.41l-2.57,12a50.72,50.72,0,0,1,8.3,2.52Z"/><path class="cls-3" d="M126.52,55.63l-12.11,1.52h0c-.17-1.41-.4-2.81-.69-4.19a50.25,50.25,0,0,0-3-9.61c-.24-.57-.5-1.13-.76-1.69h0l11-5.2a64.37,64.37,0,0,0-4.62-8.18A63.5,63.5,0,0,0,98.2,10.35c-.89-.58-1.79-1.14-2.71-1.68L89.35,19.21h0a52.69,52.69,0,0,0-6.75-3.3,50.29,50.29,0,0,0-8.29-2.51L76.88,1.46l-.94-.2A64.16,64.16,0,0,0,63.53.05,63.46,63.46,0,0,0,50.44,1.4a62.94,62.94,0,0,0-22.16,9.33c-1.52,1-3,2.1-4.41,3.24l7.62,9.52a54,54,0,0,0-4.23,3.77,52,52,0,0,0-6.69,8.25l.07-.1-10.2-6.69-.09.13A63.28,63.28,0,0,0,1.26,51.11,64.12,64.12,0,0,0,.54,71.42l12.1-1.51v0c.18,1.42.41,2.83.7,4.21a51.17,51.17,0,0,0,3,9.61c.24.57.5,1.12.77,1.68l-11,5.2A63.63,63.63,0,0,0,28.85,116.7c.89.59,1.8,1.14,2.72,1.68l6.14-10.54h0a51,51,0,0,0,15.79,6l-.76-.17-2.56,11.93.93.2a63.7,63.7,0,0,0,25.5-.14,63,63,0,0,0,22.16-9.32c1.52-1,3-2.11,4.41-3.25l-7.62-9.52a50.38,50.38,0,0,0,4.23-3.77,51.45,51.45,0,0,0,6.63-8.15l10.2,6.69.08-.13A63.31,63.31,0,0,0,127,63.53a64.32,64.32,0,0,0-.49-7.9Zm-17.3-15.37-.27-.53.27.53Zm-1.91-3.44c-.37-.59-.74-1.19-1.13-1.77.39.58.77,1.17,1.13,1.77Zm1,1.74c-.16-.29-.33-.58-.5-.87.17.29.34.58.5.87ZM35.05,20.87c-.62.42-1.22.85-1.82,1.29.59-.44,1.2-.87,1.82-1.29ZM12.46,68.19l0,.24,0-.24ZM12.27,65c0,.13,0,.25,0,.38,0-.13,0-.25,0-.38Zm.07,1.55c0,.12,0,.24,0,.36,0-.12,0-.24,0-.36Zm5.49,20.2.27.53-.27-.53Zm1.91,3.44c.37.6.74,1.19,1.13,1.77-.39-.58-.76-1.17-1.13-1.77Zm-1-1.74.51.88-.51-.88ZM92,106.18c.62-.41,1.23-.85,1.83-1.29q-.9.67-1.83,1.29Zm8.85-18.31A45,45,0,0,1,95,95a45.66,45.66,0,0,1-6.77,5.55A44.6,44.6,0,0,1,32,95a45.11,45.11,0,0,1-5.56-6.77A44.14,44.14,0,0,1,19.9,72.72a44.44,44.44,0,0,1,6.3-33.53A44.9,44.9,0,0,1,38.78,26.46,44.82,44.82,0,0,1,46,22.54a44.36,44.36,0,0,1,8.35-2.64,44.5,44.5,0,0,1,17.9-.1,44,44,0,0,1,7.86,2.35A44.76,44.76,0,0,1,104.51,46a44.5,44.5,0,0,1-3.66,41.88Zm13.73-29.24v0Zm.11,1.49,0,.33,0-.33Zm.08,1.52c0,.12,0,.25,0,.37,0-.12,0-.25,0-.37Z"/><path class="cls-2" d="M27.24,27.24a50.69,50.69,0,0,1,4.23-3.78l-7.62-9.53A63.18,63.18,0,0,0,10.4,28.7l10.21,6.69a51.45,51.45,0,0,1,6.63-8.15Z"/><path class="cls-4" d="M47.11,25.17a42.08,42.08,0,0,1,16.42-3.36,42.33,42.33,0,0,1,15.51,3,41.69,41.69,0,0,1,19.2,15.57,40.8,40.8,0,0,1,3.64,6.75,41.84,41.84,0,0,1,2.56,24.57A41.43,41.43,0,0,1,102.26,79a40.61,40.61,0,0,1-3.78,7.28A42,42,0,0,1,93,93a43,43,0,0,1-6.34,5.2,40.89,40.89,0,0,1-6.76,3.64,42.08,42.08,0,0,1-16.41,3.36,42.19,42.19,0,0,1-8.16-.8A41.67,41.67,0,0,1,48,102.26a41.22,41.22,0,0,1-7.28-3.77A42.58,42.58,0,0,1,34,93a41.71,41.71,0,0,1,0-59,41.57,41.57,0,0,1,13.09-8.85ZM25.5,38.73a44.38,44.38,0,0,0-4.11,7.91,45.39,45.39,0,0,0,17.34,54.92A45.07,45.07,0,0,0,54.65,108a45.4,45.4,0,0,0,46.91-19.7,44.81,44.81,0,0,0,4.11-7.92,45.64,45.64,0,0,0,2.37-8,45.72,45.72,0,0,0-2.78-26.73,45.12,45.12,0,0,0-9.63-14.25,45.5,45.5,0,0,0-15.22-10,46.48,46.48,0,0,0-8-2.36A45.48,45.48,0,0,0,45.67,21.8,45.1,45.1,0,0,0,25.5,38.73Z"/><path class="cls-5" d="M97.62,40.77l3-2A44.69,44.69,0,0,0,95.06,32l-2.55,2.55A41.33,41.33,0,0,1,97.62,40.77Z"/><path class="cls-6" d="M101.23,47.39,104.54,46a44,44,0,0,0-3.92-7.21l-3,2A40.75,40.75,0,0,1,101.23,47.39Z"/><path class="cls-5" d="M103.66,55.08l3.53-.75A44.38,44.38,0,0,0,104.54,46l-3.31,1.41A40.74,40.74,0,0,1,103.66,55.08Z"/><path class="cls-6" d="M92.51,92.51l2.55,2.55a44.69,44.69,0,0,0,5.82-7.18l-3-2A41.51,41.51,0,0,1,92.51,92.51Z"/><path class="cls-6" d="M25.47,48.28l-3.35-1.34a44.29,44.29,0,0,0-2.35,7.86l3.54.71A40.78,40.78,0,0,1,25.47,48.28Z"/><path class="cls-5" d="M23.4,72l-3.53.74a44.46,44.46,0,0,0,2.64,8.36l3.32-1.42A40.87,40.87,0,0,1,23.4,72Z"/><path class="cls-5" d="M23.31,55.51l-3.54-.71a44.87,44.87,0,0,0-.86,8.73h3.61A40.7,40.7,0,0,1,23.31,55.51Z"/><path class="cls-6" d="M22.52,63.53H18.91a44.22,44.22,0,0,0,1,9.19L23.4,72A40.65,40.65,0,0,1,22.52,63.53Z"/><path class="cls-6" d="M25.83,79.66l-3.32,1.42a45.61,45.61,0,0,0,3.92,7.21l3-2A41.58,41.58,0,0,1,25.83,79.66Z"/><path class="cls-6" d="M34.54,92.51,32,95.06a44.69,44.69,0,0,0,7.18,5.82l2-3A41.51,41.51,0,0,1,34.54,92.51Z"/><path class="cls-5" d="M29.43,86.29l-3,2A45.84,45.84,0,0,0,32,95.06l2.55-2.55A41.25,41.25,0,0,1,29.43,86.29Z"/><path class="cls-5" d="M41.14,97.86l-2,3a45.12,45.12,0,0,0,7.77,4.05l1.34-3.34A40.7,40.7,0,0,1,41.14,97.86Z"/><path class="cls-5" d="M29.19,41.14l-3-2a45.12,45.12,0,0,0-4.05,7.77l3.35,1.34A41.34,41.34,0,0,1,29.19,41.14Z"/><path class="cls-6" d="M63.53,22.52V18.91a44.32,44.32,0,0,0-9.2,1l.75,3.53A40.51,40.51,0,0,1,63.53,22.52Z"/><path class="cls-6" d="M47.39,25.83,46,22.51a45.61,45.61,0,0,0-7.21,3.92l2,3A41.48,41.48,0,0,1,47.39,25.83Z"/><path class="cls-5" d="M55.08,23.4l-.75-3.53A44.69,44.69,0,0,0,46,22.51l1.42,3.32A40.74,40.74,0,0,1,55.08,23.4Z"/><path class="cls-6" d="M34.54,34.54,32,32a45.24,45.24,0,0,0-5.82,7.18l3,2A41.51,41.51,0,0,1,34.54,34.54Z"/><path class="cls-5" d="M40.77,29.43l-2-3A46.36,46.36,0,0,0,32,32l2.55,2.55A41.33,41.33,0,0,1,40.77,29.43Z"/><path class="cls-6" d="M103.66,55.08a41.19,41.19,0,0,1,.88,8.45h3.6a44.93,44.93,0,0,0-1-9.2Z"/><path class="cls-5" d="M103.75,71.55l3.53.7a44.77,44.77,0,0,0,.86-8.72h-3.6A41.62,41.62,0,0,1,103.75,71.55Z"/><path class="cls-6" d="M92.51,34.54,95.06,32a45.24,45.24,0,0,0-7.18-5.82l-2,3A41.89,41.89,0,0,1,92.51,34.54Z"/><path class="cls-6" d="M101.59,78.77l3.34,1.34a43.24,43.24,0,0,0,2.35-7.86l-3.53-.7A40.93,40.93,0,0,1,101.59,78.77Z"/><path class="cls-6" d="M48.28,101.59l-1.34,3.34a43.47,43.47,0,0,0,7.86,2.35l.71-3.53A40.78,40.78,0,0,1,48.28,101.59Z"/><path class="cls-5" d="M85.92,29.19l2-3a44.4,44.4,0,0,0-7.77-4.05l-1.34,3.35A41.08,41.08,0,0,1,85.92,29.19Z"/><path class="cls-6" d="M78.77,25.47l1.34-3.35a44,44,0,0,0-7.86-2.35l-.71,3.54A40.78,40.78,0,0,1,78.77,25.47Z"/><path class="cls-5" d="M97.86,85.91l3,2a44.4,44.4,0,0,0,4.05-7.77l-3.34-1.34A40,40,0,0,1,97.86,85.91Z"/><path class="cls-6" d="M63.53,104.54v3.6a44.91,44.91,0,0,0,9.19-1L72,103.66A41.34,41.34,0,0,1,63.53,104.54Z"/><path class="cls-5" d="M71.54,23.31l.71-3.54a44.77,44.77,0,0,0-8.72-.86v3.61A40.67,40.67,0,0,1,71.54,23.31Z"/><path class="cls-5" d="M55.51,103.75l-.71,3.53a44.87,44.87,0,0,0,8.73.86v-3.6A41.47,41.47,0,0,1,55.51,103.75Z"/><path class="cls-5" d="M72,103.66l.74,3.53a44.48,44.48,0,0,0,8.36-2.65l-1.42-3.31A40.87,40.87,0,0,1,72,103.66Z"/><path class="cls-6" d="M79.66,101.23l1.42,3.31a44.82,44.82,0,0,0,7.21-3.92l-2-3A40.85,40.85,0,0,1,79.66,101.23Z"/><path class="cls-5" d="M86.29,97.62l2,3a45.11,45.11,0,0,0,6.77-5.56l-2.55-2.55A41.25,41.25,0,0,1,86.29,97.62Z"/><path class="cls-5" d="M12.85,71.61l.06.41Z"/><path class="cls-5" d="M99.82,99.82a52.09,52.09,0,0,0,6.63-8.16A52.09,52.09,0,0,1,99.82,99.82Z"/><path class="cls-5" d="M48.54,112.62c1.38.41,2.77.77,4.19,1.07C51.31,113.39,49.92,113,48.54,112.62Z"/><path class="cls-5" d="M46.5,112c.56.2,1.12.37,1.68.55Z"/><path class="cls-5" d="M114.14,55l0,.2Z"/><path class="cls-7" d="M23.72,31.14a50.94,50.94,0,0,0-3.1,4.23A50.94,50.94,0,0,1,23.72,31.14Z"/><path class="cls-7" d="M25.42,29.15c-.54.6-1.06,1.21-1.57,1.83C24.36,30.36,24.88,29.75,25.42,29.15Z"/><path class="cls-8" d="M6.9,90.21l-.84.4.21-.1.63-.29ZM.54,71.42h0Z"/><path class="cls-9" d="M1.41,71.32l-.87.1H.49q.33,2.63.86,5.19A64,64,0,0,0,5.11,88.53c.3.7.63,1.39.95,2.08h0l.84-.4c-.32-.67-.64-1.36-.94-2a62.06,62.06,0,0,1-3.7-11.73c-.35-1.68-.64-3.39-.85-5.11Z"/><path class="cls-10" d="M6.9,90.22l-.63.29.63-.29ZM1.41,71.31l-.87.11h0l.87-.1Z"/><polygon class="cls-11" points="116.62 98.33 116.62 98.33 116.66 98.36 116.66 98.36 116.62 98.33 116.62 98.33"/><path class="cls-12" d="M115.88,97.85a61.88,61.88,0,0,1-8.09,9.94,64.53,64.53,0,0,1-5.16,4.61l.55.68h0l0,0a66.4,66.4,0,0,0,5.24-4.67,64.3,64.3,0,0,0,8.21-10.09l0,0h0l-.74-.48Z"/><path class="cls-13" d="M102.63,112.4h0l.55.68h0l-.55-.68Zm13.25-14.55h0l.74.48h0l-.74-.48Z"/><polygon class="cls-14" points="50.36 124.73 50.17 125.64 50.36 124.73 50.36 124.73 50.36 124.73"/><path class="cls-15" d="M32,117.62l-.47.8a63,63,0,0,0,18.63,7.22h0l.19-.91A61.8,61.8,0,0,1,32,117.62Z"/><polygon class="cls-16" points="126.56 55.62 125.64 55.74 125.64 55.74 126.16 55.67 126.56 55.62 126.56 55.62"/><path class="cls-17" d="M121,36.44h0l-.83.4c.32.68.64,1.36.93,2a62.06,62.06,0,0,1,3.7,11.73c.36,1.68.64,3.39.85,5.12l.92-.12c-.22-1.75-.5-3.48-.86-5.19a62.21,62.21,0,0,0-3.76-11.9c-.3-.7-.62-1.4-1-2.09Z"/><rect class="cls-18" x="125.64" y="55.71" width="0.52" transform="translate(-5.97 16.16) rotate(-7.17)"/><polygon class="cls-19" points="95.51 8.63 95.08 9.37 95.48 8.69 95.51 8.63 95.51 8.63"/><path class="cls-20" d="M76.89,1.41h0l-.2.91A62.39,62.39,0,0,1,86.81,5.4a63.48,63.48,0,0,1,8.24,4l0-.06.43-.74a65.87,65.87,0,0,0-8.35-4.09A63.55,63.55,0,0,0,76.89,1.41Z"/><polygon class="cls-21" points="95.48 8.69 95.08 9.37 95.05 9.43 95.05 9.43 95.48 8.69 95.48 8.69"/><path class="cls-22" d="M10.4,28.7l-.09.13A63.36,63.36,0,0,0,0,63.53a64.45,64.45,0,0,0,.49,7.9H.54a64.12,64.12,0,0,1,.72-20.31,63.28,63.28,0,0,1,9.09-22.26l.09-.13,0,0Z"/><path class="cls-23" d="M10.44,28.72l-.09.13A63.28,63.28,0,0,0,1.26,51.11,64.12,64.12,0,0,0,.54,71.42l.87-.11a62.5,62.5,0,0,1-.49-7.78A62.52,62.52,0,0,1,5.4,40.24a62.09,62.09,0,0,1,5.69-10.91l.08-.13-.73-.48Z"/><polygon class="cls-24" points="10.4 28.7 10.4 28.7 10.44 28.72 11.17 29.2 11.17 29.2 10.4 28.7 10.4 28.7"/><path class="cls-25" d="M6.27,90.51l-.21.1a63.54,63.54,0,0,0,22.77,26.13c.89.59,1.79,1.14,2.71,1.68h0l.47-.8h0l-.44.76c-.92-.54-1.83-1.09-2.72-1.68A63.63,63.63,0,0,1,6.1,90.59l.17-.08Z"/><polygon class="cls-26" points="32.01 117.62 31.54 118.42 32.01 117.62 32.01 117.62 32.01 117.62"/><path class="cls-27" d="M6.9,90.22h0l-.63.29-.17.08A63.63,63.63,0,0,0,28.85,116.7c.89.59,1.8,1.14,2.72,1.68l.44-.76c-.91-.53-1.8-1.08-2.68-1.65A62.91,62.91,0,0,1,11.46,98.29,62.16,62.16,0,0,1,6.9,90.22Z"/><path class="cls-28" d="M102.63,112.4q-2.1,1.68-4.34,3.2a63,63,0,0,1-10.13,5.49,62.64,62.64,0,0,1-24.63,5,63.27,63.27,0,0,1-12.24-1.2l-.93-.2-.19.91.93.19a63.43,63.43,0,0,0,47.7-9.46c1.52-1,3-2.11,4.41-3.25Z"/><path class="cls-29" d="M126.56,55.62l-.92.12a62.54,62.54,0,0,1,.49,7.79,63.27,63.27,0,0,1-1.2,12.24,62,62,0,0,1-3.28,11A62.72,62.72,0,0,1,116,97.72l-.09.13.78.51.08-.13A63.15,63.15,0,0,0,125.84,76a64.25,64.25,0,0,0,.72-20.33Z"/><path class="cls-30" d="M95.05,9.43q1.35.8,2.67,1.65a62.59,62.59,0,0,1,22.44,25.76l.83-.4a62.64,62.64,0,0,0-4.62-8.19,64.38,64.38,0,0,0-7.92-9.64,63.73,63.73,0,0,0-10.22-8.3c-.89-.58-1.8-1.14-2.72-1.68Z"/><path class="cls-31" d="M63.53,0A63.26,63.26,0,0,0,28.25,10.69c-1.52,1-3,2.11-4.4,3.24h0l0,0c1.42-1.14,2.88-2.23,4.4-3.24A63.19,63.19,0,0,1,63.53.05,64.16,64.16,0,0,1,75.94,1.26l.94.2-.19.86h0l.2-.91L76,1.22A63.56,63.56,0,0,0,63.53,0Z"/><rect class="cls-32" x="76.33" y="1.87" width="0.92" transform="translate(58.83 76.55) rotate(-77.87)"/><path class="cls-33" d="M63.53.05A63.46,63.46,0,0,0,50.44,1.4a62.94,62.94,0,0,0-22.16,9.33c-1.52,1-3,2.1-4.4,3.24l.54.69c1.41-1.13,2.85-2.2,4.35-3.2A63,63,0,0,1,38.89,6a62.06,62.06,0,0,1,11.73-3.7,62.94,62.94,0,0,1,25.15-.14l.92.2.19-.86-.94-.2A64.16,64.16,0,0,0,63.53.05Z"/><polygon class="cls-34" points="23.85 13.93 24.42 14.66 24.42 14.66 24.42 14.66 23.88 13.97 23.85 13.93 23.85 13.93"/><path class="cls-35" d="M23.85,13.93A63.18,63.18,0,0,0,10.4,28.7l.77.5a63.43,63.43,0,0,1,8.09-9.94,62.52,62.52,0,0,1,5.16-4.6l-.57-.73Z"/><path class="cls-5" d="M74.44,117.07A2.59,2.59,0,1,1,77,119.66,2.59,2.59,0,0,1,74.44,117.07Z"/><path class="cls-5" d="M48.18,10a2.59,2.59,0,1,1,2.59,2.59A2.59,2.59,0,0,1,48.18,10Z"/><path class="cls-5" d="M6.75,53.82a2.59,2.59,0,1,1,2.59,2.59A2.59,2.59,0,0,1,6.75,53.82Z"/><path class="cls-5" d="M21.18,101.72a2.59,2.59,0,1,1,2.59,2.59A2.59,2.59,0,0,1,21.18,101.72Z"/><path class="cls-5" d="M114.39,76.2A2.59,2.59,0,1,1,117,78.78,2.58,2.58,0,0,1,114.39,76.2Z"/><path class="cls-5" d="M101.62,26.82a2.59,2.59,0,1,1,2.59,2.59A2.59,2.59,0,0,1,101.62,26.82Z"/><path class="cls-36" d="M97.88,85.93a40.81,40.81,0,0,0,3.71-7.15,41.12,41.12,0,0,0-.37-31.38,41,41,0,0,0-3.58-6.64c-.33-.5-.68-1-1-1.46l-.33-.45-.8-1-.37-.45c-.35-.42-.7-.84-1.07-1.24L93.92,36c-.45-.49-.92-1-1.39-1.46s-1-1-1.55-1.47h0l-.14-.12c-.43-.39-.88-.76-1.33-1.13L89,31.42,88,30.59l-.47-.35c-.52-.37-1-.72-1.55-1.07A41.22,41.22,0,0,0,47.4,25.83a40.27,40.27,0,0,0-6.64,3.59A40.9,40.9,0,0,0,23.32,55.51a41.4,41.4,0,0,0,2.51,24.15,40.68,40.68,0,0,0,3.59,6.64c.33.49.67,1,1,1.46l.33.44c.26.34.52.68.8,1l.36.46c.35.42.71.83,1.07,1.24s1,1.08,1.52,1.61a41.13,41.13,0,0,0,6.6,5.35,40.46,40.46,0,0,0,7.15,3.71,41,41,0,0,0,7.23,2.14,41.16,41.16,0,0,0,24.15-2.51,40.89,40.89,0,0,0,12.87-8.69A41.57,41.57,0,0,0,97.88,85.93Zm-1-46.2-.21-.31Zm-.79-1.07c-.18-.25-.37-.49-.57-.74C95.75,38.17,95.94,38.41,96.12,38.66Zm-1.05-1.33c-.33-.4-.67-.79-1-1.18C94.4,36.54,94.74,36.93,95.07,37.33Zm-4.24-4.4c-.41-.37-.84-.73-1.27-1.08C90,32.2,90.42,32.56,90.83,32.93Zm-1.9-1.58-.78-.6Zm-1.59-1.2L87,29.93ZM30.14,87.32c.07.1.14.21.22.31C30.28,87.53,30.21,87.42,30.14,87.32Zm.79,1.07.57.74ZM32,89.72c.33.4.67.8,1,1.19C32.65,90.52,32.31,90.12,32,89.72Z"/><path class="cls-3" d="M102.8,55.26a39.92,39.92,0,0,0-5.91-14A40.12,40.12,0,0,0,85.44,29.93a39.92,39.92,0,0,0-14.07-5.76c-.57-.11-1.14-.21-1.72-.3l-.53-.08c-.42-.05-.84-.11-1.26-.15l-.57-.06c-.53,0-1.07-.09-1.6-.12l-.19,0c-.65,0-1.31,0-2,0s-1.4,0-2.09.05h-.17c-.57,0-1.14.08-1.71.14l-.6.06c-.44.05-.89.11-1.32.18l-.57.08c-.61.1-1.22.21-1.81.34a39,39,0,0,0-7.52,2.38,39.82,39.82,0,0,0-6.49,3.52,40.61,40.61,0,0,0-6.09,5,40.17,40.17,0,0,0-5.23,6.46,40,40,0,0,0-5.76,14.06,39.81,39.81,0,0,0,.09,16.12,38.87,38.87,0,0,0,2.38,7.51,39.82,39.82,0,0,0,3.52,6.49,40.25,40.25,0,0,0,18.45,15,39,39,0,0,0,7.07,2.11c.57.12,1.15.21,1.72.3l.54.08,1.26.16.57.06c.53,0,1.06.09,1.6.12q1.07.06,2.16.06a40.28,40.28,0,0,0,8.27-.86,40,40,0,0,0,14-5.91,40.32,40.32,0,0,0,15-18.44,39.34,39.34,0,0,0,2.11-7.08,39.78,39.78,0,0,0,.78-7.84A40.21,40.21,0,0,0,102.8,55.26ZM70.16,24c-.12,0-.24-.05-.36-.06C69.92,23.91,70,23.94,70.16,24Zm-1.28-.2L68,23.65Zm-1.65-.19c-.51-.05-1-.08-1.52-.11C66.22,23.49,66.72,23.52,67.23,23.57Zm-8.39.11-1,.13ZM56.91,24l-.37.07Zm0,79.14.36.07Zm2.94.39c.5,0,1,.09,1.52.12C60.84,103.57,60.33,103.53,59.83,103.48Z"/></g></g></svg>