<svg xmlns="http://www.w3.org/2000/svg" viewBox="0 0 6.72 9.39"><defs><style>.cls-1{fill:#fff;}.cls-2{fill:#3d3d3d;}.cls-3{fill:#b41818;}</style></defs><g id="Layer_2" data-name="Layer 2"><g id="Layer_1-2" data-name="Layer 1"><rect class="cls-1" x="0.04" y="0.04" width="6.65" height="9.32" rx="0.3"/><path class="cls-2" d="M6.39,9.37h-6A.31.31,0,0,1,0,9.06V.34A.31.31,0,0,1,.34,0H6.39A.31.31,0,0,1,6.7.34V9.06A.31.31,0,0,1,6.39,9.37ZM.34,0a.31.31,0,0,0-.3.3V9.06a.3.3,0,0,0,.3.29H6.39a.29.29,0,0,0,.29-.29V.34A.3.3,0,0,0,6.39,0Z"/><path class="cls-2" d="M6.39,9.39h-6A.34.34,0,0,1,0,9.06V.34A.34.34,0,0,1,.34,0H6.39a.34.34,0,0,1,.33.34V9.06A.33.33,0,0,1,6.39,9.39ZM.34.07A.27.27,0,0,0,.07.34V9.06a.27.27,0,0,0,.27.26H6.39a.26.26,0,0,0,.26-.26V.34A.27.27,0,0,0,6.39.07Z"/><path class="cls-2" d="M6.21,9.15H.51a.24.24,0,0,1-.24-.24V.49A.25.25,0,0,1,.51.24h5.7a.25.25,0,0,1,.25.25V8.91A.25.25,0,0,1,6.21,9.15ZM.51.3A.19.19,0,0,0,.32.49V8.91a.2.2,0,0,0,.19.19h5.7a.19.19,0,0,0,.19-.19V.49A.18.18,0,0,0,6.21.3Z"/><path class="cls-2" d="M6.69,3.66a.27.27,0,0,0-.09,0l0,0-.07,0h.06a.05.05,0,0,1,0,0s0,0,0,0,0,0,0,0S6.69,3.67,6.69,3.66Z"/><path class="cls-2" d="M5.32,0s.06,0,.06.1a.68.68,0,0,0,0,.14A.73.73,0,0,0,5.42.05h.07Z"/><path class="cls-2" d="M5.63,0s0,.08,0,.11a.13.13,0,0,0,0-.09Z"/><path class="cls-2" d="M2.38,0a.18.18,0,0,1,.07.05s0,.05,0,.07,0,0,.08,0l.07,0s0,0,0,0H2.51s0-.05,0-.06,0,0,0,0S2.42,0,2.38,0Z"/><path class="cls-2" d="M2.74,0s0,0,0,0,0,0,0,.05a.11.11,0,0,0,0-.08S2.77,0,2.74,0Z"/><path class="cls-2" d="M0,.49H.15l0,0h0a0,0,0,0,1,0,0S0,.47,0,.49Z"/><path class="cls-2" d="M0,8.66H.15l0,0h0s0,0,0,0S0,8.65,0,8.66Z"/><path class="cls-2" d="M.05.25s.08,0,.08,0,0,0,0,0,0,0,0,0,0,0,0,.06Z"/><path class="cls-2" d="M3.92,0s0,0,0,0v0s0,0,0,.06a.06.06,0,0,1,0,0,0,0,0,0,1,0,0s0,0,0,0,0,0,0,0Z"/><path class="cls-2" d="M4.17,9.37s.06,0,.06-.1a.68.68,0,0,1,0-.14.51.51,0,0,1,.06.2l.07,0Z"/><path class="cls-2" d="M0,8.13s.05.06.1.06l.15,0a.9.9,0,0,1-.22.06s0,0,0,.06A.7.7,0,0,1,0,8.13Z"/><path class="cls-2" d="M4.48,9.35s0-.08,0-.12,0,.08,0,.1Z"/><path class="cls-2" d="M1.23,9.35a.1.1,0,0,0,.07,0s0-.05,0-.07.05,0,.08,0l.07,0s0,0,0,0H1.36a.19.19,0,0,0,0,.07s0,0,0,0S1.27,9.35,1.23,9.35Z"/><path class="cls-2" d="M1.59,9.35s0,0,0-.06,0,0,0,0a.19.19,0,0,1,0,.08S1.62,9.35,1.59,9.35Z"/><path class="cls-2" d="M2.77,9.35h0s0,0,0,0,0,0,0-.06a.06.06,0,0,0,0,0,0,0,0,0,0,0,0s0,0,0,0h0Z"/><path class="cls-2" d="M6.69,1.63H6.46s0,0,0,0a.29.29,0,0,1-.17.06l-.12,0s.13,0,.16,0l.1,0a.3.3,0,0,1,.1,0,.41.41,0,0,1,.11,0h0s0,0,0,0S6.69,1.64,6.69,1.63Z"/><path class="cls-2" d="M6.69,6.83H6.46s0,0-.08,0a.25.25,0,0,1-.12,0s.09,0,.12,0,0,0,.1,0a.14.14,0,0,1,.16.06.16.16,0,0,1,0,.09s0-.06,0-.09A.22.22,0,0,0,6.69,6.83Z"/><path class="cls-2" d="M6.68,1.88s-.11,0-.15,0,.06,0,.08,0l0,0S6.69,1.9,6.68,1.88Z"/><path class="cls-2" d="M6.68,1.44s-.12.08-.16.07a.54.54,0,0,1,.11-.05l.07,0Z"/><path class="cls-2" d="M0,2.65s0,0,.06,0H.17a.85.85,0,0,0,.23,0,.26.26,0,0,1-.19.06C.15,2.72.05,2.73,0,2.65Z"/><path class="cls-2" d="M0,2.52c0-.09.13-.07.19-.09a.38.38,0,0,0-.15,0c-.08,0,0,0,0,.08Z"/><path class="cls-2" d="M.05,6.11c0-.07.1,0,.15,0s0,0,0-.05l0,0s0,.09-.07.12-.13,0-.17,0Z"/><path class="cls-2" d="M.05,4.57v0l0,0s0,0,0,.07a.43.43,0,0,1,0-.16Z"/><path class="cls-2" d="M.05,4.75s0,0,.06,0H.16s0,0,.09,0l-.06,0s0,0,0,0H.07a.06.06,0,0,0,0,.07s0,0,.05,0H0a.06.06,0,0,1,0,0A.16.16,0,0,1,.05,4.75Z"/><path class="cls-2" d="M0,6s.09,0,.11,0h0L0,5.91V6h0V6H0Z"/><path class="cls-1" d="M.83,2.19h0Z"/><path class="cls-1" d="M.85,2.2Z"/><path class="cls-3" d="M.64.6H.81V1l0,0,0,0h0l0,0s0,0,0,0v.24a.08.08,0,0,0,0,.06h0v.1H.54v-.1H.6a.24.24,0,0,0,0-.07V1.11h0A.11.11,0,0,0,.56,1h0A.07.07,0,0,0,.59,1l0,0V.85H.53V.74A.17.17,0,0,0,.59.68L.64.61Z"/><path class="cls-3" d="M1.21.58h0a.23.23,0,0,1,.11,0L1.4.66l0,0a.19.19,0,0,1,0,.09s0,0,0,.1h0A.15.15,0,0,0,1.5,1a.1.1,0,0,0,.05,0h0s0,0,0,0,0,0,0,.08a.15.15,0,0,1,0,.07.56.56,0,0,1,0,.1.16.16,0,0,1,0,.07.23.23,0,0,1-.2.12A.22.22,0,0,1,1,1.38.38.38,0,0,1,1,1.27a1.05,1.05,0,0,0,0-.13V1.07l0,0L.88,1h0s0,0,0,0,0,0,0-.06A.68.68,0,0,1,1,.78.39.39,0,0,1,1,.69L1.08.62l0,0A.15.15,0,0,1,1.21.58ZM1.16,1v.18a.75.75,0,0,0,0,.2s0,0,0,0,0,0,.05-.08,0-.12,0-.25a1.64,1.64,0,0,0,0-.32s0-.05,0-.05,0,0-.05.07S1.16.88,1.16,1Z"/><path class="cls-3" d="M6.05,8.77H5.89V8.43l0,0,0,0h0s0,0,0,0,0,0,0,0V8.07s0-.06,0-.06h0V7.9h.34V8H6.1s0,0,0,.07v.18h0a.1.1,0,0,0,0,.08h0l0,0,0,0v.08h.08v.11l-.06.06a.28.28,0,0,0-.05.08Z"/><path class="cls-3" d="M5.49,8.8h0a.17.17,0,0,1-.11,0l-.06,0,0-.05a.36.36,0,0,1,0-.09.56.56,0,0,1,0-.1h0a.19.19,0,0,0,0-.08.1.1,0,0,0,0,0h0a.1.1,0,0,0,0,0,.28.28,0,0,0,0-.08.15.15,0,0,1,0-.07.14.14,0,0,1,0-.09.2.2,0,0,1,0-.08.22.22,0,0,1,.2-.11.21.21,0,0,1,.2.11.66.66,0,0,1,0,.11.86.86,0,0,1,0,.13V8.3l0,0a.05.05,0,0,0,.05,0h0a.1.1,0,0,0,0,0,.26.26,0,0,1,0,.07.27.27,0,0,1,0,.11,1,1,0,0,1,0,.1l-.06.06,0,0Zm0-.4V8.23a1,1,0,0,0,0-.21s0,0,0,0,0,0-.05.08,0,.12,0,.25a1.56,1.56,0,0,0,0,.32s0,.06,0,.06,0,0,0-.08A1.22,1.22,0,0,0,5.53,8.4Z"/><path class="cls-3" d="M1,1.83v0l0,0a.19.19,0,0,0-.31.23c.09.12.27.13.33.33H1c.06-.2.24-.21.32-.33A.19.19,0,0,0,1,1.83Z"/><path class="cls-3" d="M5.73,7.53l0,0v0a.19.19,0,0,1-.31-.23c.09-.12.27-.13.32-.33h0c.06.2.24.21.33.33A.19.19,0,0,1,5.73,7.53Z"/><path class="cls-3" d="M2.31,3.25l0,0,0,0a.32.32,0,0,0-.51.38c.14.21.44.22.54.56h0c.09-.34.39-.35.53-.56A.32.32,0,0,0,2.31,3.25Z"/><path class="cls-3" d="M2.31,1.18l0,0,0,0a.32.32,0,0,0-.51.38c.14.21.44.22.54.56h0c.09-.34.39-.35.53-.56A.32.32,0,0,0,2.31,1.18Z"/><path class="cls-3" d="M2.31,8.21s0,0,0-.05,0,0,0,.05a.32.32,0,0,1-.51-.39c.14-.2.44-.22.54-.55h0c.09.33.39.35.53.55A.32.32,0,0,1,2.31,8.21Z"/><path class="cls-3" d="M2.31,6.14l0,0,0,0a.32.32,0,0,1-.51-.39c.14-.2.44-.22.54-.55h0c.09.33.39.35.53.55A.32.32,0,0,1,2.31,6.14Z"/><path class="cls-3" d="M4.45,3.25l0,0,0,0a.32.32,0,0,0-.51.38c.14.21.44.22.54.56h0c.09-.34.39-.35.54-.56A.32.32,0,0,0,4.45,3.25Z"/><path class="cls-3" d="M4.45,1.18l0,0,0,0a.32.32,0,0,0-.51.38c.14.21.44.22.54.56h0c.09-.34.39-.35.54-.56A.32.32,0,0,0,4.45,1.18Z"/><path class="cls-3" d="M4.45,8.21s0,0,0-.05,0,0,0,.05a.32.32,0,0,1-.51-.39c.14-.2.44-.22.54-.55h0c.09.33.39.35.54.55A.33.33,0,0,1,4.45,8.21Z"/><path class="cls-3" d="M4.45,6.14l0,0,0,0a.32.32,0,0,1-.51-.39c.14-.2.44-.22.54-.55h0c.09.33.39.35.54.55A.33.33,0,0,1,4.45,6.14Z"/><path class="cls-3" d="M3.39,2.2s0,0,0,0l0,0a.32.32,0,0,0-.51.38c.14.2.44.22.54.55h0c.09-.33.39-.35.54-.55A.32.32,0,0,0,3.39,2.2Z"/><path class="cls-3" d="M3.39,7.23s0,0,0,0l0,0a.32.32,0,0,1-.51-.38c.14-.2.44-.22.54-.56h0c.09.34.39.36.54.56A.32.32,0,0,1,3.39,7.23Z"/></g></g></svg>