<svg xmlns="http://www.w3.org/2000/svg" viewBox="0 0 6.72 9.39"><defs><style>.cls-1{fill:#fff;}.cls-2{fill:#3d3d3d;}</style></defs><g id="Layer_2" data-name="Layer 2"><g id="Layer_1-2" data-name="Layer 1"><rect class="cls-1" x="0.04" y="0.04" width="6.65" height="9.32" rx="0.3"/><path class="cls-2" d="M6.39,9.37h-6A.31.31,0,0,1,0,9.06V.34A.31.31,0,0,1,.34,0H6.39A.31.31,0,0,1,6.7.34V9.06A.31.31,0,0,1,6.39,9.37ZM.34,0a.31.31,0,0,0-.3.3V9.06a.3.3,0,0,0,.3.29H6.39a.29.29,0,0,0,.29-.29V.34A.3.3,0,0,0,6.39,0Z"/><path class="cls-2" d="M6.39,9.39h-6A.34.34,0,0,1,0,9.06V.34A.34.34,0,0,1,.34,0H6.39a.34.34,0,0,1,.33.34V9.06A.33.33,0,0,1,6.39,9.39ZM.34.07A.27.27,0,0,0,.07.34V9.06a.27.27,0,0,0,.27.26H6.39a.26.26,0,0,0,.26-.26V.34A.27.27,0,0,0,6.39.07Z"/><path class="cls-2" d="M6.21,9.15H.51a.24.24,0,0,1-.24-.24V.49A.25.25,0,0,1,.51.24h5.7a.25.25,0,0,1,.25.25V8.91A.25.25,0,0,1,6.21,9.15ZM.51.3A.19.19,0,0,0,.32.49V8.91a.2.2,0,0,0,.19.19h5.7a.19.19,0,0,0,.19-.19V.49A.18.18,0,0,0,6.21.3Z"/><path class="cls-2" d="M6.69,3.66a.27.27,0,0,0-.09,0l0,0-.07,0h.06a.05.05,0,0,1,0,0s0,0,0,0,0,0,0,0S6.69,3.67,6.69,3.66Z"/><path class="cls-2" d="M5.32,0s.06,0,.06.1a.68.68,0,0,0,0,.14A.73.73,0,0,0,5.42.05h.07Z"/><path class="cls-2" d="M5.63,0s0,.08,0,.11a.13.13,0,0,0,0-.09Z"/><path class="cls-2" d="M2.38,0a.18.18,0,0,1,.07.05s0,.05,0,.07,0,0,.08,0l.07,0s0,0,0,0H2.51s0-.05,0-.06,0,0,0,0S2.42,0,2.38,0Z"/><path class="cls-2" d="M2.74,0s0,0,0,0,0,0,0,.05a.11.11,0,0,0,0-.08S2.76,0,2.74,0Z"/><path class="cls-2" d="M0,.49H.15l0,0h0a0,0,0,0,1,0,0S0,.47,0,.49Z"/><path class="cls-2" d="M0,8.66H.15s0,0,0,0h0s0,0,0,0S0,8.65,0,8.66Z"/><path class="cls-2" d="M.05.25s.08,0,.08,0,0,0,0,0,0,0,0,0,0,0,0,.06Z"/><path class="cls-2" d="M3.92,0s0,0,0,0v0s0,0,0,.06v0l0,0s0,0,0,0,0,0,0,0Z"/><path class="cls-2" d="M4.17,9.37s.06,0,.06-.1a.68.68,0,0,1,0-.14.51.51,0,0,1,.06.2l.07,0Z"/><path class="cls-2" d="M0,8.13s.05.06.1.06l.15,0a.9.9,0,0,1-.22.06s0,0,0,.06A.7.7,0,0,1,0,8.13Z"/><path class="cls-2" d="M4.48,9.35s0-.08,0-.12,0,.08,0,.1Z"/><path class="cls-2" d="M1.23,9.35a.1.1,0,0,0,.07,0s0-.05,0-.07.05,0,.08,0l.07,0s0,0,0,0H1.36a.19.19,0,0,0,0,.07s0,0,0,0S1.27,9.35,1.23,9.35Z"/><path class="cls-2" d="M1.59,9.35s0,0,0-.06,0,0,0,0a.22.22,0,0,1,0,.08S1.62,9.35,1.59,9.35Z"/><path class="cls-2" d="M2.77,9.35h0s0,0,0,0,0,0,0-.06a.06.06,0,0,0,0,0,0,0,0,0,0,0,0s0,0,0,0h0Z"/><path class="cls-2" d="M6.69,1.63H6.46s0,0,0,0a.29.29,0,0,1-.17.06l-.12,0s.13,0,.16,0l.1,0a.3.3,0,0,1,.1,0,.41.41,0,0,1,.11,0h0s0,0,0,0S6.69,1.64,6.69,1.63Z"/><path class="cls-2" d="M6.68,6.83H6.46s0,0-.08,0a.25.25,0,0,1-.12,0s.09,0,.12,0,0,0,.1,0a.14.14,0,0,1,.16.06.16.16,0,0,1,0,.09s0-.06,0-.09A.11.11,0,0,0,6.68,6.83Z"/><path class="cls-2" d="M6.68,1.88s-.11,0-.15,0,.06,0,.08,0l0,0S6.69,1.9,6.68,1.88Z"/><path class="cls-2" d="M6.68,1.44s-.12.08-.16.07.07,0,.11-.05l.07,0Z"/><path class="cls-2" d="M0,2.65s0,0,.06,0H.17a.85.85,0,0,0,.23,0,.26.26,0,0,1-.19.06C.15,2.72.05,2.73,0,2.65Z"/><path class="cls-2" d="M0,2.52c0-.09.13-.07.19-.09a.38.38,0,0,0-.15,0c-.08,0,0,0,0,.08Z"/><path class="cls-2" d="M.05,6.11c0-.07.1,0,.15,0s0,0,0-.05l0,0s0,.09-.07.12-.13,0-.17,0Z"/><path class="cls-2" d="M.05,4.57v0l0,0s0,0,0,.07a.43.43,0,0,1,0-.16Z"/><path class="cls-2" d="M.05,4.75s0,0,.06,0H.16s0,0,.09,0l-.06,0s0,0,0,0H.07a.06.06,0,0,0,0,.07s0,0,.05,0H0a.06.06,0,0,1,0,0A.16.16,0,0,1,.05,4.75Z"/><path class="cls-2" d="M0,6s.09,0,.11,0h0L0,5.91V6h0V6H0Z"/><path class="cls-1" d="M.83,2.19h0Z"/><path class="cls-1" d="M.85,2.2Z"/><path class="cls-2" d="M.78.6h.4V.68l0,0H.94V.87H1a.21.21,0,0,1,.16.06l0,0a.46.46,0,0,1,0,.09.51.51,0,0,1,0,.13v0a.3.3,0,0,1-.05.14.18.18,0,0,1-.05.07A.23.23,0,0,1,1,1.49a.32.32,0,0,1-.16,0l0,0,0,0a.28.28,0,0,1,0-.15H.9a.2.2,0,0,0,0,.11.05.05,0,0,0,0,0s0,0,.05-.06a.29.29,0,0,0,0-.09H1a.26.26,0,0,0,0-.15A.19.19,0,0,0,.88,1H.76s0-.17,0-.44Z"/><path class="cls-2" d="M5.92,8.77h-.4V8.69l0,0a.08.08,0,0,1,.07,0h.13V8.5H5.7a.18.18,0,0,1-.15-.07l0,0,0-.09a.69.69,0,0,1,0-.13v0a.3.3,0,0,1,0-.14.1.1,0,0,1,0-.06.2.2,0,0,1,.16-.07.24.24,0,0,1,.16,0,.05.05,0,0,1,0,0L6,8a.33.33,0,0,1,0,.14H5.8a.15.15,0,0,0,0-.1s0,0,0,0,0,0-.06.06,0,.06,0,.09h0a.22.22,0,0,0,0,.14.19.19,0,0,0,.12,0h.11s0,.18,0,.45Z"/><path class="cls-2" d="M3.65,4.6a.33.33,0,0,0-.3-.43.32.32,0,0,0-.3.43.32.32,0,0,0-.3.32.33.33,0,0,0,.2.3.31.31,0,0,0,.37-.12.69.69,0,0,1-.21.36.86.86,0,0,1,.24,0,1,1,0,0,1,.24,0,.71.71,0,0,1-.22-.36.32.32,0,0,0,.37.12A.34.34,0,0,0,4,4.92.33.33,0,0,0,3.65,4.6Z"/><path class="cls-2" d="M2.59,1.32a.32.32,0,0,0-.3-.43.33.33,0,0,0-.3.43.32.32,0,0,0-.3.31.3.3,0,0,0,.21.3.31.31,0,0,0,.37-.11.84.84,0,0,1-.22.36,1,1,0,0,1,.24,0,.93.93,0,0,1,.24,0,.84.84,0,0,1-.22-.36.33.33,0,0,0,.38.11.32.32,0,0,0-.1-.61Z"/><path class="cls-2" d="M2.59,8.12a.32.32,0,0,1-.3.43A.33.33,0,0,1,2,8.12a.33.33,0,0,1-.3-.32.3.3,0,0,1,.21-.29.31.31,0,0,1,.37.11.84.84,0,0,0-.22-.36,1,1,0,0,0,.24,0,.93.93,0,0,0,.24,0,.84.84,0,0,0-.22.36.33.33,0,0,1,.38-.11.3.3,0,0,1,.2.29A.32.32,0,0,1,2.59,8.12Z"/><path class="cls-2" d="M4.73,1.32a.32.32,0,0,0-.3-.43.33.33,0,0,0-.3.43.32.32,0,1,0,.28.5.75.75,0,0,1-.22.36,1,1,0,0,1,.24,0,.86.86,0,0,1,.24,0,.73.73,0,0,1-.21-.36.32.32,0,1,0,.27-.5Z"/><path class="cls-2" d="M4.73,8.12a.32.32,0,0,1-.3.43.33.33,0,0,1-.3-.43.33.33,0,0,1-.3-.32.32.32,0,0,1,.58-.18.75.75,0,0,0-.22-.36,1,1,0,0,0,.24,0,.86.86,0,0,0,.24,0,.73.73,0,0,0-.21.36.31.31,0,0,1,.37-.11A.3.3,0,0,1,5,7.8.32.32,0,0,1,4.73,8.12Z"/><path class="cls-2" d="M1.19,1.94a.19.19,0,1,0-.36,0,.19.19,0,0,0-.18.19.2.2,0,0,0,.12.18A.2.2,0,0,0,1,2.24a.61.61,0,0,1-.13.22.34.34,0,0,1,.28,0A.61.61,0,0,1,1,2.24a.19.19,0,0,0,.22.07.19.19,0,0,0,.13-.18A.19.19,0,0,0,1.19,1.94Z"/><path class="cls-2" d="M5.54,7.5a.19.19,0,1,0,.35,0,.19.19,0,0,0,.18-.19A.2.2,0,0,0,6,7.13a.19.19,0,0,0-.22.07A.5.5,0,0,1,5.86,7L5.72,7,5.57,7a.42.42,0,0,1,.13.22.19.19,0,0,0-.22-.07.2.2,0,0,0-.12.18A.19.19,0,0,0,5.54,7.5Z"/></g></g></svg>