<svg xmlns="http://www.w3.org/2000/svg" viewBox="0 0 6.72 9.39"><defs><style>.cls-1{fill:#fff;}.cls-2{fill:#3d3d3d;}</style></defs><g id="Layer_2" data-name="Layer 2"><g id="Layer_1-2" data-name="Layer 1"><rect class="cls-1" x="0.04" y="0.04" width="6.65" height="9.32" rx="0.3"/><path class="cls-2" d="M6.39,9.37h-6A.31.31,0,0,1,0,9.06V.34A.31.31,0,0,1,.34,0H6.39A.31.31,0,0,1,6.7.34V9.06A.31.31,0,0,1,6.39,9.37ZM.34,0a.31.31,0,0,0-.3.3V9.06a.3.3,0,0,0,.3.29H6.39a.29.29,0,0,0,.29-.29V.34A.3.3,0,0,0,6.39,0Z"/><path class="cls-2" d="M6.39,9.39h-6A.34.34,0,0,1,0,9.06V.34A.34.34,0,0,1,.34,0H6.39a.34.34,0,0,1,.33.34V9.06A.33.33,0,0,1,6.39,9.39ZM.34.07A.27.27,0,0,0,.07.34V9.06a.27.27,0,0,0,.27.26H6.39a.26.26,0,0,0,.26-.26V.34A.27.27,0,0,0,6.39.07Z"/><path class="cls-2" d="M6.21,9.15H.51a.24.24,0,0,1-.24-.24V.49A.25.25,0,0,1,.51.24h5.7a.25.25,0,0,1,.25.25V8.91A.25.25,0,0,1,6.21,9.15ZM.51.3A.19.19,0,0,0,.32.49V8.91a.2.2,0,0,0,.19.19h5.7a.19.19,0,0,0,.19-.19V.49A.18.18,0,0,0,6.21.3Z"/><path class="cls-2" d="M6.69,3.66a.27.27,0,0,0-.09,0l0,0-.07,0h.06a.05.05,0,0,1,0,0s0,0,0,0,0,0,0,0S6.69,3.67,6.69,3.66Z"/><path class="cls-2" d="M5.32,0s.06,0,.06.1a.68.68,0,0,0,0,.14A.73.73,0,0,0,5.42.05h.07Z"/><path class="cls-2" d="M5.63,0s0,.08,0,.11a.24.24,0,0,0,0-.09Z"/><path class="cls-2" d="M2.38,0a.18.18,0,0,1,.07.05s0,.05,0,.07,0,0,.08,0l.07,0s0,0,0,0H2.51s0-.05,0-.06,0,0,0,0S2.42,0,2.38,0Z"/><path class="cls-2" d="M2.74,0s0,0,0,0,0,0,0,.05a.11.11,0,0,0,0-.08S2.77,0,2.74,0Z"/><path class="cls-2" d="M0,.49H.15l0,0h0a0,0,0,0,1,0,0S0,.47,0,.49Z"/><path class="cls-2" d="M0,8.66H.15l0,0h0s0,0,0,0S0,8.65,0,8.66Z"/><path class="cls-2" d="M.05.25s.08,0,.08,0,0,0,0,0a.23.23,0,0,1,0,0s0,0,0,.06Z"/><path class="cls-2" d="M3.92,0s0,0,0,0v0s0,0,0,.06a.06.06,0,0,1,0,0,0,0,0,0,1,0,0s0,0,0,0,0,0,0,0Z"/><path class="cls-2" d="M4.17,9.37s.06,0,.06-.1a.68.68,0,0,1,0-.14.51.51,0,0,1,.06.2l.07,0Z"/><path class="cls-2" d="M0,8.13s.05.06.1.06l.15,0a.9.9,0,0,1-.22.06s0,0,0,.06A.7.7,0,0,1,0,8.13Z"/><path class="cls-2" d="M4.48,9.35s0-.08,0-.12,0,.08,0,.1Z"/><path class="cls-2" d="M1.23,9.35a.1.1,0,0,0,.07,0s0-.05,0-.07.05,0,.08,0l.07,0s0,0,0,0H1.36a.19.19,0,0,0,0,.07s0,0,0,0S1.27,9.35,1.23,9.35Z"/><path class="cls-2" d="M1.59,9.35s0,0,0-.06,0,0,0,0a.19.19,0,0,1,0,.08S1.62,9.35,1.59,9.35Z"/><path class="cls-2" d="M2.77,9.35h0s0,0,0,0,0,0,0-.06a.08.08,0,0,0,0,0,0,0,0,0,0,0,0s0,0,0,0h0Z"/><path class="cls-2" d="M6.69,1.63H6.46s0,0,0,0a.29.29,0,0,1-.17.06l-.12,0s.13,0,.16,0l.1,0a.3.3,0,0,1,.1,0,.41.41,0,0,1,.11,0h0s0,0,0,0S6.69,1.64,6.69,1.63Z"/><path class="cls-2" d="M6.68,6.83H6.46s0,0-.08,0a.25.25,0,0,1-.12,0s.09,0,.12,0,0,0,.1,0a.14.14,0,0,1,.16.06.16.16,0,0,1,0,.09s0-.06,0-.09A.11.11,0,0,0,6.68,6.83Z"/><path class="cls-2" d="M6.68,1.88s-.11,0-.15,0,.06,0,.08,0l0,0S6.69,1.9,6.68,1.88Z"/><path class="cls-2" d="M6.68,1.44s-.12.08-.16.07.07,0,.11-.05l.07,0Z"/><path class="cls-2" d="M0,2.65s0,0,.06,0H.17a.85.85,0,0,0,.23,0,.26.26,0,0,1-.19.06C.15,2.72.05,2.73,0,2.65Z"/><path class="cls-2" d="M0,2.52c0-.09.13-.07.19-.09a.38.38,0,0,0-.15,0c-.08,0,0,0,0,.08Z"/><path class="cls-2" d="M.05,6.11c0-.07.1,0,.15,0s0,0,0-.05L.29,6s0,.1-.07.13-.13,0-.17,0Z"/><path class="cls-2" d="M.05,4.57v0l0,0s0,0,0,.07a.43.43,0,0,1,0-.16Z"/><path class="cls-2" d="M.05,4.75s0,0,.06,0H.16s0,0,.09,0l-.06,0s0,0,0,0H.07a.06.06,0,0,0,0,.07s0,0,.05,0H0a.06.06,0,0,1,0,0A.16.16,0,0,1,.05,4.75Z"/><path class="cls-2" d="M0,6s.09,0,.11,0h0L0,5.91V6h0V6H0Z"/><path class="cls-1" d="M.83,2.19h0Z"/><path class="cls-1" d="M.85,2.2Z"/><path class="cls-2" d="M.74.6h.5V.74a2,2,0,0,0-.08.19,0,0,0,0,0,0,0h0A.07.07,0,0,0,1.2,1h0s0,0,0,0,0,0,0,0v0l0,0q0,.09,0,.21a.44.44,0,0,0,0,.09H.8c0-.05,0-.09,0-.14A2.5,2.5,0,0,1,.9,1.08h0A.05.05,0,0,0,.86,1h0l0,0L1,1C1,.86,1,.79,1.06.71H1s0,0,0,.05a.26.26,0,0,0,0,.11H.74V.61Z"/><path class="cls-2" d="M6,8.77h-.5V8.63l.08-.18v0h0a.08.08,0,0,0,0-.07h0l0,0s0,0,0,0v0a.12.12,0,0,0,0-.05.87.87,0,0,0,0-.21.39.39,0,0,0,0-.09H5.9l0,.14a1.26,1.26,0,0,1-.07.25h0a.05.05,0,0,0,0,0h0l0,0,0,0-.12.23h.11a.06.06,0,0,0,.06-.05.22.22,0,0,0,0-.1H6v.26Z"/><path class="cls-2" d="M2.91,1.69v0a.26.26,0,0,0-.1-.2c-.13-.14-.41-.21-.5-.51h0c-.08.3-.36.37-.5.51a.29.29,0,0,0-.09.2v0h0A.33.33,0,0,0,2,2h.07a.33.33,0,0,0,.18-.1h0a.93.93,0,0,1-.21.36.59.59,0,0,1,.23,0h0a.61.61,0,0,1,.24,0,.93.93,0,0,1-.21-.36h0a.3.3,0,0,0,.18.1h.07a.33.33,0,0,0,.32-.31h0Z"/><path class="cls-2" d="M2.91,7.78v0a.26.26,0,0,1-.1.2c-.13.14-.41.2-.5.51h0c-.08-.31-.36-.37-.5-.51a.29.29,0,0,1-.09-.2v0h0A.33.33,0,0,1,2,7.45h.07a.44.44,0,0,1,.18.11h0a1,1,0,0,0-.21-.37.59.59,0,0,0,.23,0h0a.61.61,0,0,0,.24,0,1,1,0,0,0-.21.37h0a.38.38,0,0,1,.18-.11h.07a.33.33,0,0,1,.32.31h0Z"/><path class="cls-2" d="M5,1.69v0a.3.3,0,0,0-.1-.2c-.14-.14-.41-.21-.5-.51h0c-.09.3-.36.37-.5.51a.35.35,0,0,0-.1.2v0h0A.32.32,0,0,0,4.16,2h.07a.28.28,0,0,0,.17-.1h0a.84.84,0,0,1-.22.36.67.67,0,0,1,.24,0h0a.64.64,0,0,1,.24,0,1,1,0,0,1-.22-.36h0a.27.27,0,0,0,.18.1h.06A.31.31,0,0,0,5,1.71H5Z"/><path class="cls-2" d="M4,3.26v0a.26.26,0,0,0-.1-.2c-.14-.14-.41-.2-.5-.51h0c-.08.31-.36.37-.5.51a.35.35,0,0,0-.1.2v0h0a.33.33,0,0,0,.32.31h.07a.36.36,0,0,0,.17-.11h0a.81.81,0,0,1-.22.37.67.67,0,0,1,.24,0h0a.61.61,0,0,1,.24,0,.9.9,0,0,1-.21-.37h0a.34.34,0,0,0,.18.11h.06A.31.31,0,0,0,4,3.28H4Z"/><path class="cls-2" d="M2.91,4.81h0a.3.3,0,0,0-.1-.21c-.13-.13-.41-.2-.5-.5h0c-.08.3-.36.37-.5.5a.33.33,0,0,0-.09.21h0v0h0A.33.33,0,0,0,2,5.15h.07A.3.3,0,0,0,2.27,5h0a.93.93,0,0,1-.21.36.59.59,0,0,1,.23,0h0a.61.61,0,0,1,.24,0A.93.93,0,0,1,2.33,5h0a.27.27,0,0,0,.18.11h.07a.33.33,0,0,0,.32-.31h0Z"/><path class="cls-2" d="M5,4.81H5a.35.35,0,0,0-.1-.21c-.14-.13-.41-.2-.5-.5h0c-.09.3-.36.37-.5.5a.41.41,0,0,0-.1.21h0v0h0a.32.32,0,0,0,.32.31h.07A.25.25,0,0,0,4.4,5h0a.84.84,0,0,1-.22.36.67.67,0,0,1,.24,0h0a.64.64,0,0,1,.24,0A1,1,0,0,1,4.46,5h0a.25.25,0,0,0,.18.11h.06A.31.31,0,0,0,5,4.84H5Z"/><path class="cls-2" d="M5,7.78v0a.3.3,0,0,1-.1.2c-.14.14-.41.2-.5.51h0c-.09-.31-.36-.37-.5-.51a.35.35,0,0,1-.1-.2v0h0a.32.32,0,0,1,.32-.31h.07a.36.36,0,0,1,.17.11h0a.87.87,0,0,0-.22-.37.67.67,0,0,0,.24,0h0a.64.64,0,0,0,.24,0,1,1,0,0,0-.22.37h0a.34.34,0,0,1,.18-.11h.06A.31.31,0,0,1,5,7.76H5Z"/><path class="cls-2" d="M1.38,2.05h0a.16.16,0,0,0-.06-.12c-.08-.08-.24-.12-.29-.3H1c-.06.18-.22.22-.3.3A.2.2,0,0,0,.67,2h0a.19.19,0,0,0,.19.18h0A.17.17,0,0,0,1,2.18H1a.52.52,0,0,1-.12.22.32.32,0,0,1,.14,0H1a.32.32,0,0,1,.14,0A.54.54,0,0,1,1,2.17h0a.19.19,0,0,0,.11.07h0a.18.18,0,0,0,.19-.18h0Z"/><path class="cls-2" d="M6.08,7.26h0A.23.23,0,0,1,6,7.39c-.09.08-.25.12-.3.3h0c0-.18-.22-.22-.3-.3a.23.23,0,0,1-.06-.12h0a.19.19,0,0,1,.19-.19h0a.14.14,0,0,1,.11.06h0a.59.59,0,0,0-.12-.22.32.32,0,0,0,.14,0h0a.32.32,0,0,0,.14,0,.61.61,0,0,0-.13.22h0a.14.14,0,0,1,.11-.06h0a.2.2,0,0,1,.19.19h0Z"/></g></g></svg>