<svg xmlns="http://www.w3.org/2000/svg" viewBox="0 0 6.72 9.39"><defs><style>.cls-1{fill:#fff;}.cls-2{fill:#3d3d3d;}.cls-3{fill:#b41818;}</style></defs><g id="Layer_2" data-name="Layer 2"><g id="Layer_1-2" data-name="Layer 1"><rect class="cls-1" x="0.04" y="0.04" width="6.65" height="9.32" rx="0.3"/><path class="cls-2" d="M6.39,9.39h-6A.34.34,0,0,1,0,9.06V.34A.34.34,0,0,1,.34,0H6.39a.34.34,0,0,1,.33.34V9.06A.33.33,0,0,1,6.39,9.39ZM.34.07A.27.27,0,0,0,.07.34V9.06a.27.27,0,0,0,.27.26H6.39a.26.26,0,0,0,.26-.26V.34A.27.27,0,0,0,6.39.07Z"/><path class="cls-2" d="M6.21,9.15H.51a.24.24,0,0,1-.24-.24V.49A.25.25,0,0,1,.51.24h5.7a.25.25,0,0,1,.25.25V8.91A.25.25,0,0,1,6.21,9.15ZM.51.3A.19.19,0,0,0,.32.49V8.91a.2.2,0,0,0,.19.19h5.7a.19.19,0,0,0,.19-.19V.49A.18.18,0,0,0,6.21.3Z"/><path class="cls-2" d="M6.69,3.66a.27.27,0,0,0-.09,0l0,0-.07,0h.06a.05.05,0,0,1,0,0s0,0,0,0,0,0,0,0S6.69,3.67,6.69,3.66Z"/><path class="cls-2" d="M5.32,0s.06,0,.06.1a.68.68,0,0,0,0,.14A.73.73,0,0,0,5.42.05h.07Z"/><path class="cls-2" d="M5.63,0s0,.08,0,.11a.13.13,0,0,0,0-.09Z"/><path class="cls-2" d="M2.38,0a.18.18,0,0,1,.07.05s0,.05,0,.07,0,0,.08,0l.07,0s0,0,0,0H2.51s0-.05,0-.06,0,0,0,0S2.42,0,2.38,0Z"/><path class="cls-2" d="M2.74,0s0,0,0,0,0,0,0,.05a.11.11,0,0,0,0-.08S2.77,0,2.74,0Z"/><path class="cls-2" d="M0,.49H.15l0,0h0a0,0,0,0,1,0,0S0,.47,0,.49Z"/><path class="cls-2" d="M0,8.66H.15l0,0h0s0,0,0,0S0,8.65,0,8.66Z"/><path class="cls-2" d="M.05.25s.08,0,.08,0,0,0,0,0,0,0,0,0,0,0,0,.06Z"/><path class="cls-2" d="M3.92,0s0,0,0,0v0s0,0,0,.06a.06.06,0,0,1,0,0,0,0,0,0,1,0,0s0,0,0,0,0,0,0,0Z"/><path class="cls-2" d="M4.17,9.37s.06,0,.06-.1a.68.68,0,0,1,0-.14.51.51,0,0,1,.06.2l.07,0Z"/><path class="cls-2" d="M0,8.13s.05.06.1.06l.15,0a.9.9,0,0,1-.22.06s0,0,0,.06A.7.7,0,0,1,0,8.13Z"/><path class="cls-2" d="M4.48,9.35s0-.08,0-.12,0,.08,0,.1Z"/><path class="cls-2" d="M1.23,9.35a.1.1,0,0,0,.07,0s0-.05,0-.07.05,0,.08,0l.07,0s0,0,0,0H1.36a.19.19,0,0,0,0,.07s0,0,0,0S1.27,9.35,1.23,9.35Z"/><path class="cls-2" d="M1.59,9.35s0,0,0-.06,0,0,0,0a.19.19,0,0,1,0,.08S1.62,9.35,1.59,9.35Z"/><path class="cls-2" d="M2.77,9.35h0s0,0,0,0,0,0,0-.06a.06.06,0,0,0,0,0,0,0,0,0,0,0,0s0,0,0,0h0Z"/><path class="cls-2" d="M6.69,1.63H6.46s0,0,0,0a.29.29,0,0,1-.17.06l-.12,0s.13,0,.16,0l.1,0a.3.3,0,0,1,.1,0,.41.41,0,0,1,.11,0h0s0,0,0,0S6.69,1.64,6.69,1.63Z"/><path class="cls-2" d="M6.69,6.83H6.46s0,0-.08,0a.25.25,0,0,1-.12,0s.09,0,.12,0,0,0,.1,0a.14.14,0,0,1,.16.06.16.16,0,0,1,0,.09s0-.06,0-.09A.22.22,0,0,0,6.69,6.83Z"/><path class="cls-2" d="M6.68,1.88s-.11,0-.15,0,.06,0,.08,0l0,0S6.69,1.9,6.68,1.88Z"/><path class="cls-2" d="M6.68,1.44s-.12.08-.16.07a.54.54,0,0,1,.11-.05l.07,0Z"/><path class="cls-2" d="M0,2.65s0,0,.06,0H.17a.85.85,0,0,0,.23,0,.26.26,0,0,1-.19.06C.15,2.72.05,2.73,0,2.65Z"/><path class="cls-2" d="M0,2.52c0-.09.13-.07.19-.09a.38.38,0,0,0-.15,0c-.08,0,0,0,0,.08Z"/><path class="cls-2" d="M.05,6.11c0-.07.1,0,.15,0s0,0,0-.05l0,0s0,.09-.07.12-.13,0-.17,0Z"/><path class="cls-2" d="M.05,4.57v0l0,0s0,0,0,.07a.43.43,0,0,1,0-.16Z"/><path class="cls-2" d="M.05,4.75s0,0,.06,0H.16s0,0,.09,0l-.06,0s0,0,0,0H.07a.06.06,0,0,0,0,.07s0,0,.05,0H0a.06.06,0,0,1,0,0A.16.16,0,0,1,.05,4.75Z"/><path class="cls-2" d="M0,6s.09,0,.11,0h0L0,5.91V6h0V6H0Z"/><path class="cls-1" d="M.83,2.19h0Z"/><path class="cls-1" d="M.85,2.2Z"/><path class="cls-3" d="M.76.6h.47V.71h0a0,0,0,0,0,0,0c0,.13,0,.2,0,.2l0,.05,0,0h0l0,0a.08.08,0,0,0,0,0v0h0a1.5,1.5,0,0,0,0,.21s0,0,0,0h0v.1H1v-.1h.05s0-.05,0-.08H.87v.06h0s0,0,0,0h0v.1H.63v-.1h0a.05.05,0,0,0,0,0,.49.49,0,0,0,0-.13l0-.11A.08.08,0,0,0,.72,1s0,0,0,0h0L.75,1a.24.24,0,0,0,0-.07C.81.8.82.74.82.74s0,0,0,0h0V.6ZM1,.79a2.91,2.91,0,0,1-.06.29H1L1,.79Z"/><path class="cls-3" d="M5.94,8.77H5.46V8.66h0s0,0,0,0l0-.21,0,0,0,0h0l0,0s0,0,0-.05v0h0a1.5,1.5,0,0,0,0-.21V8h0V7.9h.31V8h0V8a.32.32,0,0,0,0,.08h.2V8h0l0,0h0V7.9h.26V8h0L6,8a.49.49,0,0,0,0,.13l0,.11a.12.12,0,0,0,0,.08H6l0,0,0,.07a1.52,1.52,0,0,0,0,.19l0,0h0v.11Zm-.21-.19c0-.16,0-.26.06-.29H5.67l0,.29Z"/><path class="cls-3" d="M1,1.83v0l0,0a.19.19,0,0,0-.31.23c.09.12.27.13.33.33H1c.06-.2.24-.21.32-.33A.19.19,0,0,0,1,1.83Z"/><path class="cls-3" d="M5.73,7.53l0,0v0a.19.19,0,0,1-.31-.23c.09-.12.27-.13.32-.33h0c.06.2.24.21.33.33A.19.19,0,0,1,5.73,7.53Z"/><path class="cls-2" d="M4.46,3.73a.13.13,0,0,0,0-.06.74.74,0,0,0-.28-.57L4,2.61a.09.09,0,0,0-.09-.06H2.62l0,0-.07,0a.21.21,0,0,0-.17.07.23.23,0,0,0-.06.16.29.29,0,0,0,.23.3l0,0v.68h0l0,0-.17.56a.71.71,0,0,0-.22.08h0L2,4.76H2l0,.15v0H2L2,5l-.13.1v0l0,.28v0l0,.2h0l.08.07-.07.06h0a0,0,0,0,0,0,0L2,6.21l0,0H2l0,0L2,6.34a0,0,0,0,0,0,0l.17.38h0l.08,0,0,.08a0,0,0,0,0,0,0h0a4.13,4.13,0,0,0,.29.36h0l.16.06a.21.21,0,0,0,.12.09.75.75,0,0,0,.34.06h0a.67.67,0,0,0,.31-.06h0l0,0a.25.25,0,0,0,.09-.07l.16-.06h0a4.67,4.67,0,0,0,.3-.36h0a0,0,0,0,0,0,0l0-.08.07,0h0l0,0,.18-.38a0,0,0,0,0,0,0l-.06-.08.09,0v0l.11-.46a0,0,0,0,0,0,0h0l-.07-.06.08-.07h0l0-.51v0L4.26,5l0,0h0v0h0l0-.05,0-.09-.09-.29h0L4,4.38a.72.72,0,0,0,.27-.15A4.2,4.2,0,0,1,4.53,5.3l0,0,0,0a2.27,2.27,0,0,1-.34,1.51h0V7a0,0,0,0,0,0,0l.06,0h0a2.39,2.39,0,0,0,.42-.9A3.59,3.59,0,0,0,4.46,3.73Zm-2-.79a.18.18,0,0,1-.12,0,.28.28,0,0,1,0-.11.16.16,0,0,1,0-.12.22.22,0,0,1,.11-.05h0s0,0,0,0,0,0,0,0h0a.1.1,0,0,0-.1.1.09.09,0,0,0,.1.09.1.1,0,0,0,.1-.09V2.64h0s0,0,0,0H3.88a.05.05,0,0,1,0,0L4.1,3l0,0L3.9,2.67a.07.07,0,0,0-.06,0H2.69a0,0,0,0,0,0,0v.13A.16.16,0,0,1,2.5,2.94Zm0-.13a.05.05,0,0,1,0-.05.07.07,0,0,1,.07-.06.05.05,0,0,1,0,0h0a.06.06,0,0,0-.06.06A0,0,0,0,0,2.48,2.81Zm1.71.85H3.54l-.08,0s0,0,0,0h.83v0Zm.08.1a.94.94,0,0,1,0,.16l-.08-.16.11,0Zm-.74.44a.59.59,0,0,1-.36-.43c.33,0,.54.09.57.16l.08.29h0l-.09-.3a.55.55,0,0,0-.24-.1A.69.69,0,0,1,3.53,4.2Zm.21-1s0,0,0,0l.07.08a.1.1,0,0,1-.1.1H3.35a.23.23,0,0,0-.07-.07.56.56,0,0,1,.38-.21v0A.09.09,0,0,0,3.74,3.25Zm-1-.14A.22.22,0,0,1,2.93,3h.5a.78.78,0,0,0-.33.29.27.27,0,0,0-.16.13h0a.2.2,0,0,1-.18-.13v.34h.09s0,0,0,0l-.09,0h0v-1h.13v.06s0,0,0,0h.92v0h0s0,0,0,0,0,0,0,0h0a.05.05,0,0,1,0,0l0,0H2.86l0,0a.08.08,0,0,1,0,0v0h0Zm.13.62a.85.85,0,0,0-.27.09c0-.06.13-.11.3-.14H3s0,0-.09,0Zm0-.1A.63.63,0,0,1,3,3.38a.85.85,0,0,0,0,.24Zm.81-.71a0,0,0,0,1,0,0,0,0,0,0,1,0,0v.24a0,0,0,0,1,0,0,0,0,0,0,1,0,0Zm-.3.71-.23,0v0h0l0,0a.32.32,0,0,1,0-.18A.63.63,0,0,1,3.4,3.63Zm.05.07s0,0,0,0H3.28s-.1,0-.1,0l0,0A.75.75,0,0,1,3.45,3.7Zm.31.12H4l.1.22a.56.56,0,0,1-.26.17Zm.45-.24L3.8,3.19s0,0,0,0h0l.4.38h0s0,0,0,0Zm-.39-.71a0,0,0,0,1,0,0v0h0l0,0,0,0a0,0,0,0,1,0,0v0a0,0,0,0,1,0,0l0,0h0a0,0,0,0,1,0,0A0,0,0,0,1,3.82,2.87ZM2.52,3a.25.25,0,0,0,.14-.08v.75l0,0,0,0V3.05Zm0,1h0c0-.06.18-.13.44-.15a.73.73,0,0,0,.3.49H2.8l.08-.46H2.82l-.08.46H2.66l.11-.46a.54.54,0,0,0-.17.08c-.05.17-.12.4-.12.42l0,0Zm.83.41,0,0,0,0h-.5l0,0h.52Zm.26,1.88h0l.17,0,0-.4.36,0-.32.07,0,.37h.31L4,6.25l-.18,0h0l-.16,0-.16.06H2.8V5.86h.7v.38Zm0,0V6c0-.08,0-.15,0-.23a.88.88,0,0,1,0,.23A1.94,1.94,0,0,1,3.64,6.22Zm-.43.61H2.84l0-.29h.64v.08s0,0,0,0a.77.77,0,0,1-.21.18S3.2,6.82,3.21,6.83Zm-.06-.35H2.8l-.1-.14h.88l-.1.14Zm-.51-.21,0-.52.12.1v.43Zm.87-.47H2.77L2.7,5.74l.45,0,.43,0Zm-.79-.17-.11,0h0l0-.7h0l.09.11Zm0-.66h.86l-.08.09h-.7Zm0-.07.14-.54h0l0,.07-.07.42Zm0-.55h.05l-.07.05-.23,0Zm-.5.16a3.08,3.08,0,0,1,.46,0l-.09.36.11.08-.14-.05-.46,0ZM2.08,5h0l.49,0-.09.09H2Zm-.17.57,0-.45h.53v.46l.13.11L2.45,5.6Zm.62.18-.08,0A3.91,3.91,0,0,1,2,5.73l0,0ZM2,6.18l-.1-.4a3.37,3.37,0,0,0,.51.07l.07.37.13,0H2.49A2.65,2.65,0,0,1,2,6.18Zm.11.09a2.36,2.36,0,0,0,.41.05h0l-.08.1a1.69,1.69,0,0,1-.42-.09ZM2.44,7h0l.09.15-.2-.23.13,0a.35.35,0,0,0,.14,0A.38.38,0,0,1,2.44,7Zm.21,0a1.71,1.71,0,0,1-.36-.1l0-.07a2.29,2.29,0,0,0,.36.07Zm-.06-.18h0a1.34,1.34,0,0,1-.37-.09l-.14-.3a2.25,2.25,0,0,0,.4.08l.1.26.1,0Zm.06-.43.11.15,0,.29L2.7,6.69Zm.18,1-.06-.25h0l0-.16.12.15v.28Zm.45.1H3.14L3,7.41a.58.58,0,0,1-.14,0L3,7.4h.43A.8.8,0,0,1,3.28,7.42ZM2.9,7.36v-.3l.19,0h.2a1.39,1.39,0,0,1-.35,0ZM3.43,7a1.52,1.52,0,0,1-.28,0H2.88l-.1-.13H3.5Zm.11,0,0,.21a1.64,1.64,0,0,1,0-.22,1.52,1.52,0,0,1,0-.21A1.5,1.5,0,0,1,3.54,7.05Zm0-.25-.06,0,0,0,.06,0,.08-.44-.06.45.07.07-.08-.06Zm.31.2-.13,0-.1.2L3.66,7h0l.15,0L4,6.93ZM3.64,7l0-.1A2.25,2.25,0,0,0,4,6.81l0,.06A1.64,1.64,0,0,1,3.64,7ZM4,6.48l-.16,0L3.7,6.8l.09-.3.36-.08Zm-.2,0L3.7,6.33l.47-.06,0,.08Zm.05-.65-.08,0,.55,0,0,0A4.16,4.16,0,0,1,3.83,5.79Zm.51-.68H4.22c-.15,0-.17,0-.18.09s0,.17-.06.24,0,.11.1.12H4.2l-.37,0-.17.11-.2-.09H2.78l0-.51h.68l0,.48.16.12V5.53a1.28,1.28,0,0,1,0-.19,1.21,1.21,0,0,1,0-.19V5c0,.07,0,.13,0,.19s0,.12,0,.19v.28a.27.27,0,0,1,0,.09l.14-.14V5.11ZM4.27,5H3.78L3.7,5l.5,0Zm-.15-.53h0s0,.1,0,.26a.06.06,0,0,0,0,.06.18.18,0,0,0,.09,0l-.47,0-.14.09-.22-.1H2.83l.07-.39h.48l.06.36.19.13a.75.75,0,0,1,0-.16s0-.1,0-.15,0-.11,0-.16l0-.08h0l0,.08a.83.83,0,0,0,0,.15l0,.16a.94.94,0,0,1,0,.16l.11-.11-.09-.37A3.39,3.39,0,0,1,4.12,4.51Zm-.33-.1h0Zm-.07,0A.69.69,0,0,1,3,3.67.69.69,0,0,1,3.66,3v.07A.62.62,0,0,0,3.72,4.3a.62.62,0,0,0,.62-.63.61.61,0,0,0-.51-.6V3a.69.69,0,0,1,.59.67A.7.7,0,0,1,3.72,4.37Zm.6-.26L4.39,4a3.83,3.83,0,0,1,.32,1.34l-.07-.06A4,4,0,0,0,4.32,4.11ZM4.34,7h0a3.08,3.08,0,0,0,.1-3,.58.58,0,0,0,0-.14,3.57,3.57,0,0,1,.3,2.3A2.58,2.58,0,0,1,4.34,7Z"/><path class="cls-2" d="M3.35,3.59a.6.6,0,0,0-.08-.16v.16h.09Z"/><path class="cls-2" d="M3.77,3.15a0,0,0,0,0,0,0s0,0,0,0a0,0,0,0,0,0,0S3.77,3.16,3.77,3.15Z"/><path class="cls-2" d="M3.76,3.09a0,0,0,0,0,0,0s0,0,0,0a0,0,0,0,0,0,0Z"/></g></g></svg>