<svg xmlns="http://www.w3.org/2000/svg" viewBox="0 0 6.72 9.39"><defs><style>.cls-1{fill:#fff;}.cls-2{fill:#3d3d3d;}.cls-3{fill:#b41818;}</style></defs><g id="Layer_2" data-name="Layer 2"><g id="Layer_1-2" data-name="Layer 1"><rect class="cls-1" x="0.04" y="0.04" width="6.65" height="9.32" rx="0.3"/><path class="cls-2" d="M6.39,9.39h-6A.34.34,0,0,1,0,9.06V.34A.34.34,0,0,1,.34,0H6.39a.34.34,0,0,1,.33.34V9.06A.33.33,0,0,1,6.39,9.39ZM.34.07A.27.27,0,0,0,.07.34V9.06a.27.27,0,0,0,.27.26H6.39a.26.26,0,0,0,.26-.26V.34A.27.27,0,0,0,6.39.07Z"/><path class="cls-2" d="M6.21,9.15H.51a.24.24,0,0,1-.24-.24V.49A.25.25,0,0,1,.51.24h5.7a.25.25,0,0,1,.25.25V8.91A.25.25,0,0,1,6.21,9.15ZM.51.3A.19.19,0,0,0,.32.49V8.91a.2.2,0,0,0,.19.19h5.7a.19.19,0,0,0,.19-.19V.49A.18.18,0,0,0,6.21.3Z"/><path class="cls-2" d="M6.69,3.66a.27.27,0,0,0-.09,0l0,0-.07,0h.06a.05.05,0,0,1,0,0s0,0,0,0,0,0,0,0S6.69,3.67,6.69,3.66Z"/><path class="cls-2" d="M5.32,0s.06,0,.06.1a.68.68,0,0,0,0,.14A.73.73,0,0,0,5.42.05h.07Z"/><path class="cls-2" d="M5.63,0s0,.08,0,.11a.24.24,0,0,0,0-.09Z"/><path class="cls-2" d="M2.38,0a.18.18,0,0,1,.07.05s0,.05,0,.07,0,0,.08,0l.07,0s0,0,0,0H2.51s0-.05,0-.06,0,0,0,0S2.42,0,2.38,0Z"/><path class="cls-2" d="M2.74,0s0,0,0,0,0,0,0,.05a.11.11,0,0,0,0-.08S2.77,0,2.74,0Z"/><path class="cls-2" d="M0,.49H.15l0,0h0a0,0,0,0,1,0,0S0,.47,0,.49Z"/><path class="cls-2" d="M0,8.66H.15l0,0h0s0,0,0,0S0,8.65,0,8.66Z"/><path class="cls-2" d="M.05.25s.08,0,.08,0,0,0,0,0,0,0,0,0,0,0,0,.06Z"/><path class="cls-2" d="M3.92,0s0,0,0,0v0s0,0,0,.06a.06.06,0,0,1,0,0,0,0,0,0,1,0,0s0,0,0,0,0,0,0,0Z"/><path class="cls-2" d="M4.17,9.37s.06,0,.06-.1a.68.68,0,0,1,0-.14.51.51,0,0,1,.06.2l.07,0Z"/><path class="cls-2" d="M0,8.13s.05.06.1.06l.15,0a.9.9,0,0,1-.22.06s0,0,0,.06A.7.7,0,0,1,0,8.13Z"/><path class="cls-2" d="M4.48,9.35s0-.08,0-.12,0,.08,0,.1Z"/><path class="cls-2" d="M1.23,9.35a.1.1,0,0,0,.07,0s0-.05,0-.07.05,0,.08,0l.07,0s0,0,0,0H1.36a.19.19,0,0,0,0,.07s0,0,0,0S1.27,9.35,1.23,9.35Z"/><path class="cls-2" d="M1.59,9.35s0,0,0-.06,0,0,0,0a.19.19,0,0,1,0,.08S1.62,9.35,1.59,9.35Z"/><path class="cls-2" d="M2.77,9.35h0s0,0,0,0,0,0,0-.06a.06.06,0,0,0,0,0,0,0,0,0,0,0,0s0,0,0,0h0Z"/><path class="cls-2" d="M6.69,1.63H6.46s0,0,0,0a.29.29,0,0,1-.17.06l-.12,0s.13,0,.16,0l.1,0a.3.3,0,0,1,.1,0,.41.41,0,0,1,.11,0h0s0,0,0,0S6.69,1.64,6.69,1.63Z"/><path class="cls-2" d="M6.69,6.83H6.46s0,0-.08,0a.25.25,0,0,1-.12,0s.09,0,.12,0,0,0,.1,0a.14.14,0,0,1,.16.06.16.16,0,0,1,0,.09s0-.06,0-.09A.22.22,0,0,0,6.69,6.83Z"/><path class="cls-2" d="M6.68,1.88s-.11,0-.15,0,.06,0,.08,0l0,0S6.69,1.9,6.68,1.88Z"/><path class="cls-2" d="M6.68,1.44s-.12.08-.16.07a.54.54,0,0,1,.11-.05l.07,0Z"/><path class="cls-2" d="M0,2.65s0,0,.06,0H.17a.85.85,0,0,0,.23,0,.26.26,0,0,1-.19.06C.15,2.72.05,2.73,0,2.65Z"/><path class="cls-2" d="M0,2.52c0-.09.13-.07.19-.09a.38.38,0,0,0-.15,0c-.08,0,0,0,0,.08Z"/><path class="cls-2" d="M.05,6.11c0-.07.1,0,.15,0s0,0,0-.05l0,0s0,.09-.07.12-.13,0-.17,0Z"/><path class="cls-2" d="M.05,4.57v0l0,0s0,0,0,.07a.43.43,0,0,1,0-.16Z"/><path class="cls-2" d="M.05,4.75s0,0,.06,0H.16s0,0,.09,0l-.06,0s0,0,0,0H.07a.06.06,0,0,0,0,.07s0,0,.05,0H0a.06.06,0,0,1,0,0A.16.16,0,0,1,.05,4.75Z"/><path class="cls-2" d="M0,6s.09,0,.11,0h0L0,5.91V6h0V6H0Z"/><path class="cls-1" d="M.83,2.19h0Z"/><path class="cls-1" d="M.85,2.2Z"/><path class="cls-2" d="M2.7,6.86v0s0,0,0,0v0s0,0,0,0v0S2.71,6.86,2.7,6.86Z"/><path class="cls-2" d="M2.92,7V6.91a0,0,0,0,1,0,0V7Z"/><path class="cls-2" d="M2.94,7v0s0,0,0,0h0Z"/><path class="cls-2" d="M2.83,6.88h0V7h0s0-.07,0-.09S2.82,6.88,2.83,6.88Z"/><path class="cls-2" d="M4.15,7.17a.87.87,0,0,0-.05.12L4,7.41l0,0s0,0,0,0a.57.57,0,0,0,0-.14v0l0,0,0,0a.64.64,0,0,1,0,.1v0l0,.06v0s0-.09,0-.11v0H4l0,.06v0l0,.12h0v0l0-.1v0s0,0,0,0-.08.2-.09.21a.07.07,0,0,1,0,0v0a.06.06,0,0,0,0,0v0s0-.07,0-.09h0a.64.64,0,0,1-.06.15l0,.06,0,0v0h0l0,0a1,1,0,0,0,0-.1s0,0,0,0,0,0,0,0l-.09.08-.1,0H3.11L3,7.72a.64.64,0,0,1-.13-.1l0,0h0a.18.18,0,0,0,0,0,1,1,0,0,0,.05.11h0l0,0a.29.29,0,0,1-.08-.13l0-.08h0s0,.06,0,.1v0s0,0,0,0v0s0,0,0-.07a1.12,1.12,0,0,0-.08-.18h0v0a.89.89,0,0,1,0,.11v0l-.05-.12,0,0,0-.06h0v0a.7.7,0,0,0,0,.14v0s0,0,0-.07l0,0,0,0V7.32l0,0v0a.08.08,0,0,1,0,0s0,0,0,0v0a.24.24,0,0,0,0,.08v0l0,0,0,0v0a1,1,0,0,1-.11-.24v0h0v.09s0,.07,0,.08v0a.08.08,0,0,1,0,0l0,0a.69.69,0,0,0,0,.1l0,.06a.51.51,0,0,0,0,.1.24.24,0,0,0,.11.09h0l.06,0,.13,0h.61l.11,0,.1,0h0l0,0A.54.54,0,0,0,4,7.61a.21.21,0,0,1,0-.07l.05-.1v0a1.66,1.66,0,0,0,.06-.16V7.15h0Z"/><path class="cls-2" d="M2.43,6.92s0,0,0-.06a.06.06,0,0,1,0,0,.11.11,0,0,1,0-.05h0v0s0,0,0-.06l0,0v0a.63.63,0,0,1,0,.12v0s0,0,0,0v0h0l0,.09h0v0A0,0,0,0,0,2.43,6.92Z"/><path class="cls-2" d="M2.92,7.25h0v.11H3v0s0,0,0,0a.34.34,0,0,1,0,.1v0H3v0a.22.22,0,0,0,0-.1s0,0,0,0v0H3l-.07,0,0,0h0Z"/><path class="cls-2" d="M2.47,6.78h0v.06h0v0h0v0a.07.07,0,0,1,0,.05h0v0l0,0s0,0,0,0v0a.1.1,0,0,1,0,0h0s0,0,0,0V7h0V7s0,0,0,0v0l0,0V7h0V7h0v.07a.2.2,0,0,0,0-.06h0l0,0v0s0,0,0,.06a0,0,0,0,1,0,0v0h0v0h0l0,0,0,0a.17.17,0,0,1,0,.07v0s0,0,0-.06v0h0a.26.26,0,0,1,0,.09v0s0,0,0,0a.11.11,0,0,1,0-.06V7.15s0,0,0,0h0a.08.08,0,0,1,0,0s0,0,0,0l0,0V7s0,0,0,0a.07.07,0,0,1,0,0v0l0,0,0,0s0,0,0,0l0,0v0l0,0,0,0,0,0h0v.12s0,0,0,0v0s0,0,0,0h0l0,0h0Z"/><path class="cls-2" d="M3.68,6.94V7h0a.09.09,0,0,0,0-.07Z"/><path class="cls-2" d="M3.21,7.32l0,0,0,0a.23.23,0,0,0,0,0v0a.25.25,0,0,0,0-.08h0v.11h0a.35.35,0,0,0,0-.06v0s0,.06,0,.06v0s0,0,0,0l.05-.06,0,0-.08,0s0,0,0,0H3.21Z"/><path class="cls-2" d="M2.74,7.32l0,0,0,0v0l0,0a.16.16,0,0,0,0-.06v0h0l0-.06h0a.15.15,0,0,0,0,.06l0,0s0,0,0-.05l0,0,0,0h0l0,0,0,0a.1.1,0,0,0,0,0s0,0,0,0a.1.1,0,0,1,0,0v0l0,.06v0h0v0h0Z"/><path class="cls-2" d="M3.47,7.44v0h0a.19.19,0,0,1,0-.08v0a.2.2,0,0,1,0,0v0s0,0,0-.07,0,0,0,0l.06,0h0l0,0H3.45s0,.08,0,.11Z"/><path class="cls-2" d="M3.63,7.31a.58.58,0,0,0,0,.1v0h0s0,0,0,0V7.34s0,0,0,0a.25.25,0,0,1,0-.09h0l0-.06s0,0,0,0a.16.16,0,0,1-.1.05s0,0,0,0v0S3.63,7.29,3.63,7.31Z"/><path class="cls-2" d="M3.46,7.62h.1l-.11,0-.11,0h.12l-.16,0a.47.47,0,0,0-.16,0L3,7.59h0l.1,0c.05,0,.05,0,0,0l-.11,0s0,0,0,0l.1,0h.13s0,0,0,0l-.13,0-.06,0h.33l0,0h0Z"/><path class="cls-2" d="M3.1,7.33a.19.19,0,0,1,0,.08v0h0V7.36h0v0a.21.21,0,0,1,0,.08s0,0,0,0v0a.43.43,0,0,0,0-.05.37.37,0,0,0,0-.09v0H3.09l0,0H3s0,0,.05,0Z"/><path class="cls-2" d="M3.93,6.94s0-.08,0-.08v.08Z"/><path class="cls-2" d="M2.51,7.08v0s0,0,0,0l0,0V7h0V7l0,.07Z"/><path class="cls-2" d="M3.8,6.88V7s0,0,0-.08Z"/><path class="cls-2" d="M4.32,6.73l0,0a.14.14,0,0,1,0,0h0l0,.1a.16.16,0,0,1,0,.06h0l0-.06a.22.22,0,0,1,.06-.07l0,0v0h0Z"/><path class="cls-2" d="M4.37,6.4h0v.14a.06.06,0,0,1,0,.06h0s0,0,0-.06v0a.22.22,0,0,0,0-.08Z"/><path class="cls-2" d="M4,7.19s0,0,0,0l0,0v0h0l0,.07,0,0v0h0l0,0,0,0h0v.06h0a.59.59,0,0,1,0-.08H4v0l0,0v0l0-.07H4A.72.72,0,0,0,4,7.23h0Z"/><path class="cls-2" d="M4.07,7.08V7s0,0,0,0h0v.07h0Z"/><path class="cls-2" d="M4.2,6.64a.14.14,0,0,1,0,0l0,0,0,0s0,0,0,0,0,0,0,0,0,0,0,0l0,0A.07.07,0,0,1,4,7L4,7l0,0s0,0,0,0l0,0,0,0-.05,0s0,0,0,0a.13.13,0,0,0,0,.06.43.43,0,0,1,0,0v0h0a.25.25,0,0,1,0-.1v.06h0s0,0,0-.06v0l0,0,0,0h0v0h0v0h0V7.06L4,7V7H4a.11.11,0,0,0,0,.05V7H4V7H4A.08.08,0,0,1,4,7a0,0,0,0,1,0,0H4V7s0,0,0,0a.06.06,0,0,1,0,0v0a.11.11,0,0,1,0,0h0s0,0,0,0v0h0s0-.07,0-.07v0h0v0a0,0,0,0,1,0,0s0,0,0,0v0h0s0,0,0,0h0v0s0,0,0,0v0s0,0,0-.06v0Z"/><path class="cls-2" d="M2.25,6.39v0s0,0,0,.08a.15.15,0,0,1,0,.06v0s0-.12,0-.12Z"/><path class="cls-2" d="M3.25,6.83V6.76s0,0,0,0v.11Z"/><path class="cls-2" d="M2.8,6.61v.1h0s0,0,0,0V6.61Z"/><path class="cls-2" d="M3.37,6.72s0,0,0,0v0Z"/><path class="cls-2" d="M2.93,6.7a.15.15,0,0,0,0-.07v0h0v.06a.25.25,0,0,0,0,.11h0Z"/><path class="cls-2" d="M3.83,6.55v.06s0,0,0,0,0,0,0,0h0V6.55Z"/><path class="cls-2" d="M3.54,6.82a.21.21,0,0,0,0-.11v0h0v.06s0,0,0,.06v0h0Z"/><path class="cls-2" d="M3.69,6.76h0a.25.25,0,0,0,0-.11V6.58h0v0a.46.46,0,0,0,0,.1v0Z"/><path class="cls-2" d="M3.08,6.75V6.69h0a.22.22,0,0,0,0,.06.31.31,0,0,0,0,.1h0v0A.18.18,0,0,1,3.08,6.75Z"/><path class="cls-2" d="M3.66,5.66l0-.1,0,0h0v.06s0,0,0,0l0,.1,0,.06v0s0,0,0,0v0l0,.08,0,0,0,.08h0A.37.37,0,0,0,3.65,6h0V6h0s0-.09,0-.09V6a0,0,0,0,1,0,0V6s0,0,0-.07V6a.13.13,0,0,1,0,0V5.94a.58.58,0,0,1,0-.1.44.44,0,0,0-.05-.14Z"/><path class="cls-2" d="M3.86,5.3l0,0h0l.05,0,0,0,.07,0h.15l-.07,0,.08,0h0l0,0,.06,0h0l0,0,0,0,.06,0,0,0,0,0,0,0h0l-.08,0H3.94l-.08,0Z"/><path class="cls-2" d="M4.13,5.69l.09,0h0l-.07,0h0l0,0h0l0,0H4l0,0,0,0h0L4,5.64H4l0,0H4l-.1,0h0l.07,0H4l-.07,0h0l0,0,0,0L4,5.73H4l-.06,0h0l0,0H3.89l0,0H3.87l0,0H3.84s0,0,0,0,0,0,0,0h.08l.09,0,0,0,0,0,0,0Z"/><path class="cls-2" d="M4.13,5.28,4,5.3H3.9l.11,0h.11l.08,0H4.07l.1,0H4.06l0,0Z"/><path class="cls-2" d="M3.8,5.56l0,0h0l-.05-.07a.42.42,0,0,1,0-.1v0a.23.23,0,0,0,0,.07s0,0,0,0Z"/><path class="cls-2" d="M3.31,6.31h0s0,0,0-.08V5.91a.06.06,0,0,1,0,0V6a.62.62,0,0,0,0,.18v0Z"/><path class="cls-2" d="M3.31,5v.16h0a0,0,0,0,1,0,0V5a.2.2,0,0,1,0-.07Z"/><path class="cls-2" d="M3.6,5.74a.21.21,0,0,0,0-.07.08.08,0,0,0,0,0,.43.43,0,0,0,0,0l0,0,0,0-.08-.26,0-.07,0,0h0l0,0h0s0,0,0,0l0,0a.26.26,0,0,0,0,.08s-.07.22-.09.26v0s0,0,0,.05l0,0a.14.14,0,0,1,0,.06s0,.1,0,.11v.07L3.1,6l0,0h.05l0,0h0V6.1a0,0,0,0,0,0,0h0v0a.33.33,0,0,1,0-.1.45.45,0,0,0,0-.08v0a.2.2,0,0,1,0,0s0,0,0,0,0,0,0,0a.43.43,0,0,1,0,0v0l0,.08a.21.21,0,0,1,0,.06.35.35,0,0,0,0,.06h0V6h0s0,0,0,0h0l0,0c.08-.14.09-.15.09-.18A.24.24,0,0,0,3.6,5.74Zm-.2-.45V5.4a.21.21,0,0,1,0,.06h0v0l0,0h0l0-.06v0a.33.33,0,0,0,0-.06.34.34,0,0,0,0-.09h0Zm-.25.22a.21.21,0,0,0,0-.1v0s0,0,0-.06h0a.23.23,0,0,1,0,.11v0s0,0,0,0,0,0,0,0Zm.08.39,0,0s0,0,0,0h0s0,0,0,0h0l0,0s0,0,0,0l0,0H3.14l0,0,0,0h0s0,0,0,0a.07.07,0,0,1-.07,0l-.05-.07,0-.07v0A.24.24,0,0,0,3.13,6h0v0a.19.19,0,0,1-.06-.1l0,0h0l0,0,0,0a.15.15,0,0,0,.06,0H3.2l0,0h0Zm.08-.13s0,0,0,0,0,0,0,0h0a.13.13,0,0,1,0,0Zm.26.08v0A.29.29,0,0,1,3.47,6a0,0,0,0,1-.06,0l0,0h0l0,0,0,0s0,0,0,0h0L3.4,6a0,0,0,0,1,0,0h0l0,0s0,0,.05,0h0a0,0,0,0,1-.05,0,.17.17,0,0,1-.06-.06s0,0,0,0l0,0h.06s0,0,.08-.08,0,0,0,0v0a.59.59,0,0,1,0,.08l0,0h0l0,0,0-.06v0Z"/><path class="cls-2" d="M4.58,5.61H4.47l-.1,0h.15l.07,0Z"/><path class="cls-2" d="M4.83,5.1v0s0,0,0,.08v0s0,0,0,0v0l0-.06V5a.06.06,0,0,1,0,0Z"/><path class="cls-2" d="M1.76,4.82l0,0V5a.1.1,0,0,1,0,0h0a.41.41,0,0,1,0-.11V4.86a.39.39,0,0,0,0,.15l0,0h0V5a.66.66,0,0,1,0-.14.2.2,0,0,1,0-.08v.1s0,.06,0,.08l0,0h0V5a.43.43,0,0,1,0,0v0a.54.54,0,0,0,0-.11V4.77h0v.07a.08.08,0,0,1,0,0l0,0V5a.16.16,0,0,1,0,0h0a.1.1,0,0,1,0,0s0-.05,0-.07a.45.45,0,0,0,0-.08V4.72L2,4.63,2,4.55l0,0h0l0,0,0,0s-.09.1-.09.12a.06.06,0,0,0,0,.06v.08l0,.07A.81.81,0,0,1,2,5a.29.29,0,0,0,0,.1l0,0a.1.1,0,0,0,.07,0h0l.08,0H2.15l-.1,0,0,0s0,0,0,0l0,0,.07,0a.08.08,0,0,0,.06,0h0a.31.31,0,0,1-.13,0L2,5.2H2l.08.07L2,5.22l0,0H2l0,0a.25.25,0,0,0,.08.07h0a.25.25,0,0,1-.12-.08l-.05-.06h0l.07.1a.12.12,0,0,0,0,0H2L2,5.28s0,0,0,0,0,0,0,0a.15.15,0,0,0,.1.07h.1l.07,0h.08l.07,0h.17l.11,0h.07s0,0,0,0h0s.06,0,.08,0h0s0,0,0,0l0,0,0,0h0l0,0h0l0,0,0,0,0,0,0,0,0,0H3l.07,0s0,0,0,0l0,0,0,0,0,0h0s0,0,.06,0H3l0,0s-.09.08-.08.08h0L3,5.14l-.07.05a.57.57,0,0,0-.11.11l-.05,0,0,0s0,0-.09,0l0,0h0l-.06,0h0a.51.51,0,0,0,.17,0h0l0,0h0l0,0,0,0h.07a.05.05,0,0,1,0,0s0,0,0,0l0,0,0,0a.29.29,0,0,0,0-.08l0-.06L3,5.23l0,0H3l0,0,0,0h0l.06,0H3s-.05,0-.07.06h0l.07,0A.19.19,0,0,0,3,5.19a.25.25,0,0,0,0-.07.47.47,0,0,1,0-.1s0,0,0,0V5l0,0a.15.15,0,0,1,0-.07l0,0h0l0,0,0,0s0,0,0,.13,0,0,0,0a.16.16,0,0,0,0,.07v0a.15.15,0,0,1,0,.08.35.35,0,0,1-.11.09h0l.1,0H3l-.09.07h0l.1,0s0,0,0,0l-.08.07,0,0H3l0,0H3v0s0,0,0,.05l0,0s0,0,0,0l0,0,0,0h0L3,5.49l0,0,0-.08a.54.54,0,0,0,.06-.13v0a.38.38,0,0,1,0,.1v.1h0v0l0-.09v0l0,0V5.16a.23.23,0,0,1,0-.1l0-.07a.1.1,0,0,0,0,0s0,0,0,0L3.19,5a.33.33,0,0,1,0-.06l0,0a.33.33,0,0,1,0-.06h0l-.08.09s0,0,0,0l0-.08,0,0,0,0,0,0h0l0,0,0,0,0,0,0,.08h0l-.08-.09h0l0,.06,0,0,0,.06L3.37,5s0,0,0,0l0,0,0,.07a.51.51,0,0,1,0,.1v.13l0,0s0,.07,0,.09v0s0,0,0,0v0s0,0,0,0l0-.09v0a.4.4,0,0,0,.06.13.35.35,0,0,0,0,.08l0,0,.06.08,0,0,0,0,0,0s0,0,0,0l0,0,0-.05,0,0h0l0,0,0,0s0,0,0,0l-.1-.09h0l.1,0h0L3.6,5.3h0l.1,0h0a.35.35,0,0,1-.11-.09.15.15,0,0,1,0-.08v0l0,0a.15.15,0,0,0,0-.07s0,0,0,0,0-.11,0-.13l0,0,0,0h0l0,0a.15.15,0,0,1,0,.07V5l0,0a.17.17,0,0,0,0,.05.06.06,0,0,1,0,0l0,.07a.19.19,0,0,0,.08.1l.07,0h0a.22.22,0,0,1-.07-.06h0l.06,0h0l0,0,0,0h0l0,0,.08.06,0,.06a.15.15,0,0,0,0,.08l0,0,0,0h0a.05.05,0,0,1,0,0h.05l0,0,0,0h0l0,0h0l.1,0h0L4,5.43l0,0a.51.51,0,0,1-.1,0l0,0,0,0-.06-.07-.1-.07,0,0,.14.07h0l-.08-.08,0,0h0s.06,0,.06,0h0l0,0,0,0s0,0-.05,0,0,0,0,0l.06,0h0l0,0,0,0,.07.07,0,0h0l0,0h0l0,0,0,0s0,0,0,0l0,0,0,0H4l.1,0h.17l.08,0h.08l.11,0a.13.13,0,0,0,.09,0l0,0,.06-.06h0l0,0-.06,0h0l0,0,.07-.1h0l-.07.09-.07,0,0,0h0a.2.2,0,0,0,.09-.07l0,0h0l0,0-.08,0,.08-.07h0l-.06,0a.31.31,0,0,1-.13,0s0,0,0,0l.06,0,.07,0,0,0s0,0,0,0l0,0-.1,0H4.41l.09,0h0a.1.1,0,0,0,.07,0,.09.09,0,0,0,0,0s0,0,0-.1a.89.89,0,0,0,0-.11s0,0,0-.07a.22.22,0,0,0,0-.08v0a.08.08,0,0,0,0,0l0,0-.06-.07,0,0s0,0,0,0h0l0,0,.09.08a.28.28,0,0,1,0,.09s0,0,0,0v.07a.28.28,0,0,1,0,.08.19.19,0,0,0,0,.07V5h0a.16.16,0,0,1,0,0V4.87s0,0,0,0V4.77s0,0,0,0a.49.49,0,0,1,0,.14V5a.11.11,0,0,0,0,0V5h0V5s0,0,0-.06a.17.17,0,0,0,0-.07V4.8a.2.2,0,0,1,0,.08.34.34,0,0,1,0,.14V5l0,0a.52.52,0,0,0,0-.14v0s0,.06,0,.1a.41.41,0,0,1,0,.11h0a.1.1,0,0,1,0,0V4.91a.31.31,0,0,0,0-.11v0l0,0,0,0h0a.38.38,0,0,0,0-.1l0-.07a.55.55,0,0,0-.1-.11l0,0a.53.53,0,0,0-.15-.08.26.26,0,0,0-.14,0h-.1a.19.19,0,0,0-.08,0l0,0,0,0L4,4.59l-.07,0,0,0,0,0,0,0H4l0,0,0,0,0,0H4l.07,0,.09-.05h0l-.09,0,0,0H4l.07,0a.45.45,0,0,1,.14-.06l0,0H4.17l-.08,0L4,4.48l0,0-.07.06,0,0,0,0-.12.15,0,0H3.43s0,0,0,0l0,0s0,0,0,0v0l0,0,0,0h.23l0,0,0,0v0l.09-.11,0,0,0,0-.09.08,0,0,0,0-.08.08,0,0c0-.06,0-.08,0-.09l0,0a.1.1,0,0,1,0,0l0,0,0,0a.47.47,0,0,0-.1.09l0,0,0,0a.6.6,0,0,1,.06-.11l0,0,0,0-.06,0-.12.13v0s0,0,0-.06l.05-.07a.15.15,0,0,1,0-.06h0l0,0-.12.11h0l0,0,.06-.08,0,0h0l-.06.05,0,0,0,0v0l0,0,0,0s0,0,0,0v0h0l0,0,0,0,0,0,0,0a.07.07,0,0,1,0-.05v0h0l0,0,0,0h0v0l0,0s0,0,0,0a.37.37,0,0,1,.12-.07.43.43,0,0,1,.15-.06l.12,0,.07,0H3.78l0,0,0,0,.05,0L4,4.2l0,0,.08,0h.12l0,0-.06,0H4.06L4,4.15l0,0v0L4,4.06H4a.11.11,0,0,0-.09.06l-.14.14,0,0,0,0,0-.06,0,0h0l0,0-.09.1,0,0h0a.16.16,0,0,0,0-.07l0,0v0l-.08.09s0,.05,0,.05v0l0,0v0h0l0,.06,0,0,0,.06v0l0-.08v0h0a.64.64,0,0,0-.06.1s0,0,0,0,0,0,0,0v0a.1.1,0,0,0,0,0l0,0h0V4.24a.28.28,0,0,1,0,0s0,0,0,.07a.11.11,0,0,0,0,0,.2.2,0,0,1,0,.11.17.17,0,0,1,0,.07l0,0,0,0v0s0,0,0-.06a.19.19,0,0,0,0-.08V4.38a.19.19,0,0,1,0,.09c0,.06,0,.06,0,0a.41.41,0,0,1,0-.11V4.31h0a.18.18,0,0,1,0,0v.07s0,0,0,.06,0,0,0,0v0l0-.09v.07s0,0,0,.08l0,.06,0,0,0,0,0,0,0-.07a.36.36,0,0,1,0-.11.43.43,0,0,1,0,0,.2.2,0,0,1,0-.07s0,0,0,0v.09h0l0,0a.1.1,0,0,0,0,0v0l0,0s0,0,0,0A.64.64,0,0,0,3,4.23H3v0a.45.45,0,0,1,0,.08v0L3,4.3l0,0,0-.06H3v0a.08.08,0,0,0,0,0v0l0,0,0,0-.07-.07v0l0,0L3,4.31H3l0,0-.09-.1,0,0h0l0,0,0,.06,0,0,0,0-.14-.14a.11.11,0,0,0-.09-.06h0l.09.09v0l0,0-.09,0H2.51a.07.07,0,0,0-.06,0l-.05,0h.13l.08,0,.09,0,0,0,.06.06,0,0s0,0,0,0H2.71l.06,0,.1,0,.09,0,.08,0a.27.27,0,0,1,.11.06s0,0,0,0l0,0v0h0l0,0,0,0,0,0v0a.11.11,0,0,1,0,.05s0,0,0,0l0,0,0,0,0,0h0v0l0,0,0,0,0,0v0h0l0,0-.07,0,0,0H3l0,0,.06.08,0,0v0h0L3,4.59s0,0,0,0H3l0,.06,0,0,.05.07s0,0,0,0L3,4.59l-.06,0v0l0,0L3,4.7s0,0,0,0l0,0-.1-.09-.05,0,0,0,.07.08,0,.08,0,0-.09-.08a.31.31,0,0,0-.07-.08L2.73,4.5v0l0,0,.08.11,0,0,0,0,0,0h.23l0,0,0,0v0s0,0,0,0l0,0s0,0,0,0H2.92l0,0,0-.06,0,0,0,0,0,0L2.67,4.5h0l-.12-.08-.09,0h0l.06,0h0l.07,0,.07,0h0l-.06,0-.08,0h0a.7.7,0,0,1,.16.1H2.49l0,0,0,0,0,0h0l0,0,0,0h0l0,0-.07,0-.12-.07,0,0,0,0-.07,0h-.1a.4.4,0,0,0-.11,0,.5.5,0,0,0-.19.1l0,0a.36.36,0,0,0-.1.11l-.05.07s0,.08,0,.1h0Zm2.85-.16a.6.6,0,0,1,0,.14h0v0l0-.06h0v.07a.18.18,0,0,1,0,.06v0h0V4.8s0,0,0-.06a.32.32,0,0,0,0-.09S4.6,4.64,4.61,4.66Zm-.4.56.09,0,.12,0,.11-.07a.17.17,0,0,0,.06-.06s0,0,0,0a.79.79,0,0,1-.13.13h0l.11-.06h0a.38.38,0,0,1-.11.08h0l.09,0h0v0l-.09,0H4.4l0,0,0,0h0l0,0-.08,0h0a.27.27,0,0,0,.12-.06h0l-.11,0H4.19S4.19,5.22,4.21,5.22ZM3.5,4.86s0,0,0,0l0,0s0,0,0,0l0,0,0,0h0L3.54,5s0,0,0,0l0,0v0a.1.1,0,0,1,0,0ZM3,5,3,5l0,0s0,0,0,0a.36.36,0,0,0,0-.09v0h0a.44.44,0,0,1,0,.14L3,5H3S3,5.05,3,5Zm-1-.3a.26.26,0,0,0,0,.15v0H2v0a.43.43,0,0,1,0,0,.15.15,0,0,1,0-.06V4.71H2V4.8H2v0a.25.25,0,0,1,0-.07s0-.08,0-.08H2Zm.23.44.13,0h0l-.1,0-.08,0h0a.48.48,0,0,0,.16.07h0l-.09,0-.09,0h0l.07,0h0l-.12-.05,0,0h0l.09,0h0l-.07,0,0,0H2l.1.06s0,0,0,0l-.06-.06L2,5.05,2,5H2l0,0,.06.06A.33.33,0,0,0,2.21,5.18Z"/><path class="cls-2" d="M4.31,4.37l-.06,0h.11l-.15.06,0,0h.07l.06,0h.11l.15,0,.09,0,.1.09.06.06,0,0v0l0,0,0-.06-.06-.07,0,0h0a.23.23,0,0,1,.07.07h0l0,0a.23.23,0,0,0-.07-.08v0l.06,0h0s0,0,0-.05l-.06,0-.07,0h0l.06,0h0l-.06,0-.08,0H4.31Z"/><path class="cls-2" d="M5.12,4.33h0l0,0A.53.53,0,0,0,5.31,4a.59.59,0,0,0,0-.23,3.49,3.49,0,0,1,0-.65A.8.8,0,0,0,5.1,2.6l0,0s0-.1-.07-.15a.66.66,0,0,0-.12-.22A2.59,2.59,0,0,0,4.64,2L4.4,1.88l-.1-.09A1,1,0,0,0,4,1.54a1.28,1.28,0,0,0-.45,0h0c0-.11-.08-.13-.21-.14a.25.25,0,0,0-.19.06.11.11,0,0,0,0,.08,1,1,0,0,0-.71.3,1.61,1.61,0,0,1-.43.3.88.88,0,0,0-.38.35.78.78,0,0,0-.09.65v0h0a1.51,1.51,0,0,0,0,.67v0a.86.86,0,0,0,0,.17v.06a.69.69,0,0,0,0,.39l0,.07a.7.7,0,0,0,0,.12v.13c0,.05,0,.11,0,.15a.31.31,0,0,1,0,.08V5l-.05.14a.38.38,0,0,0,0,.1v0a.23.23,0,0,0,0,.09l0,0,0,0v.08a.74.74,0,0,0,0,.12s0,0,0,.06l0,0,0,.06,0,0s0,0,0,0v0h0l0,0,0,0,.1,0,.13,0,.07,0H2V6.2a.21.21,0,0,0,0,.06v.09c0,.09,0,.14,0,.23a.28.28,0,0,0,0,.1.42.42,0,0,0,0,.15l0,0H2v0s0,0,0,.06a.33.33,0,0,0,0,.06l.08.1,0,0,0,0,0,0,0,0,0,0,.05.13a.19.19,0,0,1,0,.07v0a.08.08,0,0,1,0,0l0,0,0,0,.06,0a.06.06,0,0,0,.05,0h0l0,0,.06.07.07,0,0,0,.13,0h.77l.09,0,0,0,.09-.06,0-.05.05,0,0,0,.06,0,0,0,0-.06,0-.12a.52.52,0,0,1,.06-.13l0,0s0,0,0,0l0,0,0,0,0,0L4.55,7a.22.22,0,0,0,0-.13V6.85a.45.45,0,0,0,.06-.27,2.29,2.29,0,0,0,0-.25V6.18a.38.38,0,0,1,0-.1h0s0,0,.05,0l0,0h0l.09,0L4.9,6l0,0H5l0,0v0a.88.88,0,0,1,0-.1.17.17,0,0,0,0,0V5.66a.7.7,0,0,0,0-.12V5.46l0,0,0-.08a.15.15,0,0,0,0-.06v0a.44.44,0,0,0,0-.1.65.65,0,0,0,0-.13V5a.31.31,0,0,1,0-.08s0-.08,0-.14v0a.17.17,0,0,0,0-.08.25.25,0,0,1,0-.08s0,0,0-.06V4.46a.64.64,0,0,0,0-.07S5.11,4.35,5.12,4.33ZM5,5.38l0,0V5.34s0-.09,0-.1H5s0,0,0,.06v0A1,1,0,0,0,5,5.5a.79.79,0,0,1,0,.13,0,0,0,0,1,0,0v0a.24.24,0,0,0,0,.07l-.05.11,0,0-.06,0L4.64,6l-.1,0a.09.09,0,0,1-.08,0L4.38,6a.15.15,0,0,0-.08,0h0l-.06,0H4.07L4,5.92,3.92,6l-.1.11h0l0,0h0L4,6H4L4,6H4l-.1.1a.11.11,0,0,0,0,.06h0l0-.05L4,6H4L4,6l0,0,0,0a.21.21,0,0,0,0,.07.3.3,0,0,0,0,.15s0,.05,0,0a.25.25,0,0,1,0-.08h0a.12.12,0,0,0,0,0v0a.21.21,0,0,1,0,.06s0-.05,0-.08,0-.05,0-.07a.15.15,0,0,1,0-.07v0l0,0a.38.38,0,0,0,0,.1.06.06,0,0,0,0,0,.07.07,0,0,0,0,0v0h0V6.36a.25.25,0,0,1,0-.07v0a.17.17,0,0,0,0,.07v0h0v0a.32.32,0,0,1,0-.12v0h0a.26.26,0,0,0,0,.07s0,0,0,0a.28.28,0,0,1,0,.08h0s0,0,0,0v0a.3.3,0,0,1,0-.1s0,0,0,0a.14.14,0,0,1,0-.07h0l0,0a.19.19,0,0,0,0,.08v0a.13.13,0,0,0,0,.06v.07h0l0,0s0,0,0,0h0v.09h0a.14.14,0,0,1,0-.06s0,0,0-.06v0a.35.35,0,0,0,0,.06.13.13,0,0,0,0,.06.17.17,0,0,1,0,.07s0,.07,0,.07h0a.4.4,0,0,0,0-.11c0-.06,0-.08,0-.1a.17.17,0,0,1,0-.08s0,0,0,0,0,0,0,.08a.31.31,0,0,0,0,.1s0,0,0,0a.1.1,0,0,1,0,0h0a.29.29,0,0,0,0-.09.46.46,0,0,1,0-.16v0a.35.35,0,0,1,0-.06h0a.26.26,0,0,0,0,.08v0a.54.54,0,0,0,0,.08s0,.06,0,.08v0s0,0,0,0,0-.06,0,0h0a.07.07,0,0,1,0,0v0l0-.06v.12a.22.22,0,0,1,0,.08s0,0,0,0V6.5s0,0,0-.07a.41.41,0,0,0,0-.07V6.3h0v.07a.32.32,0,0,0,0,.08.08.08,0,0,1,0,0v0h0a.22.22,0,0,0,0-.08.24.24,0,0,1,0-.09s0,0,0-.06,0,0,0-.11h0l0,.08a.37.37,0,0,0,0,.11.38.38,0,0,1,0,.1.08.08,0,0,0,0,0v0a.33.33,0,0,1-.06.1l0,0h0l0,0a.33.33,0,0,1-.06-.1v0s0,0,0,0v-.1a.2.2,0,0,0,0-.11l0-.08h0a.17.17,0,0,1,0,.11v.06s0,.07,0,.09a.24.24,0,0,0,0,.08h0V6.46s0-.06,0-.08a.15.15,0,0,0,0-.07h0v0s0,0,0,0a.56.56,0,0,1,0,.07.19.19,0,0,0,0,.07v.1h0s0,0,0,0a.11.11,0,0,1,0-.08.68.68,0,0,0,0-.12V6.4l0,.06v0h0s0,0,0,0,0,0,0,0V6.27l0-.08H3a.11.11,0,0,1,0,.06v0a.44.44,0,0,1,0,.15s0,.06,0,.09H3v0s0,0,0,0a.49.49,0,0,1,0-.11.33.33,0,0,0,0-.1.17.17,0,0,0,0-.08H3v0A.27.27,0,0,1,3,6.4a.73.73,0,0,0,0,.08.15.15,0,0,0,0,.06H3a.2.2,0,0,1,0-.08V6.34A.11.11,0,0,1,3,6.4a.14.14,0,0,0,0,.06h0v0a.06.06,0,0,0,0,0v0h0s0,0,0,0l0,0h0V6.38a.13.13,0,0,0,0-.06.22.22,0,0,0,0-.08l0-.08h0a.25.25,0,0,1,0,.15.17.17,0,0,1,0,.07.11.11,0,0,0,0,.07v0a.2.2,0,0,1,0,0s0,0,0-.06v0a.28.28,0,0,0,0-.08s0,0,0,0a.22.22,0,0,1,0,.11s0,0,0,.06h0s0,0,0-.06a.43.43,0,0,1,0,0V6.27a0,0,0,0,0,0,0,.11.11,0,0,1,0,.08v.06h0s0,0,0,0a.07.07,0,0,0,0,0s0,0,0,0a.18.18,0,0,0,0-.1l0,0v0a.21.21,0,0,1,0,.19s0,.06,0,.08h0a.1.1,0,0,1,0,0,.13.13,0,0,1,0-.06.17.17,0,0,0,0-.07.18.18,0,0,1,0,0h0v0a.18.18,0,0,0,0,.06v0a.49.49,0,0,0,0-.15l0-.07,0,0s0,0,0,0l0,0h0l.07.06,0,.05h0a.11.11,0,0,0,0-.06A.94.94,0,0,0,2.6,6h0l0,0,0,0,0,0,0,0,0,0h0L2.7,6l-.07,0-.08,0H2.4l-.06,0h0a.21.21,0,0,0-.09,0L2.16,6s-.06,0-.08,0L2,6,1.8,5.94l-.06,0-.05,0-.05-.11a.24.24,0,0,0,0-.07v0a.08.08,0,0,1,0,0l0-.07a.87.87,0,0,0,0-.18s0,0,0,0v0a.15.15,0,0,1,0-.06h0v.18l0,0a.26.26,0,0,1,0-.15V5.17a.08.08,0,0,0,0,0s0,0,0-.06l0,0V5s0,0,0,0l0,0,0,0,0,.1v0s0,0,0,.06,0,0,0,0h0a.08.08,0,0,1,0,0,.16.16,0,0,1,0-.07l0,0v0l0,0a.37.37,0,0,0,0,.09h0v0l0,0,0,0h0v0l0,.07v0h0a.06.06,0,0,1,0,0l0-.06v0a.43.43,0,0,0,0,0v0h0a.26.26,0,0,1,0-.08h0s0,.08,0,.09h0v.14h0V5.06a.13.13,0,0,1,0-.06.06.06,0,0,0,0,0,.28.28,0,0,0,0-.09V4.81a.62.62,0,0,1,0-.15s0,0,0-.08l0-.06h0l0,0a.41.41,0,0,0,0,.08.22.22,0,0,0,0,.08h0a.17.17,0,0,1,0-.1.61.61,0,0,1,0-.11.49.49,0,0,1,.08-.13.21.21,0,0,1,.05-.07l.1-.08.08,0,.13,0h.07l-.08,0H2l-.11,0h0l.09,0,.16,0h.07l-.13,0h.29a.16.16,0,0,1,0-.11h0s0,0,0,0v0h0a.2.2,0,0,1,0-.11.15.15,0,0,1,0-.06h0A.25.25,0,0,1,2.3,4V4h0a.25.25,0,0,1,0-.1s0-.05,0-.06a4.38,4.38,0,0,1,1-.31h0a1.46,1.46,0,0,0,0,.21v.06A1,1,0,0,0,3.3,4a.45.45,0,0,1,0,.11v0s0-.13,0-.21V3.79a1.55,1.55,0,0,0,0-.22v0a2.57,2.57,0,0,1,.61,0h0s0,0,0,0l0,0-.05,0-.11.08s0,0,0,0l0,0,.1,0h0v0h0l0,0s0,0,.07,0H4a.09.09,0,0,0,0,0v.12a0,0,0,0,0,0,0s0,0,0,0v0A.19.19,0,0,0,4,3.7s0,0,0-.05H4l0-.05,0,0,.05,0h0a1.69,1.69,0,0,1,.27.13v.06s0,0,0,.06,0,0,0,0a.36.36,0,0,0,0-.1l0-.05h0v0a.33.33,0,0,1,0,.14s0,.07,0,.09v0a.13.13,0,0,0,0-.09,0,0,0,0,0,0,0h0s0,0,0,.05a.54.54,0,0,0,0,.08s0,0,0,.08h0V4a.25.25,0,0,1,0-.07h0a.08.08,0,0,1,0,.07V4l0,.05h0a0,0,0,0,0,0,0,0,0,0,0,0,0,0h0s0,0,0,.06a.16.16,0,0,1,0,.06h0l.2,0h.06l-.12,0h.2a.44.44,0,0,1,.16.06h0l-.1,0H4.48l-.07,0h.07l.13,0,.07,0,.08,0h0l0,0,0,0s0,0,0,0l0,.1a.47.47,0,0,1,0,.09.33.33,0,0,1,0,.1s0,0,0,0a.22.22,0,0,0,0-.08l0-.08,0,0h0a.35.35,0,0,0,0,.06.15.15,0,0,1,0,.08.62.62,0,0,1,0,.15v.06a.28.28,0,0,1,0,.09V5a.13.13,0,0,1,0,.06v.22a.43.43,0,0,0,0,0h0v0a.15.15,0,0,0,0-.06V5.17h0v0h0s0-.07,0-.09h0A.26.26,0,0,1,5,5.2H5v0a.11.11,0,0,1,0,0v0l0,.06a.06.06,0,0,1,0,0H5V5.08H5l0,0,0,0v0H5A.37.37,0,0,0,5,5.1l0,0v0l0,0,0,.07,0,0H5v0l0-.06v0L5,5l0,0A0,0,0,0,1,5,5L5,5,5,5l0,0c0,.06,0,.07,0,.1s0,.09,0,.1a.19.19,0,0,1,0,.07ZM4.55,6.8h0v0h0s0,0,0-.06a.06.06,0,0,0,0,0,.5.5,0,0,0,0-.15s0-.08,0-.1v0a.22.22,0,0,1,0-.08.43.43,0,0,0,0,0V6.12h0v.07s0,0,0,0,0,.08,0,.14v0a.91.91,0,0,1,0,.23.25.25,0,0,1,0,.09v0Zm-.25.43a.32.32,0,0,0-.07.1,1.44,1.44,0,0,0-.07.16s0,0,0,0v0l0,.06h0l0,0H4l0,0,0,0s0,0,0,0v0a.1.1,0,0,0,0,0,0,0,0,0,1,0,0v0l0-.08.05-.09v0l0,0,0,0,0,0,.08-.09,0,0A.37.37,0,0,0,4.49,7v0a.28.28,0,0,0,0-.11c0-.07,0-.09,0-.1V6.64l0,0v0h0v.1a1,1,0,0,1,0,.24s0,.06,0,.06V6.78l0-.06v0h0V7h0V6.9a.33.33,0,0,0,0-.12v0c0,.06,0,.21,0,.23h0V7s0,0,0-.08v0h0V7c0,.09,0,.13,0,.1s0,0,0-.06a.45.45,0,0,0,0-.08V7a.43.43,0,0,1,0,.11v.06h0v0s0-.06,0-.08V7s0,0,0,0v0a.7.7,0,0,1,0,.14l0,.13v0a.39.39,0,0,1,0,.06l0,0,0,.07,0,.08,0,0,0,0,0,0-.11.07a.64.64,0,0,1-.18.06h-.7l-.12,0a.41.41,0,0,1-.11-.07l0,0,0,0,0,0,0-.07,0-.07v0a1.22,1.22,0,0,1-.07-.17.72.72,0,0,1,0-.14s0,0,0-.06v0a.2.2,0,0,1,0-.07h0s0,0,0,.07v.07h0V7.07a.31.31,0,0,1,0-.1,0,0,0,0,0,0,0,.51.51,0,0,1,0,.09v0h0a1,1,0,0,1,0-.12V7s0,0,0,0,0-.18,0-.24v0a1.15,1.15,0,0,1,0,.14V7h0V7s0-.07,0-.11a.72.72,0,0,1,0-.17h0a1,1,0,0,0,0,.12v.11c0,.05,0,.05,0,0a1.19,1.19,0,0,1,0-.26s0-.09,0-.1,0,0,0,0v.1a.85.85,0,0,0,0,.17.14.14,0,0,0,0,.09s0,.06.06.1l0,0,0,0,.06.06,0,0,0,0v0l.06.11a.08.08,0,0,0,0,0v.06s0,0,0,0v0s0,0,0,.06l0,0h0l0,0h0a.11.11,0,0,1,0-.06l0,0s0,0,0,0,0-.1,0-.12a.71.71,0,0,0-.1-.14l0,0,0,0,0,0,0,0L2.13,7l0,0s0,0,0-.07a.44.44,0,0,1,0-.1V6.71a.36.36,0,0,0,0-.1s0,0,0,0a.36.36,0,0,0,0,.07V6.34h0s0,.11,0,.14a.26.26,0,0,1,0,.07h0s0,0,0,0V6.34s0-.12,0-.12a.21.21,0,0,0,0,.06v0a.34.34,0,0,1,0,.1v0s0-.08,0-.12,0-.09,0-.15a.1.1,0,0,1,0,0h0v0s0,0,0,.12v.08h0s0,0,0-.06a.24.24,0,0,0,0-.07.56.56,0,0,0,0-.13v0s0,0,0,0a.43.43,0,0,0,0,0v.13h0V6.2a.49.49,0,0,0,0-.11V6h0v.2a.35.35,0,0,0,0,.12.24.24,0,0,0,0,.12.36.36,0,0,0,0,.11l0,.08h0v0l0-.07v0l0,0v0s0,0,0-.06,0,0,0,0a.41.41,0,0,0,0,.09l0,0h0v0a.3.3,0,0,0,0,.1s0,0,0,0l0,0,0,0,0,.06h0v0s0,0,0,0V7h0A.09.09,0,0,0,2.73,7l0,0,0,.05.06,0h0l.05,0a.1.1,0,0,0,.07,0H3l.07,0h.07a.19.19,0,0,0,.12,0h.11l.06,0h.08l.07,0h.1s0,0,0,0h0l.05,0a.12.12,0,0,0,0-.05l0,0A.09.09,0,0,0,4,7L4,7l0,0v0H4a.15.15,0,0,0,0-.06v0l0,0a0,0,0,0,1,0,0,.27.27,0,0,0,.05-.11v0a.29.29,0,0,0,.06-.1l0,0v.11a0,0,0,0,0,0,0s0,0,0-.05h0v0a.41.41,0,0,1,0,.1h0l0-.07,0-.12V6.36a.6.6,0,0,0,0-.08V6s0,0,0,0v.11s0,.13,0,.13h0V6.21a.59.59,0,0,0,0-.11s0,0,0,0v.19a.35.35,0,0,1,0,.06v0h0v0a.17.17,0,0,0,0-.08.49.49,0,0,1,0-.13h0v.22s0,.09,0,.09v0a.38.38,0,0,0,0-.1v0a.35.35,0,0,1,0-.06V6.5s0,0,0,0h0a.2.2,0,0,0,0,0s0-.07,0-.12v0a.29.29,0,0,1,0,.1v.25h0V6.6s0,.06,0,.08v0a0,0,0,0,0,0,0s0,0,0,0a.43.43,0,0,0,0,.11.18.18,0,0,1,0,.06s0,0,0,0l-.07.1,0,0,0,0,0,0Zm-2.25-.5s0,0,0-.06V6.59c0-.07,0-.13,0-.19s0,0,0-.06,0-.08,0-.11V6.15s0,0,0,0v.06s0,0,0,.06a.67.67,0,0,1,0,.1v0s0,.12,0,.17,0,.05,0,.07v0a.11.11,0,0,0,0,.06s0,0,0,0h0V6.73Zm.56-.66a.15.15,0,0,1,.05.09l0,.08a.33.33,0,0,1,0,.14s0,0,0,0V6.33s0-.1,0-.12a.32.32,0,0,0,0-.09l-.05-.06L2.49,6h0Zm0-.13Zm.24.69V6.7a.12.12,0,0,0,0,.07h0l0,0v0h0v.06h0a.36.36,0,0,1,0-.11h0v.07s0,0,0-.07V6.52c0-.06,0-.07,0,0v.08h0s0-.06,0-.07v0s0,0,0,0a.13.13,0,0,0,0,0h0v0S2.83,6.62,2.83,6.63ZM3,6.81s0,0,0,0a.45.45,0,0,1,0-.08H3a.4.4,0,0,0,0,.11H3s0,0,0,0,0,0,0,0v0l0,0s0,0,0,0v0a.15.15,0,0,1,0-.06v0a.57.57,0,0,1,0-.14v0h0s0,.06,0,.07h0a.13.13,0,0,1,0-.08h0l0,0,0,0a.05.05,0,0,0,0,0H3v0A.61.61,0,0,0,3,6.81Zm.13,0a.31.31,0,0,0,0,.1v0l0-.05a0,0,0,0,0,0,0v.07h0l0,0h0v0a0,0,0,0,1,0,0h0a.11.11,0,0,1,0,0v0s0,0,0-.06H3v.09s0-.07,0-.12V6.56H3a.56.56,0,0,0,0,.07H3a.15.15,0,0,1,0-.06h0a.1.1,0,0,0,0,0h0v0h0v0a.17.17,0,0,0,0,.07v.13Zm.06-.1h0a.43.43,0,0,0,0,0h0v.06h0s0,0,0,0h0l0,.06a.41.41,0,0,1,0,.08.38.38,0,0,1,0,.15h0v0h0V7l0,0h0V7h0a.64.64,0,0,1,0-.07h0V7h0a.24.24,0,0,1,0-.09h0v.07a.33.33,0,0,1,0-.14.06.06,0,0,0,0,0v.08c0,.08,0,.08,0,.07s0-.08,0-.11a.57.57,0,0,1,0-.19l0,0h0Zm.26-.1h0a.23.23,0,0,1,0,0,.37.37,0,0,1,0,.12v.14a.2.2,0,0,1,0,0V6.76s0,0,0,0v.09s0,.06,0,.06V6.87h0s0,.08,0,.09h0V6.88h0s0,.05,0,.06h0s0,0,0,0,0,0,0,0h0l0,0v-.1h0v0s0,0,0,0V6.79a.25.25,0,0,1,0-.11.09.09,0,0,0,0-.06h0l0,0h0V6.61h0l0,0h0Zm.06.12v0l0-.07v0h0s0,0,0,0h0v0h0a.15.15,0,0,1,0,.06h0a.56.56,0,0,0,0-.07h0v.15a.5.5,0,0,1,0,.12V6.74h0a.15.15,0,0,0,0,.06v0a.11.11,0,0,1,0,0h0v0h0l0,0h0s0,0,0,0,0-.07,0-.07a0,0,0,0,0,0,0l0,.05v0a.38.38,0,0,1,0-.1V6.7Zm.14-.07h0s0,0,0,0l0,0,0,0s0,0,0,0l0,.08h0s0-.06,0-.07h0v.07a.14.14,0,0,1,0,.09v0a.15.15,0,0,1,0,.06v0c0-.1,0-.11,0-.06v.08a.08.08,0,0,1,0,.06h0v0h0v0h0V6.71h0a.45.45,0,0,1,0,.08s0,0,0,0,0-.1,0-.14ZM4,6,4.1,6l0,0h0l-.08.09a.15.15,0,0,0,0,.06l0,.09s0,.08,0,.12V6.4h0V6.29s0-.07,0-.09A.34.34,0,0,1,4,6.08S4,6.05,4,6ZM4,6H4Zm.23.18v.09a.15.15,0,0,0,0,.07v0h0s0,0,0-.06a1.6,1.6,0,0,0,0-.17v0h0v.09ZM4,6.81H4v.09H4v0a.37.37,0,0,0,0-.11l0,0H4a.05.05,0,0,1,0,0H4v0H4s0,0,0,0v.12s0,0,0,0H4Zm-.09.07h0v0s0,.06,0,.08V7h0V7a.17.17,0,0,0,0-.1.14.14,0,0,0,0-.07h0a.43.43,0,0,1,0,0v0h0V6.75h0v0a.29.29,0,0,1,0,.16h0V7h0ZM3.83,7h0a.11.11,0,0,1,0,.06v0h0V7s0,0,0,0v0h0V7a.31.31,0,0,0,0-.13.05.05,0,0,0,0,0h0a.19.19,0,0,1,0,.07h0a.22.22,0,0,0,0-.08h0a.22.22,0,0,1,0,.13.17.17,0,0,1,0,.08h0Zm-.1.09s0,0,0,.05a.06.06,0,0,0,0,0V7s0,0,0-.09v.17s0,0,0,0h0v0s0,0,0,0h0V7.05a.14.14,0,0,1,0,.06h0a.16.16,0,0,0,0-.1V6.9h0l0,0H3.7a.39.39,0,0,0,0,.06V7h0a.17.17,0,0,0,0-.1h0a0,0,0,0,1,0,0v0s0,.09,0,.09h0v.06s0,0,0,0h0a.26.26,0,0,0,0-.07Zm-.14-.15s0,0,0,0,0,0,0,.11,0,.11,0,.12h0V7h0v.1s0,0,0,0a.1.1,0,0,1,0,0V7.12h0a.43.43,0,0,0,0,0s0,0,0,0h0V7.12h0a.08.08,0,0,1,0,0s0,0,0,0a.48.48,0,0,0,0-.12h0v0a.41.41,0,0,0,0,.07v0s0-.19,0-.22h0V7a.08.08,0,0,1,0,0h0V6.92h0Zm-.16.22v0s0,.05,0,.05v0a.07.07,0,0,0,0,0h0v0l0,0s0,0,0,0,0-.06,0-.06h0s0,0,0,0v0h0v-.1h0v0a.11.11,0,0,1,0,.06V7.12c0-.1,0-.1,0-.13h0a.09.09,0,0,1,0,0v0a.08.08,0,0,0,0,0h0v.14s0-.1,0-.13h0l.05,0a.24.24,0,0,1,0,.07v0s0,0,0,.07,0,0,0,0h0S3.44,7.13,3.43,7.13ZM3.29,7a.06.06,0,0,1,0,0v.2a.1.1,0,0,1,0,0s0,0,0,0v.08h0s0,0,0,0a.43.43,0,0,0,0,0h0v.07h0a.14.14,0,0,1,0-.06h0v.07h0a.31.31,0,0,1,0-.08h0v.09h0V7.09a.1.1,0,0,1,0,0s0-.07,0-.08h0a.48.48,0,0,0,0,.12v0h0v0s0,0,0-.05a.32.32,0,0,1,0-.07h0V7h0Zm-.17.2h0a.13.13,0,0,1,0-.06h0v.09h0a.21.21,0,0,1,0-.07h0v.06h0a.08.08,0,0,1,0-.07A.13.13,0,0,0,3,7V7H3S3,7,3,7.06a.75.75,0,0,1,0,.11H3A1.09,1.09,0,0,1,3,7a.38.38,0,0,1,0-.12H3l0,0V7c0,.07,0,.1,0,.06v-.1h.06V7a.46.46,0,0,0,0,.15h0a.14.14,0,0,1,0-.07,0,0,0,0,1,0,0v0h0ZM3,7.09v0a.35.35,0,0,1,0-.06v.1H3a.11.11,0,0,1,0-.06h0v.06h0a.11.11,0,0,1,0-.06s0,0,0,0,0,0,0,.06v0s0,0,0-.05V6.9s0,0,0,0h0V7a.13.13,0,0,1,0-.06v0H3l0,0H3v0A.22.22,0,0,0,3,7ZM2.84,7s0,0,0,0v0h0s0,0,0,0a.07.07,0,0,1,0,0h0A.26.26,0,0,0,2.8,7h0s0,0,0-.06v0a.33.33,0,0,1,0-.12s0,0,0,0V6.9a.12.12,0,0,1,0-.07h.05l0,0v0a.22.22,0,0,0,0,.08ZM2.75,7V7s0-.06,0-.09v0h0V7h0s0,0,0,0V6.86a.23.23,0,0,1,0-.11s0,0,0,0,0,.08,0,.07v0a.05.05,0,0,1,0,0h0a0,0,0,0,0,0,0h0l0,0a.09.09,0,0,0,0,0V7ZM2.66,6.9s0,0,0,0a.13.13,0,0,1,0-.06h0a.35.35,0,0,0,0,.07h0s0,0,0,0a.27.27,0,0,1,0-.16h0v.07h0v0s0,0,0,0h0s0,0,0,0,0,0,0,0A.14.14,0,0,0,2.66,6.9Zm-.25-.4v0h0a.3.3,0,0,1,0-.06l0-.06h0V6.27a.43.43,0,0,0,0,.05A.36.36,0,0,0,2.41,6.5Zm0-.41a1.05,1.05,0,0,1,0,.2s0,0,0,0h0a.51.51,0,0,0,0-.16,1,1,0,0,1,0-.11h0Zm.16.29v0h0v.1h0A.17.17,0,0,1,2.54,6.38Zm0,.11h0Zm.09,0V6.6h0s0,0,0-.1,0-.06,0-.07,0,0,0,0a.1.1,0,0,1,0,0A.08.08,0,0,1,2.64,6.48Zm-.05,0v0h0s0,0,0-.08v0s0,0,0,0v0A.34.34,0,0,0,2.59,6.52Zm-.1,0h0l0,0s0,0,0,0h0s0,0,0,0,0,0,0,0,0,0,0,0v.06h0v0s0,0,0,0,0,0,0,0V6.6A.08.08,0,0,1,2.49,6.54Zm0,.06,0,0h0s0,0,0,0,0,0,0,0a.1.1,0,0,1,0,0h0l0,0v.08a.09.09,0,0,1,0,0v0h0s0,0,0-.06S2.52,6.61,2.53,6.6Zm.05.06,0,0h0s0,0,0,0a.06.06,0,0,0,0,0v0h0s0,0,0,0h0s0,0,0,0,0,0,0,.08v0a.06.06,0,0,1,0,0h0a.18.18,0,0,1,0,0v0s0,0,0-.07A.19.19,0,0,1,2.58,6.66Zm1.49-.25v0h0v0a.17.17,0,0,1,0,.08h0Zm0,.13H4v0s0-.1,0-.11v0a.1.1,0,0,1,0,0,.34.34,0,0,1,0,.1Zm0,0H4v0a.15.15,0,0,0,0-.07v0a.1.1,0,0,1,0,0s0,0,0,0,0,0,0,.07S4,6.58,4,6.59Zm0,.07H4v0H4v0s0,0,0,0H4l0,0a.15.15,0,0,1,0,.08s0,.06,0,.07h0v0s0,0,0,0v0A.19.19,0,0,0,4,6.7Zm.06,0h0v0s0,0,0,0,0,0,0,0h0a.06.06,0,0,1,0,0,.07.07,0,0,1,0,0s0,0,0,0h0s0,0,0,0v0s0,0,0,0v0s0,0,0,0Zm.06,0h0l0,0h0s0,0,0-.05h0l0,0a.09.09,0,0,1,0,.07h0v0h0s0,0,0,0h0a.19.19,0,0,0,0-.07Zm.09-.09a.17.17,0,0,0,0-.11V6.25a.58.58,0,0,1,0,.14.82.82,0,0,1,0,.11l0,0h0Zm0-.47,0,0,0,0s0,0,0,.05l0,0V6.2s0,0,0,.08v0s0,0,0,0v0s0,0,0-.08l0-.07A.6.6,0,0,1,4.19,6S4.2,6,4.19,6ZM4.13,6l0,0,0,0,0,.07s0,.07,0,.1v0s0,.06,0,.07H4a.35.35,0,0,1,0-.06.25.25,0,0,1,0-.08.28.28,0,0,1,0-.11.1.1,0,0,1,0,0L4.15,6Zm-.19.42h0a.49.49,0,0,1,0,.13s0,.06,0,0v0h0s0,0,0,0V6.57s0,0,0,0h0s0,.06,0,.08,0,0,0,0,0-.11,0-.13v0h0s0,0,0,0v0h0v0h0A.19.19,0,0,1,3.94,6.45Zm-.07.15c0,.05,0,.08,0,.11s0,0,0,0v0s0,0,0,0,0,0,0,0a.15.15,0,0,1,0,.1h0V6.71h0v0a.08.08,0,0,1,0,0h0a.45.45,0,0,0,0-.08V6.55h0l0,0,0,0h0a.11.11,0,0,1,0,.08h0V6.48s0,0,0,0Zm-.58.32Zm-.57-.26a.22.22,0,0,1,0-.08h0v0s0,0,0,0v0h0v0s0,0,0,0V6.52a.15.15,0,0,1,0-.07h0a.35.35,0,0,1,0,.07v0h0v0h0v0h0v0a.45.45,0,0,0,0,.14S2.72,6.68,2.72,6.66Zm-.18-.59,0,0a.28.28,0,0,1,0,.11.24.24,0,0,1,0,.12v0h0s0,0,0-.07v0a.3.3,0,0,0,0-.1l0-.06,0-.06,0,0Zm0,0,0,0a.24.24,0,0,1,0,.12s0,0,0,0v0s0,0,0,0a.37.37,0,0,1,0-.08v0s0,0,0,0v0l0-.05,0,0,0,0s0,0,0,0A.6.6,0,0,1,2.51,6.09Zm-.39.23h0Zm-.6-3.2v0s0,0,0,0V2.9a.28.28,0,0,0,0-.09.27.27,0,0,1,0,.09.19.19,0,0,1,0,.07V3h0a.75.75,0,0,1,.1-.56A.8.8,0,0,1,2,2.15a1.89,1.89,0,0,0,.43-.31,1,1,0,0,1,.74-.29h.4a1.17,1.17,0,0,1,.43,0,1.14,1.14,0,0,1,.3.23.94.94,0,0,0,.1.1,2,2,0,0,0,.24.16,1.12,1.12,0,0,1,.24.15A.83.83,0,0,1,5,2.44.77.77,0,0,0,5,2.6l0,0a.83.83,0,0,1,.13.45c0,.16,0,.42,0,.58h0l0,0h0V3.09a1.1,1.1,0,0,0,0-.18l0-.09h0a.64.64,0,0,0,0-.07L5,2.59a.3.3,0,0,1,0-.08l0-.08s0-.05,0-.08l-.05-.07a.08.08,0,0,0,0,0l0,0,0,.07H4.81l.05,0v0s0,0,0,0H4.83v.11l0,0h0v0a.86.86,0,0,0,0-.16v.18h0l-.07,0,.06,0h0V2.7h0l0,0-.06,0a.06.06,0,0,0,0,0,.06.06,0,0,0,0,0l-.1,0h0a.5.5,0,0,0,0-.17.28.28,0,0,1,0,.09V2.6l-.1,0v-.1l.08,0-.08,0a.55.55,0,0,0,0-.18.34.34,0,0,1,0,.1v.07l-.07,0,0,0a0,0,0,0,0,0,0v0h-.1s0,0,0,0v0h0V2.6l-.1,0V2.46a.36.36,0,0,0,0-.11.41.41,0,0,1,0,.11v0a.42.42,0,0,0,0-.12v0l0,0,0-.05a.31.31,0,0,0-.09-.07.6.6,0,0,1,.08.08l0,0,0,0v0A.35.35,0,0,1,4,2.5v.06H4v0a1.94,1.94,0,0,1,0,.24A.49.49,0,0,1,4,3v.09H3.92a1.56,1.56,0,0,1,0-.2,1,1,0,0,0,0-.44c-.08-.13-.17-.18-.53-.17s-.53.16-.54.29a1.76,1.76,0,0,0,.1.6l-.08,0s0-.08-.05-.13V3s0-.05,0-.08a.86.86,0,0,1,0-.16.92.92,0,0,1,0-.16.19.19,0,0,1,0-.08s0-.05,0-.07a.16.16,0,0,1,0-.07l.06-.05.06,0,.08,0,.13,0h0v0l.09,0h0v.07s0,0,0-.07h.08v.06s0,0,0-.06h.08v.05h.23l.09,0a.14.14,0,0,0-.09,0h0v0h0s0-.06,0-.08V2h.09L3.69,2h0a.28.28,0,0,1,0-.09h.09l-.08,0h0V1.8h0v0a.43.43,0,0,1,0-.05h.13l-.08,0h0v0H3.57a.13.13,0,0,0,0-.06v.06H3.48a.09.09,0,0,0,0,0v0h0v.1h0v.1h0s0,.09,0,.13v.06H3.38V2h0V2a.2.2,0,0,0,0-.07.15.15,0,0,1,0,.07V2H3.29V2a.17.17,0,0,0,0-.07.17.17,0,0,1,0,.07V2H3.2s0-.06,0-.09h0v-.1h0v0s0-.05,0-.07h0v0H3.11a.13.13,0,0,0,0-.06s0,0,0,.06H3a.2.2,0,0,0,0-.07V1.7L3,1.72a.16.16,0,0,0-.09,0l.09,0H3v.09l-.07,0,0,0s0,0,0,0l0,0a.07.07,0,0,0-.06,0,.14.14,0,0,0-.11,0h0s0,0,0,0a.08.08,0,0,1,0,0l0,0s0,0,0,0h0v0l0,0L2.66,2l.08-.06,0,0s0,0,0,0h0a.07.07,0,0,1,0,.05.15.15,0,0,1,0,.06A1.14,1.14,0,0,1,2.63,2l.12-.09,0-.06,0,0h0a0,0,0,0,0,0,0l0,0L2.74,2a.86.86,0,0,1-.14.13L2.75,2l.08-.07,0,0h0s0,0,0,0h0l-.07.07-.17.14.18-.12L2.82,2h0V2a.86.86,0,0,1-.14.13l-.08.07-.08.07.09-.06.08-.06.1-.07-.06.08-.08.07-.09.08,0,0s0,0,0,0,0,0,0,0l0,0,0,0,.05,0a.27.27,0,0,0,.08-.07l0,0,0-.05,0-.06,0,0h0l.08,0V2H3l-.14.06L3,2.05H3a.38.38,0,0,1,0,.1l-.17.07L3,2.16v0l0,0h0s0,0,0,0,0,0,0,0h.09v0L3,2.18l-.15.07s-.05,0-.06.06a.18.18,0,0,0-.05.07.2.2,0,0,0,0,.08s0,.06,0,.08,0,.23,0,.34,0,.05,0,.08V3a.5.5,0,0,0,0,.13h0v0h0v0l0-.06a.5.5,0,0,1,0-.13.5.5,0,0,1,0-.13.51.51,0,0,1,0-.13.66.66,0,0,0,0,.14.59.59,0,0,0,0,.13l0,.14s0,0,0,.06v0h0v0h0V3.11a.42.42,0,0,1,0-.1l0-.11a.52.52,0,0,1,0-.11V2.9s0,.08,0,.11l0,.12V3.2h0s0,0,0,0v0a.2.2,0,0,1,0-.08s0-.06,0-.09a.29.29,0,0,1,0-.09V3s0,.06,0,.09a.29.29,0,0,0,0,.09v.07h0l0-.05s0,0,0-.06a.14.14,0,0,1,0-.06.19.19,0,0,1,0-.07v.07s0,.05,0,.07,0,0,0,.07a.08.08,0,0,1,0,0h0l0,0,0,0s0,0,0,0a.08.08,0,0,1,0,0V3.2a.09.09,0,0,1,0,0v0h0l0,0,0,0v.09h0a.65.65,0,0,0-.16.09.53.53,0,0,1,.17-.08.85.85,0,0,1,.17-.06l.18,0,.1,0a.5.5,0,0,0,0,.21A.4.4,0,0,0,3,3.55a4,4,0,0,0-1,.34,1.12,1.12,0,0,0-.52.48.45.45,0,0,1,0-.43h0v0h0l0,0,0,0,0,0,.05,0,.17-.12L2,3.57l.19-.09L2,3.56l-.19.1-.18.11,0,0,0,0h0l.1-.09.13-.1L2,3.54l.13-.08L2,3.49,2,3.53l-.14.07-.14.09-.09.08h0v0l.1-.09.12-.1.12-.09.13-.08L2,3.42l-.07,0-.13.07-.13.09-.08.07h0l.09-.09.11-.09.11-.09L2,3.32l-.06,0-.07,0-.12.07-.12.08-.07.06h0l.08-.09.1-.09.11-.08L2,3.25l-.06,0-.06,0-.12.07-.11.09s0,0-.05,0v0h0l.07-.08.09-.09.09-.07a.3.3,0,0,1,.1-.07l0,0-.06,0-.1.07-.1.07s0,0,0,0v0l.05-.07.08-.08.08-.07a.47.47,0,0,1,.09-.06l-.05,0-.05,0-.1.07-.08.07,0,0h0v0l.05-.06.06-.07.07-.07.07-.05,0,0a.05.05,0,0,0,0,0l-.09.05,0,0v0l0,0,0,0L1.72,3l.05,0L1.71,3l-.06,0,0,0v0l0,0,0,0,0,0,0,0-.05,0L1.67,3l0,0V3l0,0,0-.05,0,0,0,0s0,0,0,0V2.78l0,0h0v0a.24.24,0,0,0,0,.08v0h0l0,0h0l0,0,.07,0h0l0,.11h0l0,0V3l0,0h0V3l0,.09s0,0,0,0,0,0,0,0,0,0,0,.06l0-.06.05,0L2,3H2l0,.1L2,3.21l.06,0H2v0s0,0,0,.06L2,3.3l.06,0h0v0l0,0,0-.07h0l.07,0h0v0h0l.1,0,.07-.05,0,0v0h0V3.09h0V3l.09,0L2.36,3v0l0-.07h0l.08,0v0a.88.88,0,0,0,0,.15l0-.16v0l.07,0-.07,0a.52.52,0,0,1,0-.11h0l0,0,0,0h0l0,.12,0,.11s0-.08,0-.12l0-.11h0l0,0,0,0s0-.07,0-.11a.43.43,0,0,1,0-.11.37.37,0,0,0,0,.11.5.5,0,0,0,0,.12l-.1,0,0-.14V2.44h0s0-.06,0-.08a.28.28,0,0,0,0,.09l-.07,0h0v0l0,0-.06,0a.22.22,0,0,1,0-.08h0l0,0,.09,0,.09-.05.08,0-.09,0-.09,0-.09.05h0s0,0,0-.06,0,0,0,.07l-.06,0,.06,0a.28.28,0,0,0,0,.09l-.07.05.07,0s0,.06,0,.09l-.09.06s0-.05,0-.08a.19.19,0,0,1,0-.08.43.43,0,0,0,0,.16h0L2,2.78v0l-.06,0,0,0h0a.5.5,0,0,1,0-.12l0,0,.06,0-.06,0h0V2.62a.22.22,0,0,0,0-.08.88.88,0,0,0,0,.16v0h0l0,0v0h0V2.65l0,0h0v0l0,0-.05,0,0,0h0l0,0,0,0,0-.05.05,0-.06,0-.05,0h0a.21.21,0,0,1,0-.06l0,0,0-.05,0,0,0,0-.05,0h0v0l.08-.11a.76.76,0,0,1,.09-.09l-.11.08a.44.44,0,0,0-.08.11l0,.06,0,.06a.14.14,0,0,0,0,.07v0h0s0,0,0,0h0a.29.29,0,0,1,0,.09v0h0v0a.28.28,0,0,1,0,.09.3.3,0,0,1,0,.1h0a.77.77,0,0,0-.05.19c0,.06,0,.12,0,.19s0,.12,0,.18,0,.07,0,.1v0l0,0,0,0h0A1.23,1.23,0,0,1,1.52,3.12ZM3.29,1.41c.12,0,.16,0,.17.09H3.2s0,0,0,0,0,0,0,0,0,0,0,0,0,0,0,0,0,0,0,0h0a.08.08,0,0,1,0-.05A.22.22,0,0,1,3.29,1.41ZM5.15,4.25a.92.92,0,0,0-.23-.34,2,2,0,0,0-.72-.42h0l.18,0c.13,0,.16-.13.16-.17h0l.05,0-.05,0,0,0a.25.25,0,0,0-.08-.15l-.16,0a0,0,0,0,1,0,0l.08,0,.11,0h0v0l.07,0h0s0,.05,0,.08,0,0,0,0v0h0l.07,0-.06,0V3h0l.06,0L4.63,3a.34.34,0,0,1,0-.1h0l0,0,.05,0V3a.13.13,0,0,1,0-.06s0,0,0,0,0,0,0,0,0-.06,0-.09v0h0l0,0,0,0h0a.34.34,0,0,0,0-.1h0l.07,0h0l0,0,0,0h0v0a.22.22,0,0,0,0-.08v0h0l0,0v0h0l0,0h0l0,0,0,.06H5l-.06,0-.06,0,.06,0a.1.1,0,0,0,.05,0l.07.09h0l0,0-.07,0-.07,0,.07,0s0,0,0,.05a.41.41,0,0,1,.09.1h0v0L5,2.88l-.07,0a.11.11,0,0,0-.07,0l.07,0L5,2.9l.1.11h0l0,0A.18.18,0,0,1,5,2.94l-.08,0-.08,0,.08,0L5,3,5,3l0,.06h0l0,0L5,3,4.91,3l-.08,0,.08,0L5,3,5,3.09l0,.06h0l0,0L5,3.08,4.9,3,4.82,3,4.9,3,5,3.1,5,3.16l0,.06h0l0,0L5,3.14l-.09-.05-.09,0,.09.05L5,3.16A.46.46,0,0,0,5,3.23l0,.06h0l0,0L5,3.21l-.09,0-.09-.05.09.06L5,3.23,5,3.3a.18.18,0,0,1,0,.07h0l0,0L5,3.28l-.1-.06-.09,0,.09,0A.27.27,0,0,1,5,3.3.27.27,0,0,1,5,3.37a.23.23,0,0,1,.07.07h0l0,0L5,3.34l-.1-.06-.1,0a.21.21,0,0,1,.1.06L5,3.36,5,3.44l.07.07h0l0,0L5,3.41l-.1-.06L4.75,3.3l.1.06.09.07L5,3.51l0,0L5,3.49,4.83,3.4l-.17-.08.16.09.15.1.14.11,0,0,0,0,0,.06a.49.49,0,0,1,0,.21A.55.55,0,0,1,5.15,4.25Zm-.32.07h0l0,0-.07-.09s0,0,0,0l0,0v0l0,0,0,0,0,0,0,0,0,0s0,0,0-.06l0,0,0,0s0,0,0,0V4l0,0h0s0,0,0,.06,0,0,0,0a.56.56,0,0,1,0-.07s0,0,0,0v0l0,0v0a.09.09,0,0,0,0-.05l.06.05s0,0,0,.06a.28.28,0,0,0,0,.08v.08a.8.8,0,0,0,0,.15l0,.11h0ZM4,3.52H4l.17,0-.06,0h0L4,3.58H4A.13.13,0,0,0,4,3.52Zm-2.1.59,0,0,0,0h0l0,0s0,.07,0,.08h0l0,0s0,0,0,0l-.07.08,0,0h0l0,.06h0a.6.6,0,0,0,.06-.11,1,1,0,0,0,0-.15h0l.06,0v0l0,0Zm-.26.51h0v0Zm.63-.76a.13.13,0,0,0,0,.06v0a.64.64,0,0,1,0-.07Zm1-1.55h.31l.2,0,.14,0a0,0,0,0,0,0,0s0,.06,0,.08l-.09,0-.07,0h0l.07,0,.06,0s0,0,0,.06h0a1.64,1.64,0,0,1,0,.23,1.7,1.7,0,0,0,0,.21A2.47,2.47,0,0,0,3,3.12a1.5,1.5,0,0,1-.1-.58C2.91,2.4,3.05,2.34,3.21,2.31Zm1.21.9a.12.12,0,0,1,0,.09.12.12,0,0,0,0-.1.08.08,0,0,0,0,0l0,0-.1,0-.1,0H3.53l-.2,0-.2,0L3,3.23a.11.11,0,0,0,0,0H3a2.36,2.36,0,0,1,.9-.07h.24a.43.43,0,0,1,.29,0,.13.13,0,0,1,.06.14c0,.06-.05.1-.13.13a.8.8,0,0,1-.37,0H4a2.76,2.76,0,0,0-.79,0l-.14,0h0S3,3.47,3,3.38a.5.5,0,0,1,0-.12l.17,0,.1,0h.1l.2,0h.61a.67.67,0,0,1,.2,0A.14.14,0,0,1,4.42,3.21Zm0-.74v.09h0l-.07,0s0-.07,0-.1h0l.08,0Zm.22.2h0v.08h0l-.09,0V2.63Zm.1.28L4.64,2.9V2.78l0,0,0,0h0V3Zm-.11,0a.28.28,0,0,1,0,.09h0L4.52,3h0v-.1l.08,0h0Zm0,.19v0h0l-.08,0h0V3l.08,0h0v.09Zm-.14,0-.1,0L4.28,3a.06.06,0,0,1,0,0,.22.22,0,0,1,0-.08h0l.07,0V3h0V2.94l0,0,0,0v.1h0Zm-.36-.23s0-.08,0-.12h0a.8.8,0,0,1,0,.15l0,.1s0,0,0,0h0s0,0,0-.06S4.1,2.89,4.11,2.85Zm.29-.16V2.8l-.1,0V2.65ZM4.5,3h0l0,0-.06,0s0-.06,0-.09v0h0l.07,0Zm0-.12-.07,0,0,0a.34.34,0,0,0,0-.1h0l.09,0v.11Zm-.11,0v.11l-.07,0h0v0a.28.28,0,0,0,0-.09Zm-.11.09Zm0,0v0h0V2.82a.14.14,0,0,1,0,.06h0s0-.09,0-.13l.06,0h0ZM4.21,3a.14.14,0,0,1,0,.06V3h0a.08.08,0,0,1,0,0,.22.22,0,0,1,0-.08v0h0Zm0-.07a.28.28,0,0,1,0-.09v0h0Zm0-.09v.12h0l0,.08a.09.09,0,0,1,0,0h0a.43.43,0,0,1,0,0V2.88a.66.66,0,0,0,0-.14h0Zm.06.26h0V3a.15.15,0,0,0,0-.07V2.89h0v0a.08.08,0,0,0,0,0s0,0,0,0v0Zm.38-.17-.09,0a.13.13,0,0,0,0-.06v0l.09,0h0a.41.41,0,0,0,0,.11Zm.13-.06h0l0,0,0,0h0s0-.06,0-.09l.06,0,.06,0s0,.07,0,.1Zm-.22-.16v.06l-.09,0h0v-.1l.1,0Zm-.12,0h0l-.1,0v-.1h.06l0,0A.25.25,0,0,1,4.4,2.66Zm-.11-.2v.07l-.09,0,.08,0h0v.09l-.06,0h0a.4.4,0,0,0,0-.11V2.39l.07,0,0,0Zm-.06.17.06,0v.11h0l-.09,0V2.62Zm-.05,0v.09h0v0s0,0,0,0h0a.37.37,0,0,0,0-.11.45.45,0,0,1,0,.11h0a.36.36,0,0,1,0,.11l0,.12S4,3,4,3V3s0-.08,0-.12a.61.61,0,0,0,0-.14v.11s0-.08,0-.12a.49.49,0,0,0,0-.12h0l0,0Zm.32,1a0,0,0,0,1,0,0h0v0ZM5,4.62H5v0Zm0-.43,0,0h0l0,0Zm-.2-1.68v0l0,0,0,0,0,0h0v0l0,0h0a.05.05,0,0,1,0,0l0,0,0,0s0,0,0,0H5l0,0h0a.05.05,0,0,0,0,0h0v0S4.83,2.53,4.83,2.51Zm.2.25Zm-.09-.18h0Zm0-.08h0ZM2.89,2a0,0,0,0,0,0,0h0a.13.13,0,0,0,0-.06H3v.08H3l-.08,0,0,0Zm.31-.16H3.12v0s0-.05,0-.07H3.2v.1Zm0,.2H3.11a.28.28,0,0,1,0-.09h.07ZM3.12,1.9V1.81H3.2a.38.38,0,0,0,0,.1Zm0-.13v0H3v0a.11.11,0,0,1,0-.05H3.1S3.11,1.75,3.1,1.77ZM3,1.82H3.1V1.9h0L3,1.92H3a.28.28,0,0,0,0-.09Zm0,.11H3.1V2L3,2v-.1Zm.07.1h0v.08H3l0,0A.43.43,0,0,1,3,2Zm0,0V2h.08V2a.2.2,0,0,0,0,.07l-.09,0S3.1,2.07,3.11,2ZM3.2,2V2h.08v.08h0l-.08,0S3.2,2.06,3.2,2Zm.16,0H3.29V2h.08v.09Zm.12-.19h.08a.28.28,0,0,1,0,.09h0v.1H3.46a.13.13,0,0,0,0-.06A.57.57,0,0,0,3.48,1.89Zm.17-.11H3.58v0s0,0,0-.06h.09s0,0,0,.05Zm0,.1H3.58V1.79h.07v.08Zm-.06.25h0v0h.09v0Zm0,0a.64.64,0,0,1,0-.07V2h.08V2a.19.19,0,0,0,0,.08ZM3.64,2H3.57V1.89h.08V2Zm-.08-.23v0H3.48v-.1h.08Zm0,0h0v.09H3.48v-.1Zm0,.3h0v0H3.45a.09.09,0,0,0,0-.05Zm-1.76.59s0,0,0,0h0l-.05,0,0,0h0l0,0,0,0,0-.05h0Zm0,.06v0h0l-.05,0,.06,0h0v0h0l-.05,0-.05,0,0,0h0l0,0,0,0,0,0,0,0Zm-.14,0Zm.31.1L2,2.8s0,.06,0,.09H2l0,0,0,0h0a.43.43,0,0,1,0-.11Zm.25-.19V2.56h0l.07,0,0,0s0,.07,0,.1l-.06,0,0,0Zm.19-.14,0,.15h0l-.05,0V2.61h0l.08,0-.09,0s0,0,0-.06a.06.06,0,0,0,0,0l0,0,.07,0Zm0,.16,0,.11-.08,0h0a.3.3,0,0,1,0-.1h0l.06,0Zm0,.33a.29.29,0,0,0,0,.09l-.08,0-.1.06h0V3.1h0l.05,0,0,0v.06h0V3l.06,0h0Zm-.29.23V3.15l0,0,.06,0s0,0,0,.06l0,0h0l-.07.05,0,0ZM2,3H2l.07,0,0,.09v0l-.07,0,0,0A.36.36,0,0,1,2,3ZM1.9,3V3h0l0,0,0,0H2L2,3l-.09.07S1.91,3,1.9,3Zm.1-.1H2l.08,0a.09.09,0,0,1,0,0s0,0,0,.06L2,3H2A.52.52,0,0,1,2,2.91Zm0,0V2.8l.08-.06s0,.07,0,.1L2,2.89Zm.19-.1h0l0,.1,0,0L2.12,3V2.84Zm0,.14a.31.31,0,0,1,0,.08L2.19,3l0,0h0l0-.1.06,0h0Zm.1,0L2.25,3V2.9l.09,0,0,.11Zm-.1-.08V2.78l.09-.06s0,.07,0,.1h0Zm0-.24,0,0h0v0a.64.64,0,0,1,0,.07l-.1,0h0l0-.08Zm0,.1v0h0l-.08.05v-.1l.09,0S2.17,2.73,2.18,2.75ZM1.53,4.47v0Zm0,.12,0-.07a.14.14,0,0,1,0-.07,1.13,1.13,0,0,1,0-.15h0s0,0,0,0v0a.3.3,0,0,1,0,.1s0,.05,0,.08a.94.94,0,0,1,0,.09.4.4,0,0,0,0,.13v.06a.24.24,0,0,0,0,.07.31.31,0,0,1,0,.08h0v0l0,0c0-.06,0-.07,0-.1A.27.27,0,0,1,1.56,4.59ZM5,4.9v0a0,0,0,0,1,0,0H5a.41.41,0,0,0,0-.08.24.24,0,0,0,0-.12.31.31,0,0,0,0-.14.37.37,0,0,0,0-.09S5,4.4,5,4.4s0-.06,0-.09a.28.28,0,0,1,0-.09s0-.07,0-.08v0s0,.1,0,.13,0,.13,0,.15a.25.25,0,0,0,0,.07l0,.07a.43.43,0,0,1,0,0,.37.37,0,0,1,0,.15A.51.51,0,0,0,5,4.9Zm0-.56H5a.13.13,0,0,0,0-.06v0h0s0,0,0,0H5a.43.43,0,0,0,0,0l0-.05,0,0Z"/><path class="cls-2" d="M4.8,5.28h0s0,0,0,0v0l0,0a0,0,0,0,1,0,0h0V5.35s0,0,0,0a.31.31,0,0,1-.08.11h0v0l0,0h0v0l-.08.09h0l0,0s0,0-.05,0l0,0H4.34s0,0,.06,0h.2l.11,0,0,0a.1.1,0,0,1,0,0v0s0,0,0,0h0a.17.17,0,0,1,0,.07v0h0l0,0s0,0,0-.07V5.28Z"/><path class="cls-2" d="M5,5.51V5.4a.13.13,0,0,1,0-.06v0l0,.13a1.41,1.41,0,0,0,0,.2v0a.11.11,0,0,0,0,0V5.48h0v.3h0v0a.45.45,0,0,1,0-.08v0s0,0,0,0v.24l0-.07a.11.11,0,0,0,0,0s0-.07,0-.08h0v.21h0V5.76s0,0,0,0a0,0,0,0,0,0,0,.86.86,0,0,0,0,.15v0h0v0l0,0a.51.51,0,0,1,0-.09h0v.12c0,.08,0,.09,0,0a.23.23,0,0,1,0-.07h0v.17a.2.2,0,0,1,0-.06v0s0,0,0,0v0s0,0,0,0a.57.57,0,0,0,0,.12V6l0,0a.45.45,0,0,1,0-.11V6h0l0,0,0,0a.21.21,0,0,1,0-.07h0v.09s0,0,0,0V6l0-.06,0,0,0,0v0a.7.7,0,0,0,0,.12s0,0,0,0l0-.07h0v0a.06.06,0,0,1,0,0v0h0l0,0,0,0h0l0,.07h0l0,0,0,0v0s0,0,0,0,0,0,0,0,0,0,0,0h0v0h0l.09,0,0,0h0l0,0L4.5,6h.06l.08,0,.05,0,.06,0,.06,0,.06,0s0,0,0-.05a.33.33,0,0,0,0-.06l0,0a.12.12,0,0,0,0-.07A.32.32,0,0,0,5,5.6a.43.43,0,0,1,0,0Z"/><path class="cls-2" d="M3.33,6.54h0l0,0a.31.31,0,0,1,0-.08v0h0v0a.34.34,0,0,0,.06.17v0l0-.07v0a.31.31,0,0,0,0-.08s0,0,0-.06v0A.33.33,0,0,1,3.33,6.54Z"/><path class="cls-2" d="M4.21,5.59h.12l0,0H4.21Z"/><path class="cls-2" d="M2.4,5.84v0h0l-.05,0s0,0,0,0v0l0,0,0,0h0a.25.25,0,0,0,0-.07h0l0,0,0,0h0V5.82h0l0,.07,0,0,0-.1v0l0,0,0,.09v0a.72.72,0,0,0,0-.13h0l0,.07,0,0a.14.14,0,0,0,0,0h0v0s0,0,0-.08v0a.49.49,0,0,1,0,.11A.1.1,0,0,1,2,6v0A.47.47,0,0,0,2,5.8v.06a.39.39,0,0,0,0,.06v0a.53.53,0,0,0,0-.14H2a.23.23,0,0,1,0,.07c0,.11,0,.1,0,0V5.72h0a.58.58,0,0,1,0,.13v0h0v0a.74.74,0,0,0,0-.15.08.08,0,0,1,0,0,.43.43,0,0,1,0,0v.09h0a1.05,1.05,0,0,0,0-.12c0-.08,0-.09,0-.09h0a.45.45,0,0,1,0,.08s0,0,0,0l0,.07V5.73a1,1,0,0,0,0-.15v0a.06.06,0,0,1,0,0v0a.45.45,0,0,1,0,.08v0h0a0,0,0,0,1,0,0V5.47h0s0,.09,0,.12v.05s0,0,0,0v0a1.33,1.33,0,0,0,0-.2,1.09,1.09,0,0,0,0-.13v0a.13.13,0,0,0,0,.06v.15a.43.43,0,0,1,0,0c0,.05,0,.07,0,.09v0a.59.59,0,0,0,0,.08l0,.07,0,0,.06,0,.05,0,.07,0L2,6H2l0,0h0L2.2,6l0,0h0l.14,0,.11,0H2.4Z"/><path class="cls-2" d="M3.29,2.77v0h0v.16s0,0,0,.06V3h0V2.86A.31.31,0,0,1,3.29,2.77Z"/><path class="cls-2" d="M1.92,4.54,2,4.48l.09,0a.35.35,0,0,1,.11,0h.06a.27.27,0,0,1,.11,0h.07l0,0-.08,0s0,0-.07,0h.11l-.06,0H2.14l-.08,0L2,4.37H2l.06,0H2l-.08,0-.08.06h0s.06,0,.06,0l0,0-.07.08a.11.11,0,0,1,0,0h0l.08-.07h0l0,0s0,0-.06.07l0,.06,0,0v0l0,0Z"/><path class="cls-2" d="M3.14,2.41h.18l-.07,0H3.18l-.12,0L3,2.42s0,0,0,0Z"/><path class="cls-2" d="M3.45,2.42h0a.08.08,0,0,0-.06,0h0s0,0,0,0Z"/><path class="cls-2" d="M4,3.8s0,0,0,0v0h0v0l0,0s0,0,0,0h0l0,0,0,0a.15.15,0,0,1,0,.06v0H4Z"/><path class="cls-2" d="M3,6,3,6,3,5.9l0,0v0s0,0,0,0,0-.1,0-.14,0-.07,0-.08H3v0H3l0,0,0,.1,0,0a.44.44,0,0,0-.05.14v.1s0,.08,0,.08h0V6a.11.11,0,0,1,0,0h0V6s0,0,0,.07v0h0V6a.64.64,0,0,1,0,.09s0,0,0,0V6H3a.29.29,0,0,0,.09.1h0Z"/><path class="cls-2" d="M2.79,5.8s0,0,0,0,0,0,0,0H2.71l0,0H2.68l0,0H2.67l0,0h0l-.06,0h0l.11-.08,0,0h0l0,0h0l-.07,0h0l.07,0h0l-.1,0h0l0,0h0l-.06,0h0l0,0h0l0,0h0l0,0h0l-.07,0-.06,0h.06l.08,0s0,0,.07,0l0,0,.11,0h.07Z"/><path class="cls-2" d="M1.79,5.12V5.05a.06.06,0,0,1,0,0v.12s0,0,0,.06l0,0h0v0A.38.38,0,0,0,1.79,5.12Z"/><path class="cls-2" d="M2.12,5.65h.09l-.06,0H2l.07,0Z"/><path class="cls-2" d="M2.81,5.57l0,0s0,0,0,0a.12.12,0,0,0,0-.07s0,0,0,0a.21.21,0,0,1,0,.1.25.25,0,0,1,0,.07h0Z"/><path class="cls-2" d="M2.27,5.6h0l0,0Z"/><path class="cls-2" d="M1.9,5.47,2,5.5h.27l-.07,0H2.05l0,0a.07.07,0,0,0,0,0H2l0,0a.34.34,0,0,1-.08-.09v0h0v0l0,0h0a.52.52,0,0,1-.07-.11s0,0,0,0v.06h0a.15.15,0,0,1,0-.07l0,0v0h0v0a.35.35,0,0,1,0,.13v0l0,0h0a.11.11,0,0,1,0-.06v0h0l0,.06h0s0,0,0,0v0Z"/><path class="cls-2" d="M2.42,5.32l.11,0h.08l.11,0H2.59l-.07,0h0l0,0H2.45l.09,0H2.42Z"/><path class="cls-2" d="M2.6,5.38l0,0,.05,0h0l0,0h0l-.06,0h0l0,0H2.39l-.06,0,0,0,0,0,.06,0,.05,0,0,0h0l.06,0,0,0h0l.08,0-.09,0h.13l0,0Z"/><path class="cls-2" d="M1.82,3.92,2,3.83l.14-.1L2,3.77l-.07,0-.15.1h0l.05,0L2,3.78l.14-.1L2,3.72l-.08,0-.15.09L1.66,4v0l.08-.06.09-.06.08-.06L2,3.69l0,0,0,0-.18.09-.09.06-.09.06-.08.06,0,0a.1.1,0,0,0,0,0l0,.05s0,0,0,0v.17l0,0,.13-.13,0,0,0,0,0,0,0,0L2,3.86l.15-.09L2,3.84Z"/><path class="cls-2" d="M5.21,3.89s0,0,0-.06l0-.05L5.1,3.7a1.14,1.14,0,0,0-.16-.15.52.52,0,0,0-.18-.1l.09.06.08.06.14.15.06.09,0,0h0l0,0L5,3.71l-.11-.1,0,0,0,0-.06,0,.11.1L5,3.74l.09.11A.76.76,0,0,1,5.16,4h0l0-.06L5,3.79l-.12-.1-.06,0-.06,0a.52.52,0,0,1,.11.1.52.52,0,0,1,.1.11l.09.11,0,.06,0,0,0-.07L5,3.84l-.07,0,0,0,0,0-.13-.08.12.1,0,0,0,0,0,0,0,0L5,4a.6.6,0,0,1,.09.13l0,0,0,0A.23.23,0,0,0,5.2,4V3.89Z"/><path class="cls-2" d="M1.94,2.61s0,0,0,0,0,0,0,0,0,0,0,0A0,0,0,0,0,1.94,2.61Z"/><path class="cls-2" d="M1.92,2.66H2a.06.06,0,0,0,0-.06.06.06,0,0,0,0-.07.16.16,0,0,1,0,.07.09.09,0,0,1-.05,0s0,0,0,0a.07.07,0,0,1,0-.06.08.08,0,0,0,0,.07Z"/><path class="cls-2" d="M3.3,3.31a.06.06,0,0,0-.06-.06.06.06,0,0,0-.06.06.06.06,0,0,0,.06.06A.05.05,0,0,0,3.3,3.31Zm-.06,0s0,0,0,0a0,0,0,0,1,0,0s0,0,0,0A0,0,0,0,1,3.24,3.28Z"/><path class="cls-2" d="M3.32,3.36a.07.07,0,0,1,0,0,.09.09,0,0,1-.07,0,.1.1,0,0,1,0,0,.08.08,0,0,1,0-.07l0,0v0a.18.18,0,0,0,0,.07.11.11,0,0,0,.08,0A.06.06,0,0,0,3.32,3.36Z"/><path class="cls-2" d="M3.57,3.29a.06.06,0,0,0-.06-.06.06.06,0,0,0-.06.06.05.05,0,0,0,.06.06A.06.06,0,0,0,3.57,3.29Zm-.06,0a0,0,0,0,1,0,0s0,0,0,0a0,0,0,0,1,0,0S3.49,3.26,3.51,3.26Z"/><path class="cls-2" d="M3.47,3.38s0,0-.05-.06a.13.13,0,0,1,0-.06s0,0,0,0a.06.06,0,0,0,0,0,.18.18,0,0,0,.05.07.14.14,0,0,0,.09,0,.08.08,0,0,0,0-.06.1.1,0,0,1-.05,0A.06.06,0,0,1,3.47,3.38Z"/><path class="cls-2" d="M3.83,3.28a.06.06,0,1,0-.06.06A.06.06,0,0,0,3.83,3.28Zm-.06,0a0,0,0,1,1,0,.08,0,0,0,0,1,0-.08A0,0,0,0,1,3.77,3.24Z"/><path class="cls-2" d="M3.73,3.36a.07.07,0,0,1,0,0,.06.06,0,0,1,0-.06s0,0,0,0v0s0,.05.05.07H3.8s0,0,.05-.06l-.06,0A.07.07,0,0,1,3.73,3.36Z"/><path class="cls-2" d="M4.08,3.29a.06.06,0,0,0-.12,0,.06.06,0,0,0,.12,0Zm0,0,0,0v0s0,0,0,0l0,0H4S4.06,3.27,4.06,3.29Z"/><path class="cls-2" d="M4,3.37a.07.07,0,0,1,0-.05.09.09,0,0,1,0-.07l0,0v.05A.07.07,0,0,0,4,3.39a.06.06,0,0,0,.08,0s0,0,0-.06a.1.1,0,0,1-.06,0Z"/><path class="cls-2" d="M4.33,3.27a.06.06,0,0,0-.06-.06.05.05,0,0,0-.06.06.06.06,0,0,0,.06.06A.06.06,0,0,0,4.33,3.27Zm0,0,0,0s0,0,0,0,0,0,0,0,0,0,0,0h0A0,0,0,0,1,4.3,3.27Z"/><path class="cls-2" d="M4.3,3.38a.1.1,0,0,0,0-.07.12.12,0,0,1,0,0H4.23a.12.12,0,0,1-.05-.05.17.17,0,0,1,0-.07.05.05,0,0,0,0,0s0,0,0,0a.15.15,0,0,0,0,.06A.1.1,0,0,0,4.3,3.38Z"/><path class="cls-2" d="M4.62,2.48a0,0,0,0,0,0,0s0,0,0,0a0,0,0,0,0,0,0S4.61,2.49,4.62,2.48Z"/><path class="cls-2" d="M4.61,2.52s0,0-.06,0a.13.13,0,0,1,0-.06l0,0h0l0,0a.11.11,0,0,0,0,.08l0,0,0,0h0a.08.08,0,0,0,0,0s0,0,0,0Z"/><path class="cls-2" d="M3.4,1.75a0,0,0,0,0,0,0,0,0,0,0,0,0,0s0,0,0,0S3.4,1.77,3.4,1.75Z"/><path class="cls-2" d="M3.29,1.8h0s0,0,0,0a.06.06,0,0,1,0,0l0,0h0a0,0,0,0,0-.05,0l0,0a.11.11,0,0,0,0,.05.05.05,0,0,0,0,.05.08.08,0,0,0,.09,0l0,0a.08.08,0,0,0,0,0,.12.12,0,0,1-.07.05A.11.11,0,0,1,3.29,1.8Z"/><path class="cls-2" d="M2.2,3.59s0,0,0,0v0h0l0,0,0,0s0,0,0,0a.05.05,0,0,1,0,0l-.05,0,.06,0h0v0h0s0,0,0,0h0l.11,0h0l0,0s0,0,0,0h0l.14,0h0l0,0s0,0,0,0,0,0,0,0h0v0h0l0,0,.11,0h0l0,0s0,0,0,0v0h0v0h0l.06,0,.08,0h0s0,0,0,0a0,0,0,0,0,0,0s0,0,0,0v0h0l.09,0-.1,0s0,0,0-.05,0,0,0,0h0s0,0,0-.06v.06h0a.53.53,0,0,0-.12,0h0s0,0,0-.07a.11.11,0,0,0,0,.08h0l-.13,0h0s0,0,0-.06,0,0,0,.07h0l-.12.06a.13.13,0,0,1,0-.06.13.13,0,0,0,0,.06h0L2.2,3.6Zm.45-.18.05,0h.08a.13.13,0,0,0,0,.06s0,0,0,0l-.08,0-.07,0s0,0,0,0,0,0,0-.05Zm-.17.06.13-.05s0,0,0,.05a.05.05,0,0,0,0,0l-.12,0h0a.08.08,0,0,0,0,0s0,0,0,0Zm0,0s0,0,0,0l-.13.05,0,0a.43.43,0,0,0,0,0l.13-.06S2.46,3.51,2.47,3.52Zm-.16,0h0a.07.07,0,0,0,0,0s0,0,0,0l-.11.06a.08.08,0,0,1,0,0,.06.06,0,0,1,0,0Z"/><path class="cls-2" d="M3.85,1.92h0V2a.14.14,0,0,0,0,.06.17.17,0,0,0,0,.05l0,0s0,0,0,0l.09.07,0,0,0,0,0,0,0,0s0,0,0,0,0,0,0,0l-.09-.07A.6.6,0,0,0,4,2.13l-.06-.08.1.07.09.06.08.06-.08-.07-.08-.06L3.91,2V2h0L4,2l.18.12L4,2,3.94,2h0l0,0h0s0,0,0,0L4,2a.91.91,0,0,0,.16.11L4,2l-.06-.07,0,0v0h0l0,.05L4,1.91,4.11,2,4,1.9l0-.07a.07.07,0,0,1,0-.05H4a.06.06,0,0,0,0,0l0,0,.08.06L4,1.85s0,0,0-.05a0,0,0,0,1,0,0H4a0,0,0,0,0,0,0s0,0,0,0a.05.05,0,0,1,0,0v0h0a.25.25,0,0,0-.12,0,.07.07,0,0,0-.06,0,0,0,0,0,0,0,0s0,0,0,0a.13.13,0,0,0,0,.06h0S3.85,1.91,3.85,1.92Z"/><path class="cls-2" d="M4.71,3.6l0,0-.07,0h0a.13.13,0,0,0,0-.06v0h.05l-.05,0v0a.15.15,0,0,0,0-.07v.09l0,0,0,0h0v0h0l-.06,0h0l0,0h0v0s0,0,0,0l-.05,0-.09,0,0,0h0l.06,0h0v.07a.14.14,0,0,0,0-.07h0l.07,0h0v0s0,0,0,0a.14.14,0,0,0,0-.06h0Zm-.13-.08a.06.06,0,0,1,0,0v0h0l0,0v.1l-.07,0Z"/><path class="cls-2" d="M2.26,2.1,2.35,2,2.44,2a.31.31,0,0,0-.1,0l-.09.05-.09.07-.08.06.09,0Z"/><path class="cls-2" d="M2,2.4s0,0,0,.07V2.39l0,0,.09-.05.09,0-.09,0-.09,0H2V2.31s0,0,0,.07l0,0-.08.06L2,2.42Z"/><path class="cls-2" d="M2.21,3.31l-.07,0-.07,0,.08,0,.07,0,.07,0,.07,0-.08,0Z"/><path class="cls-2" d="M2.58,2.49s0,.06,0,.09,0,0,0,.08l0,.08s0-.05,0-.08l0-.08V2.49a.24.24,0,0,1,0-.08Z"/><path class="cls-2" d="M4.45,2.26l0,0a.25.25,0,0,0,0,.08V2.28l0,0,.09,0-.09-.05,0,0s0,0,0-.06v.06h0l-.1,0-.1,0,.09,0Z"/><path class="cls-3" d="M.8.55h.37V.66h0s0,0,0,0,0,0,0,0V.85A.1.1,0,0,0,1.17,1h0a.05.05,0,0,0-.05,0,.09.09,0,0,0,0,.06h0v.12c0,.11,0,.19-.07.22L1,1.43l-.07,0H.84l-.07,0h0V1.28h0s0,0,0,0h0a.05.05,0,0,0,0,0V1.06a.06.06,0,0,0,0,0A.07.07,0,0,0,.82,1h0A.1.1,0,0,0,.87.86V.72s0-.06,0-.06H.79V.55Z"/><path class="cls-3" d="M5.9,8.76H5.52V8.65h0l0,0V8.45c0-.06,0-.09-.07-.1h0l0,0a.11.11,0,0,0,0-.07h0V8.13a.31.31,0,0,1,.07-.23l.06,0h.14l.06,0h0V8h0a.05.05,0,0,0,0,0h0s0,0,0,0,0,0,0,.07v.16a.09.09,0,0,0,0,0,.12.12,0,0,0,0,.05h0s-.07,0-.07.1v.13s0,.06,0,.06H5.9v.11Z"/><path class="cls-3" d="M1,1.83l0,0v0a.19.19,0,0,0-.31.23c.09.12.27.13.32.33h0c.06-.2.24-.21.33-.33A.19.19,0,0,0,1,1.83Z"/><path class="cls-3" d="M5.75,7.53l0,0v0a.19.19,0,0,1-.31-.23c.08-.12.26-.13.32-.33h0c.06.2.24.21.33.33S5.89,7.73,5.75,7.53Z"/></g></g></svg>