<svg xmlns="http://www.w3.org/2000/svg" viewBox="0 0 6.72 9.39"><defs><style>.cls-1{fill:#fff;}.cls-2{fill:#3d3d3d;}.cls-3{fill:#b41818;}</style></defs><g id="Layer_2" data-name="Layer 2"><g id="Layer_1-2" data-name="Layer 1"><rect class="cls-1" x="0.04" y="0.04" width="6.65" height="9.32" rx="0.3"/><path class="cls-2" d="M6.39,9.39h-6A.34.34,0,0,1,0,9.06V.34A.34.34,0,0,1,.34,0H6.39a.34.34,0,0,1,.33.34V9.06A.33.33,0,0,1,6.39,9.39ZM.34.07A.27.27,0,0,0,.07.34V9.06a.27.27,0,0,0,.27.26H6.39a.26.26,0,0,0,.26-.26V.34A.27.27,0,0,0,6.39.07Z"/><path class="cls-2" d="M6.21,9.15H.51a.24.24,0,0,1-.24-.24V.49A.25.25,0,0,1,.51.24h5.7a.25.25,0,0,1,.25.25V8.91A.25.25,0,0,1,6.21,9.15ZM.51.3A.19.19,0,0,0,.32.49V8.91a.2.2,0,0,0,.19.19h5.7a.19.19,0,0,0,.19-.19V.49A.18.18,0,0,0,6.21.3Z"/><path class="cls-2" d="M6.69,3.66a.27.27,0,0,0-.09,0l0,0-.07,0h.06a.05.05,0,0,1,0,0s0,0,0,0,0,0,0,0S6.69,3.67,6.69,3.66Z"/><path class="cls-2" d="M5.32,0s.06,0,.06.1a.68.68,0,0,0,0,.14A.73.73,0,0,0,5.42.05h.07Z"/><path class="cls-2" d="M5.63,0s0,.08,0,.11a.24.24,0,0,0,0-.09Z"/><path class="cls-2" d="M2.38,0a.18.18,0,0,1,.07.05s0,.05,0,.07,0,0,.08,0l.07,0s0,0,0,0H2.51s0-.05,0-.06,0,0,0,0S2.42,0,2.38,0Z"/><path class="cls-2" d="M2.74,0s0,0,0,0,0,0,0,.05a.11.11,0,0,0,0-.08S2.77,0,2.74,0Z"/><path class="cls-2" d="M0,.49H.15l0,0h0a0,0,0,0,1,0,0S0,.47,0,.49Z"/><path class="cls-2" d="M0,8.66H.15l0,0h0s0,0,0,0S0,8.65,0,8.66Z"/><path class="cls-2" d="M.05.25s.08,0,.08,0,0,0,0,0,0,0,0,0,0,0,0,.06Z"/><path class="cls-2" d="M3.92,0s0,0,0,0v0s0,0,0,.06v0l0,0s0,0,0,0,0,0,0,0Z"/><path class="cls-2" d="M4.17,9.37s.06,0,.06-.1a.68.68,0,0,1,0-.14.51.51,0,0,1,.06.2l.07,0Z"/><path class="cls-2" d="M0,8.13s.05.06.1.06l.15,0a.9.9,0,0,1-.22.06s0,0,0,.06A.7.7,0,0,1,0,8.13Z"/><path class="cls-2" d="M4.48,9.35s0-.08,0-.12,0,.08,0,.1Z"/><path class="cls-2" d="M1.23,9.35a.1.1,0,0,0,.07,0s0-.05,0-.07.05,0,.08,0l.07,0s0,0,0,0H1.36a.19.19,0,0,0,0,.07s0,0,0,0S1.27,9.35,1.23,9.35Z"/><path class="cls-2" d="M1.59,9.35s0,0,0-.06,0,0,0,0a.19.19,0,0,1,0,.08S1.62,9.35,1.59,9.35Z"/><path class="cls-2" d="M2.77,9.35h0s0,0,0,0,0,0,0-.06a.06.06,0,0,0,0,0,0,0,0,0,0,0,0s0,0,0,0h0Z"/><path class="cls-2" d="M6.69,1.63H6.46s0,0,0,0a.29.29,0,0,1-.17.06l-.12,0s.13,0,.16,0l.1,0a.3.3,0,0,1,.1,0,.41.41,0,0,1,.11,0h0s0,0,0,0S6.69,1.64,6.69,1.63Z"/><path class="cls-2" d="M6.68,6.83H6.46s0,0-.08,0a.25.25,0,0,1-.12,0s.09,0,.12,0,0,0,.1,0a.14.14,0,0,1,.16.06.16.16,0,0,1,0,.09s0-.06,0-.09A.11.11,0,0,0,6.68,6.83Z"/><path class="cls-2" d="M6.68,1.88s-.11,0-.15,0,.06,0,.08,0l0,0S6.69,1.9,6.68,1.88Z"/><path class="cls-2" d="M6.68,1.44s-.12.08-.16.07.07,0,.11-.05l.07,0Z"/><path class="cls-2" d="M0,2.65s0,0,.06,0H.17a.85.85,0,0,0,.23,0,.26.26,0,0,1-.19.06C.15,2.72.05,2.73,0,2.65Z"/><path class="cls-2" d="M0,2.52c0-.09.13-.07.19-.09a.38.38,0,0,0-.15,0c-.08,0,0,0,0,.08Z"/><path class="cls-2" d="M.05,6.11c0-.07.1,0,.15,0s0,0,0-.05l0,0s0,.09-.07.12-.13,0-.17,0Z"/><path class="cls-2" d="M.05,4.57v0l0,0s0,0,0,.07a.43.43,0,0,1,0-.16Z"/><path class="cls-2" d="M.05,4.75s0,0,.06,0H.16s0,0,.09,0l-.06,0s0,0,0,0H.07a.06.06,0,0,0,0,.07s0,0,.05,0H0a.06.06,0,0,1,0,0A.12.12,0,0,1,.05,4.75Z"/><path class="cls-2" d="M0,6s.09,0,.11,0h0L0,5.91V6h0V6H0Z"/><path class="cls-1" d="M.83,2.19h0Z"/><path class="cls-1" d="M.85,2.2Z"/><path class="cls-3" d="M6.13,8.79H5.8V8.67h0s0,0,0,0V8.44l-.13.22h0v.11H5.44V8.67h0a.12.12,0,0,0,.09,0,.48.48,0,0,0,.08-.12h0a.28.28,0,0,0,0-.11l0,0h0s.06,0,.06-.07h0a1.38,1.38,0,0,1-.07-.19.56.56,0,0,0,0-.08l0,0h0V7.9h.36V8h0a.84.84,0,0,0,0,.1l.06.13h0l0-.07v-.1s0-.07,0-.07h0V7.9h.32V8h0s0,0,0,0,0,0,0,0v.19a.12.12,0,0,0,0,.07.07.07,0,0,0,0,0h0l0,0a.11.11,0,0,0,0,.07v.15s0,.05,0,.06h0v.11Z"/><path class="cls-3" d="M.58.59H.91V.7h0a0,0,0,0,0,0,0s0,0,0,0V.94L1,.72H1V.59h.31V.7h0a.14.14,0,0,0-.1.05.48.48,0,0,0-.08.12h0l0,.11.06,0h0a.06.06,0,0,0-.05.07h0l.06.19a.36.36,0,0,0,.05.09l0,0h0v.1H1v-.1H1v0a.42.42,0,0,0,0-.09L.91,1.12h0L.86,1.2v.1a.35.35,0,0,0,0,.07h0v.1H.58v-.1h0s0,0,0,0,0,0,0,0V1.13a.15.15,0,0,0,0-.08A.05.05,0,0,0,.58,1h0A.05.05,0,0,0,.62,1a.09.09,0,0,0,0-.07V.76s0-.05,0-.05,0,0,0,0h0V.59Z"/><path class="cls-2" d="M3,6.58v.15H3V6.68a.32.32,0,0,1,0-.07Z"/><path class="cls-2" d="M3.82,6.55h0v0s0,0,0,.05h0V6.55Z"/><path class="cls-2" d="M3,6.56v.08H3s0,0,0,0v-.1S3,6.54,3,6.56Z"/><path class="cls-2" d="M3.73,6.64a.06.06,0,0,0,0,0v0a.17.17,0,0,1,0,.1v0h0s0,0,0,0v0a.08.08,0,0,0,0,0Z"/><path class="cls-2" d="M3.05,6.6v0h0v0Z"/><path class="cls-2" d="M3.72,6.63s0,0,0,0v0h0S3.72,6.61,3.72,6.63Z"/><path class="cls-2" d="M3.44,6.41v.12h0V6.41Z"/><path class="cls-2" d="M3.34,6.55V6.41a.1.1,0,0,1,0,0v.11Z"/><path class="cls-2" d="M2.75,3.34h0v0a.43.43,0,0,1,0,0v0h0l0,0s0,0,0,0v0Z"/><path class="cls-2" d="M2.89,5.13l0,0h0l0,0h0l-.07,0H2.54l.07,0-.07,0h0l0,0-.06,0h0l0,0,0,0h0l0,0,0,0h.1a.08.08,0,0,0,.07,0h.1l.07,0Z"/><path class="cls-2" d="M2.57,5.47h0l.07,0h0a0,0,0,0,1,0,0h.05v0h0l.06,0h0s0,0,0,0h0l.09,0h0l-.06,0h0l.07,0H2.9l0,0-.07,0h.06l0,0h0l.05,0h0l0,0h0l0,0h0l0,0h0s0,0,0,0,0,0,0,0l0,0s0,0,0,0,0,0,0,0H2.85l-.09,0,0,0,0,0h0l-.06,0S2.59,5.46,2.57,5.47Z"/><path class="cls-2" d="M2.68,5.12h0l.09,0h.12l-.11,0h0l-.09,0h.07Z"/><path class="cls-2" d="M2.91,5.39h0s0,0,0,0l0-.06a.19.19,0,0,0,0-.09s0,0,0,0a.23.23,0,0,1,0,.07l0,0,0,0h0Z"/><path class="cls-2" d="M3.38,4.89s0,0,0-.06h0v.06s0,0,0,0V5h0v0S3.37,4.9,3.38,4.89Z"/><path class="cls-2" d="M3.16,5.41l0,0s0,0,0,0v0a1.44,1.44,0,0,0,.07-.23s0,0,0-.06,0,0,0,0h0l0,0h0V5l0,0h0a.69.69,0,0,1,0,.08s.06.19.07.23v0a.08.08,0,0,1,0,0l0,0a.11.11,0,0,0,0,0l0,.1v.06l-.09.16,0,0h0l0,0h0v.09h0v0s0,0,0-.09,0-.06,0-.07v0a.09.09,0,0,1,0-.05h0s0,0,0,0v.08l0,.07,0,0s0,.05,0,.06h0V5.78h-.1l0,0c-.07-.13-.07-.13-.07-.17a.15.15,0,0,1,0-.06.21.21,0,0,1,0-.07A.43.43,0,0,1,3.16,5.41Zm.36-.09a.32.32,0,0,1,0-.09v0s0,0,0-.06,0,0,0,0a.29.29,0,0,0,0,.09v0s0,0,0,0h0Zm-.07.35,0,0h0l0,0h0l0,0h.06l0,0h0l0,0h0s0,0,.06,0a.15.15,0,0,0,.05-.06l0-.06h0s-.05.07-.08.08h0a.19.19,0,0,0,.05-.09l0,0h0l0,0v0l-.06,0h0l0,0h0Zm-.07-.12h0v0a.1.1,0,0,0,0,0h0Zm-.07-.43v0s0,0,0,0v0s0,0,0,.06h0l0,0v0s0,0,0,0a.21.21,0,0,0,0-.06h0a.21.21,0,0,0,0-.06s0,0,0-.08h0Zm-.16.51h0a.24.24,0,0,0,.08.12h0s0,0,.06,0v0h0l0,0,0,0h0l0,0h0l0,0a0,0,0,0,1,0,0h0l.06,0s0,0,0,0l0,0h0a.19.19,0,0,1-.07-.08s0,0,0,0v0a.2.2,0,0,0,0,.08s0,0,0,0h0l0,0a.13.13,0,0,1,0-.06h0Z"/><path class="cls-2" d="M2.37,5.45H2.29l0,0h0l0,0a.14.14,0,0,0,.09,0H2.37Z"/><path class="cls-2" d="M2,4.91s0,0,0,0V5A.35.35,0,0,1,2,5v0s0,0,0,0V5A.13.13,0,0,1,2,5V4.91Z"/><path class="cls-2" d="M3.06,5.07,3,5.12s0,0,0,.06l0,.06,0,0s0,0,0,0h0l0,0v0H2.84a.05.05,0,0,0,0,0l0,0h0l0,0h0l-.08,0s-.05,0-.07,0h0l.06,0,0,0a.15.15,0,0,0,.09,0l0,0,0,0s0,0,0-.06S3,5,3.1,5l0,0L3,5.05H3L3.06,5l0,0h0L3,5H3l0,0,0,0,0,0h0l-.06,0h0L3,5,3,5a.14.14,0,0,1-.06.07h0l0,0H2.88s0,0,0,0h0l0,0H2.78l.05,0H2.76l-.09,0H2.45l0,0h0l-.1,0a.15.15,0,0,1-.09,0h0s-.06-.06,0-.06h0l0,0,.06,0h0s0,0,0,0L2.11,5h0l.06.08.06,0h0a.2.2,0,0,1-.07-.06l0,0h0l0,0a.4.4,0,0,0,.12.07h0L2.19,5h0l.05,0a.28.28,0,0,0,.12,0s0,0,0,0h0l-.06,0,0,0s0,0,0,0h0l.09,0h.05l-.07,0h0s0,0-.06,0l0,0a.41.41,0,0,1,0-.1.51.51,0,0,1,0-.09.31.31,0,0,1,0-.07s0,0,0-.07v0s0,0,0,0l0,0a.21.21,0,0,0,0-.07l0,0,0,0h0l0,0a.3.3,0,0,0-.08.08l-.05.07v.1a.45.45,0,0,0,0,.08s0,0,0,.06v0h0v0l0,0V4.67a.94.94,0,0,1,0,.12v.1h0l0,0s0,0,0-.06a.11.11,0,0,1,0-.06V4.68a.42.42,0,0,1,0,.07.3.3,0,0,0,0,.13v0l0,0a.39.39,0,0,1,0-.13v0a.34.34,0,0,1,0,.09.28.28,0,0,0,0,.1H2V4.66l0,0,0,0H2s0-.07,0-.08l0-.07.09-.1,0,0a.57.57,0,0,1,.13-.08.25.25,0,0,1,.13,0h.09l.07,0,0,0,0,0,.1.06a.11.11,0,0,1,.06,0s0,0,0,0l0,0,0,0h0l0,0-.05,0,0,0h0l0,0h0L2.7,4.39l-.08,0h0l.08,0,0,0h0L2.7,4.35l-.12,0h0l.07,0,.11.06,0,0,.06,0,0,0,0,0a1,1,0,0,0,.1.14h.25l0,0,0,0s0,0,0,0v0l0,0,0,0H3.05l0,0,0,0v0l-.08-.1,0,0,0,0,.08.07H3l0,0,.08.08v0L3,4.5l0,0,0,0,0,0,0,0a.38.38,0,0,1,.09.08l0,0,0,0a.53.53,0,0,0-.06-.1l0,0H3l.06,0a.84.84,0,0,1,.1.12l0,0a.33.33,0,0,0,0-.06l0-.06,0,0h0l0,0,.11.11h0l0,0-.05-.07,0,0h0l.06,0,0,0h0l0,0,0,0,0,0v0l0,0,0,0,0,0,0,0a.15.15,0,0,0,0,0l0,0h0l0,0,0,0h0l0,0,0,0-.11-.07L3,4.3l-.11,0-.06,0h0l0,0H3s0,0,0,0l0,0,0,0s0,0,0,0l-.06,0,0,0s0,0-.08,0H2.57l0,0,.06,0h0l.08,0h0v0A.18.18,0,0,0,2.74,4h0a.13.13,0,0,1,.09.05L3,4.2l0,0,0,0,0-.05,0,0s0,0,0,0,0,0,0,0L3,4.21l0,0h0l0-.06,0,0v0l.07.08,0,0v0a.08.08,0,0,1,0,0v0h0l0,0,0,0,0,0h0l0-.08v0h0l0,.09s0,0,0,0l0,0v0l0,0h0v0a.09.09,0,0,1,0-.05s0-.06,0,0a.15.15,0,0,0,0,.06v0a.19.19,0,0,0,0,.1l0,.06v0l0,0v0a.2.2,0,0,1,0,0l0-.07v0a.18.18,0,0,1,0-.06v0a.26.26,0,0,0,0,.08s0,0,0,0a.28.28,0,0,1,0-.09V4.24h0v0a.43.43,0,0,1,0,0v.1l0,0a.24.24,0,0,0,0-.08v.07a.19.19,0,0,1,0,.07.2.2,0,0,1,0,0l0,0,0,0,0,0s0-.06,0-.06a.36.36,0,0,0,0-.1.11.11,0,0,1,0,0s0-.05,0-.06v.12h0l0,0a0,0,0,0,0,0,0v0s0,0,0,0,0,0,0,0l.06-.09h0v0l0,.08h0s0,0,0-.06l0,0,0,0h0v0a.08.08,0,0,1,0,0v0h0l0,0,0,0,.06-.07v0l0,0,0,.06h0l0,0,.08-.09,0,0h0l0,0a.1.1,0,0,1,0,.05.08.08,0,0,0,0,0s0,0,0,0l.12-.13A.13.13,0,0,1,4,4H4A.34.34,0,0,0,4,4.09v0H4l.08,0h0l.06,0,0,0H4.09a.06.06,0,0,0-.07,0l-.09,0,0,0-.06.06,0,0h.11l0,0-.09,0-.08,0-.07,0-.1.06,0,0,0,0h0l0,0,0,0h0l0,0,0,0,0,0,0,0,0,0v0l0,0,0,0,0,0h0l0,0,.06,0,0,0h0l0,0-.05.07,0,0v0h0l.11-.12.05,0h0l0,0,0,0,0,.06s0,0,0,0a.84.84,0,0,1,.1-.12l.06,0h0l0,0-.06.1,0,0,0,0,.09-.08,0,0,0,0-.06.07,0,.07,0,0,.08-.08s.05-.06.07-.07l.06,0,0,0,0,0-.07.1,0,0,0,0,0,0H3.51l0,0,0,0v0s0,0,0,0v0l0,0h.24l0,0,0-.06,0-.05,0,0,0,0,.06,0H4a.35.35,0,0,1,.11-.07l.08,0h0l-.06,0h0l-.06,0L4,4.4H4l0,0,.08,0h0a.65.65,0,0,0-.15.1h0l0,0h0l0,0,0,0,0,0H4l0,0,0,0h0s0,0,0,0l.06,0,.1-.06,0,0,0,0,.06,0h.19a.47.47,0,0,1,.17.09l0,0a.43.43,0,0,1,.09.1l0,.07s0,.07,0,.08h0v0l0,0v0a.22.22,0,0,1,0,.09v.09l0,0h0a.28.28,0,0,0,0-.1s0-.08,0-.09v0a.32.32,0,0,1,0,.14l0,0h0v0a.57.57,0,0,0,0-.13.17.17,0,0,0,0-.07v.09a.64.64,0,0,1,0,.07v0h0v0a0,0,0,0,0,0,0v0a.78.78,0,0,0,0-.09v0h0v.19l0,0h0v0a.21.21,0,0,1,0-.06.28.28,0,0,0,0-.08v0a.06.06,0,0,0,0,0s0,0,0,0l0-.07-.08-.08,0,0h0l0,0,0,0,.08.12a.07.07,0,0,1,0,.05s0,.06,0,.07a.23.23,0,0,0,0,.07.41.41,0,0,0,0,.1.3.3,0,0,1,0,.09l0,0s0,0-.06,0h0l-.08,0h0l.09,0h0s0,0,0,0,0,0-.05,0l-.06,0h0s0,0,0,0l.11,0,0,0h0l-.1.07h0l.13-.07,0,0h0l0,0a.2.2,0,0,1-.07.06h0a.3.3,0,0,0,.11-.07l0-.06h0l-.06.1s0,0,0,0h0l.06,0,0,0s0,0,0,0a.28.28,0,0,1-.09.07H4.36l0,0H4.1L4,5.12H3.94L4,5.1H4l-.08,0h0l0,0,0,0h0l0,0h0l0,0,0,0s0,0,0,0l0,0h0l-.06,0h0l0,0,0,0,0,0h0L3.69,5h0l0,0s.08.07.07.07h0L3.65,5l.07,0a.47.47,0,0,1,.1.1l.05,0,0,0,.08,0,0,0H4.1a.36.36,0,0,1-.15,0h0l0,0h0l0,0,0,0H3.88l0,0s0,0,0,0,0,0,0,0v0a.09.09,0,0,1,0-.06l0-.06a.21.21,0,0,0-.07,0l0,0h0v0h0l0,0h0l-.05,0h0a.15.15,0,0,0,.06,0h0s0,0-.06,0A.28.28,0,0,1,3.63,5s0,0,0-.06l0-.09a.08.08,0,0,1,0,0h0v0s0,0,0-.06,0,0,0,0h0l.05,0,0,0s0,0,0,.12a0,0,0,0,0,0,0l0,.06V5a.15.15,0,0,0,0,.08.29.29,0,0,0,.1.07s0,0,0,0l-.09,0h0l.08.06h0l-.09,0h0l.07.07h0l0,0,0,0h0l0,0v0l0,0v0l0,0h0L3.69,5.3l0,0,0-.07a.64.64,0,0,1-.06-.12v0s0,.07,0,.1v.09h0v0l0-.08V5a.62.62,0,0,0,0-.1l0-.06v0s0,0,0,0l0,.06,0-.06v0l0,0h0s.07.06.08.07h0a.28.28,0,0,1,0-.08h0a.05.05,0,0,0,0,0v0h0l0,0,0,0h0a.29.29,0,0,0,0,.08h0s.08-.08.08-.07h0l0,0v0l0,.06.05-.06s0,0,0,0l0,0a.33.33,0,0,1,0,.06.34.34,0,0,0,0,.1v.07a.06.06,0,0,1,0,0v0l0,.08v0s0,0,0,0V5.18s0,0,0-.08v0a.64.64,0,0,1-.06.12s0,0,0,.07l0,0S3,5.37,3,5.37l0,0,0,0,0,0,0,0,0,0,0,0h0l0,0h0a0,0,0,0,1,0,0h0l.08-.08h0L3,5.2H3l.08-.06h0L3,5.16H3l.1-.07a.41.41,0,0,0,0-.08V5l0-.06s0,0,0,0,0-.1,0-.12,0,0,0,0l0,0h0s0,0,0,0,0,0,0,.06v0l0,0,0,0,0,0s0,0,0,.06a.15.15,0,0,1-.07.09s-.06,0-.06,0H3a.15.15,0,0,0,.06,0h0L3,5.11H3l0,0h0V5h0Zm-.84-.52a.31.31,0,0,0-.05.13h0v0a.2.2,0,0,0,0-.05h0v.06a.18.18,0,0,0,0,.06h0V4.68s0,0,0-.06l0-.07Zm.36.51L2.49,5l-.1,0L2.29,5l-.06,0s0,0,0,0A.67.67,0,0,0,2.34,5h0L2.24,5h0l.1.07h0L2.26,5h0l.08,0h.08s0,0,0,0l0,0L2.32,5h0l.08,0h0L2.34,5s0,0,0,0l.1,0h.14Zm2-.44a.36.36,0,0,1,0,.14v0h0v0s0,0,0,0a.18.18,0,0,0,0-.06V4.59h0v.08h0v0a.07.07,0,0,0,0-.06l0-.07h0Zm-.4.44h.1l.08,0,.08,0h0a.42.42,0,0,1-.15.07h0l.08,0,.08,0s0,0,0,0l-.06,0s0,0,0,0h0a.23.23,0,0,0,.11,0l0,0h0L4.44,5h0L4.5,5l0,0h0L4.44,5h0l0,0,.06-.07h0s0,0,0,0L4.49,5,4.38,5l-.12,0ZM3.6,4.85s0,0,.06,0h0l0,0,0,0h0a.32.32,0,0,1,0-.09h0A.84.84,0,0,0,3.6,4.85Zm-.42,0s0,0,0,0V4.77a.1.1,0,0,1,0,0h0s0,0,0,0v0s0,0,0,0l0,0,0,0h0Z"/><path class="cls-2" d="M2.49,4.29l0,0h-.1l.13,0,0,0H2.39l-.14,0-.07,0a.73.73,0,0,0-.09.08l0,0,0,0v0l0,0,0,0a.21.21,0,0,1,.05-.07l0,0h0a.22.22,0,0,0-.07.06H2l0,0s0,0,.06-.08h0l-.06,0h0l0,0,.05,0,.07,0h0l-.06,0h0l.07,0h.15Z"/><path class="cls-2" d="M2,5.11s0,0,0,0a0,0,0,0,0,0,0v0l0,0h0v0l0,0s0,0,0,0a.61.61,0,0,0,.07.1h0V5.19h0l.06.08h0l0,0,0,0,0,0h.12l.06,0H2.22l-.1,0,0,0s0,0,0,0v0s0,0,0,0h0a.21.21,0,0,0,0,.06v0h0l0,0s0,0,0-.07V5.11Z"/><path class="cls-2" d="M1.89,5.31V5.17s0,0,0,0a.8.8,0,0,1,0,.11v.23a.43.43,0,0,0,0,0V5.29H2v.27H2s0-.07,0-.08v0a.06.06,0,0,0,0,0v0a.72.72,0,0,1,0,.13v.1l0-.06a.43.43,0,0,0,0,0l0-.06H2v.19H2V5.55a.43.43,0,0,0,0,0,.08.08,0,0,0,0,0,.65.65,0,0,1,0,.14v0h0V5.59a.31.31,0,0,0,0-.08h0v.11c0,.07,0,.07,0,0a.13.13,0,0,0,0,0h0a.45.45,0,0,1,0,.13v0l0-.05V5.58a.49.49,0,0,1,0,.11v0l0,0s0-.08,0-.1v0a.13.13,0,0,1,0,.07v0h0s0,0,0,0l0-.05s0,0,0-.06h0v.13l0,0v0l0,0v0s0,.1,0,.11l0,0a.15.15,0,0,0,0-.06v0h0v0a0,0,0,0,0,0,0v0h0l0,0a.09.09,0,0,0,0,0h0a.25.25,0,0,1,0,.07h0l0,0,0,0h0v0h0l0,0h0v0h.12l-.09,0h0l-.08,0,0,0h0l0,0-.08,0a0,0,0,0,1-.05,0l-.07,0,0,0-.06,0,0,0L2,5.67s0,0,0,0l0-.06,0,0a.12.12,0,0,1,0-.07.21.21,0,0,1,0-.06s0,0,0,0Z"/><path class="cls-2" d="M2.59,5.38H2.46l0,0h.09Z"/><path class="cls-2" d="M4.21,5.62v0h0l0,0h0v0h0a.08.08,0,0,0,0,0l0,0h0a.64.64,0,0,0,0-.07h0l0,0,0,0h0V5.59h0v0l0,.06,0,0a.73.73,0,0,1,0-.08v0s0,0,0,0l0,.07v0a.49.49,0,0,1,0-.11h0l0,.06,0,.05,0,0h0V5.59l0,.1a0,0,0,0,0,0,0v0a.49.49,0,0,1,0-.11,0,0,0,0,1,0,0v0l0,0v0a.12.12,0,0,0,0,.05v0a.28.28,0,0,1,0-.13h0a.2.2,0,0,1,0,0c0,.1,0,.1,0,0V5.51h0a1,1,0,0,0,0,.12v0h0V5.47a.08.08,0,0,0,0,0,.1.1,0,0,0,0,0v.09h0V5.43h0l0,.06a.11.11,0,0,1,0,0s0,.07,0,.06v-.1a.72.72,0,0,1,0-.13v0a.06.06,0,0,0,0,0v0a.45.45,0,0,0,0,.08h0v0a.18.18,0,0,0,0-.06V5.28h0a.65.65,0,0,0,0,.11v0a.43.43,0,0,0,0,0V5.26s0-.11,0-.11v.21s0,0,0,0a.32.32,0,0,1,0,.08h0v0l0,.06s0,.07,0,.07l0,0-.06,0,0,0-.06,0,0,0H4.51a0,0,0,0,1,0,0l-.07,0,0,0h0s-.08,0-.12-.05l-.11,0h.12Z"/><path class="cls-2" d="M2.73,3.49h0s0,0,0,0h0v0Z"/><path class="cls-2" d="M4.73,4.53c-.06,0-.06-.06-.1-.08l-.07-.06-.08,0-.1,0H4.32l-.09,0H4.16l0,0,.06,0,.07,0h-.1l.06,0h.15l.07,0h0l-.06,0h.07l.07,0,.07,0h0l0,0h0l.07.08,0,0h0a.22.22,0,0,0-.07-.06h0l0,0,0,.06a.11.11,0,0,1,0,.06l0,0v0h0Z"/><path class="cls-2" d="M3,3.68,2.9,3.63h0v0h0l0,0-.06,0h0a.08.08,0,0,1,0,0,.54.54,0,0,0,0,.11v0s0,0,0,0v0s0,0,0-.07a.43.43,0,0,0,0,0h0s0,0,0-.05l0,0-.05,0,0,0h0l.09,0h0l.07,0h0s0,0,0,0,0,0,0,0,0,0,0,0a.35.35,0,0,0,0-.06h0l0,.07h0l0,0,0,0v0a.2.2,0,0,0,0,.08s0,0,0,0,0,0,0,0l.05,0,.1.07,0,0Z"/><path class="cls-2" d="M2.67,3.64l0,0,0,0a.07.07,0,0,1,0,0v0s0,0,0,0h0v0s0,0,0,0v0h0v0a.08.08,0,0,0,0,0v0Z"/><path class="cls-2" d="M3.86,5.58s0,0,0,0l0,0,0,0s0,0,0,0,0,0,0,0h0l0,0h0l0,0H4s0,0,0,0h0l.05,0H4l0,0H4l-.1-.07h0l.07,0H4l-.06,0h0l.09,0H4s0,0,0,0H4l.06,0h0l0,0h.06s0,0,0,0h0l.07,0h0l-.08,0L4,5.53l0,0-.09,0H3.86Z"/><path class="cls-2" d="M4.77,5V5a.13.13,0,0,1,0,.06v0h0V5a.26.26,0,0,0,0-.07V5a.06.06,0,0,1,0,0V5Z"/><path class="cls-2" d="M4.33,5.44h.1l.05,0h.06l-.06,0H4.4S4.32,5.45,4.33,5.44Z"/><path class="cls-2" d="M3.78,5.23a.47.47,0,0,0,0,.09l0,.06h0l0,0a.05.05,0,0,1,0,0,.41.41,0,0,1,0-.07S3.78,5.22,3.78,5.23Z"/><path class="cls-2" d="M4.24,5.37h0l0,0H4.24Z"/><path class="cls-2" d="M4.67,5.23a.16.16,0,0,0,0-.06l0,0v0h0v.2l0,0h0v0h0a.14.14,0,0,0,0-.06v0h0l0,0h0V5.26l0,0-.06,0H4.28s0,0,0,0h.06l.06,0h.12l0,0,0,0h0s0,0,0,0l.07-.08h0l0,0v0h0a.53.53,0,0,0,.06-.1s0,0,0,0l0,0h0v0Z"/><path class="cls-2" d="M4.07,5.15h.12l-.1,0H4l-.11,0H4l.07,0h.06l-.09,0Z"/><path class="cls-2" d="M4.22,5.17s0,0,0,0l0,0h0l0,0,0,0h0l0,0,0,0h0l-.07,0,.09,0H4.13l0,0H4l0,0h0l0,0h0l.06,0h.1a.08.08,0,0,0,.07,0h.1Z"/><path class="cls-2" d="M3.46,2.23a.45.45,0,0,0,0-.06h0l0,0,0,0h0a.24.24,0,0,0,0,.08.15.15,0,0,1,0,.08.43.43,0,0,1,0,.05v0a.15.15,0,0,0,0,.06H3.42a.43.43,0,0,1,0-.12Z"/><path class="cls-2" d="M3.58,2.2s0-.08,0-.09l0,0,0,0,0,0A.59.59,0,0,0,3.75,2h0s0,0,0,0l0,0s0,0,0,.06,0,.08,0,.16v.07h0a0,0,0,0,1,0,0h0a.43.43,0,0,1,0-.05v0h0v0s0,0,0-.06a.56.56,0,0,1,0-.1s0,0,0,0h0a.26.26,0,0,0,0,.11c0,.08,0,.09,0,.14l0,.08a.13.13,0,0,0,0,.05,0,0,0,0,0,0,0s0,0,0,0l0,0H3.53a.08.08,0,0,1,0,0C3.55,2.36,3.56,2.3,3.58,2.2Z"/><path class="cls-2" d="M4,2H4v0H4a.1.1,0,0,1,0,0H4v0H4v0l0,0s0,0,0,0l0,0,0,0,0,0h0v0l0,0H4v0l0-.06v0a.28.28,0,0,0,0-.05V2Z"/><path class="cls-2" d="M4.46,2.64a.11.11,0,0,1,0-.06l0-.05h.18a.35.35,0,0,0,.12,0h0s0,0,0,0,0,0,0,0h0l0,0a.35.35,0,0,0-.05.08h0a1.32,1.32,0,0,1,.08-.14.39.39,0,0,0,0-.06l0,0h0s-.07.12-.08.15,0,0,0,0v0l0,0h0l0,0h0l0,0-.1,0,0,0,0,0Z"/><path class="cls-2" d="M4.38,2.61l0-.06,0,0h0s0,0,0,0a.49.49,0,0,0,0,.1l0,0v0l0,0h0A.51.51,0,0,0,4.38,2.61Z"/><path class="cls-2" d="M4.92,3H5L5,3a.11.11,0,0,0,0-.05V2.86l0,0H5v0l0,0,0,.07,0,0h0V3l0,0s0,.08,0,.09h0l0,0L4.94,3l0,0h0Z"/><path class="cls-2" d="M4.12,2.6h0l0,0a.11.11,0,0,1,0,0v0h0v0h0s0,.07,0,.08v0h0V2.42h0s0,0,0,0l0,0,.08.07h0l0,.08a.49.49,0,0,0,0,.09h0l-.06,0-.07,0Z"/><path class="cls-2" d="M3.09,2.39h.05a0,0,0,0,0,0,0s0,0,0,0V2.25l0,0-.05,0h0l.08,0h.13v0a.33.33,0,0,0,0,.11l0,.07H3.09Z"/><path class="cls-2" d="M1.49,1.33s0,0,0,0h0l0,0,.09,0,.06.05a.18.18,0,0,1,.06.09.27.27,0,0,1,0,.13v0s0,0,0,0h.09l0,0s0,0,0,.07v0s0,0,0,0h0s0,0,0,0h0s0,0,0,0,0,0,0,0a0,0,0,0,1,0,0V2h0l.06.06a.12.12,0,0,0,.06,0l.1.05h.15a.43.43,0,0,0,.14,0A.28.28,0,0,0,2.52,2a.22.22,0,0,0,0-.08.36.36,0,0,0,0-.07h0s0,0,0-.06v0h0s0,0,0,0h0s0,0,0,0,0,0,0,0a0,0,0,0,1,0,0s0,0,0,0a.08.08,0,0,1,0-.05.08.08,0,0,1,0-.08l0,0h.06v0a.09.09,0,0,1,0-.06.08.08,0,0,1,0-.06c0-.05,0-.07.06-.15a.08.08,0,0,0,0,0s0,0,0,0,0,0,0,0l0,.06c.05,0,.07.06.07.1a.27.27,0,0,1,0,.12v0H2.8l.06,0a.64.64,0,0,1,0,.07s0,0,0,0h0a0,0,0,0,0-.06,0h0v0h0a0,0,0,0,1,0,.07s0,0,0,0l.08.1h0l0,0L3,2l.08,0h0l.11,0h0a.47.47,0,0,0,.17,0A.61.61,0,0,0,3.58,2a.51.51,0,0,0,.14-.15.46.46,0,0,0,.08-.13l0,0s0,0,0-.06v0s0,0,0,0,0,0,0,0V1.51s0,0,0,0l-.07,0H3.7s0,0,0-.06a.19.19,0,0,1,.07-.08l.09,0h.06v0a.18.18,0,0,1,0-.09A.25.25,0,0,1,4,1.07l0,0L4,1,4.08.94l0,0h0s0,0,0,0h0s0,0,0,.06a.43.43,0,0,1,0,.05.47.47,0,0,1,0,.09.25.25,0,0,1,0,.08.24.24,0,0,1,0,.1l0,0h0l0,0s0,0,0,0a.18.18,0,0,1,.06.09.22.22,0,0,1,0,.08s0,0,0,0,0,0,0,0a.15.15,0,0,0-.09-.06s0,0,0,0,0,0,0,0a.06.06,0,0,1,0,0s0,0,0,0v.09a.07.07,0,0,0,0,.05v.17c0,.1,0,.14,0,.21a.73.73,0,0,0,.16.22l.12.08a.58.58,0,0,0,.14,0h.19a.37.37,0,0,0,.15,0l.06,0h0v0l0,0h0v0a0,0,0,0,0,0,0h0a.11.11,0,0,1,0-.05s0,0,.09,0a.09.09,0,0,1,.07,0H5v0l0-.08,0-.06.08,0s.06,0,.08,0,0,0,0,0,0,0,0,0V2s0,.08,0,.1l0,0a.13.13,0,0,1-.06.07l-.06,0h0a.12.12,0,0,1,0,0,.11.11,0,0,1,0,.08s0,0-.06.05h0v0s0,0,0,0a0,0,0,0,0,0,0h0s0,0,0,0a0,0,0,0,0,0,0,0,0,0,0,1,0,0H5v.07a.27.27,0,0,0,0,.09.41.41,0,0,0,.15.25A.39.39,0,0,0,5.32,3a.3.3,0,0,0,.13,0h.08s.07,0,.07,0h0s0,0,0,0h0l0,0h0v0a.05.05,0,0,0,0,0s0,0,0,0l0,0,.06,0h.06a.09.09,0,0,1,.06,0h0s0,0,0,0,0-.08,0-.1A.2.2,0,0,1,6,2.52h.24s0,0,0,0a0,0,0,0,1,0,0l-.13.11L6,2.8l-.06.06-.08.07V3h0V3l0,0h0s0,0,0,0h0v0l0,0,0,0-.06.08,0,0-.13.19,0,0v0s0,0,0,.06a.09.09,0,0,1,0,.1H5.31v0s0,0,0,0a0,0,0,0,0,0,0,.19.19,0,0,1,0,.08s0,0,0,0h0s0,0,0,0V4s0,0,0,0V4a.19.19,0,0,1,0,.08.13.13,0,0,1-.07,0H5a.83.83,0,0,1,0,.15l0,.07,0,0a.52.52,0,0,1,0,.11v.12a.42.42,0,0,1,0,.13.45.45,0,0,0,0,.08v0A.42.42,0,0,1,5,5a.15.15,0,0,1,0,.09v0s0,0,0,.08v.08l0,0v0a.58.58,0,0,1,0,.1.06.06,0,0,1,0,.06l0,0,0,.06v.07h0l0,0h0a.56.56,0,0,0,.07.5.21.21,0,0,1-.11-.08.66.66,0,0,0,0,.15c0,.06.07.09.11.17a.41.41,0,0,1,0,.22.37.37,0,0,0-.14-.18.37.37,0,0,1,.07.16.51.51,0,0,1,0,.17A.5.5,0,0,0,5,7.18s-.06,0-.07,0a.12.12,0,0,1,0-.08.77.77,0,0,0,.06.3.14.14,0,0,1-.09-.11s0,.36.06.38a.38.38,0,0,1-.15-.1.63.63,0,0,1-.1.48s0-.11,0-.16-.06.1-.1.15a.37.37,0,0,0-.07.25.14.14,0,0,1-.06-.15.24.24,0,0,0-.09.13.31.31,0,0,0,0,.19c-.07,0-.1-.11-.13-.18a.28.28,0,0,0,0,.18S4,8.37,4,8.33l-.11.2a.25.25,0,0,1-.18.12.19.19,0,0,0,.06-.23.24.24,0,0,1-.16.18s0-.1,0-.12a.34.34,0,0,0-.08.09l0,.06s0,.06-.08.06a.36.36,0,0,0-.07-.2.29.29,0,0,0,0,.19.2.2,0,0,1,0,.11.84.84,0,0,0-.06-.14.37.37,0,0,1-.09-.16.14.14,0,0,0,0,.14l-.06,0,0-.06A.21.21,0,0,1,3,8.42.19.19,0,0,0,3,8.65a.21.21,0,0,1-.17-.12l-.12-.2a.14.14,0,0,1-.07.08.37.37,0,0,0-.05-.18c0,.07-.06.16-.13.18s0-.16,0-.19a.29.29,0,0,0-.08-.13.19.19,0,0,1-.06.15A.38.38,0,0,0,2.27,8s-.09-.08-.1-.15,0,.11,0,.16A.55.55,0,0,1,2,7.52c0,.06-.15.08-.19.08s.08-.14.09-.17A.9.9,0,0,0,2,7.2V7.12l-.06.09a.28.28,0,0,0,0,.09.11.11,0,0,1,0-.12v0s0-.11,0-.16,0-.34.08-.49c-.05,0-.11.12-.14.18a.34.34,0,0,1,.05-.22c0-.08.08-.11.1-.17a.66.66,0,0,0,0-.15.18.18,0,0,1-.11.08A.59.59,0,0,0,2,5.73H1.92l0,0h0v0l0-.09,0,0V5.45a.58.58,0,0,1,0-.1V5.28l0,0s0,0,0-.08a.09.09,0,0,1,0,0v0a.15.15,0,0,1,0-.09l0-.11v0a.25.25,0,0,0,0-.07,1.3,1.3,0,0,1,0-.13v-.1a.15.15,0,0,1,0-.07.43.43,0,0,1,0,0V4.38s0-.06,0-.07a.65.65,0,0,1,0-.2v0s0-.06,0-.09V4a1,1,0,0,1,0-.25.78.78,0,0,1,0-.14.49.49,0,0,1,.05-.17V3.34h0a.1.1,0,0,1-.06-.08.13.13,0,0,1,0-.1v0a.1.1,0,0,0,0,0V3a.07.07,0,0,1,0-.06.11.11,0,0,1,0-.05,0,0,0,0,1,0,0h0v0s0-.06,0-.06,0,0,0,0l0,0a.17.17,0,0,1,0-.1l0-.06h0v0s0-.15,0-.21V2.24s0-.06,0-.1v0a0,0,0,0,0,0,0v0h0s0,0,0,0V2h0a0,0,0,0,1,0,0,0,0,0,0,1,0-.05h0a1,1,0,0,0,0-.11l0-.06a2.88,2.88,0,0,0-.1-.31l0-.08A0,0,0,0,1,1.49,1.33ZM5.87,2.77h0v0a0,0,0,0,0,0,0,.08.08,0,0,0,0,0s0,0,.06-.06l.06,0h0L6,2.66l0,.07s0,0,0,0l0,0,.19-.17,0,0H6.07L6,2.57l-.05,0,0,.07v0s0,0,0,.06Zm-4-1H1.9s0,0,0,0a.08.08,0,0,0-.07,0h0a0,0,0,0,1,0,0s0,0,0,0h0s0,0,0,.05h0s0,0,0-.05l0,0,0,0,0,0s0,0,0,0,0,.05,0,.05h0S1.81,1.82,1.84,1.8Zm.76,0s0,0,0,0l.09,0s0,0,0,0H2.6Zm0,.07h.08s.05,0,.05,0H2.68l-.07,0Zm0-.39h0v.1h0s0,0,0,0,0,0,0,0a0,0,0,0,1,0,0h0A.33.33,0,0,1,2.61,1.45Zm-.11.23s0,0,0,0h0a.07.07,0,0,1,.06,0h0s0,0,0,0l0,0h0s0,0,0,0h0s0,0,0,0A.11.11,0,0,0,2.5,1.68Zm.22-.23s0,0,0-.05l-.06-.06h0s0,0,0,0,0,.09,0,.12,0,0,0,0v0l0,.07V1.55a.09.09,0,0,1,0-.05.24.24,0,0,1,0-.08h0a0,0,0,0,0,0,0s0,0,0,0l0,.08v.08s0,0,0,0a.16.16,0,0,0,0-.09s0,0,0,0l0,0h0l0,0s0,0,0,0a.54.54,0,0,1,0,.11h0V1.54A.15.15,0,0,0,2.72,1.45Zm0,.24h0s0,0,0,0a0,0,0,0,1,0,0h0s-.06,0-.06,0l0,0h0l.07,0h0a0,0,0,0,0,0,0h.06ZM3.9,1.35h0a.22.22,0,0,0-.11,0l0,0h.08l.07,0h0s0,0,0,0l-.07,0h0a.11.11,0,0,1,.08,0H4a.08.08,0,0,0,0,0Zm0,.25s0,0,0,0l.06,0H4v0H3.93S3.9,1.59,3.9,1.6Zm.16-.15h.06l0,0,0,0H4.1l.06,0,.06,0h0s0,0,0,0,0,0,0,0a.16.16,0,0,0-.07-.09l-.05,0H4s0,0,0,0l.07,0h0l0,0,0,0a.05.05,0,0,0,0,0,.07.07,0,0,0,0-.05V1.14l0-.09a.43.43,0,0,0,0-.05s0,0,0,0l0,0,0,.05L4,1.12s0,0,0,.06a.13.13,0,0,0,0,.06L4,1.3s0,0,0,0a.24.24,0,0,1,0-.15l0,0,0,0s0-.05,0,0h0v0s0,0,0,0v.06a.42.42,0,0,0,0,.12v.05s0,0,.06,0,0,0,0-.05l0,0V1.16h0v.06a.09.09,0,0,1,0,.05s0,0,0,0a.09.09,0,0,1-.05,0l0,0,0,0s0,.06,0,.06H4ZM4,1.29s0,0,0,0H4v0A.11.11,0,0,1,4,1.2v0a.08.08,0,0,0,0,0H4l0,0h0l0,0v0H4v0l0,0v.1ZM4,1.57a0,0,0,0,0,0,0s0,0-.06,0h0s0,0,0,0,0,0,0,0H4Zm1,.7a.11.11,0,0,0,0-.06H5a0,0,0,0,0,0,0h0l.05,0s0,0,0,0H5v0l0,0H5l0,0Zm.15,0,.07,0,0,0s0,0,0,0V2h0L5.2,2s-.06,0-.08,0a.08.08,0,0,0,0,0v0a.45.45,0,0,0,0,.08h0a.15.15,0,0,1,0-.08.34.34,0,0,1,.06-.06h0s0,0,0,0l0,.07v.07l0,0s.06-.08.07-.08v0l0,0s0,0,0,.07l0,0,0,0-.05,0h0s0,0,0,0Zm-.07,0h0c.06,0,.09-.07.09-.1h0v0h0s0,0,0,0a.34.34,0,0,1-.06.06Zm0,.07.07,0s0,0,0,0h0l0,0a.06.06,0,0,1,0,0h0a.06.06,0,0,0,0-.06l0,0a.09.09,0,0,0-.07,0S5.07,2.31,5.09,2.31Zm0,.09h0a.07.07,0,0,0,0,0L5,2.31H5a.24.24,0,0,0,.09.08h0Zm0,.05H5l0,0,0,0h0l0,0,.06,0Zm.72.33s0,0,0,0a.1.1,0,0,1,0,0h0s0,0,0-.05a.13.13,0,0,0,0-.06l0,0H5.7a.11.11,0,0,1,0,.11h0V2.81s0,0,0,0Zm0,.19h0l0,0,0,0h0S5.72,2.94,5.75,3ZM5.69,3l0,0h0V3l0,0,0,0h0a0,0,0,0,0,0,0Zm-.37.65h0a0,0,0,0,0,0,0,.13.13,0,0,0,0-.11l-.07-.09L5.2,3.31C5,3.18,4.94,3.1,4.83,3L4.76,3s0,0,0,0l.12.08,0,0,0,0,0,0a.58.58,0,0,1,.15.11l0,0,.08.06.09.12h0v0h0s0,0,0,0,0,0,0,0,0,0,0,0h0a.12.12,0,0,1-.05-.05l0-.07-.09-.09,0,0L5,3.27a.9.9,0,0,0-.18-.1h0l0,0,.07,0,0,0a.48.48,0,0,1,.11.09l0,0,.1.1.08.11Zm-.09.15v0a.07.07,0,0,0,0,0l0,0h0s0,0,0,0v0l0,0h.06Zm-.05.08h0s0,0,0-.06h0s0,0,0,0v0a.1.1,0,0,0,0,0h0Zm0,0h0l0,0L5,3.81,4.9,3.67l0,0h0v0l0,0,0-.08a.33.33,0,0,0,0-.06l0,0,.12.1.09.12v0H5.14a.13.13,0,0,0-.06.07.1.1,0,0,0,0,0v0s0-.07.07-.08h.06s0,0,0,0h0v0h0l0,0-.07-.09L5,3.37l0,0a.23.23,0,0,0-.09-.07L4.77,3.2l-.1-.06,0,0L4.43,3,4.31,3l-.09,0,0,0L4,2.82l-.09,0-.15,0H3.52l-.13,0H3.1l-.2,0H2.34l-.18,0a1.48,1.48,0,0,0-.27.1l0,0h0v.05h0a0,0,0,0,1,.06,0l0,0V3H2s0,0,0-.06v0l0-.06h0l0,0,.13,0,.17,0h0v.14a.75.75,0,0,0,0,.12V3H2.14L2,3,1.94,3h0l-.06,0h0v0h0L2,3a1.2,1.2,0,0,1,.26,0h.79l.25,0,.15,0H3.08v0a.11.11,0,0,0,0,.11h0s0,0,0,0h.15l.12,0,.17,0,.08,0,.21.06.07,0,.19.07h0l0,0h0l.07,0-.09-.06L4,3.4l-.11,0-.11,0L3.6,3.25H3.5l-.19,0-.1,0H3.08s0,0,0,0,0,0,0,0h.28l.11,0h.1l.19,0,.07,0h0l.07,0,.09,0h0l.15.06.14.06,0,0,.12.06,0,0a.1.1,0,0,1,0,.08h0s.07,0,.08-.09v0l0,0L4.4,3.43h0l0,0-.13-.06H4.15l0,0-.05,0L4,3.22l0,0,.08,0,.08,0,0,0,0,0,.06,0,0,0,.06,0,.05,0,0,0,.18.11a2.11,2.11,0,0,1,.29.2,1.89,1.89,0,0,1,.2.2h0Zm-.62-1h0l.07,0,0,0h0l0,0h0V3a.33.33,0,0,1,0,.06h0l0,0a.19.19,0,0,0,0-.07V3l0,0-.05,0-.11-.06Zm-.24,0-.12-.06-.12,0,0,0,0,0-.07,0-.12,0-.15,0-.13,0H3.36l-.12,0H3.09l.1,0h.22l.12,0h0l.1,0h.07l0,0h0l.07,0,.09,0L4,2.8l.14.06.07,0h0Zm-2.49,0s0,0,0,0h0s0,0,0-.05a0,0,0,0,0,0,0h0S1.8,2.9,1.8,2.91ZM3,3.17v0H2.94a.11.11,0,0,1,0-.08H3l0-.05H2.94v0a.17.17,0,0,0,0,.14H3v0Zm1.65.89,0,0h0l0,0a.17.17,0,0,1,0,.07h0l0,0s0,0,0,0l.05.08,0,0h0l0,0,0-.1a.31.31,0,0,1,0-.13V4a.25.25,0,0,1,0-.08v0l0,0h0v0h0l0,0v0a.3.3,0,0,1,0,.1h0v0s0,0,0,0h0l0,0V4l0,0h0a.21.21,0,0,1,0,.07l0,0Zm.22.45Zm0-.38h0l0,0H5Zm0-.06Zm-.49-.4v0h0v0h0Zm.6.45h0s0,0,0,0a.05.05,0,0,0,0,0,.07.07,0,0,0,0-.05V4A.3.3,0,0,0,5,3.91l-.13-.14L4.68,3.6l0,0s0,0,0,0v0s0,0,0,0h0a2.82,2.82,0,0,1,.29.24L5,3.93,5,4,5,4V4s0,0,0,0V4h0s0,0,0,0,0,0,0,0h0l0,0L5,4H5V4l-.06-.07a.93.93,0,0,0-.18-.13l0,0,.07.06.12.1A.74.74,0,0,1,5,4ZM5,4.15v0l0,0H5l0,.06v0h0l0,0v0a.06.06,0,0,0,0,0H5A.53.53,0,0,0,5,4.15Zm0,.48a.23.23,0,0,0,0-.14V4.43a.25.25,0,0,1,0-.07s0-.11,0-.13,0-.09,0-.12v0a.32.32,0,0,0,0,.08.24.24,0,0,0,0,.09v.07l0,.08a.32.32,0,0,1,0,.12v0a.31.31,0,0,1,0,.07l0,.07h0a0,0,0,0,0,0,0v0l0,0S5,4.65,5,4.63ZM4.78,6.14l0,0A.41.41,0,0,1,4.73,6a.26.26,0,0,1,0-.15.22.22,0,0,0,0,.21h0l0-.05a.36.36,0,0,1,0-.09v0a.43.43,0,0,0,0,.16.91.91,0,0,0,.07.14.25.25,0,0,1,0-.07V6.08A.13.13,0,0,0,4.78,6.14Zm0,1s0-.11,0-.16a.28.28,0,0,1,0-.18.25.25,0,0,0,0,.17C4.7,7,4.75,7,4.74,7.1Zm-.07-.35a.23.23,0,0,0,0-.16,1.22,1.22,0,0,1,0-.17.29.29,0,0,0,0,.16.3.3,0,0,1,0,.1A.2.2,0,0,1,4.67,6.75Zm.17-.25a.38.38,0,0,0-.1-.12.38.38,0,0,1-.06-.13v0h0v0c0,.1.05.2.09.29a.13.13,0,0,0,0-.08h0a.14.14,0,0,1,0-.07h0l0,0,0,0Zm0,.23a1.64,1.64,0,0,1,0,.22l0,.09c0-.06,0-.13,0-.19a.37.37,0,0,0,0-.11.29.29,0,0,0,0-.1l0-.06A.88.88,0,0,1,4.82,6.73Zm0,.79h0v0a.5.5,0,0,1,0-.12.86.86,0,0,1,0-.16.31.31,0,0,0,0,.19l0-.09A.28.28,0,0,0,4.8,7.52Zm-.2.15,0,.06s0,0,0,0v.08s0,0,0,.06h0a.05.05,0,0,0,0,0v0a.4.4,0,0,0,0-.15.58.58,0,0,0,0-.26.47.47,0,0,0,0-.1.83.83,0,0,1,.06.21v.19s0,0,0,0a.42.42,0,0,0,0-.1v0s0-.06,0-.09h0v.15a.48.48,0,0,1,0,.18A.24.24,0,0,0,4.6,7.67Zm0-.68,0,0,0,.06h0a.19.19,0,0,1,0,.08.49.49,0,0,0,0,.17.38.38,0,0,1,0-.15V7.11a.19.19,0,0,1,0-.08.33.33,0,0,1,0-.17,1.22,1.22,0,0,0,0-.17.17.17,0,0,0,0-.1.07.07,0,0,0,0-.06.14.14,0,0,1,0,.06v0h0l0,.06h0s0,0,0-.06l0-.09a.65.65,0,0,0,0,.13v0a.56.56,0,0,1,0,.13l0,0a.5.5,0,0,1,0-.12.29.29,0,0,0,0,.16s0,0,0,.06a.13.13,0,0,0,0,.06v0a.41.41,0,0,1,0-.09h0s0-.06,0-.1a.28.28,0,0,0,0-.09.22.22,0,0,0,0-.16.23.23,0,0,1,0,.14v.09a.28.28,0,0,0,0,.09,1.24,1.24,0,0,1,0,.38.75.75,0,0,1,0,.16.37.37,0,0,0,0-.11A.42.42,0,0,0,4.56,7Zm-.07-.91a.14.14,0,0,1,0,.11.16.16,0,0,0,0-.12A.17.17,0,0,0,4.45,6,.21.21,0,0,1,4.49,6.08Zm-.11.13a.08.08,0,0,0,.08,0,.12.12,0,0,0,0-.1.29.29,0,0,1,0,.09A.11.11,0,0,1,4.38,6.21Zm.09,0a.19.19,0,0,1-.16,0,.14.14,0,0,0,.18,0,.08.08,0,0,0,0-.07.08.08,0,0,0,0-.08.17.17,0,0,1,0,.07A.13.13,0,0,1,4.47,6.22ZM4.3,5.88s0,.07,0,.11l0,.07s0,0,0,.06a.57.57,0,0,1,0-.13.54.54,0,0,1,0-.11A.16.16,0,0,0,4.3,6h0A.14.14,0,0,1,4.3,5.88Zm.27.26a.24.24,0,0,1,0,.08.1.1,0,0,1,0,0,.15.15,0,0,1-.16,0,.63.63,0,0,1-.12-.11l-.11-.1.1.1a.34.34,0,0,0,.12.12.15.15,0,0,0,.16,0s0,0,.06,0a.13.13,0,0,0,0-.08A.21.21,0,0,0,4.51,6,.34.34,0,0,1,4.57,6.14ZM4,5.82A.22.22,0,0,0,4,5.9v0H4l0-.06,0-.06.08-.08h0Zm0-.11Zm-1.3.08-.06,0,0,0h0l.07.08,0,.06a.33.33,0,0,1,0,.06h0a.26.26,0,0,0-.05-.09Zm0-.08Zm-.24.17s0,0,0,.06,0,0,0,0h0a.13.13,0,0,1,0,.06h0l0,0s0,0,0,0h0a.12.12,0,0,0,0-.11l0,.07s0,0,0,0Zm-.22.2a.21.21,0,0,1,0-.11.17.17,0,0,0-.06.1.16.16,0,0,0,0,.12A.14.14,0,0,1,2.28,6.08Zm0,.07a.29.29,0,0,1,0-.09.12.12,0,0,0,0,.1.08.08,0,0,0,.08,0A.11.11,0,0,1,2.32,6.15Zm.12-.22,0,.06-.05.06A.13.13,0,0,0,2.44,5.93Zm-.14.29a.13.13,0,0,1-.06-.07.17.17,0,0,1,0-.07.08.08,0,0,0,0,.08.08.08,0,0,0,0,.07.14.14,0,0,0,.18,0A.19.19,0,0,1,2.3,6.22Zm.13,0a.15.15,0,0,1-.16,0,.1.1,0,0,1,0,0,.24.24,0,0,1,0-.08A.34.34,0,0,1,2.26,6a.21.21,0,0,0-.07.14.13.13,0,0,0,0,.08s0,0,.06,0a.15.15,0,0,0,.16,0,.34.34,0,0,0,.12-.12l.1-.1-.11.1A.63.63,0,0,1,2.43,6.26Zm-.34-.19a.28.28,0,0,0,0,.16.49.49,0,0,0,0,.12s0,.06,0,.09,0,0,0-.05l0,0h0a.25.25,0,0,0,0,.12.53.53,0,0,1,0-.13.15.15,0,0,1,0-.07v0h0v0l0,0V6.23ZM2,6.74a.26.26,0,0,0,0-.12.62.62,0,0,0,0-.13s0,.08,0,.12A.51.51,0,0,1,2,6.74Zm.12-.38a.08.08,0,0,0,0,.08v.1a.57.57,0,0,1,0,.18.35.35,0,0,0,0-.18.34.34,0,0,0,0-.1A.22.22,0,0,1,2.14,6.36Zm0-.38h0V6l0,0,0-.05v0h0v0l0,0a.09.09,0,0,0,0,.05V6Zm.16,1.13A.11.11,0,0,0,2.3,7s0-.08,0-.13h0a.34.34,0,0,1,0-.1l0,0a.13.13,0,0,1,0,.06v.07s0,0,0,.08,0-.12,0-.17a.34.34,0,0,0,0-.2.22.22,0,0,0-.05-.08v0h0a.27.27,0,0,1,0,.12s0,0,0,.05l0,.07a.53.53,0,0,0,0,.13h0V7h0V7A.17.17,0,0,1,2.27,7.11Zm.48-.63-.07,0a.17.17,0,0,0,.07-.1s-.07.11-.14.12A.15.15,0,0,0,2.75,6.48Zm-.12.13,0,0h0A.07.07,0,0,0,2.63,6.61Zm.11.09,0,.09h0V6.71s0,0,0-.08a.16.16,0,0,0,0,.09v0s0-.06,0-.08,0,0-.06,0h0s0,0,0-.08h0l0,.08a.25.25,0,0,0,0,.08.14.14,0,0,1,0-.06.07.07,0,0,1,0,0S2.73,6.68,2.74,6.7Zm.13.14a.28.28,0,0,1,0-.09.5.5,0,0,0,0,.12A.35.35,0,0,0,3,7H3V7a.34.34,0,0,1,0-.1.27.27,0,0,1,0-.12.19.19,0,0,0-.05.14v0l0-.13h0a.2.2,0,0,0,0,.11v0a.5.5,0,0,1,0-.12.28.28,0,0,0,0,.13.29.29,0,0,1,0,.09l0,0A.48.48,0,0,1,2.87,6.84Zm.27.25a.07.07,0,0,0,0,0,.08.08,0,0,1,0-.07h0V7a1,1,0,0,0,0,.1v0s0-.07,0-.1a.3.3,0,0,1,0-.1.16.16,0,0,0-.06.13.25.25,0,0,1,0-.07.24.24,0,0,1,0-.08.09.09,0,0,0,0-.05h0v0a.24.24,0,0,0,0,.08h0a.19.19,0,0,1,0-.08.11.11,0,0,0,0,.08s0,0,0,0a0,0,0,0,0,0,0S3.15,7.07,3.14,7.09Zm0,.42a.29.29,0,0,0,0-.27s0,.08,0,.13A.68.68,0,0,1,3.16,7.51Zm.09.13a.86.86,0,0,1,0-.16l0-.09a.28.28,0,0,0,0-.09V7.22s0,.08,0,.12v0a.38.38,0,0,1,0-.1.57.57,0,0,1,0-.18l0-.07a.53.53,0,0,0,0,.22,1.35,1.35,0,0,1,0,.29.33.33,0,0,0,0,.14.36.36,0,0,0,0,.1h0s0,0,0,0,0,0,0-.07V7.57l0,0,0,.07.07.18v.07h0V8a.28.28,0,0,0,0-.09.08.08,0,0,0,0,0v0a.61.61,0,0,1,0-.19,1.42,1.42,0,0,0,0-.2.61.61,0,0,0,0-.19,1,1,0,0,0,0-.17,1.6,1.6,0,0,1,0,.31c0,.12,0,.23,0,.35l0,0v0s0-.06,0-.09,0-.07,0-.11a.29.29,0,0,0,0-.09s0,.06,0,.09a.34.34,0,0,0,0,.1h0l0,0s0,0,0-.06v0a.24.24,0,0,1,0-.12s0,0,0-.06a.54.54,0,0,0,0-.18s0-.1,0-.15a.68.68,0,0,0,0,.14s0,.06,0,.08a.28.28,0,0,1,0,.09s0,0,0,.06,0,0,0-.08h0s0,0,0,0a.83.83,0,0,0,0-.15.51.51,0,0,1,0-.13h0l0,.08a.56.56,0,0,0,0,.12.49.49,0,0,0,0,.12s0,.08,0,.13a.09.09,0,0,1,0,.05v0a0,0,0,0,0,0,0h0v.07A.25.25,0,0,0,3.25,7.64Zm0,.25s0-.06,0-.1a.29.29,0,0,0,0-.09.25.25,0,0,0,0,.09A.17.17,0,0,0,3.25,7.89Zm.21-.15a.59.59,0,0,1,0,.13.53.53,0,0,0,0,.13A.3.3,0,0,0,3.46,7.74ZM3.74,7h0V7a.17.17,0,0,0,0-.18.3.3,0,0,1,0,.1s0,0,0,0a.14.14,0,0,1,0,.07s0,0,0,.06Zm.08,0v0l0-.09s0,0,0-.07a0,0,0,0,1,0,0v.09a.24.24,0,0,0,0-.09l0-.09a.08.08,0,0,0,0,0v0a.25.25,0,0,1,0,.07v0a.13.13,0,0,0,0-.1.29.29,0,0,1,0,.1Zm.11-.1a.1.1,0,0,0,0-.09.24.24,0,0,1,0-.09.13.13,0,0,0,0,.09.09.09,0,0,1,0,0A.06.06,0,0,1,3.93,6.85Zm0-.08H4s0,0,0,0a.11.11,0,0,0,0,0H4a0,0,0,0,0,0,0V6.65A0,0,0,0,0,4,6.6H4a.11.11,0,0,1,0,.08.08.08,0,0,0,0,0H4a.13.13,0,0,1,0-.06.13.13,0,0,0,0,.06A.14.14,0,0,1,4,6.77Zm.18-.24c-.07,0-.1-.07-.14-.12a.17.17,0,0,0,.07.1L4,6.48A.15.15,0,0,0,4.16,6.53Zm-.1.09v0a0,0,0,0,1,0,0h0v0S4.05,6.61,4.06,6.62Zm.28-.13a.34.34,0,0,1-.15-.06.1.1,0,0,0,.08.06H4.2A.14.14,0,0,0,4.34,6.49Zm-.07.24a.24.24,0,0,0,0,.08.24.24,0,0,0,0,.08A.19.19,0,0,0,4.27,6.73Zm.2.39a.72.72,0,0,0,0,.21.14.14,0,0,0,0,.09.22.22,0,0,1,0-.08l0-.1a.53.53,0,0,0,0-.22.16.16,0,0,0,0-.09A.41.41,0,0,1,4.47,7.12Zm0-.34a.16.16,0,0,0-.06-.12.2.2,0,0,1,0,.13s0,.08,0,.12A.56.56,0,0,0,4.43,6.78Zm.13-.28a.09.09,0,0,0,0,.07s0,0,0,0v0a.08.08,0,0,0,0-.08A.28.28,0,0,1,4.56,6.5Zm0-.25,0,0,0,0S4.59,6.28,4.58,6.25Zm0,.07a.14.14,0,0,1-.1,0,.25.25,0,0,1-.12,0,.18.18,0,0,0,.12,0A.17.17,0,0,0,4.56,6.32Zm-.48-.05h0s0,0,0,0,0,0,0,0v0l0,0,0,0L3.91,6v0h0l0,0a.36.36,0,0,1,0,.1.29.29,0,0,0,.07.16A.49.49,0,0,1,4,6.2a.13.13,0,0,0,0-.06l0,0,0,0a.36.36,0,0,0,0,.09.16.16,0,0,0,.06.08h0a.31.31,0,0,1,0-.13v0h0a.05.05,0,0,0,0,0v0a.52.52,0,0,0,.1.11.51.51,0,0,1-.09-.13l-.06-.12s0,0,0,0H4l0,0a.22.22,0,0,1,0,.08.08.08,0,0,0,0,0Zm-.2-.14h0a.1.1,0,0,0,0,0l0,0h0L3.73,6l.06.06h0l0,.06,0,.09h0l0,0,0-.08,0-.05,0,0c.07.07.06.18.11.27l0-.11v0l0,0s0,0,0,0l0,.07a.17.17,0,0,0,0-.07h0s0-.06,0-.08h0l0,0h0l0,0v0A.41.41,0,0,0,4,6.36a.11.11,0,0,1,0-.08l0-.11A.31.31,0,0,0,3.81,6a.19.19,0,0,1,.06.07l0,0h0v0Zm-.2.06h0v0a.38.38,0,0,0-.09-.09.44.44,0,0,1,.08.11.28.28,0,0,1,0,.13.38.38,0,0,0,0-.15.11.11,0,0,0,0,0h0l0,0s0,0,0,.05a.37.37,0,0,1,0,.11.25.25,0,0,0,0-.17A.32.32,0,0,0,3.62,6l0,0a.36.36,0,0,1,0,.1h0Zm-.14.19h0l0-.06a.11.11,0,0,0,0,.07h0a.16.16,0,0,1-.07-.07s0,.06.06.08l.06,0,.05,0h0l0,0s0,0,0,0a.07.07,0,0,0,0,.06ZM3.29,6.3l0,.06h0a.07.07,0,0,0,0-.06s0,0,0,0l0,0h0l.05,0,.06,0s.06-.05.06-.08a.16.16,0,0,1-.07.07h0A.11.11,0,0,0,3.29,6.3Zm-.2-.16a.36.36,0,0,1,0-.1l0,0A.32.32,0,0,0,3,6.13.25.25,0,0,0,3,6.3a.37.37,0,0,1,0-.11s0,0,0-.05l0,0h0a.11.11,0,0,0,0,0,.38.38,0,0,0,0,.15.28.28,0,0,1,0-.13.44.44,0,0,1,.08-.11.38.38,0,0,0-.09.09v0h0v0Zm-.16,0,0-.06H3L3,6,3,6H3l0,0a.1.1,0,0,0,0,0h0l0,0v0h0l0,0A.19.19,0,0,1,3,6a.31.31,0,0,0-.12.16l0,.11a.19.19,0,0,1,0,.08.41.41,0,0,0,.05-.09v0l0,0h0l0,0h0s0,0,0,.08h0a.17.17,0,0,0,0,.07l0-.07s0,0,0,0l0,0v0l0,.11c.05-.09,0-.2.11-.27l0,0,0,.05a.35.35,0,0,0,0,.08l0,0h0Zm-.23.11a.22.22,0,0,1,0-.08s0,0,0,0h0s0,0,0,0l-.06.12a.51.51,0,0,1-.09.13.52.52,0,0,0,.1-.11v0a.05.05,0,0,0,0,0h0v0a.31.31,0,0,1,0,.13h0A.24.24,0,0,0,2.7,6.3a.36.36,0,0,0,0-.09l0,0,0,0a.13.13,0,0,0,0,.06.49.49,0,0,1-.06.17.29.29,0,0,0,.07-.16.36.36,0,0,1,0-.1l0,0h0V6L2.8,6.1l0,0,0,0v0l0,0a.05.05,0,0,1,0,0h0A.08.08,0,0,0,2.7,6.24Zm-.14,0a.39.39,0,0,1-.1.08.23.23,0,0,0,.18-.19A.44.44,0,0,1,2.56,6.29Zm0-.07a.34.34,0,0,1-.14.09.25.25,0,0,1-.17,0A.26.26,0,0,0,2.59,6.22Zm.26.34h0v.06h0V6.55h0a.09.09,0,0,1,0,0h0l0,0h0Zm0,0h0a.15.15,0,0,0,0,.06h0v0h0V6.54Zm0,.08s0,.06,0,.07h0s0-.07,0-.07v0a.43.43,0,0,1,0,0h0v0H3v0s0,0,0,0a.1.1,0,0,0,0,0v0a.27.27,0,0,1,0-.12s0,0,0,0h0s0,0,0,0h0v0h0A.21.21,0,0,0,2.9,6.62ZM3,6.71H3s0,0,0,.06h0v0s0,0,0,0h0v-.1h0s0,0,0,.06h0a.2.2,0,0,1,0-.09s0,0,0-.07v0H3v0a0,0,0,0,0,0,0H3V6.54H3s0,0,0,0v0a.25.25,0,0,0,0,.08H3v0s0,0,0,0H3S3,6.71,3,6.71Zm.11-.11v.1a.28.28,0,0,0,0,.11h0v-.1a.56.56,0,0,1,0-.07v.1s0,0,0,0v0h0s0,0,0,0h0v0h0a.09.09,0,0,1,0-.07h0a.43.43,0,0,1,0,0h0V6.77s0,.06,0,.06v0a1.2,1.2,0,0,1,0-.19H3.17V6.7h0V6.6l0,0Zm.39.59s0,.07,0,.11v.09a.29.29,0,0,0,0-.09s0-.07,0-.11v0a.29.29,0,0,0,0-.09.1.1,0,0,0,0-.12.12.12,0,0,1,0,.11v0h0a.2.2,0,0,0,0-.08l0,.08Zm.12-.51v0h0v.17h0a.42.42,0,0,0,0-.11.31.31,0,0,0,0-.11h0l0,0v.1a0,0,0,0,1,0,0V6.61h0v.07a.45.45,0,0,1,0,.14h0a.11.11,0,0,0,0-.06v0h0v.1h0l0,0h0v.08h0a.15.15,0,0,0,0-.07h0v.05h0a.11.11,0,0,0,0-.06A.13.13,0,0,1,3.63,6.68Zm0,.07h0a.17.17,0,0,1,0,0v.08h0s0,0,0,0h0v.06h0l0-.06h0a.07.07,0,0,1,0,0s0,0,0,0,0,0,0,0V6.58h0s0,0,0,0h0s0,0,0,0,0,.06,0,0a.13.13,0,0,0,0-.06s0,0,0,0H3.67v.17Zm.14,0s0,0,0,0v0l0,0a.43.43,0,0,0,0-.05h0s0,0,0,.07h0s0,0,0,0V6.6s0,0,0-.06h0v0a.08.08,0,0,1,0,0l-.06,0h0s0,0,0,0v0a.17.17,0,0,1,0,.07Zm.08-.09h0v0h0a.24.24,0,0,0,0-.09h0v.07Zm0,0v0l0,0,0,0V6.55h0v0s0,0,0,0h0V6.55h0v0A.15.15,0,0,1,3.92,6.63Zm-.33-.1V6.46l0,0v.11h0v0a.12.12,0,0,0,0-.05v0s0,.06,0,.07h0s0,0,0,0h0v0h0l0,0v0h0s0,0,0,.06Zm.06-.09,0,0,0,0A.09.09,0,0,0,3.65,6.44Zm0,0v0h0Zm0-.08,0,0,0,0,0,0,0-.05a.17.17,0,0,1,0-.1A.14.14,0,0,0,3.65,6.4Zm.06.1h0Zm0,0Zm.09,0,0-.06,0-.07A.12.12,0,0,0,3.77,6.48Zm0,0a.21.21,0,0,1-.06-.1A.09.09,0,0,0,3.82,6.49Zm.07,0a.29.29,0,0,1-.09-.09A.09.09,0,0,0,3.89,6.5Zm.08,0a.35.35,0,0,1-.13-.14C3.85,6.44,3.9,6.52,4,6.52Zm0,.05H4s0,0,0,0H4Zm0,0Zm-.81,0h0s0,0,0,0v0h0v0a.11.11,0,0,0,0,0h0v0h0s0,0,0,0h0V6.52h0l0,.05V6.44l0,0v.07Zm-.31,0A.09.09,0,0,0,3,6.41a.1.1,0,0,1,0,0A.1.1,0,0,1,2.88,6.5Zm.05-.12a.35.35,0,0,1-.13.14C2.87,6.52,2.92,6.44,2.93,6.38Zm0,.11A.09.09,0,0,0,3,6.39.21.21,0,0,1,3,6.49Zm.15,0h0Zm0,0ZM3,6.48a.12.12,0,0,0,.07-.13l0,.07Zm0,0,0,0,0,0a.14.14,0,0,0,0-.11.17.17,0,0,1,0,.1l0,.05Zm.08,0a.09.09,0,0,0,.06-.08l0,0Zm0,0v0h0Zm-.33.1v0h0v0Zm0,0Zm.07-.13,0,.05-.06,0A.12.12,0,0,0,2.84,6.43Zm.35-.28a.21.21,0,0,0,0,.17A.5.5,0,0,1,3.28,6,.38.38,0,0,0,3.19,6.15Zm.16.24h0l-.1.05v.1a.2.2,0,0,0,0,0V6.45s0,0,0,0v.08a.18.18,0,0,1,0,.06s0,0,0,0V6.53h0a.24.24,0,0,0,0,.08h0V6.55h0a.13.13,0,0,0,0,.06h0s0,0,0,0,0,0,0,0h0l0,0V6.54h0V6.47A.11.11,0,0,0,3.35,6.39Zm0,.26h0v0h0v0s0,0,0,.06v0a.47.47,0,0,1,0-.12h0l0,0h0a.15.15,0,0,0,0,.07v.16h0V6.78h0v0l0,0V6.8h0v0a.14.14,0,0,1,0,0h0s0-.06,0-.06h0s0,0,0,0h0V6.78h0v0a.09.09,0,0,0,0,0v-.2h0Zm0-.28Zm0,.28a.06.06,0,0,1,0,0v.18l0,0V6.77a.28.28,0,0,0,0,.06v0a.1.1,0,0,0,0,0v0h0v.07h0a.13.13,0,0,0,0-.06h0v.07h0a.19.19,0,0,0,0-.07h0s0,0,0,0v0h0a.42.42,0,0,1,0-.07V6.7s0-.06,0-.07l0,0h0v.13h0v-.1h0s0,0,0,0V6.66h0Zm0-.06Zm0,0h0v0h0v.08s0,0,0,0h0v0h0s0,0,0,0h0s0,0,0-.07h0v.06h0V6.54h0v.08s0-.06,0-.13v0c0,.07,0,.07,0,.06s0-.08,0-.1v0l-.1-.05h0a.11.11,0,0,0,0,.06Zm.2-.26a.25.25,0,0,0,0-.17A.38.38,0,0,0,3.49,6,.5.5,0,0,1,3.6,6.32Zm.71,0a.39.39,0,0,1-.1-.08.44.44,0,0,1-.08-.11A.23.23,0,0,0,4.31,6.37Zm.18,0a.25.25,0,0,1-.17,0,.34.34,0,0,1-.14-.09A.25.25,0,0,0,4.49,6.33Zm-.06.08h0s0,0,.06,0A.15.15,0,0,1,4.43,6.41Zm0,0-.11,0A.11.11,0,0,0,4.42,6.46Zm-.25,0-.06,0a.12.12,0,0,0,.14.08ZM4,6.48l0-.05A.12.12,0,0,0,4,6.52Zm-.29.44a.1.1,0,0,0,0-.08.26.26,0,0,1,0,.08l0,0,0,.07s0,0,0,.07V7A.22.22,0,0,0,3.69,6.92Zm-.13,0a.31.31,0,0,1,0,.1.37.37,0,0,1,0,.11A.16.16,0,0,0,3.56,6.89Zm-.9-.45-.06,0-.08,0A.12.12,0,0,0,2.66,6.44Zm-.09,0H2.5a.1.1,0,0,0,.08-.06.34.34,0,0,1-.15.06A.14.14,0,0,0,2.57,6.48Zm-.11,0-.11,0A.11.11,0,0,0,2.46,6.44Zm0,0H2.34a.15.15,0,0,1-.07,0s0,0,.06,0Zm-.11,0a.18.18,0,0,0,.12,0,.25.25,0,0,1-.12,0,.14.14,0,0,1-.1,0A.17.17,0,0,0,2.31,6.39ZM2.25,6.3l0,0,0,0S2.22,6.31,2.25,6.3Zm.34-.53,0,0,0,0,0,0v.08s0,0,0,.06l0,0h0a.64.64,0,0,0,0-.07.13.13,0,0,0,0-.07l-.07-.07Zm.06,0,0,0,0,0,0,0a.19.19,0,0,0,0,.07h0a.34.34,0,0,0,0-.08l0,0-.06-.05Zm0,.37.12-.11a.69.69,0,0,1,.13-.11A.75.75,0,0,0,2.6,6.16ZM2.82,6l.09-.07L3,5.88A.31.31,0,0,0,2.82,6ZM3,6l.1-.06a.27.27,0,0,1,.12,0A.27.27,0,0,0,3,6Zm.14,0,.08,0,.09,0C3.2,5.89,3.12,5.9,3.09,6Zm.12,0h.12l-.06,0Zm-.1.19L3.22,6,3.36,6A.3.3,0,0,0,3.11,6.12ZM3.32,6h0l0,0h0l0,0a.06.06,0,0,0,0,0l0,0v0a.65.65,0,0,0,0,.13l0-.07a.08.08,0,0,0,0-.05l0,0a.21.21,0,0,0,0,.11l0,0h0l0,0V6.12a.74.74,0,0,1,0-.14.24.24,0,0,0,0,.14v0A.3.3,0,0,1,3.32,6Zm.06,0s0,0,0,0v0s0,0,0,0a.24.24,0,0,0,0,.12.49.49,0,0,1,0-.12.2.2,0,0,0,0-.07Zm.05.11v.11l0,0h0l0,0a.21.21,0,0,0,0-.11v0l0,.05,0,.07a.65.65,0,0,0,0-.13v0a0,0,0,0,0,0,0,.06.06,0,0,0,0,0l0,0h0l0,0h0a.3.3,0,0,1,0,.13v0a.24.24,0,0,0,0-.14A.74.74,0,0,1,3.43,6.12ZM3.54,6a.55.55,0,0,1,.11.1A.27.27,0,0,0,3.41,6Zm0-.09h.06l-.06,0-.06,0Zm.1,0,.08,0a.21.21,0,0,0-.17-.06Zm.12,0,.1.06a.27.27,0,0,0-.22-.09A.27.27,0,0,1,3.72,5.91Zm.14,0L4,6a.31.31,0,0,0-.19-.13Zm.19.11.12.11a.75.75,0,0,0-.25-.22A.69.69,0,0,1,4.05,6.05Zm0-.23,0,0A.34.34,0,0,0,4,6H4a.19.19,0,0,1,0-.07.09.09,0,0,1,0,0l0,0,0,0Zm0,0,0,0a.2.2,0,0,0,0,.11h0V6a.22.22,0,0,1,0-.06V5.86l0,0,0,0,0,0h0Zm.45.07,0,.07a.15.15,0,0,0-.06-.14ZM4.39,8.18a1.11,1.11,0,0,0,0-.17s0,0,0-.07V7.86a.29.29,0,0,1,0,.09h0V8h0a.24.24,0,0,0,.06-.2s0-.07,0-.11a.65.65,0,0,0,0,.13v.06h0a.14.14,0,0,0,0-.06l0-.08V7.68s0,0,0,0a.24.24,0,0,0,0,.2V8s0,.08,0,.12Zm0-.26a.24.24,0,0,0,0-.14.71.71,0,0,1,0,.14s0,.08,0,.12A.25.25,0,0,0,4.34,7.92Zm-.14.35s0,.05,0,.08a.9.9,0,0,1,0-.16.76.76,0,0,1,0-.15.18.18,0,0,0,0,.1.43.43,0,0,1,0-.11V7.92h0s0,0,0,0A.39.39,0,0,0,4.2,8.27ZM4.11,7.6v0a.13.13,0,0,0,0-.06s0-.07,0-.11a.49.49,0,0,1,0-.12s0,0,0,0v0a.19.19,0,0,0,0,.08.35.35,0,0,0,0,.14l0,.08a.93.93,0,0,1,0-.29s0-.09,0-.14a.88.88,0,0,0,0,.15.13.13,0,0,0,0,.06.56.56,0,0,0,0,.12.25.25,0,0,1,0-.12h0a.85.85,0,0,1,0-.16.59.59,0,0,1,0-.13s0,0,0-.07,0,0,0,.06,0,.08,0,.12v.08h0v0a.3.3,0,0,1,0-.1s0-.08,0-.13a.49.49,0,0,0,0-.12l0-.13a.24.24,0,0,0,0-.08l0,.19h0v.09a.24.24,0,0,1,0,.08v0a.57.57,0,0,0-.07-.22v0a.6.6,0,0,0-.09-.15A.72.72,0,0,1,4.3,7c0,.09,0,.18,0,.27a.19.19,0,0,1,0-.07s0,0,0-.06V7.09a.09.09,0,0,0,0,0,.22.22,0,0,0-.06-.13.45.45,0,0,1,0,.28.68.68,0,0,0,0,.14.84.84,0,0,1,0-.17.09.09,0,0,1,0,0s0-.06,0-.1,0,0,0-.06V7a.36.36,0,0,1,0,.1h0l0-.11s0,.07,0,.1v.07a.2.2,0,0,1,0,.07s0,.09,0,.14a.64.64,0,0,0,0-.07V7.27H4a3,3,0,0,0,.08.43.31.31,0,0,1,0,.1A.31.31,0,0,0,4.11,7.6ZM4,8.25a.56.56,0,0,0,0,.12s0-.08,0-.12a.33.33,0,0,1,0-.14A.32.32,0,0,0,4,8.25Zm0-.63a.66.66,0,0,1,0,.2A.3.3,0,0,1,4,8C4.08,7.91,4.05,7.74,4,7.62Zm-.07.79a.44.44,0,0,0,0-.2V8.16a.09.09,0,0,0,0-.05l-.06.12-.06.13a.23.23,0,0,0,.07-.1s0,0,0,.05a.29.29,0,0,1,0,.09l0,.07s0,0,0,.08A.64.64,0,0,0,3.94,8.41Zm-.1-.68a.49.49,0,0,1,0,.12.51.51,0,0,1,0,.13A.23.23,0,0,0,3.84,7.73Zm0,.1v0h0a.38.38,0,0,1,0-.15.4.4,0,0,1,0-.15.14.14,0,0,0,0,.07V7.7a.48.48,0,0,0,0-.17.17.17,0,0,1,0-.07V7.29h0l.05.12a.06.06,0,0,1,0,0,.34.34,0,0,1,0,.1.24.24,0,0,0,0,.12A.38.38,0,0,0,4,7.83a.57.57,0,0,1,0-.14A1.11,1.11,0,0,1,4,7.5a1.36,1.36,0,0,0,0-.2.62.62,0,0,0,0-.19A.44.44,0,0,0,3.91,7,.83.83,0,0,1,4,7.1a1.15,1.15,0,0,1,0,.19s0,.08,0,.12a.16.16,0,0,0,0-.07.14.14,0,0,0,0-.06h0a.36.36,0,0,0,0-.09v0A.47.47,0,0,0,3.78,7a1,1,0,0,1,.05.29,1.1,1.1,0,0,1,0,.18.29.29,0,0,0,0,.09v0a1,1,0,0,0,0-.17.76.76,0,0,0,0-.16l0-.1,0,0a.61.61,0,0,1,0,.19.54.54,0,0,0,0,.18,1.23,1.23,0,0,0,0-.19v0h0v0a.38.38,0,0,1,0,.1,1,1,0,0,1,0,.17.47.47,0,0,0,0,.17A.58.58,0,0,0,3.82,7.83Zm-.06.48h0v0h0v0a.06.06,0,0,0,0,0h0V8.24a.51.51,0,0,1,0-.13.2.2,0,0,0,0,.08s0,0,0-.06v0h0V8a.25.25,0,0,1,0-.07C3.68,8.05,3.73,8.2,3.76,8.31Zm0,.12a.26.26,0,0,0,0-.15.34.34,0,0,1,0,.14V8.5l0,.06S3.73,8.47,3.73,8.43Zm-.12-.25a.74.74,0,0,0,.11-.24V7.77c0-.06,0-.12,0-.17s0-.07,0-.11v.27h0a.57.57,0,0,0,0,.13v0h0a.49.49,0,0,1,0,.11V7.91l0-.11s0,0,0-.07,0,.12,0,.18a.67.67,0,0,1,0,.2l0,.09Zm-.2.25h0v0h0l0-.08,0,0s0,0,0,0h0a.72.72,0,0,1,0,.19.36.36,0,0,0,0-.09.11.11,0,0,0,0-.08v0a.49.49,0,0,1,0,.12.53.53,0,0,1,0,.12.17.17,0,0,0,0,.1c0-.07.06-.13.08-.2a.09.09,0,0,0,0,0,.25.25,0,0,0,0-.17.37.37,0,0,0-.05-.11s0,0,0-.08a.64.64,0,0,1,0,.07.34.34,0,0,1,0,.14l0,.07h0v0a.17.17,0,0,0,0-.14.38.38,0,0,1,0,.15s0,.06,0,.09h0v0Zm-.09-.14V8.4a.29.29,0,0,1,0-.09V8.23s0-.05,0-.08L3.41,8a.67.67,0,0,0-.06-.28.93.93,0,0,1,0-.13,1.29,1.29,0,0,0,.06.25.36.36,0,0,1,0,.11l0,.13,0,.08a.17.17,0,0,1,0-.07.57.57,0,0,1,0-.13s0-.08,0-.12a.59.59,0,0,0,0,.23A1.24,1.24,0,0,1,3.32,8.29Zm-.1.24,0,.1a.36.36,0,0,1,0,.09.29.29,0,0,0,0-.09h0V8.53a.38.38,0,0,0,0-.1s0,.05,0,.07v0h0a.44.44,0,0,1,0-.2A.38.38,0,0,0,3.22,8.53Zm-.05-.67c0,.07,0,.14,0,.21h0a.45.45,0,0,1,0,.11.29.29,0,0,0,0-.09.33.33,0,0,0,0-.14.59.59,0,0,0,0-.13s0-.09,0-.14a.43.43,0,0,1,0-.11.16.16,0,0,0,0,.09.09.09,0,0,0,0,0v0a.17.17,0,0,0,0-.05.55.55,0,0,1,0-.18.16.16,0,0,1,0-.09.22.22,0,0,0,0,.16s0,0,0,.07,0,0,0,0v0h0V7.6H3a.66.66,0,0,1,0-.2l0-.15a.36.36,0,0,1,0,.09v0a.36.36,0,0,0,0-.1,1.34,1.34,0,0,1,0,.2v.13c0,.1,0,.2,0,.31s0,.06,0,.09V8h0a.5.5,0,0,0,0-.12V7.78a.5.5,0,0,1,0-.16.13.13,0,0,0,0,.06l0,.09S3.16,7.83,3.17,7.86Zm0,.2a.34.34,0,0,0,0-.14v.14s0,.09,0,.13A.65.65,0,0,0,3.14,8.06ZM3,8.43a.64.64,0,0,0,.08.14s0,0,0-.05,0,0,0-.08h0s0-.07,0-.1,0,.05,0,.07a.91.91,0,0,1,0-.17A.41.41,0,0,0,3,8.43ZM3,7.05A.11.11,0,0,0,3,7a.41.41,0,0,1,0-.08.18.18,0,0,1,.07-.08A.17.17,0,0,0,3,7H3a.45.45,0,0,1,0-.11A.22.22,0,0,0,3,7.05Zm-.1,1,0,.07s0-.05,0-.08A.29.29,0,0,1,3,8,.22.22,0,0,0,3,7.8v.08l0,.09A.28.28,0,0,0,2.93,8.06Zm-.12.32s0,.07,0,.11l0,.08a.24.24,0,0,1,0-.08.3.3,0,0,1,0-.1.33.33,0,0,1,0-.1l0-.07a.24.24,0,0,0-.06.11V8.28s0-.07,0-.11a.34.34,0,0,0,0-.1c0,.07,0,.13,0,.2A.2.2,0,0,0,2.81,8.38Zm.08-1a1,1,0,0,1,0,.34.35.35,0,0,1-.08.13.42.42,0,0,0,.14-.26s0-.07,0-.1,0,0,0,0a0,0,0,0,0,0,0,.07.07,0,0,0,0,0v.06a.34.34,0,0,0,0-.2l0-.13s0-.08,0-.11a.75.75,0,0,1,0-.16s0,0,0,.08l0,0a.39.39,0,0,0-.06.11.16.16,0,0,0,0,.09v0h0V7.28a.41.41,0,0,1,0-.11l0-.09a.16.16,0,0,0,0,.07.23.23,0,0,0,0,.11,1,1,0,0,0,0,.25v.08a.53.53,0,0,1,0,.12.3.3,0,0,0,0-.1s0-.08,0-.12,0,0,0-.06a.64.64,0,0,1,0-.07l.05-.07S2.9,7.35,2.89,7.39Zm-.22.79a.48.48,0,0,1,0,.17l0,0h0l0-.08a.29.29,0,0,0,0-.13s0,.07,0,.1h0A.31.31,0,0,0,2.63,8,.83.83,0,0,1,2.67,8.18Zm0-1,0,0v.06c0,.08,0,.15,0,.22a.34.34,0,0,1,0,.1s0,.07,0,.1a.44.44,0,0,1,0,.2.32.32,0,0,0,0-.17.5.5,0,0,1,0-.13h0a.16.16,0,0,0,0,.09,1.15,1.15,0,0,1,0-.19.37.37,0,0,1,0-.11.49.49,0,0,1,0-.12.19.19,0,0,1,0-.1.25.25,0,0,0-.06.14v0a.17.17,0,0,0,0-.07V7.06a.2.2,0,0,1,0-.07V7l0-.08,0,.06a.18.18,0,0,0,0,.1.56.56,0,0,1,0,.12.61.61,0,0,1,0,.12l-.05.12h0v0a.28.28,0,0,1,0-.09.31.31,0,0,0,0,.19v0h0v.16a.39.39,0,0,0,0-.15v0a.22.22,0,0,1,0-.11l0-.1Zm-.09,1a.22.22,0,0,1,0,.08.36.36,0,0,0,0-.2.66.66,0,0,0-.06-.2A.87.87,0,0,1,2.54,8.26Zm-.07-.94V7.26a.43.43,0,0,0,0-.11l0-.06,0-.09s0,.07,0,.1v.09a.45.45,0,0,0,0-.16.61.61,0,0,1,0-.19.08.08,0,0,1,0-.07.13.13,0,0,0-.06.07.22.22,0,0,0,0,.08V7A.14.14,0,0,0,2.5,7V7a.77.77,0,0,0,0-.15.78.78,0,0,1,0-.16.33.33,0,0,1,0-.14h0s0,.06,0,.08,0,0,0,.08a.36.36,0,0,1,0,.14,1.13,1.13,0,0,0,0,.18v.11l0,.1a.74.74,0,0,1,0-.21,1.6,1.6,0,0,1,0-.21s0,0,0,0a.87.87,0,0,1,0,.23h0V7.2A.49.49,0,0,0,2.47,7.32ZM2.39,8a.28.28,0,0,1,0-.09.18.18,0,0,1,.05-.07.12.12,0,0,0-.06.06.15.15,0,0,0,0,.09v.1s0,.05,0,.08A.47.47,0,0,0,2.39,8Zm0-.68a.28.28,0,0,0-.07.13.76.76,0,0,0,0,.15s0-.09,0-.13A.42.42,0,0,1,2.37,7.32ZM2.3,8l0,0V8h0V7.94h0V7.88a.31.31,0,0,1,0-.08.16.16,0,0,0-.05.11s0,0,0-.07a.62.62,0,0,1,0-.13A.31.31,0,0,0,2.3,8ZM2.23,6.75a0,0,0,0,0,0,0h0v0a.22.22,0,0,0,0-.11s0,0,0-.08a.15.15,0,0,1,0-.07.14.14,0,0,0,0,.06s0,.08,0,.11a.64.64,0,0,1,0,.07v0a.29.29,0,0,0,0,.18V7s0-.1,0-.15a.14.14,0,0,1,0-.06.14.14,0,0,0,0-.06.05.05,0,0,0,0,0h0a.06.06,0,0,1,0,0Zm0,.18a.19.19,0,0,0,0-.18v.08a.32.32,0,0,1,0,.09.3.3,0,0,0,0,.18s0,0,0-.08Zm-.11.92s0,.05,0,.08a.36.36,0,0,1,0-.11.29.29,0,0,1,0-.09.78.78,0,0,1,0-.14.36.36,0,0,0-.07.1V7.6a.13.13,0,0,1,0-.06.16.16,0,0,1,0-.09.36.36,0,0,0-.07.18A.82.82,0,0,0,2.09,7.85ZM1.9,7.58a.22.22,0,0,0,.15-.12.31.31,0,0,0,0-.19s0,.06,0,.09,0,0,0,.06v0H2a.11.11,0,0,0,0-.1.28.28,0,0,1,0,.18H2A.27.27,0,0,1,1.9,7.58Zm0-.34a.31.31,0,0,1,0-.08.22.22,0,0,1,.05-.08A.41.41,0,0,0,2,6.9a.89.89,0,0,1-.08.17A.25.25,0,0,0,1.87,7.24Zm0-.76a.34.34,0,0,0-.06.12,1,1,0,0,1,.08-.11A.25.25,0,0,0,2,6.35.57.57,0,0,1,1.91,6.48Zm0,.3V6.9s0,.06,0,.09a.45.45,0,0,0,0-.2A.76.76,0,0,0,2,6.59C2,6.65,1.94,6.71,1.92,6.78Zm0-.61a.35.35,0,0,0,.11-.34A.57.57,0,0,1,2,6,1.19,1.19,0,0,1,1.94,6.17ZM1.81,5a.46.46,0,0,0,0,.1s0,0,0,0l0,0v0a.22.22,0,0,0,0-.08h0a.2.2,0,0,1,0,0v0a.85.85,0,0,1,0,.16.42.42,0,0,1,0,.12v0h0v0l0,.06.05.1,0,0L2,5.7l.16.06.1,0,.07,0,.07,0,.07-.05h0l.05,0H2.7l.07,0,.06,0,.09.09h0l0,0h0l0,0h0l0,0h0l.08.09,0,0s0,0,0,0l0-.05-.06,0h0l0,0,0,0,0,0a.24.24,0,0,1,0,.07.58.58,0,0,1,.21-.07h.1l-.07-.08h0v0h0a.81.81,0,0,1,0-.09v.09H3V5.71a.13.13,0,0,0,0,0V5.62a.35.35,0,0,1,0-.13l0,0,0-.08,0,0s0,0,0,0h0v.06s0,0,0,.05a.94.94,0,0,0,0,.09l0,0v.09l0,.07v0l.05.07h0a.3.3,0,0,1,.16.06l0,0V5.69s0,0,0,0v.09c0,.08,0,.12,0,.15l0,0a.3.3,0,0,1,.16-.06h0l.05-.07v0l0-.07v0a0,0,0,0,0,0,0v0a.84.84,0,0,0,0-.12l0-.07v0h0v0s0,0,0,0v0l0,.08,0,0c0,.08,0,.11,0,.13v.16h0v0a.08.08,0,0,0,0,0v.11h0V5.73s0,0,0,.08,0,0,0,0v0h0l-.07.08h.1a.58.58,0,0,1,.21.07l0-.07,0,0,0,0v0H4L4,5.81l0,.05s0,0,0,0l0,0L4,5.71H4l0,0,0,0,0,0h0a0,0,0,0,1,0,0h0l.09-.09.06,0,.07,0h.14l0,0h0l.07.05.07,0,.07,0,.1,0,.16-.06,0,0,0,0s0,0,0-.1l0-.06v0h0s0,0,0,0a.21.21,0,0,0,0-.06.76.76,0,0,1,0-.16s0,0,0,0v0a.2.2,0,0,1,0,0h0V5.2c0-.08,0-.08,0-.13V5S5,5,5,5a.33.33,0,0,0,0-.06l0,0,0,0v0a.36.36,0,0,0,0,.09V5a.2.2,0,0,1,0,0V5h0a.08.08,0,0,0,0,0l0-.06v0h0l0,0V5a.24.24,0,0,1,0,.08h0V5l0,0,0,0h0V5l0,.06V5h0a.06.06,0,0,0,0,0l0,0V5s0,0,0,0V5h0s0-.06,0-.08,0,0,0,0v.08h0l0,0v.06a.11.11,0,0,1,0,0v0h0V4.91a.09.09,0,0,0,0,0v0a.19.19,0,0,0,0-.08V4.68a.53.53,0,0,0,0-.13.19.19,0,0,0,0-.07.21.21,0,0,0,0-.06h0l0,.05,0,.08a.56.56,0,0,1,0,.07h0a.17.17,0,0,0,0-.1.32.32,0,0,0,0-.09l-.06-.13,0-.06-.09-.07-.07,0a.33.33,0,0,0-.12,0H4.38l.07,0h.11l.09,0h0l-.08,0-.13,0H4.35l.12,0H4.2v0a.19.19,0,0,0,0-.09h0s0,0,0,0V4h0a.16.16,0,0,0,0-.1v0h0s0,0,0,.06V4h0s0,0,0-.09v-.1h0v0a.17.17,0,0,1,0,.08v0a.31.31,0,0,1,0-.08V3.66s0,0,0,0a.38.38,0,0,1,0,.13v0a.15.15,0,0,0,0-.06.07.07,0,0,0,0-.05v0l-.09,0-.15-.07,0,0,0,0h0l-.19-.07-.05,0,0,0-.32-.09H3.4v.28s0,.17,0,.18v.06a.89.89,0,0,1,0,.19v.08s0-.12,0-.19v-.3a.25.25,0,0,0,0-.09s0,0,0-.09V3.27h0l-.15,0H2.46l-.06.07,0,0,0,.07,0,0,.07-.06,0,0h0l0,0a.48.48,0,0,0-.12.16l0,.06h0s0,0,0,0l0,0h0s0,0,0,0a.34.34,0,0,0,0,.08.32.32,0,0,0,0,.16h0a.42.42,0,0,1,0-.12s0-.05,0-.05a0,0,0,0,1,0,0,.56.56,0,0,0,0,.07.38.38,0,0,0,0,.1.06.06,0,0,0,0,.06s0,0,0,0a.16.16,0,0,1,0-.09l0,0h0v.15a.31.31,0,0,1,0,.08v0a.17.17,0,0,1,0-.08s0,0,0,0h0s0,0,0,0a.56.56,0,0,1,0,.07.14.14,0,0,0,0,.07h0v0s0-.06,0-.06h0V4l0,0h0V4s0,0,0,0h0s0,0,0,0a.11.11,0,0,0,0,0h0L2.4,4H2.25l.09,0,.1,0H2.26l-.14.05.09,0h.12l.07,0H2.34a.25.25,0,0,0-.12,0l-.07,0-.07,0,0,0,0,0,0,0,0,0-.05.09a.31.31,0,0,0,0,.08.17.17,0,0,0,0,.1h0a.56.56,0,0,1,0-.07l0-.08a.15.15,0,0,0,0-.05H2a.35.35,0,0,1,0,.06.64.64,0,0,0,0,.07.28.28,0,0,0,0,.13v.06a.19.19,0,0,0,0,.08v0a.09.09,0,0,1,0,0v.25H2v0a.43.43,0,0,0,0,0V5h0V5h0v0h0a.22.22,0,0,1,0-.08s0,0,0,0,0,.07,0,.08h0V5s0,0,0,0v0l0,0a.06.06,0,0,0,0,0h0V4.93h0l0,0V5a0,0,0,0,0,0,0h0s0-.06,0-.08l0,0v0h0l0,0,0,.06a.08.08,0,0,0,0,0h0s0,0,0,0,0,0,0,0v0l0-.09,0,0,0,0v0l0,0,0,0A.13.13,0,0,0,1.81,5ZM2.9,3.16h0Zm-1,.17v0h0V3.3h0Zm.08,0,0,.12v.09A.4.4,0,0,0,2,3.7a.11.11,0,0,1,0,0s0,0,0,0a.68.68,0,0,1,0,.12v.15a.35.35,0,0,1,0,.13l0,.1,0,0H2v0l.07-.09,0,0,0,0h0v0l0,0,0,0V4l0,0,0,0,0-.06,0,0V4s0,0,0,0h0V4l0,0V3.88l0,.06s0,0,0,0,0,0,0-.06,0,0,0,0v0l0,0h0s0-.08,0-.1h0l0,0s0,0,0,0a.24.24,0,0,1,0-.08h0s0,0,0,0v0s0-.06,0-.07l0,0h0L2,3.7H2v0a0,0,0,0,1,0,0l0,0h0l0,0H2a0,0,0,0,1,0,0,.14.14,0,0,1,0-.06h0l0,0H2a.11.11,0,0,0,0,0l0-.06h0l0,0s0,0,0,0H2l0,0s0-.06.05-.06h0L2,3.45H2l0,0,.06-.06h0l-.06,0H2l0,0s.05-.07.06-.07l0,0h0l-.08,0h0l0,0,0,0h0L2,3.27Zm.33-.09,0,0,0,0h0ZM1.81,4.67c0,.06,0,.07,0,.09v0a0,0,0,0,0,0,0h0a.24.24,0,0,0,0-.07.43.43,0,0,1,0-.11.4.4,0,0,1,0-.13l0-.08,0-.07s0,0,0-.07,0-.06,0-.09,0-.06,0-.07v0s0,.09,0,.12,0,.12,0,.13,0,0,0,.07l0,.06s0,0,0,0A.32.32,0,0,0,1.81,4.67Zm0-1.11a.38.38,0,0,0,0,.1v.19a1.34,1.34,0,0,0,0,.2v0a.79.79,0,0,0,0,.17h0v-.1s0,0,0,0h0l0,0s0,0,0-.06v0l0,0,0,0h0s0,0,0,0l0,0a.08.08,0,0,1,0,0l0,0h0S1.78,4,1.79,4l0,0,0,0h0l0-.06v0h0l0,0,0,0h0s0,0,0,0l0-.07,0,0s0,0,0,0h0a.43.43,0,0,1-.05-.12h0l0,0,0,0,0-.07v0h0s0,0,0,0h0l0,0,0,0h0s0,0,.05,0h0l0-.06a.43.43,0,0,0,0-.05l0,0,0,0h0l0-.07s0,0,0,0h0l0,0h0a.38.38,0,0,1,0-.1h0l0,0h0s0,0,0-.06v0h0s0,.05,0,.05h0v0a.08.08,0,0,1,0-.07h0v.05h0a.36.36,0,0,1,0-.11l-.06,0a1.06,1.06,0,0,0-.06.19Zm0-.34s0,0,0,0,0,0,0,0v0h0l.1,0,.1,0,.06,0,.19,0h0s-.06,0-.08,0L2,3.21H2L2,3.23l-.06,0h-.1s0,0,0,0,0,0,0,0l0,0h0l.06,0,.09,0,.17,0,.08,0H2.9a.09.09,0,0,1,0,0H2.43a1.22,1.22,0,0,0-.26,0L2,3.09a.63.63,0,0,0-.18.08h0S1.77,3.2,1.76,3.22Zm0-.24,0,0h0s0,0,0,0h0a.09.09,0,0,0,.06,0,0,0,0,0,0,0,0l0,0,0,0h0a.1.1,0,0,1-.05,0Zm0-.33a.08.08,0,0,0,0,.08h.09L2,2.66l.16,0,.15,0H2.26l-.16,0a1.43,1.43,0,0,0-.22.08l-.06,0s0,0,0,0a0,0,0,0,1,0,0l0,0,0,0h0v0h0l.26-.08h0l.17,0h.29a.05.05,0,0,1,0,0H2.51l-.39,0H2.06l-.16,0A.23.23,0,0,0,1.78,2.65Zm0-.59v.07l0,.11s0,0,0,.06,0,.18,0,.23v0s0,0,0,0l.08,0,.14,0,.22,0,.15,0h.69l.22,0h.18l.09,0H3.25l-.18,0h-.4v0a.13.13,0,0,0,0,.12h0a.17.17,0,0,1,0-.1h.67l.11,0h0a.28.28,0,0,1,.13,0l.07,0a.29.29,0,0,1,.11,0,2,2,0,0,1,.39.14l0,0,.09,0h.06l0,0,0,0h0a.08.08,0,0,0,0,0l0,0h0s0,0,0,0l0,0h0a.08.08,0,0,0,0,0v0l-.08,0-.1,0,0,0-.13-.07-.07,0L4,2.62h0l.06,0,.07,0h0l.09,0h0l0,0h0l.14.06.13.06,0,0,.07,0,0,0L5,3.08l.21.16a1.85,1.85,0,0,1,.2.2v0l0,0,.12-.19,0-.05,0-.07L5.68,3,5.62,3h0L5.5,3H5.38a.39.39,0,0,1-.13,0,.49.49,0,0,1-.15-.1A.42.42,0,0,1,5,2.64a.21.21,0,0,1,0-.11v0H5s0,0,0,0H5a.61.61,0,0,0,0,.14.1.1,0,0,0,0,0H5v0H5v0s0,0,0-.06v-.1l0,0,0,0-.05.06,0,0h0l0,0h0v0l0-.06,0,0a.45.45,0,0,0,0-.09h0l-.1,0-.13,0h0a1.34,1.34,0,0,1-.2,0,.28.28,0,0,1-.11,0,.35.35,0,0,1-.12-.07.47.47,0,0,1-.1-.1.66.66,0,0,1-.08-.13A.59.59,0,0,1,4,2a.29.29,0,0,1,0-.16V1.76s0-.06,0-.07H4s0,0,0,0a.21.21,0,0,1,0,.06s0,.05,0,.09l0,0v.06c0,.1,0,.12,0,.17s0,0,0,0h0v-.1h0l0-.13s0,0,0-.06a.13.13,0,0,0,0-.05s0-.14,0-.15h0v0a.59.59,0,0,1,0,.07,1.3,1.3,0,0,1-.06.12L3.72,2a.83.83,0,0,1-.17.15l-.1,0-.12,0H3.16l-.11,0-.12-.06,0,0A.29.29,0,0,1,2.8,2a.27.27,0,0,1-.07-.08s0,0,0,0h0s0,0,0,0h0v0a.75.75,0,0,1-.09.15.83.83,0,0,1-.15.11.37.37,0,0,1-.23,0,.27.27,0,0,1-.13,0l-.1,0-.06-.07,0,0H1.79S1.76,2.05,1.77,2.06Zm0-.05h0l0,0s0,0,0,0H1.76s0,0,0,0h0Zm0-.06h0l.09,0h0a0,0,0,0,0,0,0H1.72ZM1.57,1.4s0,.05,0,.09l.07.2v0h0s0,0,0,0v0a.27.27,0,0,0,0-.09.19.19,0,0,0-.05-.1h0a.23.23,0,0,1,.05.05.24.24,0,0,1,0,.09v.06s0,0,0,0v0s0,0,0-.08a.11.11,0,0,0,0-.06.17.17,0,0,0-.06-.06l-.12-.08Z"/><path class="cls-2" d="M2.38,2.22h0v.16H2.3V2.24h0Z"/><path class="cls-2" d="M1.8,2.06h.05v0s0,0,0,.05l.1.09.08,0h0l0,0H2l0,0H2l.09,0,.08,0h.12V2.4h0l-.07,0a.24.24,0,0,0-.12,0H1.92v0a.13.13,0,0,0,0,0v0s0-.06,0-.08v0a.64.64,0,0,0,0-.07.43.43,0,0,1,0-.05h0v.2a.38.38,0,0,0,0,.08V2.5h0V2.44s0-.06,0-.1a.18.18,0,0,1,0-.06.37.37,0,0,1,0-.09V2.06Z"/><path class="cls-2" d="M2.81,2.26v-.1a.89.89,0,0,1,0-.13h0l0,0,0,0,0,0h0v.18s0,0,0,0,0,0,0,0H2.81s0,0,0,0A.59.59,0,0,0,2.81,2.26Z"/><path class="cls-2" d="M2.48,2.17v.2h0V2.31a.58.58,0,0,1,0-.1v0Z"/><path class="cls-2" d="M2.5,2.25V2.16s0,0,0,0a.14.14,0,0,0,.06-.07l0,0,0-.06V2a.13.13,0,0,1,0,.08s0,0,0,0h0l0,0h0l0,0v0a.35.35,0,0,0,0-.08l0,0a.08.08,0,0,0,0,0v0h0l0,.05V2c0,.05,0,.13,0,.24v.14H2.5V2.25Z"/><path class="cls-2" d="M3.23,2.86s0,0,0,0,0,.08,0,.09H3l.06,0s0,0,0,0l0-.13s0,0,0-.06l-.06,0h.2v0Z"/><path class="cls-2" d="M4.82,3.6h0l0,0-.08,0-.05,0h0l0,0s0,0,.05,0l0,0a.88.88,0,0,0,.07-.12v0h0l0,0,0,0-.06.08h0v0h0l0-.06.07-.13,0,0,0,0h0l0,0,0,0,0,0,0,0a2,2,0,0,1-.13.23Z"/><path class="cls-2" d="M2.83,3H2.77V2.9h0s0,0,0,0,0,0,0,0H2.47a.42.42,0,0,1,0-.07.61.61,0,0,1,0-.14v-.1h.22l-.07,0a.11.11,0,0,0-.05.08v0h0a.21.21,0,0,1,0-.06l0,0h.09a.13.13,0,0,1,.07.08v0a0,0,0,0,1,0,0,.14.14,0,0,0,0-.11h0v0h.06a2,2,0,0,1,0,.22A.45.45,0,0,0,2.83,3Zm-.09-.23h0a.05.05,0,0,0-.05,0s0,0,0,0,0,0,0,0h0s0,0,0,0S2.76,2.72,2.74,2.72Zm0,.11h0s-.06,0-.08,0,0,0-.05,0l0,0h0s0,0,0,.05,0,0,.06,0h0a.05.05,0,0,0,0,0Z"/><path class="cls-2" d="M2.46,2.71a.23.23,0,0,1,0,.07v.15h0V2.66h0v.06Z"/><path class="cls-2" d="M4.51,3.36H4.45a.14.14,0,0,1-.07-.08V3.21l0-.07a.17.17,0,0,1,.1,0s0,0,0,0a.05.05,0,0,1,0,0,.14.14,0,0,1,0,.14A.09.09,0,0,1,4.51,3.36Zm-.08-.09v0a.06.06,0,0,0,0,0,.12.12,0,0,0,0,.05h0a.05.05,0,0,0,0,0H4.49A.09.09,0,0,1,4.43,3.27Zm.16,0,0,0a0,0,0,0,0,0,0H4.48l0,0s0,0,0,.05l.06,0h0A0,0,0,0,0,4.59,3.23Z"/><path class="cls-2" d="M2.36,3H2.28V2.89s0-.11,0-.13v-.1h.08s0,.25,0,.28Z"/><path class="cls-2" d="M3.53,2.78v0l0,0a.14.14,0,0,0,0,.17.2.2,0,0,0,.09.06.14.14,0,0,0,.11,0h0l0,0H3.59l0,0H3.42s0,0,0,0V2.88l0-.12a.12.12,0,0,1,0,0h.06A.35.35,0,0,0,3.53,2.78Z"/><path class="cls-2" d="M3.67,3H3.59L3.52,3a.09.09,0,0,1,0-.07.14.14,0,0,1,0-.11.08.08,0,0,1,.06,0h.06l.05,0a.16.16,0,0,1,.07.09s0,0,0,0V3A.12.12,0,0,1,3.67,3Zm0-.18s0,0-.06,0H3.58a0,0,0,0,0,0,0,.13.13,0,0,0,.07.05H3.7S3.72,2.87,3.71,2.86Zm0,.1s0,0,0,0H3.6l0,0s0,0,0,0,0,0,0,0,0,0,0,0a.05.05,0,0,0,0,0l.06,0h0s.06,0,.08,0,0,0,0,0S3.74,3,3.72,3Z"/><path class="cls-2" d="M3.41,2.81v.06a.13.13,0,0,0,0,.06s0,.09,0,.09h0s0,0,0,0a.58.58,0,0,0,0-.1v0a.72.72,0,0,0,0-.11h.06a.13.13,0,0,1,0,0Z"/><path class="cls-2" d="M5.19,3.06V3h0V3h0l.12,0h.19s0,0,0,0l0,0H5.43c.06,0,.08,0,.11,0h0l0,0,0,0-.06.08,0,0h0v0h0l0-.06.08-.09,0,0,0,0,0,0,0,0h0l0,0,0,0a.57.57,0,0,0,0,.07l0,0,0,.06-.06.07a0,0,0,0,0,0,0h0s0,0,0,0l-.19-.18,0,0a.28.28,0,0,1,0-.09Z"/><path class="cls-2" d="M4.46,3.09l0,0s-.12.13,0,.22a.19.19,0,0,0,.12.06h0l0,0H4.51s0,0-.07,0a.06.06,0,0,1-.06,0h0s0,0,0,0H4.26l0,0h0v0l0,0v0l0,0v0l0-.05s0-.08,0-.08h0l0,0,.07,0,.06,0,0,0Z"/><path class="cls-2" d="M4.21,3.12v0l0,0s0,0,0,0l0,0,0-.05,0-.09,0-.1,0,0,0,0,0,0A1.17,1.17,0,0,0,4.21,3.12Z"/><path class="cls-2" d="M4,3.17v0H4l-.07,0h0l0,0h0a.11.11,0,0,0,.08,0l0-.08V3H4L4,3l0,0H4L4,3.05V3.1h0v0L4,3a.65.65,0,0,1,0-.1H4l.07,0h0l0,.09C4.06,3.06,4,3.14,4,3.17Z"/><path class="cls-3" d="M1,1.84l0,0v0c-.15-.19-.46,0-.31.23s.26.14.32.34h0c.06-.2.24-.21.33-.34S1.09,1.65,1,1.84Z"/><path class="cls-3" d="M5.77,7.55v0l0,0a.19.19,0,0,1-.31-.23c.09-.12.27-.13.33-.34h0c0,.21.23.22.32.34A.19.19,0,0,1,5.77,7.55Z"/></g></g></svg>