<svg xmlns="http://www.w3.org/2000/svg" viewBox="0 0 6.72 9.39"><defs><style>.cls-1{fill:#fff;}.cls-2{fill:#3d3d3d;}.cls-3{fill:#b41818;}</style></defs><g id="Layer_2" data-name="Layer 2"><g id="Layer_1-2" data-name="Layer 1"><rect class="cls-1" x="0.04" y="0.04" width="6.65" height="9.32" rx="0.3"/><path class="cls-2" d="M6.39,9.39h-6A.34.34,0,0,1,0,9.06V.34A.34.34,0,0,1,.34,0H6.39a.34.34,0,0,1,.33.34V9.06A.33.33,0,0,1,6.39,9.39ZM.34.07A.27.27,0,0,0,.07.34V9.06a.27.27,0,0,0,.27.26H6.39a.26.26,0,0,0,.26-.26V.34A.27.27,0,0,0,6.39.07Z"/><path class="cls-2" d="M6.21,9.15H.51a.24.24,0,0,1-.24-.24V.49A.25.25,0,0,1,.51.24h5.7a.25.25,0,0,1,.25.25V8.91A.25.25,0,0,1,6.21,9.15ZM.51.3A.19.19,0,0,0,.32.49V8.91a.2.2,0,0,0,.19.19h5.7a.19.19,0,0,0,.19-.19V.49A.18.18,0,0,0,6.21.3Z"/><path class="cls-2" d="M6.69,3.66a.27.27,0,0,0-.09,0l0,0-.07,0h.06a.05.05,0,0,1,0,0s0,0,0,0,0,0,0,0S6.69,3.67,6.69,3.66Z"/><path class="cls-2" d="M5.32,0s.06,0,.06.1a.68.68,0,0,0,0,.14A.73.73,0,0,0,5.42.05h.07Z"/><path class="cls-2" d="M5.63,0s0,.08,0,.11a.24.24,0,0,0,0-.09Z"/><path class="cls-2" d="M2.38,0a.18.18,0,0,1,.07.05s0,.05,0,.07,0,0,.08,0l.07,0s0,0,0,0H2.51s0-.05,0-.06,0,0,0,0S2.42,0,2.38,0Z"/><path class="cls-2" d="M2.74,0s0,0,0,0,0,0,0,.05a.11.11,0,0,0,0-.08S2.77,0,2.74,0Z"/><path class="cls-2" d="M0,.49H.15l0,0h0a0,0,0,0,1,0,0S0,.47,0,.49Z"/><path class="cls-2" d="M0,8.66H.15l0,0h0s0,0,0,0S0,8.65,0,8.66Z"/><path class="cls-2" d="M.05.25s.08,0,.08,0,0,0,0,0,0,0,0,0,0,0,0,.06Z"/><path class="cls-2" d="M3.92,0s0,0,0,0v0s0,0,0,.06v0l0,0s0,0,0,0,0,0,0,0Z"/><path class="cls-2" d="M4.17,9.37s.06,0,.06-.1a.68.68,0,0,1,0-.14.51.51,0,0,1,.06.2l.07,0Z"/><path class="cls-2" d="M0,8.13s.05.06.1.06l.15,0a.9.9,0,0,1-.22.06s0,0,0,.06A.7.7,0,0,1,0,8.13Z"/><path class="cls-2" d="M4.48,9.35s0-.08,0-.12,0,.08,0,.1Z"/><path class="cls-2" d="M1.23,9.35a.1.1,0,0,0,.07,0s0-.05,0-.07.05,0,.08,0l.07,0s0,0,0,0H1.36a.19.19,0,0,0,0,.07s0,0,0,0S1.27,9.35,1.23,9.35Z"/><path class="cls-2" d="M1.59,9.35s0,0,0-.06,0,0,0,0a.19.19,0,0,1,0,.08S1.62,9.35,1.59,9.35Z"/><path class="cls-2" d="M2.77,9.35h0s0,0,0,0,0,0,0-.06a.06.06,0,0,0,0,0,0,0,0,0,0,0,0s0,0,0,0h0Z"/><path class="cls-2" d="M6.69,1.63H6.46s0,0,0,0a.29.29,0,0,1-.17.06l-.12,0s.13,0,.16,0l.1,0a.3.3,0,0,1,.1,0,.41.41,0,0,1,.11,0h0s0,0,0,0S6.69,1.64,6.69,1.63Z"/><path class="cls-2" d="M6.69,6.83H6.46s0,0-.08,0a.25.25,0,0,1-.12,0s.09,0,.12,0,0,0,.1,0a.14.14,0,0,1,.16.06.16.16,0,0,1,0,.09s0-.06,0-.09A.22.22,0,0,0,6.69,6.83Z"/><path class="cls-2" d="M6.68,1.88s-.11,0-.15,0,.06,0,.08,0l0,0S6.69,1.9,6.68,1.88Z"/><path class="cls-2" d="M6.68,1.44s-.12.08-.16.07.07,0,.11-.05l.07,0Z"/><path class="cls-2" d="M0,2.65s0,0,.06,0H.17a.85.85,0,0,0,.23,0,.26.26,0,0,1-.19.06C.15,2.72.05,2.73,0,2.65Z"/><path class="cls-2" d="M0,2.52c0-.09.13-.07.19-.09a.38.38,0,0,0-.15,0c-.08,0,0,0,0,.08Z"/><path class="cls-2" d="M.05,6.11c0-.07.1,0,.15,0s0,0,0-.05l0,0s0,.09-.07.12-.13,0-.17,0Z"/><path class="cls-2" d="M.05,4.57v0l0,0s0,0,0,.07a.43.43,0,0,1,0-.16Z"/><path class="cls-2" d="M.05,4.75s0,0,.06,0H.16s0,0,.09,0l-.06,0s0,0,0,0H.07a.06.06,0,0,0,0,.07s0,0,.05,0H0a.06.06,0,0,1,0,0A.16.16,0,0,1,.05,4.75Z"/><path class="cls-2" d="M0,6s.09,0,.11,0h0L0,5.91V6h0V6H0Z"/><path class="cls-1" d="M.83,2.19h0Z"/><path class="cls-1" d="M.85,2.2Z"/><path class="cls-2" d="M2.27,5.23A1,1,0,0,1,2.19,5a.24.24,0,0,0,0-.07s0-.07-.07-.08H2s0,0,0,0,0,0,0,0V5s0,0,0,0A.1.1,0,0,1,2,4.93a0,0,0,0,1,0,0,.06.06,0,0,1,.09,0s.07,0,.1.1a1,1,0,0,1,0,.11c0,.13,0,.17.09.21h0Z"/><path class="cls-2" d="M3.59,4.18l0,0a0,0,0,0,1-.08,0A0,0,0,0,1,3.59,4.18Z"/><path class="cls-2" d="M3.75,4.14s0,0,0,0,0,0,0,0v0S3.75,4.11,3.75,4.14Z"/><path class="cls-2" d="M3.9,4s0,0,0,0V4a0,0,0,0,1,0,0h0s0,0,0,0S3.89,4,3.9,4Z"/><path class="cls-2" d="M3.8,4.07s0,0,0,0a0,0,0,0,1,0,0s0,0,0,0S3.79,4.07,3.8,4.07Z"/><path class="cls-2" d="M3.46,4.84a.09.09,0,0,1,0-.06.07.07,0,0,1,.06,0l0,0s0,0,0,.05h0s0,0,0,0h0l0,0h.06l.07-.06a.11.11,0,0,0,0-.11.1.1,0,0,0-.07-.06s0,0,0,0h0l-.09,0,0,0s0,0,0,0a.25.25,0,0,1,0,.08s0,0,0,0,0,0,0,0h0v0h0V4.62h0v0s0,.05,0,.05l0,0,.08,0h.1a.2.2,0,0,1,.07.09.15.15,0,0,1,0,.15.14.14,0,0,1-.08,0h0a.08.08,0,0,1-.07,0A0,0,0,0,1,3.46,4.84Z"/><path class="cls-2" d="M3.46,3.93v0h0s0,0,0,0H3.34a.11.11,0,0,1-.06-.07h0a.08.08,0,0,1-.06,0h0a.11.11,0,0,1-.06-.07h0s0,0,0,0L3,3.83H3a.07.07,0,0,1,0,0s0,0,0,0v0H2.86s0,0-.06-.09a.06.06,0,0,1,0,0l0,0s0,0,0,0,0,0,0,0,0,0,0,0a.1.1,0,0,1,.06,0h0a.11.11,0,0,1,0-.11l0,0h0v0a.06.06,0,0,1,0-.06l0,0H3a.09.09,0,0,1,0-.05s0,0,.09,0h0a.08.08,0,0,1,.1,0l0,0h0l.05,0a.12.12,0,0,1,.12,0l0,0h0a.1.1,0,0,1,.1,0l0,0v0l0,0,0,0h.07a.06.06,0,0,1,0,.06h0a0,0,0,0,1,.05,0,.12.12,0,0,1,0,.1s0,0,0,0a.13.13,0,0,1,.07,0,.12.12,0,0,1,0,.1H4l0,0a.1.1,0,0,1,0,.09s0,0,0,0H4a.12.12,0,0,1,0,.12.09.09,0,0,1-.09.05h0v0a.08.08,0,0,1,0,.09H3.76v0a0,0,0,0,1,0,0A.12.12,0,0,1,3.7,4H3.59s0,0,0,0h0S3.49,4,3.46,3.93Zm-.65-.48h0s0,0,0,0,0,0,0,0h0V3.46Zm0-.2s0,0,0,0a.06.06,0,0,0,0,.07h0l0-.07v0Zm0,.36h0v0l0,0h0ZM3,3.15h0s0,0,0,0,0,0,0,0,0,0,0,0h0l0,0s0,0,0,0H3Zm1,.12h0v0l0,.06h0v0h0S4,3.28,3.94,3.27ZM4,3.5s0,0,0-.06v0h0v.1Zm-.09.2a.08.08,0,0,0,.06,0,0,0,0,0,0,0,0l0,0h0v0a.11.11,0,0,0,0,0l0,0Zm0-.49h0a0,0,0,0,0,0,0s0,0,0,0,0,0,0,0l0,0,0,0S3.86,3.2,3.86,3.21Zm-.07.62s0,0,0,0,0,0,0,0v0h0l0,0,0,0Zm-.47,0,0,0h0l0,0-.11,0ZM3.14,3.8s0,.05,0,.05h0l0,0-.11,0h0Zm0-.24.12,0H3.3v0l0,0a.06.06,0,0,0,0,0v0h0l-.1,0h0ZM3,3.72H3s0,0,0,0,0,0,0,0H3l0,0s0,0,0,0Zm.09-.62S3,3.07,3,3.1s0,0,0,0H3l.06,0h0S3.09,3.11,3.08,3.1Zm.16-.05a.08.08,0,0,0-.09,0s0,0,0,0h0s0,0,0,0h.11S3.26,3.07,3.24,3.05Zm.19,0a.09.09,0,0,0-.09,0,.11.11,0,0,0,0,.06h0c.05,0,.12,0,.12,0Zm.16,0,0,0s0,0,0,0,0,0,0,0H3.6Zm0,.35a.44.44,0,0,0-.3,0l-.1.06a.23.23,0,0,0-.07.07l0,0a.67.67,0,0,1,.17-.08h.07a.56.56,0,0,1,.13,0l.11,0,.1.06,0,0h0v0A.28.28,0,0,0,3.55,3.42Zm-.19.15a.12.12,0,0,1,0,0h0a.12.12,0,0,0,.08.08h.06l0,0s0,0,0,0S3.37,3.58,3.36,3.57Zm0-.08s0,0,0,0h0S3.4,3.5,3.38,3.49Zm.38-.36h0a.06.06,0,0,0,0,0,0,0,0,0,0-.06,0s0,0,0,0h.09Zm0,.45h0L3.57,3.5h0a.16.16,0,0,1-.05.09h.13l.08,0Zm-.1.33h0s0,0,0,0v0h0l-.08,0S3.62,3.91,3.64,3.91Zm0-.23.13-.05h0l-.06,0-.23,0-.14,0-.12,0h0s.07,0,.13.07l.1,0A.46.46,0,0,0,3.6,3.68Zm-.08.26h0s0,0,0,0H3.48Z"/><path class="cls-2" d="M3.5,4.32a0,0,0,0,1,0,0s0,0,0,0h0a0,0,0,0,1,0,0s0,0,0,0A.06.06,0,0,1,3.5,4.32Z"/><path class="cls-2" d="M4,3.1A.18.18,0,0,0,3.9,3a.37.37,0,0,0-.16-.09c-.06,0-.08,0-.09,0h0s0,0,.06,0l.13.06a.44.44,0,0,1,.08.1A.27.27,0,0,1,4,3.11H4Z"/><path class="cls-2" d="M3.11,4,3,3.94l-.08-.09H3A.38.38,0,0,0,3.1,4s.08,0,.08,0h0V4S3.14,4,3.11,4Z"/><path class="cls-2" d="M3.3,4.76H3.2v0h.09v0a.06.06,0,0,1,0,0v0h0v.11a.07.07,0,0,0,0,0,.28.28,0,0,1,0,.09h0v0a.15.15,0,0,0,0-.07Z"/><path class="cls-2" d="M3.18,4.21l-.1-.1L3,4,2.94,4l0-.08h0A.17.17,0,0,0,3,4a.44.44,0,0,0,.12.11.81.81,0,0,1,.18.21c0,.07,0,.12,0,.16s0,0-.06,0h0l-.06,0s0,0,0-.06a.08.08,0,0,1,0-.05s.06,0,.07,0v0h0s0,0,0,0v0l0,0h0l0,0,0,0a.06.06,0,0,0,0,0A.35.35,0,0,0,3.18,4.21Z"/><path class="cls-2" d="M4,3.85s0,0,0,0,0,.06,0,.06H4l0,0Z"/><path class="cls-2" d="M3.17,5.31s0,0,0,0a.11.11,0,0,0,0,0c0-.13.07-.19.13-.23a.13.13,0,0,1,.07,0,.11.11,0,0,1,.1,0,.11.11,0,0,1,0,.06s0,0,0,.07a0,0,0,0,1-.05,0s0,0,0,0h0a0,0,0,0,0,0,0H3.39a.2.2,0,0,0-.09.09s0,.06,0,.1a.25.25,0,0,1-.11.16h0Z"/><path class="cls-2" d="M3,3,2.86,3l-.06.06a.22.22,0,0,0,0,.08h0l0-.07a.55.55,0,0,1,.14-.17l.07,0s0,0,0,0Z"/><path class="cls-2" d="M4,3a.46.46,0,0,0-.07-.1l-.07-.06s0,0,0-.05,0,0,0,0a.38.38,0,0,1,.08.09A.37.37,0,0,1,4,3V3S4,3,4,3Z"/><path class="cls-2" d="M2.31,5.14a.07.07,0,0,1,.08,0l0,0a0,0,0,0,1,0,0v0s0,0,0,0l0,0v.07h0s0,0,0,0a.11.11,0,0,1,0-.06S2.31,5.15,2.31,5.14Z"/><path class="cls-2" d="M2.42,4.93v0h0a.08.08,0,0,0,0,0,.31.31,0,0,0,0-.08h0a.24.24,0,0,0,0,.12V5s0,.06,0,.08,0,.08,0,.09h0v0s0,0,0-.06A.11.11,0,0,1,2.5,5l0,0h0S2.42,5,2.42,4.93Z"/><polygon class="cls-2" points="1.34 3.38 1.34 3.38 1.34 3.38 1.34 3.38"/><path class="cls-2" d="M2.88,4.42h0a0,0,0,0,1,0,0V4.5a.08.08,0,0,1,0,.07h0a.58.58,0,0,1,0-.1Z"/><polygon class="cls-2" points="1.63 6.8 1.63 6.79 1.63 6.79 1.63 6.8"/><polygon class="cls-2" points="5.21 6.67 5.21 6.68 5.21 6.68 5.21 6.67"/><path class="cls-2" d="M5.21,6.71Z"/><path class="cls-2" d="M5.74,3.63v0a.24.24,0,0,1,0,.07l0,.08a.06.06,0,0,1,0,0,.09.09,0,0,1,0,0A.13.13,0,0,1,5.77,4a.12.12,0,0,0,0,0v0s0,.07,0,.12,0,0-.11.08h0v0a.31.31,0,0,1,0,.08.31.31,0,0,1-.08.15c-.05.05-.08.07-.12.07h0l0,0a.65.65,0,0,1,0,.13,1.25,1.25,0,0,1,0,.21.81.81,0,0,1,0,.16.7.7,0,0,0,0,.14v0h0s0,0,0-.08V5.12a1,1,0,0,0,0-.16,1.11,1.11,0,0,1,0-.13v0a.53.53,0,0,1,0,.16c0,.08,0,.13-.05.2s0,.06,0,.09a.18.18,0,0,0,0,.1v.2a1.32,1.32,0,0,0,0,.23v0h0a.09.09,0,0,0,0,0,1.21,1.21,0,0,1,0-.14s0,0,0,0v0a1.16,1.16,0,0,0,0,.18l0,.1,0,0a1.3,1.3,0,0,0,.15.2l0,0h0l0,0,0,0-.11-.12L5.22,6l0-.08v0a.22.22,0,0,0,0,.09.87.87,0,0,0,.06.21,1.09,1.09,0,0,0,0,.14c.06.11.07.15.09.19a.67.67,0,0,1,0,.24.61.61,0,0,1,0,.14.19.19,0,0,1,0,.09V7h0a.35.35,0,0,0,0-.13,1.43,1.43,0,0,0,0-.23l0-.11-.06-.12v0a.27.27,0,0,1,0,.12.6.6,0,0,1,0,.19s0,.05,0,.08a.59.59,0,0,0,0,.11h0V7s0,0,0,0,0-.06,0-.1V6.78a.68.68,0,0,0,0-.12v0a1.7,1.7,0,0,1,0-.19s0,0,0-.05V6.33a.67.67,0,0,0-.08-.18A.59.59,0,0,1,5,6,0,0,0,0,0,5,6a.58.58,0,0,0,0,.1s0,.17.08.25a.91.91,0,0,1,0,.21,1.62,1.62,0,0,1,0,.2v0s-.05-.16-.05-.16v0h0a.54.54,0,0,1,0,.16v.06A2,2,0,0,0,5,6.42a.75.75,0,0,0-.12-.21,3.12,3.12,0,0,1,.2.51l0,.11a.43.43,0,0,1,0,0,0,0,0,0,1,0,0l0,0a.54.54,0,0,0,.07.13l0,0,0,0,0-.08L5.1,7A.34.34,0,0,1,5,6.81c0-.06,0-.1,0-.09H5a1.26,1.26,0,0,0,0,.16A.52.52,0,0,0,5.09,7a1,1,0,0,1,.06.16.2.2,0,0,0,0,0l0,0s0,0,0-.05L5,7.1H5a.93.93,0,0,1,0,.1.65.65,0,0,1,0,.13s0,.06,0,.08a1,1,0,0,1,0,.19,1,1,0,0,1,0,.16.66.66,0,0,1,0,.15h0v0l0-.09-.07-.14a1.36,1.36,0,0,0-.21-.36l-.17-.17-.13-.08L4.44,7,4.31,7H4.15A.35.35,0,0,0,4,7a1.25,1.25,0,0,0-.3.19l-.12.12h0l.12-.1A1,1,0,0,1,4,7.12a.57.57,0,0,1,.24,0,.65.65,0,0,1,.2,0,.49.49,0,0,1,.18.08l.06,0a.71.71,0,0,1,.18.15l.11.16A.82.82,0,0,1,5,7.74l0,.06a.1.1,0,0,1,0,0l0,0L5,7.67l0,0s0,0,0,0a.38.38,0,0,0,0,.16.45.45,0,0,0,.09.16l.11.06H5a.29.29,0,0,0-.15.09.24.24,0,0,0-.06.08v0s0,.06,0,.06h0l0,0-.06,0h0a.3.3,0,0,0-.18.06c-.05,0-.1.07-.1.09v.09l0-.06a.2.2,0,0,1,0-.08s0,0,0-.09v0h0l-.14,0H4.17s0,0-.06,0S4,8.42,4,8.43a.45.45,0,0,0,0,.08s0,0,0,.07,0,.05,0,.06,0,0,0,0H4v0s0-.07,0-.1,0,0,0,0a.54.54,0,0,0-.24-.11H3.53l-.08.06s0,0,0,0l0,0,0-.05s0,0,0-.06a.28.28,0,0,0,0-.09.28.28,0,0,0,0-.12s0-.08,0-.08L3.36,8h0L3.42,8a.88.88,0,0,1,.26-.13s0,0,0-.05a.46.46,0,0,0,0-.2s0,0,0,0h.2A.45.45,0,0,0,4,7.38a.23.23,0,0,0,0-.09L4,7.25H3.92l-.18.12a.77.77,0,0,0-.18.18l-.05.06-.09.13a.73.73,0,0,0,0,.09.41.41,0,0,0-.07.11s0,.08,0,.12a.93.93,0,0,0,0,.1s-.06.13-.1.21l0,.06v0h0s0,0,0-.1V8.29a.58.58,0,0,1,0-.1l0-.1a.19.19,0,0,1,0-.07V7.94a.19.19,0,0,0,0-.07v0l0,0A.38.38,0,0,1,3,8c0,.05-.11.1-.12.09h0A.4.4,0,0,0,3,8a.44.44,0,0,0,0-.13A1.54,1.54,0,0,0,3.1,7.7a.73.73,0,0,0,0-.18s0,.05,0,.12l0,.12A.8.8,0,0,1,2.87,8a.36.36,0,0,1-.09.08l-.2.09h0l.11-.07.1-.1,0,0a.52.52,0,0,0,.07-.15s0-.08,0-.09l0,0a.5.5,0,0,1-.15.17s0,0,0,0h0s0,0,0,0l0,0,0,0,0,0,.08-.16a.64.64,0,0,0,0-.15,1,1,0,0,0,0-.12v0a.35.35,0,0,1-.05.08l0,.06a.61.61,0,0,1-.1.15l0,0s0,0,0,0a1.22,1.22,0,0,0,.09-.17,1.17,1.17,0,0,0,.07-.25v0a.13.13,0,0,0,0-.06s0-.07,0-.11l0-.06s0,0,0-.11l0,0a.74.74,0,0,1,.08-.16l.06-.11a1.29,1.29,0,0,1,.09-.16l.06-.08a.64.64,0,0,0,.06-.1A.78.78,0,0,0,3.46,6a1.39,1.39,0,0,0,.16-.35s0-.07,0-.07h0v0s0,0,0,.05a1,1,0,0,1-.1.18,2.69,2.69,0,0,1-.19.28l-.13.17,0,0-.08.12s0,0,0,0v0l0,0,0-.09.08-.13A1.05,1.05,0,0,1,3.31,6V6l0,0-.06.05-.05,0,0,0-.11.15s0,0,0,0l0,0,.07-.15,0-.06L3.22,6l0,0,0-.07,0,0,0,0,0,0-.05.06L3,6.2v0l0,0v0l0-.06L3.14,6a.08.08,0,0,1,0,0s0-.06,0,0v0l0,0,0,0,0,0a.5.5,0,0,0-.1.13H3a1.92,1.92,0,0,1,.11-.25l0-.08v0l0,0L3,5.91l-.1.15s0,0,0,0l0,0a.08.08,0,0,1,0,0,.41.41,0,0,1,0-.08.24.24,0,0,1,0-.07s0,0,0,0,0-.08,0,0,0,0,0,0-.13.15-.14.18l0,0h0a.29.29,0,0,1,0-.09l0-.06,0-.05a.34.34,0,0,0,0-.1l0,0s0,0,0,0l0,.06-.08.09h0l0,0a.68.68,0,0,0,.08-.2s0,0,0,0l-.07.08-.07.09,0,0v0l0-.06,0-.08a.1.1,0,0,0,0,0l-.08.11a0,0,0,0,0,0,0h0v0s0,0,0-.07a.18.18,0,0,0,0,0l-.06.11h0V5.62h0a.84.84,0,0,0,0,.12h0V5.68c0-.06,0-.07,0-.07a.1.1,0,0,1,0,0l0,0s0,0,0,0l0-.1h0s0,.06,0,.1a.88.88,0,0,1,0,.14.43.43,0,0,1,0,.11.34.34,0,0,0,0,.12.19.19,0,0,0,.05.09l.11.16a.33.33,0,0,1,0,.14s0,.11,0,.11h0a.65.65,0,0,0,0-.11.62.62,0,0,0-.1-.17l0,0h0l.06.17a1.54,1.54,0,0,1,.05.17.59.59,0,0,1,0,.23.8.8,0,0,1,0,.18l0,0s0,0,0,0,0-.08,0-.11a.25.25,0,0,0,0-.08.87.87,0,0,0-.1-.26s0,0,0,0v.18s0,.07,0,.08a.25.25,0,0,1,0,.08.54.54,0,0,1-.07.26.75.75,0,0,1-.16.25l-.1.09s0,0,0,0,0,0,0,0a.6.6,0,0,0,.09-.15s.05-.17.07-.22a.84.84,0,0,0,0-.1v0a1.81,1.81,0,0,1-.12.22.21.21,0,0,0,0,.07s0,0,0,.05a1.77,1.77,0,0,1-.15.18.41.41,0,0,0-.08.1l0,.12a.38.38,0,0,0,0,.19,1.26,1.26,0,0,1,0,.16h0a.22.22,0,0,0,0-.1l0-.06a.1.1,0,0,0,0,0V8s0,0,0,.06a.72.72,0,0,1,0,.19.24.24,0,0,1,0,.14h0v0a.17.17,0,0,0,0-.08.43.43,0,0,0-.09-.18A.73.73,0,0,0,1.66,8l0,0h0l-.1.13h0s0-.1.06-.2v0h0l0,0a.17.17,0,0,1,0-.05.85.85,0,0,1-.12-.28v0h0a.35.35,0,0,1-.09.11l-.18.13h0l.07-.07a.63.63,0,0,0,.07-.12l.06-.15a2.42,2.42,0,0,0,.05-.24s0-.14,0-.15,0,0,0,0l-.07.11c0,.06-.11.14-.08.09a.15.15,0,0,0,0-.09l0-.06,0-.08a.19.19,0,0,1,0-.08l0-.14a.48.48,0,0,0,0-.12v0a1.14,1.14,0,0,1-.1.19l0,0,0,0h0v0a.49.49,0,0,0,.08-.25.15.15,0,0,0,0-.06.63.63,0,0,0,0-.24s0-.1,0-.18,0-.2-.05-.2v.15a.31.31,0,0,0,0,.12s0,0,0,0l0-.06A.58.58,0,0,1,1.12,6a.72.72,0,0,1,0-.13v0a.34.34,0,0,0,0-.14,1.87,1.87,0,0,1,0-.24v0s0,0,0,.05a.89.89,0,0,0,0,.36s0,0,0,0l0-.1a1.64,1.64,0,0,1,0-.22.89.89,0,0,1,0-.19s0-.05,0-.06,0,0,0-.07a.31.31,0,0,0,0-.08s0-.08,0-.06a.19.19,0,0,1,0,.07.14.14,0,0,1,0,.06s0,0,0,0,0,0,0,0a.31.31,0,0,0,0-.1A.53.53,0,0,0,1,5s0-.08,0-.1a.53.53,0,0,0,0-.12.9.9,0,0,1,0-.13,1.42,1.42,0,0,1,0-.21v0a.46.46,0,0,0,0,.09s0,.08,0,.13v0s0,0,0,0V4.59a.88.88,0,0,1,0-.14.89.89,0,0,1,0-.22s0-.05,0-.06L.94,4,1,4,1,3.84l.13-.2,0,0V3.54a.2.2,0,0,0,0-.09s0-.07,0-.1a1.6,1.6,0,0,1,.08-.23.32.32,0,0,0,0-.09.26.26,0,0,0,0-.18V2.71a1.09,1.09,0,0,1,.05-.14.85.85,0,0,1,.13-.22l.14-.17,0,0V2.09a.94.94,0,0,1,0-.16,1.08,1.08,0,0,1,.08-.19l.1-.16a1.21,1.21,0,0,1,.25-.27l.21-.14A1.37,1.37,0,0,1,2.71,1,2.32,2.32,0,0,1,3.09,1h.34A1.34,1.34,0,0,1,3.82,1a.81.81,0,0,1,.27.09,1,1,0,0,1,.2.13l.16.17a2.22,2.22,0,0,1,.16.25l0,.11,0,.14S4.7,2,4.7,2a.15.15,0,0,1,0,.06.17.17,0,0,1,0,.07s0,0,0,0l.11.08A.93.93,0,0,1,5,2.36a1.05,1.05,0,0,1,.15.21l0,.08s0,.05.07.16l0,.21a.35.35,0,0,0,0,.06l0,0,0,0,.07.08a.21.21,0,0,1,0,.13v0h0a.1.1,0,0,1,.06.05.17.17,0,0,1,.06.08l0,.07ZM4.49,7.33a.26.26,0,0,1-.17,0h0l0,0,.06.06,0,0H4.5l0,0v0a.34.34,0,0,0,0-.13ZM4.1,7.7v0h.13v0a.08.08,0,0,0,0-.06h0l-.07,0v0A.13.13,0,0,1,4.1,7.7ZM4,8,4,8l.07,0,0,0a.31.31,0,0,0,0-.09s0,0,0,0l0,0-.11,0v0L4,8H4Zm.86,0h0V8a.39.39,0,0,1,0-.17v0h0s0,.06,0,.09a.29.29,0,0,0,0,.08l0,0Zm0,0,0,0a.25.25,0,0,0-.09.09,0,0,0,0,0,0,0h0v0l0,0A.71.71,0,0,1,4.86,8h0ZM4.77,8h0l0,0s0,0,0,0l0,0,0,0h0V8l0,.05v0h0Zm-.44-.15.06,0,.08,0H4.29v0l0,0h0Zm.16.08h0l0-.06,0,0,0,0Zm.11-.25a.15.15,0,0,0,0,.06.69.69,0,0,0,.07-.13h0l-.06,0h0v.11Zm0,.15h0v0s0,0,0,0h0l0,0ZM4.53,8a.18.18,0,0,1,0,.06h0l0,0h0V8s0,0,0,0Zm0,0v0l0,0h0Zm0,.12a.28.28,0,0,0-.11.05v.05h0a.11.11,0,0,1,.06,0h0a0,0,0,0,0,0,0A0,0,0,0,0,4.61,8ZM4.5,7.83h0l-.12,0h0l0,0h0Zm-.25,0s0,0-.09,0h0s0,0,0,0a.15.15,0,0,1,0,.09h0l0,0h0l.06,0h0S4.26,7.79,4.25,7.78Zm0-.14v.09h.21l-.07,0-.14-.06Zm.07,0,.14.07h0l0,0s0,0,0,0l-.09-.14,0,0h0l0,.06h0Zm.16,0,.06.1h0l0,0a1.64,1.64,0,0,0,0-.2h0l-.07,0h0Zm.08-.19a.15.15,0,0,1,0,.06l0,0,0,0,0,0h0a.38.38,0,0,0,0-.1h0a.22.22,0,0,1-.11,0h0Zm.13.27h0l0,0,0,0,0,0s0,0,0,0l.09,0s0,0,0,0Zm0,.13H4.64a.29.29,0,0,0,.08.08h0l0,0h0s0-.05,0-.08v0Zm0,.36v0h0l-.07,0-.08,0v.08h0l.09-.06.09,0h0Zm-.18-.11a.1.1,0,0,1,0,0s0,0,0,0l0,0h0l0,0,0,0h0a.09.09,0,0,1,.07,0ZM4.4,7.92h0l-.06,0-.11,0h0S4.3,8,4.31,8h0l0,0ZM4.25,8l0,0H4.12L4,8h0a.24.24,0,0,1,.14.1h0v0l0,0,0-.05,0,0Zm-.09-.42.06,0h0l0,0,.07-.06,0,0a1.1,1.1,0,0,0-.12-.11v0l0,.08,0,0,0,0Zm.56-.21a.46.46,0,0,0-.18-.1l0,0s0,0,0,0,0,0,0,0l0,0a.08.08,0,0,0,.05,0l.06,0h.06v0Zm0,.16v.06a.16.16,0,0,0,0,.15h0l0,0,.09,0h0l0,0a.62.62,0,0,1-.09-.12s0,0,0,0ZM5,7.66l0,0a2,2,0,0,0-.15-.2l0,0v.06a.29.29,0,0,0,0,.13l0,.06,0,0ZM5,8a.88.88,0,0,1,0-.15.58.58,0,0,1,0-.1s0,0,0,0h0s0,0,0,.07a.25.25,0,0,0,0,.13l0,.07H5Zm-.2.28v0h0l0,0A.36.36,0,0,1,5,8.11H5l0,0h0s0,0-.07,0a.57.57,0,0,0-.11.11A.27.27,0,0,0,4.77,8.28Zm-.29.16,0,0a.54.54,0,0,1,.22-.1h0l0,0s0,0,0,0H4.63a.37.37,0,0,0-.1.06l-.06,0a.35.35,0,0,0,0,.06S4.46,8.45,4.48,8.44Zm0-.31a.1.1,0,0,1,0,0l0,0L4.34,8a0,0,0,0,0,0,0s0,0-.06.07h0a.31.31,0,0,1,.15,0h0Zm-.29.12h.07l.18,0h0v0s0,0,0,0l-.08,0H4.22l-.06.08Zm-.06,0h0a.28.28,0,0,0,.07-.09l0-.05a.16.16,0,0,0-.08,0A.13.13,0,0,0,4,8H4l-.1.07h0l.08,0,.1,0H4l0,0Zm-.48.05A.6.6,0,0,1,4,8.43l0,0v0l0-.07,0-.06,0,0L4,8.19a.33.33,0,0,0-.14,0h0l0,0a.94.94,0,0,0-.14.12l0,0Zm0-.45-.12.06s-.07,0-.07,0h0a.63.63,0,0,1,.06.18.87.87,0,0,1,0,.1h0v0l.08-.06.13-.1s0,0,0,0a.36.36,0,0,0,0-.11A.32.32,0,0,0,3.67,7.86Zm.05,0a0,0,0,0,0,0,0,.53.53,0,0,1,.09.2h0l0,0,.07,0L4,8H4a.48.48,0,0,0,0-.15s0,0,0,0h0Zm0-.31v0a.49.49,0,0,1,0,.12.64.64,0,0,1,0,.09v0h0l.06,0H4s0,0,0,0a.19.19,0,0,0,0-.08s0,0,0-.06L4,7.55H3.76ZM4,7.43A.24.24,0,0,1,4,7.49v0h.13l0,0,0,0a.31.31,0,0,0,0-.09l0,0-.09,0h0A1.33,1.33,0,0,1,4,7.43Zm0-.2.22.1h.12l.09,0,0,0,0,0a0,0,0,0,1,0,0l0,0-.07,0a.92.92,0,0,0-.29,0L4,7.22ZM5.25,4.55s0,0,0,0h.11l.06,0a.2.2,0,0,0,0-.09.39.39,0,0,0,0-.09h0l0,.06,0,0s0,0,0,0h0a.11.11,0,0,0,0-.05,0,0,0,0,0,0,0l0,0,0,0,0,0h0l0,0,0,0h0l-.07.08h0v0h0v0l0,0,0,0h0l0,0h0a.26.26,0,0,1-.1-.07s0,0,0,0l0,.07,0,0h0l-.08,0,0,0s0,0,0,0l0,0h0l-.05,0h0L5,4.44s0,0,0,0l.05.07h0L5,4.49l0,0h0l.06,0H5l-.06,0s0,0,0,0a.27.27,0,0,0,.19.11h.06A.09.09,0,0,0,5.25,4.55ZM5.16,3.41H5.05L5,3.45h.12l0,0h.09s0,0,0,0h0l.05,0h0s0,0,0,0h0s0,0,0,0,0,.08,0,.09h0a0,0,0,0,1,0,0v0a.54.54,0,0,1,0,.11h0V3.59h0a.42.42,0,0,1,.05.14,0,0,0,0,0,0,0V3.64s0,0,0,0l0,.06,0,.06a.08.08,0,0,1,0,0h0s0,0,0,0a.13.13,0,0,1,0-.06.11.11,0,0,1,0,0v0s0,0,0,.06a.15.15,0,0,1,0,.11s0,.06,0,.07h0a.18.18,0,0,1,0-.06.43.43,0,0,1,0,0V3.71a.26.26,0,0,0-.12-.19l0,0H5.25Zm.07,0h0Zm-.74-.95,0,0,0,0c0,.06.11.12.15.18l.06.1.06.09a.34.34,0,0,1,0,.11,1.05,1.05,0,0,1,.06.21v0h0l0,0,0,0a.54.54,0,0,0,0-.12,1.24,1.24,0,0,0-.1-.2l-.1-.14A1.06,1.06,0,0,0,4.49,2.45Zm0-.51h0s0,.09,0,.12a.93.93,0,0,0,0,.13h0a.28.28,0,0,0,0-.12A.85.85,0,0,0,4.54,1.94Zm-.2,0,0,.13,0,.06v0h0a.42.42,0,0,0,0-.1,1.25,1.25,0,0,0,0-.15.12.12,0,0,0,0,0h0Zm-.12,1-.09-.18A1.79,1.79,0,0,1,4,2.55s0-.06,0-.08H4a.56.56,0,0,1,0,.07s0,.07.05.18l0,.14a.43.43,0,0,1,0,.12l0,.12a.17.17,0,0,1,0,.07l0,0,.05.12h0l0,.06a.16.16,0,0,1,0,0,.08.08,0,0,1,0,0s0,0,0-.06a.32.32,0,0,1,0-.09.34.34,0,0,0,0-.08.65.65,0,0,1,0-.11V2.89a.63.63,0,0,0,0-.16l0-.13,0-.05h0a.23.23,0,0,1,0,.12c0,.06,0,.07,0,.15a.84.84,0,0,0,0,.12S4.23,3,4.22,2.92ZM3.27,1.39a.73.73,0,0,1,.19.18l0,.05A.92.92,0,0,1,3.69,2a.54.54,0,0,1,0,.19v0s0,0,0,0,0-.06,0-.09V2a1.15,1.15,0,0,0-.07-.24l-.1-.15s-.07-.08-.08-.07h0a.48.48,0,0,1,.09.13,1,1,0,0,0,0,.11l0,0L3.55,1.6a.69.69,0,0,0-.25-.2Zm-.2,0a.88.88,0,0,0-.26-.06h0l.22.07a.46.46,0,0,1,.14.07l.09.09s0,0,0,0A.47.47,0,0,0,3.07,1.35Zm.73.58,0,.05h0a.34.34,0,0,0,0-.13.86.86,0,0,0,0-.15.46.46,0,0,0-.09-.15.79.79,0,0,0-.13-.12L3.4,1.35h0a.43.43,0,0,1,.16.14,1.18,1.18,0,0,1,.13.18.77.77,0,0,1,.1.25ZM3.32,1.2h0l.09.05.11.08,0,0a.64.64,0,0,1,.16.17.45.45,0,0,1,.06.12.81.81,0,0,1,.09.25s0,.05,0,.06,0,0,0-.07a.34.34,0,0,0,0-.11.4.4,0,0,0,0-.13L3.8,1.55v0l0,.06a.44.44,0,0,1,.1.15A1.22,1.22,0,0,1,4,1.91.15.15,0,0,1,4,2V2S4,2,4,1.93a1.11,1.11,0,0,0,0-.17.84.84,0,0,0-.17-.28,1,1,0,0,0-.2-.13l0,0-.09,0-.15-.07Zm.61,1.09s0,0,0-.07A.37.37,0,0,0,4,2.1V2S4,2,4,2A.52.52,0,0,1,4,2.2v.09ZM3.59,1.14l.1.08.16.16,0,.05h0a.7.7,0,0,0-.18-.14l-.09,0h0a.89.89,0,0,1,.25.24l0,0A.69.69,0,0,1,4,1.71s0,0,0,0l0-.06a.21.21,0,0,0,0-.06.77.77,0,0,0-.1-.18,1,1,0,0,0-.14-.15l-.17-.09S3.56,1.12,3.59,1.14Zm.46,1.1H4l0,0a.56.56,0,0,0,0-.27V1.85h0V2a1.49,1.49,0,0,1,0,.22l0,0ZM3.92,5.75h0L4,5.68l.16-.15.11-.11h0l0,0a.79.79,0,0,0-.08.31.8.8,0,0,1,0,.11h0l0-.07a.53.53,0,0,1,.06-.19l0-.06a1.89,1.89,0,0,1,.09-.21l.07-.13a.22.22,0,0,0,0-.11,1.25,1.25,0,0,0,.06-.29V4.62a.77.77,0,0,0,0-.1h0v.25a.46.46,0,0,0,0,.1l0,0a1.13,1.13,0,0,1-.07.18l0,0,0,0a1.5,1.5,0,0,1-.17.23l0,0v0l0,0,0,0v0l0-.11.06-.18a.68.68,0,0,0,0-.17v0s0,0,0-.07a.41.41,0,0,0,0-.12c0-.07,0-.09,0-.12a1.19,1.19,0,0,0,0-.22l0,0h0a.2.2,0,0,1,0,.09,1.08,1.08,0,0,1,0,.36,1.85,1.85,0,0,1,0,.23l-.13.34-.06.13a3,3,0,0,1-.23.31h0Zm.81-.19,0-.08a.54.54,0,0,1,.06-.11l0-.07,0,0,0-.1a.87.87,0,0,0,0-.36.1.1,0,0,0,0,0h0v0s0,0,0,0h0s0,.11,0,.16v.23a.15.15,0,0,0,0,.06.08.08,0,0,0,0,0l-.06.16-.09.19h0ZM4.8,4.41h.07l0,0H4.76s0,0,0,0h-.1l0,0h0s0,0,0,0h0a0,0,0,0,1,0,0v0s0,0,0,0,0,0,0,0h0s0,0,0,0h0v0a.08.08,0,0,1,0,0v0a.06.06,0,0,0,0,0v0h0a.15.15,0,0,1,0-.07v0a0,0,0,0,0,0,0s0,0,0,.06h0a.26.26,0,0,1,0-.05.17.17,0,0,1,0-.07v0a.1.1,0,0,0,0,.07s0,0,0,0a.2.2,0,0,1,0-.11v0h0s0,.05,0,.06h0v0a.22.22,0,0,1,0-.08h0s0,0,0,0h0a.16.16,0,0,0,0,.06v0a.94.94,0,0,0,0,.09v0h0l.06.06,0,0,0,0,.06,0h.06l.08,0ZM5,4.34s.07,0,.09,0l.07,0a.25.25,0,0,0,0-.08l0,0h0l0,0-.06,0h0l0-.06,0,0h0L5,4.25H5l0,0,0,0h0L5,4.24l0,0H5l0,0s.07-.05,0,0a.33.33,0,0,1-.13,0s0,0,0,0h0l0,0H5l-.09,0h0v0h0v0l0,0h0s0,0,0,0V4.06h0l0,.05v0s0,0,0,0A.11.11,0,0,1,4.8,4s0,0,0,0a.19.19,0,0,0,0,.06s0,0,0,.07v0l0,0v0a.1.1,0,0,0,0,0,.25.25,0,0,0,.12.08H5ZM5.43,4V3.94a.2.2,0,0,0,0-.06l-.06,0h0a0,0,0,0,0,0,0l0,0s0,0,0,0l0,0h0a0,0,0,0,0,0,0c0,.06,0,.06,0,.07l0,0h0a0,0,0,0,0,0,0l0,.06h0l0,0s0,0,0,0h0l0,0s0,0,0,0h0s0,0,0,0h0s0,0,0,0H5.31s0,0,0,0h.06s0,0,0,0H5.27s-.07,0-.07,0h0s-.08,0-.08,0h0l0,0,.08,0,.06,0a.13.13,0,0,0,0-.07.17.17,0,0,0,0-.12A.28.28,0,0,1,5.43,4ZM5.25,4a.09.09,0,0,1-.06,0H5.12s-.07,0-.07,0V4S5,4,5,4,5,4,5,4V4a.16.16,0,0,0,.08.08h.09l.06,0a.13.13,0,0,0,0-.11.06.06,0,0,0,0,0l0,0h0S5.28,4,5.25,4ZM4.64,4l0,0h0l0,0h.05s0,0,0,0l-.07-.06s0,0,0,0,0,0,0,0h0l0,0h.07l0,0h0s0,0,0,0h0l-.09,0h0l.08,0h0l0,0,0,0,0,0h-.1l-.07,0a.2.2,0,0,0-.06.07v0a.28.28,0,0,0,0,.09l0,.07.13.11h0v0s0,0,0,0,0,0,0,0V4Zm0-.33s0,0,0,0l0,0s0,0,0,.05h0l0,0,0,0h.08l0,0h0a.08.08,0,0,1,.06,0h0s0,0,0,0h0s.08,0,.11,0h0l-.05,0h0l.07,0,0,0H5s0,0,0,0l0,0s0,0,.06,0h.07l0,0a.13.13,0,0,0-.09-.06H4.88a.21.21,0,0,0-.15,0l0,0c-.05,0-.06,0-.07.07a.1.1,0,0,0,0,.07Zm.49.19H5s0,0,0,0l0,0h0a.06.06,0,0,0,.06,0s0,0,0,0a0,0,0,0,0,0-.05l0,0s0,0,0,0,0,0,0,0A.05.05,0,0,1,5.09,3.89ZM4.92,4a.21.21,0,0,1,0-.06v0a0,0,0,0,0,0,0s0,0,0,0a.11.11,0,0,1,0-.08.09.09,0,0,1,0,0v0H4.88s-.06.06-.06.07a.07.07,0,0,0,0,0,.16.16,0,0,0,0,.1l0,.06V4A.57.57,0,0,0,5,4.08H5s0,0,0,0S5,4,4.92,4Zm.14-.27H5l0,0v0a0,0,0,0,0,0,0H5s0,0,0,0a.12.12,0,0,1,.1,0,.07.07,0,0,1,.05,0,0,0,0,0,1,0,0v0s0,0,0,0h0l0,0h0a.12.12,0,0,0,0-.08s0-.08-.05-.09h0s0,0,0,0H5.06ZM4.64,5V5a.69.69,0,0,1,0,.13l0,.08a.85.85,0,0,0-.09.15.76.76,0,0,0-.06.16,1.06,1.06,0,0,1,0,.14.1.1,0,0,1,0,0l0,0,0-.07a.39.39,0,0,0,0-.06l0-.06a.51.51,0,0,0,.05-.12l0-.09a1.36,1.36,0,0,0,.1-.21ZM4.3,4l0,0,0,0h0s0,0,0,0,0,0,0,0h0s0,0,0,0,0,0,0,0v0h0l0,0h0l0-.05h0a0,0,0,0,0,0,0V3.84l0,0h0a.25.25,0,0,1,0-.08s0,0,0,0h0s0,0,0,0v0a.05.05,0,0,0,0,0s0,0,0,.06V4Zm.15-.78a0,0,0,0,0,0,0l0,0h0v0a.68.68,0,0,0-.06-.21l0-.09a.1.1,0,0,1,0-.05v0a.49.49,0,0,1,0,.14s0,.06,0,.08a.46.46,0,0,1,0,.1s0,0,0,0,0-.08,0-.12a.33.33,0,0,0,0-.06l0-.05a.22.22,0,0,1,0-.1.58.58,0,0,1,0-.14v.19a.15.15,0,0,1,0,.06.51.51,0,0,0,.06.15l.06.11Zm0,0a1.12,1.12,0,0,1,0-.13h0l0,.1a.28.28,0,0,1,0,.06s0,0,0,0h0Zm-.2-.75a1.11,1.11,0,0,1,.19.18l0,.06a.53.53,0,0,0,.06.1l0,.06a1,1,0,0,1,.08.28h0l0,0h.05v0a.55.55,0,0,0-.08-.18s0,0,0,0a.58.58,0,0,0-.13-.21.59.59,0,0,0-.18-.17.34.34,0,0,0-.09-.06Zm.12,0h0l0,0a.6.6,0,0,1,.17.2l.05.07a2,2,0,0,1,.16.33h0v0h0s0-.09,0-.13a1.21,1.21,0,0,0-.09-.2l-.07-.11-.16-.16Zm0-.28v0a1.14,1.14,0,0,0,0-.23v0c0,.05,0,.11,0,.18l0,.08S4.35,2.19,4.36,2.17Zm.5,1-.07,0a.19.19,0,0,0-.16,0l-.06,0-.11.07s0,0,0,.07a.63.63,0,0,1,0,.14c0,.07,0,.09,0,.15s0,0,0,0a.16.16,0,0,0,0,.06l0,0h0s0,0,0,0v0a.22.22,0,0,1,0-.13V3.57h0v.07s0,.09,0,.09h0s0-.06,0-.08a.07.07,0,0,0,0,0,.15.15,0,0,1,0-.06v0s0,.08,0,.08h0a.45.45,0,0,1,0-.13v0a.17.17,0,0,0,0,.1s0,0,0,0v0a.59.59,0,0,1,0-.11v0h0l0,0h0s0,0,0,0a.11.11,0,0,0,0-.06s0,0,0,0h0s0,0,0,0l.16,0h0l0,0h.16s0,0,0,0h0Zm0,.06H4.82s0,0,0,0l0,0a0,0,0,0,1,0,0,.09.09,0,0,0,0,0v0s0,.06,0,.06h0l0-.05,0,0h0l0,.07,0,0,.08-.07v0l0,0v0h0l0,0a.23.23,0,0,1,0-.05v0a.12.12,0,0,1,0,.05h0l0,0,0,0V3.4h0l0,0v0H5v0a.13.13,0,0,0,0,.05v0s0-.05,0-.06H5v0s0,0,0,0H5l0-.06,0,0v0s0,0,0-.05h0s0,0,.06.06h0a.08.08,0,0,0,0,0s0,0,0,0l0,0,0,0h0v0l0,0h0s0,0,0-.05a.21.21,0,0,0-.08-.06H4.9ZM5.05,6V6a.61.61,0,0,0,0,.11h0v0s0,0,0,0a.11.11,0,0,0,0-.05V6a.87.87,0,0,1,0-.28v0l0-.15h0a0,0,0,0,0,0,0,.24.24,0,0,0,0,.07.49.49,0,0,0,0,.16A.45.45,0,0,0,5.05,6ZM5,5.79a1.54,1.54,0,0,0,.12-.33,1,1,0,0,1,.05-.12.24.24,0,0,1,0-.07v0s0,0,0-.06v0a.92.92,0,0,0,0-.24,1.21,1.21,0,0,0,0-.14v0a.82.82,0,0,1,0,.18.71.71,0,0,1,0,.22l-.07.18a.15.15,0,0,1,0,.08v0a2.09,2.09,0,0,0,0-.24A.92.92,0,0,0,5,5s0,0,0-.07l0-.08H5A.75.75,0,0,1,5,5s0,0,0,.06a.37.37,0,0,1,0,.13s0,.06,0,.07a.36.36,0,0,1,0,.1.56.56,0,0,0,0,.07s0,.06,0,.07V5.7h0A1.24,1.24,0,0,0,5,5.51a1.13,1.13,0,0,0,0-.2l0-.09a1.13,1.13,0,0,1,0,.14,1.64,1.64,0,0,1,0,.35.93.93,0,0,1,0,.13h0v0S5,5.82,5,5.79Zm-.1.32a.71.71,0,0,0,.1.14l-.05-.11A.58.58,0,0,1,4.87,6a.92.92,0,0,1,0-.29s0-.06,0-.09,0,0,0-.07a.51.51,0,0,0-.06.3A.52.52,0,0,0,4.88,6.11Zm0,.46a.82.82,0,0,1-.07-.2l0-.12,0-.11a.88.88,0,0,1,0-.27v0h0v0a1,1,0,0,0,0,.24.89.89,0,0,0,.13.3.23.23,0,0,1,0,.09l0,0Zm.18.75a.51.51,0,0,1,0,.1h0l0,.07v0A.78.78,0,0,0,5,7.15l-.18-.22a1.58,1.58,0,0,1-.2-.26.76.76,0,0,1-.08-.15l0,.05.09.08.12.11,0,0,.08.09L5,7H5V7l0,0a.87.87,0,0,0-.1-.14l-.11-.15a1.14,1.14,0,0,1-.16-.29l0-.08c0-.09,0-.21,0-.29V6a1.42,1.42,0,0,0,.07.22l0,0,0,.11,0-.1A1.67,1.67,0,0,1,4.58,6a.25.25,0,0,1,0-.1,1.64,1.64,0,0,1,0-.23,1.14,1.14,0,0,1,.07-.19,1,1,0,0,0,0-.16s0-.08,0-.11v0a.51.51,0,0,0,0-.18s0-.15,0-.15v.23a1,1,0,0,1,0,.18s-.06.14-.08.19a2.16,2.16,0,0,0-.08.23.43.43,0,0,1,0,0s0,.11,0,.19V6a.24.24,0,0,1,0,.09s0-.09,0-.16a.43.43,0,0,1,0-.16V5.72c0-.06,0-.08,0-.13l0-.13h0s0,0,0,.07l0,.08a.42.42,0,0,0,0,.15.71.71,0,0,0,0,.15,1.56,1.56,0,0,0,0,.27.83.83,0,0,0,.07.18,1.34,1.34,0,0,0,.11.21h0l0,0,0,0c-.07-.08-.1-.11-.11-.15a1.92,1.92,0,0,1-.11-.27L4.3,6a.86.86,0,0,1,0-.17V5.74a.87.87,0,0,0,0,.18.7.7,0,0,0,0,.16.82.82,0,0,0,.06.16,2.13,2.13,0,0,0,.23.45c0,.08.1.14.13.18L4.78,7a1.49,1.49,0,0,1,.13.13A1.32,1.32,0,0,1,5.06,7.32Zm-.93-.8a.72.72,0,0,0,.12.21.63.63,0,0,0,.17.14L4.61,7A.48.48,0,0,1,4.77,7a.76.76,0,0,1,.09.09s0,0,0,0L4.79,7a.77.77,0,0,0-.18-.1l-.17-.08a.69.69,0,0,1-.14-.12l-.06-.05a.62.62,0,0,1-.11-.17S4.12,6.49,4.13,6.52Zm0-.11.1.16,0,.06a.69.69,0,0,0,.17.17h0l0,0h0l0,0-.06-.07,0,0a.69.69,0,0,1-.07-.13,1.18,1.18,0,0,1-.1-.25l0-.07a.71.71,0,0,1,0-.21c0-.07,0-.07,0,0a.71.71,0,0,0,0,.27,1.39,1.39,0,0,0,.06.13l0,0,0-.06a.78.78,0,0,1-.12-.38.79.79,0,0,1,0-.22s0-.12,0-.12h0a0,0,0,0,0,0,0l0,.09c0,.07,0,.12,0,.17v.07a.41.41,0,0,0,0,.16A.89.89,0,0,0,4.15,6.41Zm-.48.71L3.81,7l.12-.08a.6.6,0,0,0,.14-.21.28.28,0,0,0,0-.09h0A.35.35,0,0,1,4,6.79a2.05,2.05,0,0,1-.26.26l-.06.06h0l0,0Zm-.36.41,0,0,0-.07.1-.17.15-.19.18-.21,0-.06.1-.15A.67.67,0,0,0,4,6.45a.57.57,0,0,0,0-.16V6.14H4a.82.82,0,0,1,0,.1,1.8,1.8,0,0,1,0,.19,1.11,1.11,0,0,1-.07.16l0,0,0,.05,0,.06-.07.1a2.39,2.39,0,0,0-.21.26,1.54,1.54,0,0,0-.14.22l-.06.18h0v0Zm-.09.06a.7.7,0,0,1,0-.14.3.3,0,0,1,0-.1l0-.09c.05-.06.08-.11.21-.26a1.58,1.58,0,0,0,.3-.41A1.46,1.46,0,0,0,4,6.25a.66.66,0,0,0,0-.14c0-.05,0-.24,0-.23v0S4,6,4,6V6s0,.09,0,.15a.74.74,0,0,1,0,.14,1,1,0,0,1-.11.24l0,.09a1.53,1.53,0,0,1-.14.21l-.07.09a2.41,2.41,0,0,0-.21.28l0,0,0-.11a1.43,1.43,0,0,1,.09-.19,1.12,1.12,0,0,1,.1-.16.78.78,0,0,0,.1-.15A.73.73,0,0,1,3.7,6.5l0,0-.1.1,0,0a.54.54,0,0,0-.09.12,2,2,0,0,0-.16.28,1.43,1.43,0,0,0-.07.28v.06a.35.35,0,0,0,0,.12.53.53,0,0,1,0,.17h0a.11.11,0,0,0,0,0Zm-.06-.65,0,.08,0,.06,0,.06L3,7.37a.19.19,0,0,1,0,.07v0a.62.62,0,0,1,0,.1h0s0-.06.05-.09,0-.08,0-.13a3,3,0,0,1,.24-.52l.12-.14a3.27,3.27,0,0,0,.28-.36.69.69,0,0,0,.1-.18.13.13,0,0,0,0-.08.23.23,0,0,0,0-.07s0,0,0,0a.72.72,0,0,1-.21.32l-.1.12-.07.07s0,0,0,0v0a1.62,1.62,0,0,1,.1-.18l.12-.24s0,0,0,0l-.05.06,0,0,0,0,0,.07,0,0a.64.64,0,0,0-.08.14.35.35,0,0,1-.05.08l0,.1a.08.08,0,0,1,0,0s0,0,0,0l0,0A.63.63,0,0,1,3.16,6.94Zm.46-1.07a2,2,0,0,0-.23.34l-.09.2-.09.21v0l.09-.19a2.61,2.61,0,0,1,.13-.28A2,2,0,0,1,3.6,6a1.27,1.27,0,0,1,.15-.16l.17-.21a1.25,1.25,0,0,0,.17-.26l0,0a.86.86,0,0,0,.15-.4,1.34,1.34,0,0,0,0-.19V4.62h0s0,.11,0,.18a.79.79,0,0,1,0,.13l-.07.17V4.94a.61.61,0,0,1-.06.25l0,.06A1.29,1.29,0,0,1,4,5.37l-.1.14c0,.08-.06.09-.06.08l0,0a1.27,1.27,0,0,0,0-.14,1.35,1.35,0,0,0,0-.18s0,0,0,0a.59.59,0,0,1,0,.19.42.42,0,0,1-.06.15,1.28,1.28,0,0,1-.11.2ZM3,5.46H3l0,0H3l0,0v0L3,5.43h0Zm0-.15h0s0,0,0,0h0l0,0h0s0,0,0,0S2.94,5.31,2.93,5.31Zm-.31.17h0l.13,0h0l0,0a.13.13,0,0,0-.12,0S2.6,5.48,2.62,5.48Zm-.13,0h0a.44.44,0,0,1,.12-.06h.13a.34.34,0,0,1,.11.07l0,0h0l-.07-.08-.1,0h-.1a.32.32,0,0,0-.18.1h0Zm.33-.15s0-.07,0-.07h0s0,0,0,0h0l.06,0h0Zm-.14-.05,0,0h0v0l0,0H2.7Zm-.11,0,0,0v0a.15.15,0,0,0,0,.06h0l0,0S2.58,5.32,2.57,5.3Zm-.15.06a.06.06,0,0,0,0,0h0l0,0h0l0,0h0l-.05,0Zm0,0s0,0,0,0,0,0,0,0l.06,0h0ZM2.34,6.94s0-.06.05-.1a.62.62,0,0,0,0-.1v0h0c0,.07,0,.25,0,.3a1.46,1.46,0,0,1,0,.17l0,0s0,0,0,.06h0l0,0a.58.58,0,0,0,0-.09s.05-.13.07-.18a.79.79,0,0,0,0-.17.53.53,0,0,1,0-.13V6.59c0-.14,0-.24,0-.28s0-.16,0-.17v0a.81.81,0,0,1,0,.14,1.74,1.74,0,0,1,.1.23.59.59,0,0,0,0,.08l0,.14v0a.68.68,0,0,0,0-.19,1.21,1.21,0,0,0-.07-.2,2.07,2.07,0,0,1-.12-.3l0,0s0-.19,0-.27,0-.08,0-.08a.21.21,0,0,0,0,.06,2.93,2.93,0,0,1,0,.36.78.78,0,0,0,0,.09v.08a.25.25,0,0,0,0,.09s0,.16,0,.18a.13.13,0,0,1,0,.06s0,.07,0,.1a1.13,1.13,0,0,1,0,.14.28.28,0,0,1-.05.11Zm0-1.58h0s0-.06,0-.08h0s0,0,0,0l0,0,0,0h0a.13.13,0,0,1,0-.06v0s0,0,0,0,0,0,0,0,0,0,0,0l0,0h0v0l0,0s0,0,0,0h0l0,.06,0,0h0s0,0,0,0l0,0v0l0,0a.15.15,0,0,0,0,.06.1.1,0,0,0,0,0v0h0l0,0,0,0H3v.13h.09s0,0,0,0h0s0,0,0,0,0,0,0,0H3l.09,0,0,0,.08,0,.25-.14.09-.06A1.94,1.94,0,0,0,3.81,5,.78.78,0,0,0,4,4.78a2.24,2.24,0,0,0,.11-.34,1,1,0,0,0,0-.19.35.35,0,0,1,0-.07v0h0v0s0,.07,0,.12a.49.49,0,0,0,0,.07c0,.09,0,.11-.05.16a1,1,0,0,1-.09.2s-.08.13-.1.15,0,0,0,0a.84.84,0,0,0,.08-.21,2.33,2.33,0,0,0,.06-.33.37.37,0,0,0,0-.08l0,.05-.09.19a.39.39,0,0,1,0,.09.1.1,0,0,1,0,0h0a.64.64,0,0,0,0-.09.37.37,0,0,1,0-.09s0-.07,0-.09a.18.18,0,0,0,0-.06h0l-.05,0,0,0-.1,0a.32.32,0,0,0-.08.09l0,0a.89.89,0,0,1,.08-.13l.1-.12.09,0,.11-.06L4.05,4a1.6,1.6,0,0,0,.11-.19l0-.19a.66.66,0,0,0,0-.13V3.41a.77.77,0,0,0,0-.15.68.68,0,0,0,0-.13.63.63,0,0,0,0-.09l0-.09,0-.09,0-.07v0s0,.15.07.28v.06s0,0,0,.06a.3.3,0,0,1,0,.12.57.57,0,0,1,0,.22s0,0,0,0a.33.33,0,0,0,0-.1.43.43,0,0,0,0-.19c0-.1,0-.14-.09-.29s0-.09,0-.13a.06.06,0,0,0,0,0c0-.06,0-.2,0-.27a.28.28,0,0,0,0-.11v0a.31.31,0,0,0,0-.07v0a.67.67,0,0,1,0,.2.45.45,0,0,1,0,.11.1.1,0,0,1,0,0v0a2.54,2.54,0,0,0,0-.26.56.56,0,0,0,0-.15l0,0v0a0,0,0,0,0,0,0v.21h0v0a.17.17,0,0,0,0-.05l0-.1,0,0s0,0,0,0v0h0l0,.11s0,.14,0,.16v0s0,0,0,0a.75.75,0,0,0-.07-.12v0l0,0a0,0,0,0,0,0,0s0,.05,0,.07v0h0a.26.26,0,0,0-.05-.12.09.09,0,0,0,0,0A.91.91,0,0,0,3.44,2a1.5,1.5,0,0,0-.17-.21l0,0a1.85,1.85,0,0,1,.17.29l0,.06a.25.25,0,0,1,0,.11v0s0,0,0,0h0s0,0-.07,0l-.06.08v0s0,0,0,0H3.27l-.12,0a.29.29,0,0,0-.08.07s0,0,0,0H3a.67.67,0,0,0-.2,0,.23.23,0,0,0-.11,0H2.64a.35.35,0,0,0-.18-.05H2.34l-.06,0-.11,0h0a0,0,0,0,0,0,0,1.12,1.12,0,0,1,0,.2V3h0a.05.05,0,0,1,.05,0s0,0,0,0v0h0s0,0,0,0h0a.09.09,0,0,1,.06.07h0s0,0,0,0a.18.18,0,0,1,.1.07s0,0,0,0v0h0a.08.08,0,0,1,.07.05.06.06,0,0,1,0,0,.09.09,0,0,1,0,.07h0a.11.11,0,0,1,0,.11.08.08,0,0,1-.07,0h0a.11.11,0,0,1,0,0,.07.07,0,0,1,0,.06H2.4a.07.07,0,0,1,0,.06H2.27a.07.07,0,0,1-.07,0,.06.06,0,0,1-.05,0h0a0,0,0,0,1,0,0H2a.05.05,0,0,1-.05,0l-.05,0h0v0a.3.3,0,0,1,0,.12v0h0l0,0A2.11,2.11,0,0,1,2,4.3a.88.88,0,0,1,0,.15s0,0,0,0h0l0-.06A.41.41,0,0,0,2,4.29s0,0,0,0,0,.05,0,.09,0,0,0,.06v0a.11.11,0,0,0,0-.05s0-.06,0-.07,0-.06,0-.06v0s0,.06,0,.09a.5.5,0,0,0,0,.15s0,0,0,0h0v0s0-.08,0-.15v0a.43.43,0,0,1,0,0v.07a.36.36,0,0,0,0,.14.29.29,0,0,0,0,.13l0,.07a1.42,1.42,0,0,0,.17.23l.08.1.06.07,0,.05,0,0h0ZM3,2.18v0l0,0H3l0,0Zm0,.08,0,0L3,2.26l0,0a0,0,0,0,0,0,0H3v0H3a.21.21,0,0,1,.1-.06h0ZM3,2.21H3a.09.09,0,0,0,0,0l0,0h0l.06,0Zm.09,0h0l0,0v0h0v0l0,0,0,0Zm0,.07s-.06,0-.08,0A.19.19,0,0,0,3,2.41v0H3v0H3a.24.24,0,0,1,.15-.08h0Zm0,.14A.22.22,0,0,0,3,2.52H3l0,.05,0,.06h0l.07,0a.15.15,0,0,1,.08,0l.09,0h0l-.05,0,0-.05h0ZM3,2.58s0,0,0,0h0a.24.24,0,0,0-.12,0,.28.28,0,0,0-.12.05v.09h0l.13,0H3A.32.32,0,0,0,3,2.58Zm-.28,0,.13,0H3s0-.09,0-.09,0,0,0,0a.25.25,0,0,0-.12,0l0,0,0,0a.35.35,0,0,0,0,.06S2.7,2.55,2.72,2.54Zm.09-.17h.11a0,0,0,0,1,0,0l0,0-.08,0h0ZM3.06,2a.37.37,0,0,1,.07.12l0,.1h0v0l0,0,0,0s0,0,0,0l0,0h0a.76.76,0,0,0,0-.11A.69.69,0,0,0,3.06,2a.58.58,0,0,0-.13-.11l-.1,0h0A.64.64,0,0,1,3.06,2ZM3.12,2l.07.09a.33.33,0,0,1,.06.12l0,0s0,0,0,.06v0h0l0,0v0s0,0,0,.05h0l.05.06v0a.33.33,0,0,1,.08-.11l.06,0h0a.42.42,0,0,0,0-.1h0v0l0,0h0v0h0A.49.49,0,0,0,3.32,2a.07.07,0,0,0,0,0l0,0a.61.61,0,0,1,0,.11.55.55,0,0,1,.05.21v0s0,0,0,0,0-.08,0-.09h0l0,0a.2.2,0,0,1,0,.07s0,0,0,0a.7.7,0,0,0-.1-.19A.2.2,0,0,0,3.17,2S3.1,1.94,3.1,2Zm-.51.55s.05,0,.05,0v0h0Zm-.06,0H2.47l-.05,0a.33.33,0,0,1,0,.06h.14l.09,0h0V2.57h-.1Zm-.18.06-.05,0h0ZM1.93,3.82s0,0,0,0a0,0,0,0,0,0,0H1.92s0,0,0,0ZM2,3.61l.07,0H2.2l.13,0h0a.36.36,0,0,1-.23,0H2s0,0,0,0Zm0,.17,0,0h0a0,0,0,0,0,0,0s0,0,0,0H2Zm.13,0,0,0a0,0,0,0,0,.06,0H2.16Zm.32-.13h0l0,0,0,0s0,0,0,0a0,0,0,0,0,.06,0Zm0-.38s0,0,0,0a.08.08,0,0,0-.06,0h0s0,0,0,0l0,0,0,0Zm-.06.29h0s0,0-.06,0h0a.09.09,0,0,1,0,0s0,0,0,0h0Zm-.06.17h0l0,0h0s0,0,0,0h0s0,0,0,0Zm-.17-.18h0a.07.07,0,0,1,0,0s0,0,0,0a.13.13,0,0,0,0,.07h0a0,0,0,0,0,0,0s0,0,0,0Zm0-.07s0,0,0,0v0h0ZM2,3.49s0,0,0,0l.09,0h.05l0,0s0,0,0,0a.13.13,0,0,1,0-.07v0H2s0,0,0,0A.06.06,0,0,0,2,3.49Zm0-.1a.48.48,0,0,1,.17,0l.16,0,.09.06h0a.25.25,0,0,0-.12-.1l-.14,0a.36.36,0,0,0-.14,0L2,3.39H2Zm.36-.24h0a.09.09,0,0,0-.07-.06s0,0,0,0h0l0,0ZM2.1,3.07h.09l0,0a.09.09,0,0,0-.05,0h0v.06Zm.45.4a0,0,0,0,0,0,0,.08.08,0,0,1,0,0,.43.43,0,0,1,0,0h0v0h0l0,0A.09.09,0,0,0,2.55,3.47Zm0-.09a.06.06,0,0,0,0-.07l0,0a0,0,0,0,0,0,0,.07.07,0,0,0,0,.05v0Zm-1,1.94c0-.14,0-.15,0-.1s0,.16,0,.2v.3s0,0,0,0a.34.34,0,0,1,0-.08.66.66,0,0,1,0-.15s0-.06,0-.11a.53.53,0,0,1,0-.12c0-.13,0-.3,0-.34V4.85l0-.1s0-.1.05-.14l0,0h0l0,0-.06.11a.35.35,0,0,0,0,.11v0a1.28,1.28,0,0,0-.05.27,1.14,1.14,0,0,0,0,.37.58.58,0,0,0,0,.18v.08l0,.06,0,.12c0,.06.09.22.12.3a.71.71,0,0,1,0,.17,2.64,2.64,0,0,1,.05.61.31.31,0,0,1,0,.1l0,.2v0h0v0c0-.07.06-.23.09-.31a2.06,2.06,0,0,0,.11-.48V6.39A1.67,1.67,0,0,0,1.85,6s0,0,0,0l0,.06h0a1,1,0,0,1,0-.11,1.29,1.29,0,0,1-.07-.33,1.44,1.44,0,0,1,0-.18V5.3a.1.1,0,0,0,0,0,1.1,1.1,0,0,0,0,.11,1,1,0,0,0,0,.29.22.22,0,0,1,0,.08s0,.06,0,.08v0s0,0,0,0a.41.41,0,0,1-.05-.09l0-.08s0,0,0,0a2,2,0,0,1,.08.22l0,.08,0,.07a2.19,2.19,0,0,1,.07.66s0,.08,0,.14,0,.06,0,0a.35.35,0,0,1,0-.06V6.64a.57.57,0,0,0,0-.12s0-.07,0-.12a.6.6,0,0,1,0-.16c0-.06,0-.11,0-.2l0-.15c0-.07,0-.09,0,0s0,.07,0,.21a.57.57,0,0,0,0,.14l0,.11,0,0a.38.38,0,0,0,0-.1c0-.07,0-.09-.05-.17a2.07,2.07,0,0,1,0-.3A2.33,2.33,0,0,1,1.6,5.32Zm0-.87a.46.46,0,0,0,.05-.1,2.33,2.33,0,0,0,.09-.29.5.5,0,0,0,0-.16s0,0,0,0a.11.11,0,0,1,0-.05v0a.45.45,0,0,0,0,.08.43.43,0,0,0,0,.05.56.56,0,0,0,0,.07.22.22,0,0,1,0,.1v.06l0,.08s0,0,0,.06l0,.08,0,.08,0,0h0S1.64,4.48,1.65,4.45Zm.43,2.81A1.71,1.71,0,0,1,2.22,7s0-.07.06-.1a.45.45,0,0,0,0-.08V6.74a.1.1,0,0,0,0,0A.82.82,0,0,1,2.2,7l-.13.28h0a.1.1,0,0,0,0,0ZM2,7.41v0s0-.06,0-.1A.9.9,0,0,1,2.09,7a.11.11,0,0,1,0-.06s0-.1,0-.12,0,0,0,0l0-.14a.74.74,0,0,0,0-.22,1.09,1.09,0,0,0,0-.17.72.72,0,0,0,0-.28l0-.08h0s0,0,0,0a2.2,2.2,0,0,1,0,.3,1.56,1.56,0,0,1,0,.25s0,.1,0,.11,0,0,0-.07,0-.09,0-.13a1.29,1.29,0,0,0,0-.35,1.05,1.05,0,0,0,0-.13c0-.05,0-.1,0-.14a.58.58,0,0,1,0-.14.34.34,0,0,1,0-.1H2A.54.54,0,0,0,2,5.7a.31.31,0,0,0,0,.09v.06a1.67,1.67,0,0,0,0,.24.41.41,0,0,0,0,.09v.07a.76.76,0,0,1,0,.15,1,1,0,0,1,0,.17c0,.08,0,.15-.06.27a.08.08,0,0,0,0,0v0a.06.06,0,0,0,0,0L2,7s0,.06,0,.09a.17.17,0,0,0,0,.08A.22.22,0,0,1,2,7.3v.11Zm0-.52a1.48,1.48,0,0,0,.07-.31,2.72,2.72,0,0,0,0-.28A1,1,0,0,0,2,6a.62.62,0,0,0-.07-.16h0L2,6c0,.06,0,.1,0,.2v.06c0,.12,0,.28,0,.37A1.57,1.57,0,0,1,2,6.9a1.58,1.58,0,0,1-.11.33h0l0,.12,0-.06,0-.09A1.86,1.86,0,0,0,2,6.89Zm-.13.94s0,0,0,0a.59.59,0,0,1,.05-.22s0-.07,0-.06l0,.07a.79.79,0,0,0,0,.13Zm-.07.22,0,0h0s0,0,0,0h0v0l0-.06a.45.45,0,0,1,0-.26v0l0,.07a.28.28,0,0,0,0,.09A.37.37,0,0,0,1.8,8.05Zm-.12-.26.12-.16a.61.61,0,0,0,.09-.12.74.74,0,0,0,.05-.19s0-.05,0-.06v0l0,0a.64.64,0,0,1-.1.22.35.35,0,0,1-.05.08l-.13.23h0v0Zm-.09-.06s0,0,0,0h0v0a.54.54,0,0,1,0-.08,1.07,1.07,0,0,1,.06-.36l0,0v0l0,.08a1,1,0,0,0-.06.21A1.23,1.23,0,0,0,1.59,7.73Zm-.06-.28h0l0,0s0,0,0,0l0-.06,0,0a.42.42,0,0,0,0-.15.81.81,0,0,0,0-.16,1.13,1.13,0,0,0,0-.25,1,1,0,0,0-.06-.2c0-.07-.06-.18-.07-.21v0h0a.7.7,0,0,0,.05.21c0,.1,0,.18.05.24s0,0,0,0a.79.79,0,0,0,0-.13.78.78,0,0,0-.05-.12.89.89,0,0,1-.09-.26l0-.13c0-.07,0-.15,0-.22v0h0l0,.16a.91.91,0,0,0,0,.2.72.72,0,0,0,.1.29,1,1,0,0,1,.09.25c0,.07,0,.11,0,.19v.09a.74.74,0,0,0,0,.12l-.05.14,0,.08h0a.1.1,0,0,0,0,0Zm-.22,0h0l0,0a.38.38,0,0,0,.05-.08l0-.06v0l0-.1A.69.69,0,0,0,1.47,7V7a2.44,2.44,0,0,1,0,.27.19.19,0,0,1,0,.08s0,0,0,0,0,0,0,0a1,1,0,0,0,.07-.18.72.72,0,0,0,0-.25s0-.16,0-.16h0a.76.76,0,0,1,0,.15.68.68,0,0,1,0,.14v0a1,1,0,0,0,0-.25V6.81l0-.12a.5.5,0,0,0,0-.14h0a.72.72,0,0,1,0,.17v.09s0,.08,0,.1a1.65,1.65,0,0,1,0,.21s0,.08,0,.15A.7.7,0,0,1,1.31,7.47Zm0-1.73a1.48,1.48,0,0,1,0,.27.9.9,0,0,0,0,.13v0a0,0,0,0,0,0,0V6a1.48,1.48,0,0,0,0-.2c0-.18,0-.34,0-.46a.92.92,0,0,1,0-.16c0-.06,0-.16,0-.2l0-.1v0a.66.66,0,0,0,0,.14v.28a.46.46,0,0,1,0-.1c0-.07,0-.13,0-.21s0-.15,0-.24a.22.22,0,0,1,0-.08s0,0,0,0a.26.26,0,0,1,0-.08l0-.07.05-.11a1.26,1.26,0,0,0,.07-.16.93.93,0,0,0,.07-.2v0a1.45,1.45,0,0,1-.11.26l-.09.15,0,0v0s0-.1,0-.12a.71.71,0,0,0,0-.14v0c0,.07,0,.16-.05.21a.19.19,0,0,0,0,.08s0,.07,0,.1l0,.12,0,.11s0,.07,0,.1a2.14,2.14,0,0,0-.06.35h0a.13.13,0,0,1,0-.06.49.49,0,0,1,0-.11V5.07a1.55,1.55,0,0,0,0-.18.58.58,0,0,1,0-.16v0a.2.2,0,0,0,0,0s0,.11,0,.19a.91.91,0,0,0,0,.33.11.11,0,0,1,0,0s0,.14,0,.18a.17.17,0,0,1,0,.08C1.27,5.66,1.27,5.69,1.28,5.74Zm0-.81v0a.61.61,0,0,1,.06-.21.63.63,0,0,0,.06-.2s0-.1,0-.1h0a.2.2,0,0,0,0,0,.34.34,0,0,1,0,.08v0a.17.17,0,0,0,0,.05.43.43,0,0,1,0,.1.74.74,0,0,0,0,.15h0A0,0,0,0,0,1.26,4.93Zm-.09.48c0,.06,0,.09,0,.19a.58.58,0,0,0,0,.15s0,.06,0,.09a.91.91,0,0,0,0,.12s0,0,0,0V5.9a.94.94,0,0,1,0-.25.7.7,0,0,0,0-.23.43.43,0,0,0,0,0h0A.12.12,0,0,1,1.17,5.41Zm.12-2.15s0,0,0,0l0,.06h0a.36.36,0,0,1,.11-.17l.15-.14s0,0,0,0l-.15.24a.27.27,0,0,1-.06.1l0,.07h0l0,0,.08-.08.06,0a.44.44,0,0,1,.1-.08l.06,0h0l-.15.18-.16.22a.3.3,0,0,1-.05.07.87.87,0,0,0-.09.11A2,2,0,0,0,1,4.05L1,4.2c0,.06,0,.12,0,.12h0A1.26,1.26,0,0,1,1,4.16a1.67,1.67,0,0,1,.12-.23l.09-.14,0,.08A1,1,0,0,0,1.09,4l0,0A.53.53,0,0,0,1,4.2a.6.6,0,0,0,0,.12v0H1v0s0,0,0,0a.62.62,0,0,1,0-.1v0a.56.56,0,0,0,0,.07v.12a.83.83,0,0,0,0,.35v0a.61.61,0,0,1,0-.14,1.41,1.41,0,0,1,0-.18h0a.65.65,0,0,0,0,.11.19.19,0,0,0,0,.07s0,0,0,.06,0,.09,0,.13a1.42,1.42,0,0,1,0,.19h0V5a.85.85,0,0,0,0-.27V4.6a.38.38,0,0,1,0-.12l0-.05a.26.26,0,0,1,.05-.12.61.61,0,0,1,.16-.21L1.46,4l.11-.1.06-.06h0l-.08.06a1.29,1.29,0,0,0-.23.2.54.54,0,0,0-.11.14v0a.51.51,0,0,1,0-.09A.65.65,0,0,1,1.3,4a.8.8,0,0,1,.16-.15,2.8,2.8,0,0,0,.25-.21,1,1,0,0,0,.09-.15.42.42,0,0,0,.05-.1h0L1.8,3.5a.83.83,0,0,1-.13.14l0,0-.18.16A.91.91,0,0,0,1.28,4V4l0-.07a.31.31,0,0,1,.05-.09.09.09,0,0,1,0,0,1.86,1.86,0,0,1,.17-.24l.2-.19A.75.75,0,0,0,2,3a1.24,1.24,0,0,0,0-.16h0A.51.51,0,0,1,2,3a.3.3,0,0,1-.07.11l0,.05a.81.81,0,0,1-.14.16l-.12.12,0,0,0-.07.06-.09,0-.06v0a.58.58,0,0,1-.1.12l-.11.13,0,0a1,1,0,0,0-.18.28s0,0,0,0L1.23,4a.25.25,0,0,0,0,.09,1.25,1.25,0,0,0-.07.31.1.1,0,0,0,0,0,.64.64,0,0,1,0-.14l0-.09a1.14,1.14,0,0,1,.12-.37.93.93,0,0,1,.14-.25,1.73,1.73,0,0,1,.22-.27L1.83,3l.07-.11,0,0L1.81,3l-.07.07s0,0-.05.05a.94.94,0,0,0-.18.14l-.11.09,0,0,0,0,0,0a.8.8,0,0,1,.15-.17l.07-.06.07-.06.12-.14,0,0-.12.1-.09.07,0,0h0a.28.28,0,0,0,.06-.09s.06-.1.08-.11h0L1.58,3,1.52,3a1.35,1.35,0,0,0-.12.12l0,0L1.48,3a0,0,0,0,0,0,0L1.43,3l-.05.07A1,1,0,0,0,1.29,3.26ZM2,2s0,0,0,0H2l0,0a.41.41,0,0,0-.11.12l-.06.06a1.14,1.14,0,0,0-.11.11s0,.06-.08.11a1.08,1.08,0,0,0-.11.21s0,.08,0,.07v0s0-.06,0-.07v0a.42.42,0,0,1,.05-.12.54.54,0,0,1,.12-.15l0,0a.37.37,0,0,0-.09.09l-.1.13a.75.75,0,0,0-.05.16.88.88,0,0,0,0,.17.69.69,0,0,1,0,.13V3h0V3s0,0,0,0l0,0h0l.14-.1.11-.08.22-.09.14,0h.09a1.55,1.55,0,0,0,.45-.21.44.44,0,0,0,.14-.13l.14-.14a.07.07,0,0,0,0,0h0l0,0-.13.1a1,1,0,0,1-.21.16l-.18,0H2l.16,0a.82.82,0,0,0,.26-.1l.06,0,.06,0,.13-.06h0l-.08,0-.09,0-.06,0-.11,0-.24.08-.16.05a.86.86,0,0,0-.23.13l-.13.13s0,0,0,0a.07.07,0,0,1,0,0,.62.62,0,0,1,.21-.16l.14-.05.19,0h.21l-.1,0-.17.06-.14,0-.11,0h0l0,0,.1-.06,0,0-.16.07-.11.05-.11.1-.13.11h0s0,0,0,0a.85.85,0,0,0,.08-.17.31.31,0,0,1,0-.07h0a.37.37,0,0,1-.07.14l0,.05,0,0v0a.62.62,0,0,1,.07-.16l0-.08a1.27,1.27,0,0,1,.14-.21.79.79,0,0,1,.17-.14.15.15,0,0,1,.06,0l0,0,0,0s-.14.15-.16.17,0,0,.06,0a.64.64,0,0,1,.13-.12L2,2.19l.18-.09L2.32,2h0L2.1,2.1l-.2.08h0L2,2.11a1.25,1.25,0,0,1,.35-.17.48.48,0,0,1,.18,0,.8.8,0,0,1,.27,0h0a.58.58,0,0,0-.18,0,.48.48,0,0,0-.17,0l-.12,0A1.59,1.59,0,0,0,2,2.05l0,0,0,0L2,2l.05,0,.13-.08h0l.13,0,.14,0H2.42l-.15,0L2,1.93,1.9,2c-.07.06-.16.14-.16.16l.06,0a.32.32,0,0,1,.09-.08S2,2,2,2ZM2,2.29l.21-.11.12,0,.11,0a.55.55,0,0,1,.21,0h0s-.06,0-.1,0H2.45A1,1,0,0,0,2,2.22a1.11,1.11,0,0,0-.16.12,1.43,1.43,0,0,0-.12.11h0l0,0a.92.92,0,0,0-.14.15v0l0,0a.63.63,0,0,1,.12-.1.76.76,0,0,1,.14-.1L2,2.38l.17-.09a.64.64,0,0,0,.16-.06l.28-.07h0l-.13,0a1.12,1.12,0,0,0-.35.09l-.26.14h0Zm0-.7s0,0-.06.06a.59.59,0,0,0-.08.11.47.47,0,0,0-.06.09A1.1,1.1,0,0,0,1.77,2V2l.06-.12a.33.33,0,0,0,0-.06l0-.08c0-.06.1-.16.12-.18Zm0,0h0l.11-.08.14-.06a.9.9,0,0,1,.24-.07,1.71,1.71,0,0,1,.32,0h0a.74.74,0,0,0-.21,0,.93.93,0,0,0-.39.12.62.62,0,0,0-.19.12l0,0a.75.75,0,0,0-.13.16L1.89,2v0l0-.05c.09-.1.09-.1.12-.12a.82.82,0,0,1,.31-.17.25.25,0,0,1,.12,0h.07a.5.5,0,0,1,.21,0l.12,0s0,0,0,0a.67.67,0,0,0-.22,0,.43.43,0,0,0-.16,0l-.16,0h0l.11-.05a.73.73,0,0,1,.31,0,.87.87,0,0,1,.3,0l.13.07a1.34,1.34,0,0,1,.14.11.85.85,0,0,1,.1.14l.06.08.08.14h0a.14.14,0,0,1,0,.06v0h0a1,1,0,0,0,0-.18.88.88,0,0,0-.17-.26l-.06-.07-.1-.08,0,0-.1-.06a.83.83,0,0,0-.18-.05H2.5a1.19,1.19,0,0,0-.2.08,1,1,0,0,0-.19.13Zm1.33-.53a.65.65,0,0,0-.24-.06H3a1.12,1.12,0,0,0-.36.09,1.41,1.41,0,0,0-.28.15l-.15.13h0l0,0,0,0a1,1,0,0,1,.19-.12.85.85,0,0,1,.35-.09h0l-.15,0-.14.05h0a2.44,2.44,0,0,1,.31-.06h.07a.6.6,0,0,1,.19,0,.86.86,0,0,1,.17,0h0A1,1,0,0,0,3,1.2H3a.82.82,0,0,0-.21,0h-.1l.13,0a1,1,0,0,1,.3,0,.88.88,0,0,1,.21,0,.71.71,0,0,1,.27.09h0A.82.82,0,0,0,3.38,1.11Zm.34,0A1.64,1.64,0,0,0,3.44,1h0a.63.63,0,0,1,.21.1l.08.06.14.11.09.1a1.19,1.19,0,0,1,.15.35,0,0,0,0,0,0,0V1.65a.62.62,0,0,1,0-.1s0,0,0,.05a.3.3,0,0,1,0,.08A.78.78,0,0,1,4.2,2V2a.3.3,0,0,1,0,.12,1,1,0,0,0,0,.11h0l0-.06,0,0A.66.66,0,0,0,4.23,2a.88.88,0,0,0,0-.16.63.63,0,0,0,0-.21l0-.09,0-.05h0l0,.09a.53.53,0,0,1,0,.12v0h0l0-.05A1.08,1.08,0,0,0,4,1.37a.31.31,0,0,0-.1-.1l0-.05ZM4,1.18l-.09-.05h0a.76.76,0,0,1,.2.17,1.21,1.21,0,0,1,.14.2,1.21,1.21,0,0,1,.08.25.6.6,0,0,1,0,.12V1.81a.35.35,0,0,0,0-.23v0l0,0s0,.07,0,.14,0,.08,0,0,0-.05,0-.11a.38.38,0,0,0-.06-.16.53.53,0,0,0-.1-.14l0,0,.08.13,0,.08,0,0L4.18,1.4s0,0,0,0l-.09-.09Zm.62.6a1,1,0,0,0-.18-.34,1.9,1.9,0,0,0-.21-.19l-.09-.06h0l0,0a.85.85,0,0,1,.17.16l0,.06a.27.27,0,0,1,.06.09l0,.11,0,0-.06-.1v0a1.47,1.47,0,0,1,.11.31V2s0,0,0,0,0-.15,0-.19a.71.71,0,0,0,0-.2.1.1,0,0,1,0,0h0a.08.08,0,0,0,0,0,.77.77,0,0,1,.07.16.79.79,0,0,1,0,.13.41.41,0,0,1,0,.11v0s0,0,0,0V1.92A.34.34,0,0,0,4.57,1.78Zm.07.13v0a.62.62,0,0,1,0,.16.1.1,0,0,0,0,0,.12.12,0,0,0,0,0,.24.24,0,0,0,0-.07Zm.05.57-.07-.09,0,0h0s0,0,0,0a.68.68,0,0,1,.13.18s.06.17.08.22A2.1,2.1,0,0,1,4.88,3v0h0V3a2.05,2.05,0,0,0-.08-.28,0,0,0,0,0,0,0l0,.09A1.33,1.33,0,0,1,5,3V3H5s0-.07,0-.1a2,2,0,0,0-.14-.26.6.6,0,0,0-.09-.13Zm0-.12h0a.84.84,0,0,1,.14.23.94.94,0,0,0,0,.09A1.82,1.82,0,0,1,5,3h0s0,0,0,0V3h0V3h.05L5.08,2.8,5,2.57l0,0h0l0,.1c0,.07,0,.19.06.25s0,.06,0,0A1.11,1.11,0,0,0,5,2.68a1,1,0,0,0-.14-.24Zm.42.41a.59.59,0,0,0-.06-.16l0-.08a.84.84,0,0,0-.19-.24h0A.7.7,0,0,1,5,2.47a.17.17,0,0,1,0,.07.71.71,0,0,1,.08.15l0,.07s0,.05,0,.06S5.16,2.83,5.14,2.77Zm.06.14v0s0,0,0,.06V3h0Zm.31.59v0s0,0,0-.11a.29.29,0,0,0-.08-.14l-.06,0-.06,0,0,0-.08,0H5.09A.14.14,0,0,0,5,3.1a.15.15,0,0,0-.07,0l0,0h0l.09,0s0,0,0,0L5,3.18H5s0,0,0,0h.17l-.11,0s0,0,0,0h.16s0,0,0,0h0l0,0h.16l0,0,0,0h.09v0s0,.05,0,.06h0l0,0v0s0,.06,0,.1,0,0,0,0h0v0h0a.1.1,0,0,1,0,0,.19.19,0,0,0,0,.08s0,0,0,0v0h0l0,.06h0Zm.15.13,0-.11a.17.17,0,0,0-.06-.06s0,0,0,0a.33.33,0,0,1,.06.1.17.17,0,0,1,0,.05l0,0,0,0h0a.13.13,0,0,1,0,.06l0,.09v0h0v0h0v0h0l.06.11h0v0h0l0,0s0,0,0,0l0,.07,0,0s0,0,0,0h0s-.06,0-.06,0v0h0V4s0,.06,0,.06h0l.05,0h0l0,0h0a.07.07,0,0,0,0,0h.11l0,0-.07.08,0,0s0,0,0,0h0l0,0h0l0,0,0,0v0h0l.06,0a.12.12,0,0,0,0-.13V4l0,0a.22.22,0,0,0,.09-.07.08.08,0,0,0,0-.07.41.41,0,0,0,0-.09A.58.58,0,0,1,5.66,3.63Z"/><path class="cls-2" d="M2.32,4.89v0a.2.2,0,0,1,0,0l0,0h0l0,0a.2.2,0,0,1,0-.06h0a.13.13,0,0,0,0,.07c0,.09,0,.12,0,.14s0,.09,0,.1h0V5c0-.06,0-.07,0-.09S2.34,4.89,2.32,4.89Z"/><path class="cls-2" d="M2.57,5h.05s0,0,0-.06V4.83a.18.18,0,0,0,0,.1.2.2,0,0,1,0,.1.15.15,0,0,1,0,.06.37.37,0,0,1,0,.11h0v0a.7.7,0,0,0,0-.14V5h-.1V5Z"/><path class="cls-2" d="M3,4.83l.08,0h0s0,0,0,0a.25.25,0,0,0,0,.12s0,0,0,0a.41.41,0,0,1,0-.1h0l0,0,0,0,0,0v0Z"/><path class="cls-2" d="M3.09,5.1s.08,0,.09.08a.27.27,0,0,1-.05.14h0a.19.19,0,0,0,0-.08.08.08,0,0,0,0-.07H3.07s0,0,0,0S3.06,5.1,3.09,5.1Z"/><path class="cls-2" d="M2.83,4.76l-.09,0H2.58l-.12,0H2.31v0s0,0,0,.07S2.3,5,2.3,5h0a.36.36,0,0,0,0-.11l0,0s0,0,0,0v0h0a.44.44,0,0,0,.19,0l.06,0h0l0,0s0,0,0,0a.23.23,0,0,0,.11,0,.27.27,0,0,0,.17,0s0,0,0,0h0l.08,0,0,0,.14,0H3l-.12-.07,0,0v0s0,0,0,0v0l0,0L2.8,4.54h0l0,0,0,0,0,0,.05,0H3V4.6a.11.11,0,0,1,0,0v0a.15.15,0,0,0,0,.06v.06h0l.06,0v0s0,0,0,0,0-.08,0-.09h0s0,.1,0,.11v0a.11.11,0,0,0,0,0,.15.15,0,0,1,0,.07v0a0,0,0,0,0,0,0h0v0s0-.06,0-.09H2.83Zm-.55,0h0S2.3,4.77,2.28,4.77Z"/><path class="cls-2" d="M2.9,4.91h0v0a.06.06,0,0,1,0-.06v0a.28.28,0,0,1,0,.11.31.31,0,0,1,0,.1h0V5a.38.38,0,0,0,0-.08l0,0h0V5l0,0Z"/><path class="cls-2" d="M2.74,5h0v0a.2.2,0,0,1,0-.11s0,0,0,0v0a.26.26,0,0,0,0,.08s0,0,0,.06v.09s0,0,0,.06h0v0a.58.58,0,0,0,0-.1l0,0H2.71V5h0Z"/><path class="cls-2" d="M2.14,4.27a.06.06,0,0,1-.07,0s0,0,0,0a.05.05,0,0,1,.09,0A.05.05,0,0,1,2.14,4.27Z"/><path class="cls-2" d="M2.05,4.14s0,0,0,0,0,0,.05,0A0,0,0,0,1,2.05,4.14Z"/><path class="cls-2" d="M2,4.06s0,0,0,0,0,0,0,0Z"/><path class="cls-2" d="M2.58,3.16h0l0-.08A.44.44,0,0,0,2.47,3L2.4,2.91l0,0s0,0,0-.05a.06.06,0,0,1,.07,0,.56.56,0,0,1,.13.22l0,.07Z"/><path class="cls-2" d="M2.17,4.77h0l0,0h0v0h.08V4.6h0a.1.1,0,0,1,0,0s0,0,0,.07a.41.41,0,0,1,0,.11s0,.05,0,.07h0a.31.31,0,0,0,0-.09Z"/><path class="cls-2" d="M2.46,5.39h0S2.47,5.39,2.46,5.39Z"/><path class="cls-2" d="M2,4.74v0a.08.08,0,0,0,0-.07L1.93,4.6h0l0,0s0,0,0,0,0,.11.06.11,0,0,0,0l0,0h0s0,0,0,0H2a.08.08,0,0,1,0,.09v0l0,0h0a.05.05,0,0,1,0,0,.12.12,0,0,1,0-.1.15.15,0,0,1,0-.07l0,0H2l0,0,0,0H2v0H2a.24.24,0,0,1,0,.12Z"/><path class="cls-2" d="M2.09,4.68c0,.08,0,.09,0,.11h0a.13.13,0,0,1,0-.06s0,0,0,0l0,0h0v0a.25.25,0,0,1,0-.07h0Z"/><polygon class="cls-2" points="2.92 1.43 2.91 1.43 2.91 1.43 2.92 1.43"/><path class="cls-2" d="M2.9,5.37s0,0,0,0,0,0,0,0Z"/><path class="cls-2" d="M3,5.43s0,0,0,0H3A0,0,0,0,1,3,5.43Z"/><polygon class="cls-2" points="4.59 3.31 4.6 3.31 4.6 3.31 4.59 3.31"/><path class="cls-2" d="M2.67,5.3s0,0,0,0h0v0Z"/><path class="cls-2" d="M2.53,5.32h0s0,0,0,0S2.53,5.33,2.53,5.32Z"/><path class="cls-2" d="M2.78,5.31h0s0,0,0,0Z"/><path class="cls-2" d="M2.28,3.94,2.21,4h0s0,0,0,0,0,0,.06,0a.66.66,0,0,0,.19-.09h0A1,1,0,0,1,2.28,3.94Z"/><path class="cls-2" d="M2.38,4.44a0,0,0,0,1,0,0V4.5s0,0,0,0,0,0,0,0Z"/><path class="cls-2" d="M2.35,4.2a.19.19,0,0,1,0-.08.11.11,0,0,1,0-.06s0-.07,0-.09h0a.15.15,0,0,1,0,.08.28.28,0,0,0,0,.11s0,0,.05.08l0,.06h0l0,0C2.38,4.25,2.36,4.23,2.35,4.2Z"/><path class="cls-2" d="M2.48,4.48s0,0,0,0v0s0,0,0,0v.08S2.49,4.48,2.48,4.48Z"/><path class="cls-2" d="M2.66,3.35s0,.07,0,.12,0,.09,0,.11h0a0,0,0,0,1,0,0,0,0,0,0,1,0,0,.29.29,0,0,0,0-.14Z"/><path class="cls-2" d="M2.76,3.74v0l0,.06v.05l0,.07a.23.23,0,0,1,0,.09l0,0v0a.24.24,0,0,1,0,.08.11.11,0,0,1-.09.07H2.73l0,0s0-.07,0-.1,0,0,0,0,0,0,0,0a.14.14,0,0,0,0,.07s0,0,0,.05,0,0,0,0,0,0,0,0-.07,0-.08-.06v0a.09.09,0,0,1,0,0,.14.14,0,0,1,0-.06l.05-.13a1.28,1.28,0,0,0,.07-.22s0-.07,0-.07h0s0,0,0,.05v0s0,0,0,0,0,0,0,0h0a.15.15,0,0,1,0,.08A.07.07,0,0,0,2.76,3.74Zm-.18,0a2,2,0,0,1-.12.34l0,.06s0,0,0,0a0,0,0,0,0,0,0l0,0h0s0,0,0,0,0,0,0-.08a.69.69,0,0,1,0-.15.42.42,0,0,0,0-.12.4.4,0,0,0,0-.15Zm.15.5,0-.06c0-.07,0-.1-.06-.1s0,0,0,0h0l0,.07h0l0,.08S2.75,4.24,2.73,4.22Z"/><path class="cls-2" d="M2.68,3.28a.1.1,0,0,0,0,0h0v0a.92.92,0,0,0,0-.16V3.06a.72.72,0,0,1,0-.13V2.82s0,.08,0,.12V3a.48.48,0,0,1,0,.17A.45.45,0,0,1,2.68,3.28Z"/><path class="cls-2" d="M2.37,4.7s0,0,0-.07h0l0,0,0,0h0v0l.06,0h0l0,0,0,0,0,0a.11.11,0,0,0,0,.06h0Z"/><path class="cls-2" d="M2.3,4.7v0h0s0,0,0,0h0l0,0,0,0h0v0s0,0,0,0l0,0h0v0a.62.62,0,0,1,0-.13v0a.16.16,0,0,0,0,.07S2.3,4.65,2.3,4.7Z"/><path class="cls-2" d="M2.86,4.29a.25.25,0,0,1,0-.08.19.19,0,0,0,0-.1.36.36,0,0,0,0-.11l-.05-.1s0,0,0,0A.64.64,0,0,0,2.92,4,.25.25,0,0,1,3,4.13s0,0,0,0a.15.15,0,0,1,0,.07l0,0h0Z"/><path class="cls-2" d="M2.3,4.1a.28.28,0,0,0-.08.15.12.12,0,0,0,0,.09,0,0,0,0,0,.06,0h0s0,0,0,0h0v0s.06,0,.06,0,0,0,0,0,0,0,0,0h0l0,0a.18.18,0,0,1,0-.1.23.23,0,0,1,0-.11l.09-.11a.74.74,0,0,0,.14-.17s0,0,0,0A1.44,1.44,0,0,1,2.3,4.1Z"/><path class="cls-2" d="M2.51,4.54h0v0a.2.2,0,0,1,0-.06v0h.29a0,0,0,0,1,0,0,.14.14,0,0,0,0,.06s0,0,0,0,0,0,0-.06H2.61a.15.15,0,0,0,0,.07h0s0,0,0,0V4.56h0Z"/><path class="cls-2" d="M2.58,4.46s0-.09,0-.11a.2.2,0,0,0,0-.09v0a.45.45,0,0,1,0,.14c0,.06,0,.08,0,.09S2.58,4.48,2.58,4.46Z"/><path class="cls-2" d="M2.74,4.48s0,0,0-.13v0s0,.06,0,.09a.13.13,0,0,1,0,.05Z"/><path class="cls-3" d="M.92.54h0a.27.27,0,0,1,.12,0s0,0,0,0l0,0L1.2.71a.83.83,0,0,1,0,.12V.89l0,0h0l0,0a.08.08,0,0,0,0,0,.34.34,0,0,1,0,.13.23.23,0,0,1,0,.1.1.1,0,0,1-.05.06s0,0,0,0a.3.3,0,0,1-.18.06h0l.06,0,.07,0h0l.05,0h0l.07,0a.16.16,0,0,1-.05.08s0,.05-.07.05A.17.17,0,0,1,1,1.54l-.08,0-.05,0h0L.75,1.48a.08.08,0,0,0,0,0,.08.08,0,0,1,0,0l0,0h0a.27.27,0,0,1-.18-.13.2.2,0,0,1,0-.08.19.19,0,0,1,0-.08A.34.34,0,0,1,.6,1l0,0,0,0h0a.09.09,0,0,0,0,0,.35.35,0,0,0,0-.06l0-.11,0-.07L.75.59l.06,0ZM.85.9h0A0,0,0,0,0,.9.93h0s0,0,0,0a1.63,1.63,0,0,0,0,.24,0,0,0,0,1,0,0,.07.07,0,0,0,.06,0h0A.06.06,0,0,0,1,1.22a.22.22,0,0,0,0-.09V1A.1.1,0,0,0,1,.94h0L1,.91H1A.73.73,0,0,0,1,.69a.06.06,0,0,0-.06,0A.05.05,0,0,0,.87.7a.14.14,0,0,0,0,.07Z"/><path class="cls-3" d="M5.8,8.81h0a.27.27,0,0,1-.12,0l0,0,0,0s0,0-.05-.07a.59.59,0,0,1,0-.13v0l0,0h0l0,0a.08.08,0,0,0,0,0,1.15,1.15,0,0,1,0-.14l0-.09s0,0,.05-.06l0,0A.27.27,0,0,1,5.78,8h0l0,0-.08,0h0a0,0,0,0,0,0,0h0l-.07,0a.36.36,0,0,1,0-.09.12.12,0,0,1,.08,0,.19.19,0,0,1,.1,0,.16.16,0,0,0,.09,0l0,0h0l.07,0a0,0,0,0,1,0,0l0,0,0,0h0a.36.36,0,0,1,.19.13s0,.05,0,.08,0,.05,0,.09a.34.34,0,0,1,0,.09l0,0,0,0h0a.05.05,0,0,0,0,0s0,0,0,.05a.83.83,0,0,1,0,.12l0,.07L6,8.76l0,0Zm.07-.37h0l0,0h0l0,0a1.44,1.44,0,0,0,0-.24,0,0,0,0,0,0,0,.05.05,0,0,0,0,0h0a.06.06,0,0,0-.06.05.2.2,0,0,0,0,.09v.15a.1.1,0,0,0,0,0h0l-.06,0h0a.38.38,0,0,0,0,.2.05.05,0,0,0,0,0,.05.05,0,0,0,.06,0,.17.17,0,0,0,0-.07A.57.57,0,0,0,5.87,8.44Z"/><path class="cls-3" d="M1,1.83l0,0,0,0a.19.19,0,0,0-.31.23c.09.12.27.13.33.33h0c.06-.2.24-.21.32-.33A.19.19,0,0,0,1,1.83Z"/><path class="cls-3" d="M5.77,7.53l0,0v0a.19.19,0,0,1-.31-.23c.08-.12.26-.13.32-.33h0c.06.2.24.21.33.33S5.91,7.73,5.77,7.53Z"/></g></g></svg>